<svg width="110" height="110" viewBox="0 0 110 110" fill="none" xmlns="http://www.w3.org/2000/svg">
<g clip-path="url(#clip0_156_429)">
<path d="M80.0293 1.61133H29.9707C26.4111 1.61133 23.5254 4.49699 23.5254 8.05664V101.943C23.5254 105.503 26.4111 108.389 29.9707 108.389H80.0293C83.5889 108.389 86.4746 105.503 86.4746 101.943V8.05664C86.4746 4.49699 83.5889 1.61133 80.0293 1.61133Z" fill="#FF6600"/>
<path d="M80.0293 1.61133H70.3613C72.0707 1.61133 73.7101 2.29039 74.9189 3.49912C76.1276 4.70785 76.8066 6.34724 76.8066 8.05664V101.943C76.8066 103.653 76.1276 105.292 74.9189 106.501C73.7101 107.71 72.0707 108.389 70.3613 108.389H80.0293C81.7387 108.389 83.3781 107.71 84.5868 106.501C85.7956 105.292 86.4746 103.653 86.4746 101.943V8.05664C86.4746 6.34724 85.7956 4.70785 84.5868 3.49912C83.3781 2.29039 81.7387 1.61133 80.0293 1.61133Z" fill="#FF6600"/>
<path d="M86.4746 14.502H23.5254V89.0527H86.4746V14.502Z" fill="#F7F3F0"/>
<path d="M86.4746 14.502H76.8066V89.0527H86.4746V14.502Z" fill="white"/>
<path d="M55 101.943C56.7798 101.943 58.2227 100.501 58.2227 98.7207C58.2227 96.9409 56.7798 95.498 55 95.498C53.2202 95.498 51.7773 96.9409 51.7773 98.7207C51.7773 100.501 53.2202 101.943 55 101.943Z" fill="white"/>
<path d="M42.7515 49.6271L50.7285 56.586C50.9336 56.7649 51.0768 57.0042 51.1376 57.2695C51.1983 57.5348 51.1736 57.8126 51.0668 58.063L44.0303 74.5647C43.916 74.8326 43.8959 75.1313 43.9731 75.4121C44.0503 75.6929 44.2203 75.9393 44.4555 76.1111C44.6906 76.283 44.977 76.3701 45.268 76.3584C45.559 76.3466 45.8375 76.2367 46.058 76.0465L67.2496 57.7671C67.3833 57.6517 67.4919 57.5102 67.5686 57.3511C67.6454 57.1921 67.6886 57.019 67.6957 56.8426C67.7028 56.6661 67.6735 56.4901 67.6097 56.3254C67.546 56.1608 67.4491 56.011 67.325 55.8853L58.471 46.9168C58.2951 46.7386 58.1749 46.5131 58.125 46.2677C58.0752 46.0224 58.0979 45.7678 58.1904 45.5351L64.5188 29.6088C64.6282 29.3337 64.6395 29.0293 64.5508 28.7468C64.4622 28.4643 64.279 28.221 64.032 28.0576C63.7851 27.8943 63.4894 27.821 63.1948 27.8499C62.9001 27.8789 62.6244 28.0084 62.414 28.2167L42.692 47.7396C42.5661 47.8643 42.4672 48.0136 42.4016 48.1782C42.3359 48.3428 42.3049 48.5192 42.3105 48.6963C42.3161 48.8734 42.3581 49.0475 42.434 49.2077C42.5099 49.3678 42.618 49.5106 42.7515 49.6271Z" fill="#F9A242"/>
<path d="M67.325 55.8853L58.471 46.9168C58.2951 46.7386 58.1749 46.5131 58.125 46.2677C58.0752 46.0224 58.0979 45.7678 58.1903 45.5351L64.5188 29.6089C64.6282 29.3337 64.6395 29.0293 64.5508 28.7468C64.4622 28.4643 64.279 28.221 64.032 28.0576C63.7851 27.8943 63.4894 27.821 63.1948 27.8499C62.9001 27.8789 62.6244 28.0084 62.414 28.2167L56.171 34.3967L51.745 45.5351C51.6526 45.7678 51.6299 46.0224 51.6797 46.2677C51.7296 46.5131 51.8498 46.7386 52.0256 46.9168L60.8797 55.8853C61.0037 56.011 61.1006 56.1608 61.1644 56.3254C61.2282 56.4901 61.2574 56.6661 61.2504 56.8426C61.2433 57.019 61.2001 57.1921 61.1233 57.3511C61.0466 57.5102 60.938 57.6517 60.8043 57.7671L45.6011 70.881L44.0303 74.5647C43.916 74.8326 43.8959 75.1313 43.9731 75.4121C44.0503 75.6929 44.2203 75.9393 44.4555 76.1112C44.6906 76.283 44.977 76.3701 45.268 76.3584C45.559 76.3466 45.8375 76.2367 46.058 76.0465L67.2496 57.7671C67.3833 57.6517 67.4919 57.5102 67.5686 57.3511C67.6454 57.1921 67.6886 57.019 67.6957 56.8426C67.7027 56.6661 67.6735 56.4901 67.6097 56.3254C67.5459 56.1608 67.449 56.011 67.325 55.8853Z" fill="#F48A31"/>
<path d="M55 103.555C55.9561 103.555 56.8907 103.271 57.6856 102.74C58.4806 102.209 59.1001 101.454 59.466 100.571C59.8319 99.6873 59.9276 98.7153 59.7411 97.7776C59.5546 96.8399 59.0942 95.9786 58.4181 95.3026C57.7421 94.6265 56.8808 94.1661 55.9431 93.9796C55.0054 93.7931 54.0334 93.8888 53.1501 94.2547C52.2668 94.6206 51.5119 95.2401 50.9807 96.0351C50.4495 96.83 50.166 97.7646 50.166 98.7207C50.1675 100.002 50.6772 101.231 51.5835 102.137C52.4897 103.043 53.7184 103.553 55 103.555ZM55 97.1094C55.3187 97.1094 55.6302 97.2039 55.8952 97.3809C56.1602 97.558 56.3667 97.8097 56.4887 98.1041C56.6106 98.3985 56.6425 98.7225 56.5804 99.0351C56.5182 99.3476 56.3647 99.6347 56.1394 99.8601C55.914 100.085 55.6269 100.239 55.3144 100.301C55.0018 100.363 54.6778 100.331 54.3834 100.209C54.0889 100.087 53.8373 99.8809 53.6602 99.6159C53.4832 99.3509 53.3887 99.0394 53.3887 98.7207C53.3891 98.2935 53.5591 97.8839 53.8611 97.5818C54.1632 97.2798 54.5728 97.1098 55 97.1094ZM80.0293 0H29.9707C27.8347 0.00240366 25.7868 0.851998 24.2765 2.36239C22.7661 3.87278 21.9165 5.92062 21.9141 8.05664V101.943C21.9165 104.079 22.7661 106.127 24.2765 107.638C25.7868 109.148 27.8347 109.998 29.9707 110H80.0293C82.1653 109.998 84.2132 109.148 85.7235 107.638C87.2339 106.127 88.0835 104.079 88.0859 101.943V8.05664C88.0835 5.92062 87.2339 3.87278 85.7235 2.36239C84.2132 0.851997 82.1653 0.00240309 80.0293 0ZM84.8633 101.943C84.8618 103.225 84.3521 104.454 83.4458 105.36C82.5396 106.266 81.3109 106.776 80.0293 106.777H29.9707C28.6891 106.776 27.4604 106.266 26.5541 105.36C25.6479 104.454 25.1382 103.225 25.1367 101.943V90.6641H84.8633V101.943ZM84.8633 87.4414H25.1367V16.1133H84.8633V87.4414ZM84.8633 12.8906H25.1367V8.05664C25.1382 6.77503 25.6479 5.54632 26.5541 4.64008C27.4604 3.73385 28.6891 3.22409 29.9707 3.22266H80.0293C81.3109 3.22411 82.5396 3.73387 83.4458 4.6401C84.3521 5.54634 84.8618 6.77503 84.8633 8.05664V12.8906ZM59.2641 6.44531H50.7359C50.3085 6.44531 49.8987 6.61508 49.5965 6.91726C49.2943 7.21944 49.1245 7.62929 49.1245 8.05664C49.1245 8.48399 49.2943 8.89384 49.5965 9.19602C49.8987 9.4982 50.3085 9.66797 50.7359 9.66797H59.2641C59.6915 9.66797 60.1013 9.4982 60.4035 9.19602C60.7057 8.89384 60.8755 8.48399 60.8755 8.05664C60.8755 7.62929 60.7057 7.21944 60.4035 6.91726C60.1013 6.61508 59.6915 6.44531 59.2641 6.44531ZM41.6922 50.8413L41.6923 50.8414L49.4928 57.6463L42.5481 73.9327C42.2821 74.5341 42.232 75.2089 42.4063 75.8429C42.5807 76.477 42.9687 77.0313 43.5048 77.4122C44.0305 77.8072 44.6766 78.0084 45.3336 77.9819C45.9906 77.9553 46.6183 77.7026 47.1105 77.2665L68.3023 58.9871C68.6031 58.7276 68.8474 58.409 69.02 58.0512C69.1926 57.6934 69.2899 57.3039 69.3058 56.9069C69.3217 56.51 69.2558 56.1139 69.1123 55.7435C68.9688 55.373 68.7507 55.036 68.4716 54.7533L59.7656 45.9344L66.0162 30.2038C66.2622 29.5847 66.2876 28.8999 66.0881 28.2643C65.8887 27.6287 65.4765 27.0811 64.9209 26.7136C64.3652 26.3461 63.7 26.1811 63.0371 26.2463C62.3741 26.3115 61.7538 26.6029 61.2804 27.0716L41.5584 46.5945C41.2751 46.875 41.0526 47.2109 40.9049 47.5813C40.7572 47.9516 40.6874 48.3485 40.7 48.747C40.7125 49.1455 40.8071 49.5372 40.9778 49.8975C41.1485 50.2579 41.3917 50.5792 41.6922 50.8413H41.6922ZM62.4522 30.4462L56.6927 44.9403C56.4848 45.4638 56.4339 46.0366 56.5461 46.5885C56.6583 47.1405 56.9287 47.6479 57.3245 48.0488L65.9363 56.7721L46.0573 73.9191L52.549 58.695C52.7904 58.1319 52.8467 57.5066 52.7099 56.9093C52.5731 56.3121 52.2502 55.7736 51.7877 55.3717L44.072 48.6408L62.4522 30.4462Z" fill="#FF6600"/>
</g>
<defs>
<clipPath id="clip0_156_429">
<rect width="110" height="110" fill="white"/>
</clipPath>
</defs>
</svg>
