<svg width="196" height="66" viewBox="0 0 196 66" fill="none" xmlns="http://www.w3.org/2000/svg">
<path d="M179.576 0.109434H15.5464C14.9485 0.109434 14.3578 0.109434 13.7614 0.112695C13.2623 0.115956 12.7671 0.12543 12.2631 0.133403C11.1682 0.146287 10.0759 0.242608 8.99569 0.421531C7.91699 0.604348 6.87207 0.94901 5.89629 1.44386C4.9217 1.9429 4.03119 2.59135 3.25706 3.36568C2.47887 4.13784 1.83019 5.03034 1.33596 6.00889C0.840366 6.98548 0.49672 8.03199 0.31689 9.11227C0.13535 10.1912 0.0376622 11.2825 0.0247022 12.3766C0.0095711 12.8765 0.0079732 13.378 0 13.878V51.5661C0.0079732 52.0724 0.0095711 52.5628 0.0247022 53.0693C0.0376661 54.1632 0.135354 55.2545 0.31689 56.3334C0.496223 57.4143 0.83989 58.4614 1.33596 59.4384C1.82996 60.4137 2.47874 61.3026 3.25706 62.0705C4.02825 62.8483 4.91934 63.4972 5.89629 63.9924C6.87206 64.4886 7.91687 64.8353 8.99569 65.0209C10.0761 65.1984 11.1683 65.2948 12.2631 65.3092C12.7671 65.3203 13.2623 65.3266 13.7614 65.3266C14.3577 65.3299 14.9485 65.3299 15.5464 65.3299H179.576C180.162 65.3299 180.757 65.3299 181.343 65.3266C181.84 65.3266 182.35 65.3203 182.847 65.3092C183.939 65.2955 185.029 65.1992 186.108 65.0209C187.19 64.834 188.239 64.4873 189.219 63.9924C190.195 63.4969 191.085 62.848 191.856 62.0705C192.632 61.2996 193.282 60.4114 193.782 59.4384C194.275 58.4607 194.615 57.4137 194.792 56.3334C194.974 55.2544 195.075 54.1633 195.095 53.0693C195.101 52.5628 195.101 52.0724 195.101 51.5661C195.114 50.9737 195.114 50.3846 195.114 49.7826V15.6582C195.114 15.0611 195.114 14.4688 195.101 13.878C195.101 13.378 195.101 12.8765 195.095 12.3765C195.075 11.2824 194.974 10.1913 194.792 9.11221C194.615 8.03255 194.274 6.98612 193.782 6.00882C192.776 4.04744 191.18 2.45089 189.219 1.44371C188.239 0.950073 187.19 0.605502 186.108 0.421384C185.03 0.241673 183.939 0.145318 182.847 0.133175C182.35 0.125218 181.84 0.115663 181.343 0.112483C180.757 0.109222 180.162 0.109222 179.576 0.109222V0.109434Z" fill="#A6A6A6"/>
<path d="M13.7694 63.9032C13.2726 63.9032 12.7878 63.8969 12.2949 63.8858C11.2739 63.8725 10.2552 63.7836 9.24729 63.6198C8.30745 63.458 7.39699 63.1569 6.54596 62.7265C5.70273 62.2997 4.93363 61.74 4.26813 61.0689C3.593 60.4057 3.03093 59.6366 2.60418 58.7919C2.17273 57.9417 1.87414 57.0305 1.71881 56.0898C1.55107 55.0791 1.46032 54.0571 1.44733 53.0326C1.437 52.6887 1.42346 51.5438 1.42346 51.5438V13.8781C1.42346 13.8781 1.43788 12.7507 1.44741 12.4195C1.45985 11.3967 1.55007 10.3762 1.71731 9.36707C1.87293 8.42385 2.17175 7.50995 2.60343 6.657C3.02861 5.8129 3.58757 5.04317 4.25863 4.37762C4.92894 3.70576 5.70049 3.1432 6.54516 2.71047C7.39424 2.28146 8.30297 1.98249 9.24092 1.82357C10.2522 1.65818 11.2744 1.56877 12.299 1.55607L13.7702 1.53616H181.336L182.824 1.55687C183.84 1.56894 184.853 1.65755 185.854 1.82198C186.802 1.98288 187.72 2.28394 188.579 2.71525C190.271 3.58732 191.648 4.96703 192.517 6.66098C192.941 7.50804 193.236 8.41449 193.389 9.34956C193.558 10.367 193.653 11.3954 193.673 12.4267C193.677 12.8884 193.677 13.3844 193.677 13.8781C193.69 14.4895 193.69 15.0715 193.69 15.6582V49.7827C193.69 50.375 193.69 50.9531 193.677 51.5358C193.677 52.066 193.677 52.5518 193.671 53.0517C193.652 54.0645 193.559 55.0746 193.392 56.0738C193.24 57.0213 192.943 57.9397 192.512 58.7968C192.082 59.6323 191.523 60.3948 190.856 61.0562C190.19 61.7309 189.419 62.2938 188.574 62.7234C187.718 63.1571 186.801 63.4593 185.854 63.6198C184.847 63.7845 183.828 63.8734 182.807 63.8858C182.329 63.8969 181.829 63.9032 181.344 63.9032L179.576 63.9065L13.7694 63.9032Z" fill="#0E0D0D"/>
<path d="M40.3859 33.21C40.4034 31.849 40.7649 30.5147 41.4367 29.331C42.1085 28.1473 43.0688 27.1528 44.2283 26.44C43.4917 25.388 42.52 24.5223 41.3904 23.9116C40.2607 23.3009 39.0042 22.962 37.7207 22.9218C34.9826 22.6345 32.3282 24.5602 30.933 24.5602C29.5107 24.5602 27.3625 22.9504 25.0493 22.998C23.553 23.0463 22.0948 23.4814 20.8167 24.2609C19.5385 25.0404 18.4841 26.1377 17.7561 27.4458C14.6027 32.9054 16.9549 40.9293 19.9756 45.3424C21.4869 47.5034 23.2532 49.9173 25.5644 49.8317C27.826 49.7379 28.6707 48.3896 31.4006 48.3896C34.1053 48.3896 34.8977 49.8317 37.2558 49.7773C39.6826 49.7379 41.2116 47.6067 42.6699 45.4252C43.7558 43.8854 44.5914 42.1836 45.1457 40.3828C43.7358 39.7865 42.5326 38.7884 41.6862 37.5128C40.8398 36.2373 40.3875 34.7408 40.3859 33.21Z" fill="white"/>
<path d="M35.9319 20.0194C37.2551 18.431 37.907 16.3893 37.7492 14.3279C35.7276 14.5403 33.8602 15.5064 32.5192 17.034C31.8635 17.7802 31.3613 18.6483 31.0413 19.5888C30.7213 20.5292 30.5898 21.5235 30.6543 22.5147C31.6655 22.5252 32.6658 22.306 33.58 21.8738C34.4941 21.4415 35.2983 20.8075 35.9319 20.0194Z" fill="white"/>
<path d="M68.9742 44.361H61.2564L59.403 49.8337H56.134L63.4442 29.586H66.8406L74.1508 49.8337H70.8261L68.9742 44.361ZM62.0557 41.8356H68.1734L65.1576 32.9537H65.0732L62.0557 41.8356Z" fill="white"/>
<path d="M89.9385 42.4534C89.9385 47.0408 87.4831 49.9881 83.7779 49.9881C82.8393 50.0372 81.9058 49.821 81.0844 49.3642C80.2629 48.9075 79.5867 48.2286 79.1332 47.4054H79.063V54.7172H76.0329V35.0715H78.966V37.5268H79.0217C79.4961 36.7075 80.1837 36.0322 81.0114 35.5726C81.8391 35.1131 82.7759 34.8865 83.7221 34.917C87.4688 34.917 89.9385 37.8787 89.9385 42.4534ZM86.8239 42.4534C86.8239 39.4647 85.2794 37.4997 82.9228 37.4997C80.6076 37.4997 79.0503 39.506 79.0503 42.4534C79.0503 45.4278 80.6076 47.4198 82.9228 47.4198C85.2794 47.4198 86.8239 45.4692 86.8239 42.4534Z" fill="white"/>
<path d="M106.186 42.4534C106.186 47.0408 103.731 49.9881 100.026 49.9881C99.087 50.0372 98.1536 49.821 97.3321 49.3643C96.5107 48.9075 95.8345 48.2286 95.3809 47.4054H95.3108V54.7172H92.2807V35.0715H95.2137V37.5268H95.2694C95.7438 36.7075 96.4314 36.0322 97.2591 35.5727C98.0868 35.1131 99.0236 34.8865 99.9699 34.9171C103.717 34.9171 106.186 37.8787 106.186 42.4534ZM103.072 42.4534C103.072 39.4647 101.527 37.4998 99.1706 37.4998C96.8554 37.4998 95.2981 39.5061 95.2981 42.4534C95.2981 45.4278 96.8554 47.4198 99.1706 47.4198C101.527 47.4198 103.072 45.4692 103.072 42.4534H103.072Z" fill="white"/>
<path d="M116.925 44.1922C117.149 46.2001 119.1 47.5184 121.765 47.5184C124.319 47.5184 126.157 46.2 126.157 44.3895C126.157 42.8179 125.049 41.8769 122.424 41.232L119.8 40.5999C116.082 39.7018 114.356 37.963 114.356 35.1415C114.356 31.648 117.401 29.2484 121.724 29.2484C126.002 29.2484 128.935 31.648 129.034 35.1415H125.975C125.792 33.1208 124.122 31.9012 121.681 31.9012C119.24 31.9012 117.57 33.1352 117.57 34.9313C117.57 36.3628 118.636 37.2051 121.246 37.8499L123.477 38.3977C127.631 39.3801 129.357 41.0489 129.357 44.0105C129.357 47.7986 126.34 50.1711 121.541 50.1711C117.05 50.1711 114.019 47.8543 113.823 44.192L116.925 44.1922Z" fill="white"/>
<path d="M135.897 31.578V35.0715H138.704V37.4711H135.897V45.6093C135.897 46.8736 136.459 47.4628 137.693 47.4628C138.026 47.4569 138.359 47.4335 138.69 47.3926V49.7779C138.135 49.8816 137.571 49.9285 137.007 49.918C134.018 49.918 132.852 48.7955 132.852 45.9325V37.4711H130.706V35.0715H132.852V31.578H135.897Z" fill="white"/>
<path d="M140.33 42.4534C140.33 37.8087 143.065 34.89 147.331 34.89C151.611 34.89 154.334 37.8086 154.334 42.4534C154.334 47.1109 151.626 50.0168 147.331 50.0168C143.038 50.0168 140.33 47.1108 140.33 42.4534ZM151.247 42.4534C151.247 39.2672 149.786 37.3867 147.331 37.3867C144.876 37.3867 143.417 39.2815 143.417 42.4534C143.417 45.6523 144.876 47.5185 147.331 47.5185C149.786 47.5185 151.247 45.6523 151.247 42.4534H151.247Z" fill="white"/>
<path d="M156.832 35.0715H159.722V37.5841H159.793C159.988 36.7994 160.448 36.1059 161.094 35.6202C161.741 35.1345 162.535 34.8862 163.343 34.917C163.693 34.9158 164.041 34.9537 164.382 35.0301V37.8644C163.941 37.7297 163.481 37.6678 163.02 37.6813C162.58 37.6634 162.141 37.741 161.734 37.9088C161.326 38.0765 160.96 38.3305 160.66 38.6531C160.36 38.9758 160.133 39.3595 159.996 39.778C159.858 40.1966 159.813 40.6399 159.863 41.0776V49.8337H156.832L156.832 35.0715Z" fill="white"/>
<path d="M178.352 45.4979C177.945 48.1777 175.335 50.0168 171.996 50.0168C167.701 50.0168 165.036 47.1395 165.036 42.5234C165.036 37.8931 167.716 34.89 171.868 34.89C175.953 34.89 178.521 37.6956 178.521 42.1716V43.2097H168.095V43.3928C168.047 43.9361 168.115 44.4834 168.294 44.9984C168.474 45.5134 168.761 45.9843 169.137 46.3797C169.512 46.7752 169.968 47.0863 170.473 47.2922C170.978 47.4981 171.521 47.5943 172.066 47.5742C172.782 47.6413 173.501 47.4755 174.115 47.1014C174.729 46.7272 175.206 46.1649 175.475 45.4978L178.352 45.4979ZM168.109 41.092H175.489C175.517 40.6035 175.442 40.1146 175.272 39.6561C175.101 39.1976 174.837 38.7793 174.497 38.4275C174.157 38.0757 173.748 37.798 173.296 37.6117C172.844 37.4255 172.358 37.3348 171.868 37.3453C171.375 37.3424 170.886 37.4372 170.429 37.6243C169.973 37.8113 169.558 38.087 169.208 38.4353C168.859 38.7837 168.581 39.1978 168.393 39.6537C168.204 40.1097 168.108 40.5985 168.109 41.092V41.092Z" fill="white"/>
<path d="M61.6759 14.3454C62.3111 14.2998 62.9486 14.3958 63.5423 14.6264C64.136 14.857 64.6711 15.2165 65.109 15.679C65.547 16.1414 65.8768 16.6953 66.0747 17.3007C66.2727 17.906 66.3338 18.5478 66.2537 19.1796C66.2537 22.2878 64.5739 24.0744 61.6759 24.0744H58.1617V14.3454H61.6759ZM59.6728 22.6985H61.5071C61.961 22.7257 62.4153 22.6512 62.8369 22.4807C63.2584 22.3101 63.6366 22.0477 63.944 21.7125C64.2513 21.3773 64.48 20.9778 64.6135 20.5431C64.747 20.1084 64.7818 19.6493 64.7156 19.1995C64.777 18.7513 64.7386 18.2952 64.6031 17.8636C64.4676 17.4321 64.2383 17.0359 63.9317 16.7034C63.625 16.3708 63.2486 16.1103 62.8294 15.9403C62.4103 15.7704 61.9587 15.6952 61.5071 15.7203H59.6728V22.6985Z" fill="white"/>
<path d="M67.9607 20.4001C67.9146 19.9176 67.9698 19.4308 68.1228 18.9709C68.2758 18.5109 68.5232 18.0881 68.8492 17.7294C69.1753 17.3707 69.5726 17.0841 70.0159 16.888C70.4591 16.6919 70.9385 16.5906 71.4232 16.5906C71.9079 16.5906 72.3872 16.6919 72.8305 16.888C73.2738 17.0841 73.6711 17.3707 73.9971 17.7294C74.3231 18.0881 74.5706 18.5109 74.7236 18.9709C74.8766 19.4308 74.9318 19.9176 74.8856 20.4001C74.9327 20.8831 74.8781 21.3706 74.7255 21.8312C74.5729 22.2919 74.3256 22.7155 73.9995 23.0749C73.6735 23.4343 73.2758 23.7215 72.8321 23.918C72.3884 24.1146 71.9085 24.2161 71.4232 24.2161C70.9379 24.2161 70.458 24.1146 70.0143 23.918C69.5706 23.7215 69.1729 23.4343 68.8468 23.0749C68.5207 22.7155 68.2735 22.2919 68.1209 21.8312C67.9682 21.3706 67.9137 20.8831 67.9607 20.4001ZM73.3952 20.4001C73.3952 18.8086 72.6803 17.8779 71.4256 17.8779C70.1661 17.8779 69.4576 18.8086 69.4576 20.4001C69.4576 22.0044 70.1661 22.9279 71.4256 22.9279C72.6803 22.9279 73.3953 21.998 73.3953 20.4001H73.3952Z" fill="white"/>
<path d="M84.0906 24.0743H82.5875L81.07 18.6668H80.9554L79.4443 24.0743H77.9555L75.9317 16.7322H77.4014L78.7166 22.3346H78.8249L80.3344 16.7322H81.7245L83.234 22.3346H83.3486L84.6575 16.7322H86.1065L84.0906 24.0743Z" fill="white"/>
<path d="M87.8087 16.7322H89.2035V17.8986H89.3118C89.4955 17.4797 89.8053 17.1285 90.198 16.894C90.5908 16.6596 91.0469 16.5535 91.5028 16.5905C91.86 16.5637 92.2187 16.6175 92.5523 16.7481C92.8859 16.8787 93.1859 17.0827 93.4299 17.345C93.674 17.6072 93.8559 17.921 93.9622 18.2631C94.0686 18.6052 94.0965 18.9669 94.0441 19.3213V24.0742H92.5951V19.6852C92.5951 18.5053 92.0824 17.9185 91.0108 17.9185C90.7682 17.9072 90.5261 17.9485 90.301 18.0395C90.0759 18.1305 89.8731 18.2692 89.7066 18.4459C89.5401 18.6226 89.4138 18.8333 89.3363 19.0634C89.2588 19.2935 89.2319 19.5376 89.2576 19.7791V24.0743H87.8087L87.8087 16.7322Z" fill="white"/>
<path d="M96.3529 13.8661H97.8019V24.0743H96.3529V13.8661Z" fill="white"/>
<path d="M99.8162 20.4001C99.7701 19.9176 99.8253 19.4307 99.9783 18.9708C100.131 18.5108 100.379 18.088 100.705 17.7293C101.031 17.3706 101.428 17.084 101.872 16.8879C102.315 16.6918 102.794 16.5905 103.279 16.5905C103.764 16.5905 104.243 16.6918 104.686 16.8879C105.13 17.084 105.527 17.3706 105.853 17.7293C106.179 18.088 106.427 18.5108 106.58 18.9708C106.733 19.4307 106.788 19.9176 106.742 20.4001C106.789 20.8831 106.734 21.3706 106.582 21.8313C106.429 22.2919 106.182 22.7155 105.855 23.0749C105.529 23.4343 105.132 23.7215 104.688 23.918C104.244 24.1145 103.764 24.216 103.279 24.216C102.794 24.216 102.314 24.1145 101.87 23.918C101.426 23.7215 101.029 23.4343 100.703 23.0749C100.376 22.7155 100.129 22.2919 99.9764 21.8313C99.8238 21.3706 99.7692 20.8831 99.8162 20.4001ZM105.251 20.4001C105.251 18.8086 104.536 17.8779 103.281 17.8779C102.022 17.8779 101.313 18.8086 101.313 20.4001C101.313 22.0043 102.022 22.9279 103.281 22.9279C104.536 22.9278 105.251 21.998 105.251 20.4001H105.251Z" fill="white"/>
<path d="M108.267 21.998C108.267 20.6764 109.251 19.9145 110.998 19.8062L112.987 19.6915V19.0578C112.987 18.2823 112.474 17.8445 111.484 17.8445C110.675 17.8445 110.114 18.1414 109.954 18.6605H108.551C108.699 17.3994 109.885 16.5905 111.551 16.5905C113.391 16.5905 114.429 17.5069 114.429 19.0578V24.0743H113.035V23.0425H112.92C112.687 23.4126 112.361 23.7144 111.973 23.9169C111.586 24.1194 111.151 24.2155 110.715 24.1953C110.406 24.2274 110.095 24.1945 109.8 24.0988C109.505 24.0031 109.234 23.8467 109.003 23.6396C108.773 23.4326 108.588 23.1796 108.461 22.8968C108.335 22.614 108.268 22.3079 108.267 21.998ZM112.987 21.3706V20.7568L111.194 20.8714C110.183 20.9391 109.724 21.283 109.724 21.9303C109.724 22.5911 110.297 22.9756 111.086 22.9756C111.317 22.999 111.55 22.9757 111.772 22.9071C111.993 22.8384 112.199 22.7259 112.377 22.5761C112.554 22.4264 112.699 22.2425 112.804 22.0354C112.909 21.8283 112.971 21.6022 112.987 21.3706Z" fill="white"/>
<path d="M116.334 20.4001C116.334 18.0801 117.526 16.6104 119.381 16.6104C119.84 16.5893 120.296 16.6992 120.694 16.9273C121.093 17.1554 121.419 17.4923 121.633 17.8985H121.741V13.8661H123.19V24.0743H121.802V22.9143H121.687C121.456 23.3178 121.119 23.6505 120.713 23.8763C120.307 24.1021 119.846 24.2124 119.381 24.1953C117.514 24.1954 116.334 22.7257 116.334 20.4001ZM117.831 20.4001C117.831 21.9574 118.565 22.8944 119.792 22.8944C121.014 22.8944 121.768 21.9439 121.768 20.4065C121.768 18.8763 121.006 17.9121 119.792 17.9121C118.573 17.9121 117.831 18.8556 117.831 20.4001H117.831Z" fill="white"/>
<path d="M129.185 20.4001C129.139 19.9176 129.194 19.4308 129.347 18.9709C129.5 18.5109 129.748 18.0881 130.074 17.7294C130.4 17.3707 130.797 17.0841 131.24 16.888C131.684 16.6919 132.163 16.5906 132.648 16.5906C133.132 16.5906 133.612 16.6919 134.055 16.888C134.498 17.0841 134.896 17.3707 135.222 17.7294C135.548 18.0881 135.795 18.5109 135.948 18.9709C136.101 19.4308 136.156 19.9176 136.11 20.4001C136.157 20.8831 136.103 21.3706 135.95 21.8312C135.798 22.2919 135.55 22.7155 135.224 23.0749C134.898 23.4343 134.5 23.7215 134.057 23.918C133.613 24.1146 133.133 24.2161 132.648 24.2161C132.162 24.2161 131.683 24.1146 131.239 23.918C130.795 23.7215 130.398 23.4343 130.071 23.0749C129.745 22.7155 129.498 22.2919 129.345 21.8312C129.193 21.3706 129.138 20.8831 129.185 20.4001ZM134.62 20.4001C134.62 18.8086 133.905 17.8779 132.65 17.8779C131.391 17.8779 130.682 18.8086 130.682 20.4001C130.682 22.0044 131.391 22.9279 132.65 22.9279C133.905 22.9279 134.62 21.998 134.62 20.4001Z" fill="white"/>
<path d="M138.054 16.7322H139.449V17.8986H139.558C139.741 17.4797 140.051 17.1285 140.444 16.894C140.836 16.6596 141.293 16.5535 141.749 16.5905C142.106 16.5637 142.464 16.6175 142.798 16.7481C143.132 16.8787 143.432 17.0827 143.676 17.345C143.92 17.6072 144.102 17.921 144.208 18.2631C144.314 18.6052 144.342 18.9669 144.29 19.3213V24.0742H142.841V19.6852C142.841 18.5053 142.328 17.9185 141.257 17.9185C141.014 17.9072 140.772 17.9485 140.547 18.0395C140.322 18.1305 140.119 18.2692 139.952 18.4459C139.786 18.6226 139.659 18.8333 139.582 19.0634C139.504 19.2935 139.478 19.5376 139.503 19.7791V24.0743H138.054V16.7322Z" fill="white"/>
<path d="M152.477 14.9043V16.7657H154.068V17.9862H152.477V21.7615C152.477 22.5306 152.794 22.8674 153.516 22.8674C153.7 22.8668 153.885 22.8556 154.068 22.8339V24.0409C153.808 24.0874 153.544 24.1122 153.28 24.1149C151.669 24.1149 151.027 23.5481 151.027 22.1325V17.9861H149.861V16.7656H151.027V14.9043H152.477Z" fill="white"/>
<path d="M156.047 13.8661H157.484V17.9121H157.598C157.791 17.4893 158.109 17.1361 158.51 16.9008C158.91 16.6654 159.374 16.5593 159.837 16.5969C160.192 16.5775 160.548 16.6369 160.877 16.7707C161.207 16.9044 161.503 17.1093 161.745 17.3708C161.986 17.6322 162.167 17.9437 162.275 18.2831C162.382 18.6224 162.413 18.9813 162.365 19.334V24.0743H160.915V19.6915C160.915 18.5188 160.369 17.9248 159.345 17.9248C159.096 17.9044 158.845 17.9387 158.611 18.0252C158.377 18.1117 158.164 18.2483 157.988 18.4256C157.812 18.6029 157.677 18.8166 157.592 19.0516C157.507 19.2866 157.474 19.5373 157.496 19.7862V24.0743H156.047L156.047 13.8661Z" fill="white"/>
<path d="M170.814 22.0919C170.617 22.7629 170.191 23.3433 169.609 23.7317C169.028 24.12 168.328 24.2914 167.633 24.216C167.149 24.2288 166.669 24.1361 166.224 23.9445C165.78 23.7529 165.383 23.4668 165.06 23.1063C164.737 22.7457 164.497 22.3192 164.355 21.8565C164.214 21.3937 164.175 20.9057 164.241 20.4264C164.177 19.9455 164.217 19.4565 164.358 18.9923C164.499 18.5282 164.738 18.0997 165.059 17.736C165.38 17.3723 165.775 17.0818 166.218 16.8841C166.661 16.6865 167.141 16.5864 167.627 16.5905C169.669 16.5905 170.902 17.9862 170.902 20.2918V20.7974H165.717V20.8786C165.695 21.148 165.729 21.4192 165.817 21.6748C165.905 21.9304 166.046 22.1647 166.23 22.3627C166.414 22.5608 166.637 22.7182 166.886 22.8248C167.134 22.9314 167.402 22.9849 167.673 22.9819C168.019 23.0236 168.37 22.9611 168.682 22.8026C168.993 22.6441 169.249 22.3967 169.419 22.0918L170.814 22.0919ZM165.717 19.7257H169.426C169.444 19.4793 169.411 19.2318 169.327 18.9991C169.244 18.7664 169.114 18.5537 168.943 18.3745C168.773 18.1954 168.567 18.0539 168.339 17.959C168.111 17.8642 167.866 17.8181 167.619 17.8238C167.368 17.8206 167.119 17.8677 166.887 17.9621C166.655 18.0566 166.444 18.1966 166.267 18.3739C166.09 18.5511 165.95 18.7621 165.855 18.9942C165.761 19.2264 165.714 19.4751 165.717 19.7257H165.717Z" fill="white"/>
</svg>
