<svg width="100" height="100" viewBox="0 0 100 100" fill="none" xmlns="http://www.w3.org/2000/svg">
<path d="M13.0575 55.6243C13.0324 55.9993 13 56.3704 13 56.7504C13 58.2018 13.1975 59.6042 13.5313 60.9541C14.4113 59.6254 15.3811 58.3692 16.4314 57.1891C15.4666 56.3995 14.3148 55.8493 13.0575 55.6244L13.0575 55.6243Z" fill="#FF6600"/>
<path d="M23.497 51.1486C25.0405 50.1597 26.6683 49.306 28.3547 48.5772C28.1231 47.8919 27.9992 47.1609 27.9992 46.4036C27.9992 43.8289 29.4306 41.5124 31.7342 40.36L33.4239 39.5151C32.4702 39.3533 31.4982 39.2495 30.4992 39.2495C26.3256 39.2495 22.4931 40.7222 19.4819 43.1697L23.1404 50.4872C23.2531 50.711 23.3792 50.927 23.4969 51.1485L23.497 51.1486Z" fill="#FF6600"/>
<path d="M21.4344 52.5871C21.2569 52.2607 21.0717 51.9381 20.9054 51.6044L17.5918 44.9756C15.5271 47.2379 14.0354 50.0309 13.3804 53.1369C15.1739 53.4343 16.8089 54.2328 18.1594 55.3807C19.1923 54.3807 20.2861 53.4471 21.4345 52.5871L21.4344 52.5871Z" fill="#FF6600"/>
<path d="M40.1159 48.3343C37.3932 48.4704 34.7287 48.9682 32.1807 49.788C32.578 50.0893 33.0294 50.3304 33.5317 50.4816C39.1444 52.1652 44.1165 55.6702 47.6192 60.3616C47.8659 59.1953 47.9998 57.9883 47.9998 56.7506C47.9998 53.5843 47.1421 50.6206 45.6661 48.0559L40.1159 48.3343Z" fill="#FF6600"/>
<path d="M30.5001 46.4043C30.5001 46.8429 30.5715 47.2653 30.6949 47.6665C33.6647 46.6353 36.7886 45.998 39.9911 45.8378L44.0073 45.6364C42.1563 43.3902 39.75 41.6224 37.0084 40.5187L32.8533 42.5962C31.4013 43.3217 30.5 44.7815 30.5 46.4042L30.5001 46.4043Z" fill="#FF6600"/>
<path d="M32.8141 52.8758C31.5167 52.4857 30.4268 51.7318 29.6027 50.7598C27.9162 51.4713 26.2941 52.3212 24.7578 53.3101C29.2902 60.3413 36.6055 65.2123 44.9264 66.6338C45.6312 65.6087 46.2249 64.5026 46.7015 63.3363L45.937 62.2632C42.7406 57.7895 38.0793 54.4558 32.8143 52.876L32.8141 52.8758Z" fill="#FF6600"/>
<path d="M18.7898 60.5743C18.6124 60.043 18.3624 59.557 18.0822 59.0916C16.7697 60.5977 15.5984 62.2367 14.5884 63.9938C16.9494 69.159 21.7435 72.9737 27.5035 73.9737L24.5024 70.5434C21.9409 67.6171 20.0197 64.2633 18.7898 60.5741L18.7898 60.5743Z" fill="#FF6600"/>
<path d="M22.7143 54.7543C21.7132 55.5183 20.7567 56.3407 19.8516 57.2209C20.3968 57.9971 20.8504 58.8509 21.1618 59.7844C22.2857 63.1571 24.043 66.223 26.3828 68.8983L31.043 74.223C35.7857 74.0768 40.053 72.0444 43.1228 68.839C34.7171 67.0254 27.3743 61.9316 22.7143 54.7542L22.7143 54.7543Z" fill="#FF6600"/>
<path d="M70.5 74.25H88V76.75H70.5V74.25Z" fill="#FF6600"/>
<path d="M50.5 74.25H68V76.75H50.5V74.25Z" fill="#FF6600"/>
<path d="M70.5 70.5H88V73H70.5V70.5Z" fill="#FF6600"/>
<path d="M50.5 70.5H68V73H50.5V70.5Z" fill="#FF6600"/>
<path d="M70.5 66.75H88V69.25H70.5V66.75Z" fill="#FF6600"/>
<path d="M50.5 66.75H68V69.25H50.5V66.75Z" fill="#FF6600"/>
<path d="M70.5 63H88V65.5H70.5V63Z" fill="#FF6600"/>
<path d="M70.5 59.25H88V61.75H70.5V59.25Z" fill="#FF6600"/>
<path d="M70.5 55.5H88V58H70.5V55.5Z" fill="#FF6600"/>
<path d="M70.5 51.75H88V54.25H70.5V51.75Z" fill="#FF6600"/>
<path d="M70.5 48H88V50.5H70.5V48Z" fill="#FF6600"/>
<path d="M50.5 63H68V65.5H50.5V63Z" fill="#FF6600"/>
<path d="M58 58H65.5V50.5H58V58ZM59.25 51.75H61.75V54.25H64.25V56.75H61.75V54.25H59.25V51.75Z" fill="#FF6600"/>
<path d="M59.25 35.5H51.75V43H59.25V35.5ZM58 41.75H55.5V39.25H53V36.75H55.5V39.25H58V41.75Z" fill="#FF6600"/>
<path d="M70.5 45.5V42.8226C72.6501 42.264 74.25 40.3226 74.25 38C74.25 35.2427 72.0073 33 69.25 33C67.8711 33 66.75 31.8789 66.75 30.5C66.75 29.1211 67.8711 28 69.25 28C70.6289 28 71.75 29.1211 71.75 30.5H74.25C74.25 28.1774 72.6501 26.236 70.5 25.6774V23H68V25.6774C65.8499 26.236 64.25 28.1774 64.25 30.5C64.25 33.2573 66.4927 35.5 69.25 35.5C70.6289 35.5 71.75 36.6211 71.75 38C71.75 39.3789 70.6289 40.5 69.25 40.5C67.8711 40.5 66.75 39.3789 66.75 38H64.25C64.25 40.3226 65.8499 42.264 68 42.8226V45.5H70.5Z" fill="#FF6600"/>
<path d="M81.75 40.5C80.3711 40.5 79.25 39.3789 79.25 38H76.75C76.75 40.3226 78.3499 42.264 80.5 42.8226V45.5H83V42.8226C85.1501 42.264 86.75 40.3226 86.75 38C86.75 35.2427 84.5073 33 81.75 33C80.3711 33 79.25 31.8789 79.25 30.5C79.25 29.1211 80.3711 28 81.75 28C83.1289 28 84.25 29.1211 84.25 30.5H86.75C86.75 28.1774 85.1501 26.236 83 25.6774V23H80.5V25.6774C78.3499 26.236 76.75 28.1774 76.75 30.5C76.75 33.2573 78.9927 35.5 81.75 35.5C83.1289 35.5 84.25 36.6211 84.25 38C84.25 39.3789 83.1289 40.5 81.75 40.5Z" fill="#FF6600"/>
</svg>
