<svg width="59" height="59" viewBox="0 0 59 59" fill="none" xmlns="http://www.w3.org/2000/svg">
<path d="M49.1667 4.91669H9.83333C9.18134 4.91669 8.55606 5.17569 8.09503 5.63672C7.634 6.09774 7.375 6.72303 7.375 7.37502V44.25C7.375 46.858 8.41101 49.3591 10.2551 51.2032C12.0992 53.0473 14.6004 54.0834 17.2083 54.0834H49.1667C49.8187 54.0834 50.4439 53.8244 50.905 53.3633C51.366 52.9023 51.625 52.277 51.625 51.625V7.37502C51.625 6.72303 51.366 6.09774 50.905 5.63672C50.4439 5.17569 49.8187 4.91669 49.1667 4.91669ZM12.2917 9.83335H46.7083V34.4167H17.2083C16.6145 34.424 16.0224 34.4816 15.4383 34.5888H15.0204C14.466 34.7039 13.923 34.8685 13.3979 35.0804L12.2917 35.7442V9.83335ZM46.7083 49.1667H17.2083C15.9044 49.1667 14.6538 48.6487 13.7317 47.7266C12.8097 46.8046 12.2917 45.554 12.2917 44.25C12.2917 42.946 12.8097 41.6955 13.7317 40.7734C14.6538 39.8514 15.9044 39.3334 17.2083 39.3334H46.7083V49.1667Z" fill="#FF6600"/>
<path d="M19.6667 19.6667H34.4167C35.0687 19.6667 35.694 19.4077 36.155 18.9466C36.616 18.4856 36.875 17.8603 36.875 17.2083C36.875 16.5563 36.616 15.9311 36.155 15.47C35.694 15.009 35.0687 14.75 34.4167 14.75H19.6667C19.0147 14.75 18.3894 15.009 17.9284 15.47C17.4673 15.9311 17.2083 16.5563 17.2083 17.2083C17.2083 17.8603 17.4673 18.4856 17.9284 18.9466C18.3894 19.4077 19.0147 19.6667 19.6667 19.6667ZM19.6667 29.5H29.5C30.152 29.5 30.7773 29.241 31.2383 28.78C31.6993 28.3189 31.9583 27.6937 31.9583 27.0417C31.9583 26.3897 31.6993 25.7644 31.2383 25.3034C30.7773 24.8423 30.152 24.5833 29.5 24.5833H19.6667C19.0147 24.5833 18.3894 24.8423 17.9284 25.3034C17.4673 25.7644 17.2083 26.3897 17.2083 27.0417C17.2083 27.6937 17.4673 28.3189 17.9284 28.78C18.3894 29.241 19.0147 29.5 19.6667 29.5Z" fill="#FF6600"/>
</svg>
