<svg width="76" height="92" viewBox="0 0 76 92" fill="none" xmlns="http://www.w3.org/2000/svg">
<path d="M56.5817 77.5571L57.2538 64.6278C57.4626 63.4837 57.6496 62.3395 57.8476 61.1954L58.4066 57.7586C58.7786 55.4659 59.1222 53.1711 59.4681 50.8741C59.8053 48.5771 60.1402 46.2801 60.4513 43.981L60.9168 40.5289C61.0517 39.4305 61.1974 38.3342 61.3236 37.2357C61.4345 37.2031 61.5433 37.1705 61.652 37.1335L61.6564 37.1683L61.6846 37.4902C61.7042 37.7034 61.7107 37.9187 61.7194 38.1341C61.7434 38.5626 61.7499 38.9932 61.7629 39.4239C61.7782 40.2832 61.7847 41.1445 61.7868 42.0059C61.7977 43.7265 61.7956 45.4485 61.7803 47.172C61.7608 50.6153 61.7433 54.0586 61.7042 57.5019L61.6324 67.8362L61.6063 73.0023V78.1684C57.4996 77.8008 56.5817 77.5571 56.5817 77.5571ZM49.4579 41.3207C49.7336 40.9412 49.954 40.5245 50.1126 40.0831C50.2823 39.648 50.428 39.2043 50.5607 38.7562C50.8261 37.8622 51.0371 36.9551 51.2285 36.0459C51.4156 35.1323 51.5831 34.2187 51.7179 33.2986C51.8593 32.3785 51.9688 31.4548 52.0464 30.5274C52.0464 30.5274 53.6604 29.5769 54.1085 29.1288C54.4239 28.8134 55.0003 28.7786 55.3157 28.7873C55.4096 28.7924 55.5035 28.7771 55.591 28.7426C55.6784 28.7081 55.7574 28.655 55.8225 28.5872C55.8609 28.5549 55.8907 28.5136 55.909 28.4669C55.9273 28.4202 55.9336 28.3696 55.9273 28.3198C55.921 28.2701 55.9024 28.2227 55.873 28.182C55.8437 28.1413 55.8047 28.1086 55.7594 28.0869C55.6385 28.0015 55.4916 27.9608 55.344 27.9716C54.959 27.9934 54.1063 28.0673 53.7039 28.3305C53.8407 28.2201 53.9854 28.1198 54.1367 28.0303C58.7699 26.884 66.3852 27.7389 66.3852 27.7389C66.3852 27.7389 66.5222 28.7416 66.7289 30.5753C66.52 30.1899 66.2883 29.8173 66.035 29.4594C65.911 29.2832 65.7871 29.107 65.6587 28.933C65.5286 28.7526 65.3892 28.5791 65.2411 28.4132C65.2708 28.6387 65.3338 28.8587 65.4281 29.0657C65.5171 29.2719 65.6264 29.4686 65.7544 29.653C65.8818 29.8377 66.0268 30.0096 66.1873 30.1664C66.3469 30.3283 66.5294 30.4661 66.7289 30.5753C67.5098 37.4402 69.3065 55.951 68.7736 76.9438C66.5316 77.9681 64.0612 78.3901 61.6063 78.1684C61.6737 76.4478 61.7173 74.725 61.7716 73.0045L61.8913 67.8384C61.9652 64.3951 62.0022 60.9496 62.0435 57.5063C62.0588 54.0608 62.0762 50.6153 62.0435 47.1698C62.024 45.4471 61.9979 43.7265 61.9522 42.0037C61.9261 41.1423 61.8927 40.281 61.8521 39.4196C61.826 38.9911 61.8086 38.5604 61.7716 38.1298C61.7542 37.9144 61.739 37.7012 61.7086 37.4858L61.6694 37.1661L61.6629 37.1291C61.7608 37.0965 61.8587 37.0639 61.9565 37.0291C62.248 36.9182 62.5373 36.8029 62.8201 36.668C63.1069 36.5373 63.3838 36.3861 63.6488 36.2155C63.3372 36.2632 63.0291 36.3315 62.7266 36.42C62.4264 36.5048 62.1327 36.6071 61.8391 36.7093C61.5498 36.8203 61.2605 36.9334 60.9755 37.0617C60.6906 37.1879 60.4121 37.3271 60.1337 37.4815C60.4491 37.4572 60.7611 37.4003 61.0647 37.3118C61.1495 37.2901 61.2322 37.264 61.3149 37.2401C61.1191 38.3255 60.9407 39.4153 60.7515 40.5029L60.1925 43.9397C59.8205 46.2323 59.4768 48.5271 59.131 50.8241C58.796 53.1211 58.4588 55.4181 58.1478 57.7194L57.6845 61.1715C57.5409 62.3221 57.3865 63.4728 57.2538 64.6278L55.1091 77.4332C55.1091 77.4332 48.1854 78.9666 43.5893 77.494C43.5893 77.494 47.535 55.5769 49.4579 41.3207ZM61.8652 31.689C61.8913 32.1871 61.9217 32.6831 61.974 33.179C62.0218 33.6749 62.0827 34.1709 62.1762 34.6625C62.2241 34.1622 62.2371 33.664 62.2393 33.166C62.2415 32.6678 62.2241 32.1697 62.2045 31.6738C62.1762 31.1756 62.1458 30.6797 62.0957 30.1837C62.0457 29.6878 61.9848 29.1941 61.8913 28.7003C61.8456 29.2005 61.8326 29.6987 61.8304 30.1968C61.8282 30.6949 61.8434 31.1931 61.8652 31.689V31.689ZM61.8913 28.424C61.9574 28.4216 62.0201 28.3936 62.066 28.3459C62.1119 28.2983 62.1376 28.2347 62.1376 28.1685C62.1376 28.1022 62.1119 28.0386 62.066 27.991C62.0201 27.9433 61.9574 27.9153 61.8913 27.9129C61.8251 27.9153 61.7625 27.9433 61.7165 27.991C61.6706 28.0386 61.6449 28.1022 61.6449 28.1685C61.6449 28.2347 61.6706 28.2983 61.7165 28.3459C61.7625 28.3936 61.8251 28.4216 61.8913 28.424ZM52.8882 32.4807C53.1264 32.4351 53.3617 32.3756 53.593 32.3024C54.061 32.1467 54.4982 31.9104 54.885 31.6042C55.266 31.2845 55.5751 30.8879 55.7921 30.4405C56.0124 30.003 56.1151 29.5157 56.0901 29.0266C55.985 29.4827 55.8057 29.9185 55.5593 30.3165C55.318 30.7035 55.017 31.05 54.6675 31.3431C54.4903 31.4867 54.3028 31.6168 54.1063 31.7325C53.9108 31.8535 53.7073 31.961 53.4973 32.0544C53.3927 32.1057 53.2852 32.1507 53.1753 32.1893L52.8469 32.3176C52.6228 32.3894 52.3966 32.4547 52.1682 32.5395C52.4075 32.5286 52.6467 32.5091 52.8882 32.4807V32.4807ZM50.4846 31.0408C50.489 30.708 50.4824 30.4209 50.4629 30.1816L50.8022 30.4013C51.1914 30.5805 51.6292 30.6249 52.0464 30.5274C51.8397 31.4345 51.644 32.3423 51.4591 33.2508L50.8957 35.9763C50.7108 36.8833 50.5136 37.7875 50.3041 38.6887C50.1953 39.1368 50.0844 39.5871 49.956 40.0308C49.8413 40.4789 49.6741 40.9118 49.4579 41.3207C50.0648 36.8203 50.4694 33.0833 50.4846 31.0408H50.4846ZM51.1132 27.3582C51.1387 26.6681 51.4293 26.0145 51.9246 25.5332C52.7381 25.0764 52.1813 26.3772 52.1508 26.4511C52.1617 26.4403 52.2074 26.3924 52.2835 26.325C52.3313 26.0879 52.3748 25.8377 52.4162 25.5811L52.4227 25.5419C52.5401 24.8024 52.6402 23.9932 52.7207 23.147C52.7203 23.139 52.7211 23.1309 52.7229 23.1231C52.7956 21.5171 52.6083 19.91 52.1682 18.3638C51.8463 17.1196 51.1263 17.0782 51.1263 17.0782L46.7759 21.918L50.9436 26.8209C51.0536 26.9785 51.1128 27.166 51.1132 27.3582V27.3582Z" fill="#FF6600"/>
<path d="M0.207399 52.9818C0.207399 52.9818 3.63765 61.9914 10.011 60.7668C10.6588 60.645 11.3193 60.6033 11.9773 60.6429C13.2716 59.925 14.5506 59.1877 15.8317 58.4546C17.1108 57.715 18.3789 56.9646 19.6274 56.1794C20.8825 55.405 22.1115 54.5915 23.2992 53.7257C23.5972 53.5082 23.8995 53.2973 24.1823 53.0623C24.4672 52.8318 24.7652 52.6143 25.0415 52.3728L25.8724 51.642C26.1247 51.3766 26.3828 51.1127 26.6468 50.8502C25.7854 52.0639 24.6608 53.0667 23.5058 53.9955C23.2165 54.2282 22.9272 54.4632 22.6227 54.6763L21.72 55.3289C21.1044 55.7444 20.4888 56.1576 19.858 56.5492C18.5964 57.33 17.3109 58.0696 15.9949 58.7504C14.6811 59.4378 13.3455 60.0751 11.9773 60.6429C17.8547 60.9713 24.0561 67.0444 24.7174 68.3648C25.4526 69.8352 40.0372 54.1499 43.3783 44.2616C44.368 41.3338 46.9587 36.2394 50.4411 31.1147C50.4577 31.0913 50.4722 31.0666 50.4846 31.0408C50.5586 30.9102 50.6739 30.6731 50.8022 30.4012L50.4629 30.1816C50.2545 30.0122 50.086 29.799 49.9691 29.5573C49.856 29.6856 49.7799 29.7617 49.7799 29.7617C49.7799 29.7617 43.7742 25.3505 42.4255 23.7561C41.0769 22.1638 42.4255 20.5694 42.4255 20.5694C42.4255 20.5694 46.4083 14.381 48.4313 12.3602C49.0815 11.7497 49.8826 11.3233 50.7522 11.1248C46.1234 12.0253 35.23 15.8036 23.7364 31.6824C8.54052 52.6795 0.207399 52.9818 0.207399 52.9818ZM70.3701 90.5582C70.2135 90.5517 70.0569 90.5473 69.9025 90.5343C71.908 90.7387 74.3616 90.4668 75.0968 88.1677C74.9265 87.8719 74.7014 87.6113 74.4334 87.3998C74.3814 87.3514 74.3198 87.3145 74.2525 87.2914C74.1853 87.2684 74.114 87.2598 74.0432 87.2661C73.9724 87.2725 73.9037 87.2937 73.8417 87.3283C73.7796 87.363 73.7255 87.4103 73.683 87.4672C73.4782 87.7258 73.3085 88.0103 73.1784 88.3134C73.0239 88.6223 72.8673 88.9376 72.6868 89.2509C72.4994 89.5776 72.2522 89.8662 71.9581 90.1014C71.65 90.3252 71.2899 90.4667 70.9118 90.5125C70.7325 90.5395 70.5515 90.5547 70.3701 90.5582V90.5582Z" fill="#FF6600"/>
<path d="M59.1375 84.4068C59.3333 84.1501 59.5095 83.6889 59.5508 82.8581C59.6552 80.7851 61.1648 81.9467 61.1648 81.9467C63.7337 83.3062 64.4384 81.2005 64.6298 80.8678C64.8213 80.5372 66.4244 80.3501 67.0617 81.342C67.2932 81.66 67.5798 81.934 67.9079 82.1511C67.6189 82.1862 67.3367 82.2639 67.0704 82.3817C66.8023 82.4935 66.5477 82.635 66.3113 82.8037C66.0672 82.9726 65.8526 83.1806 65.6761 83.4193C65.4778 83.6534 65.3766 83.9546 65.3933 84.261C65.5316 84.0248 65.7123 83.8161 65.9263 83.6455C66.1285 83.4737 66.3439 83.3126 66.5658 83.1561L67.2357 82.6775C67.4619 82.5144 67.686 82.3469 67.9079 82.1533C68.4014 82.4972 68.9198 82.804 69.4588 83.0712C69.174 83.0698 68.8919 83.1268 68.63 83.2387C68.3657 83.3464 68.1199 83.4947 67.9013 83.6781C67.6787 83.861 67.4921 84.0838 67.351 84.335C67.2053 84.5822 67.1196 84.8601 67.1009 85.1464C67.2923 84.931 67.4402 84.72 67.6273 84.5351C67.8009 84.3488 67.9861 84.1737 68.1819 84.0109C68.5713 83.6781 68.9976 83.3954 69.4588 83.0712C69.8677 83.2779 70.1613 83.4062 70.1613 83.4062C70.4941 83.5106 70.8052 83.6194 71.0945 83.7281C70.8083 83.7958 70.5344 83.908 70.2832 84.0609C70.028 84.2089 69.7926 84.3887 69.5828 84.596C69.3654 84.805 69.1859 85.0501 69.052 85.3203C68.91 85.5908 68.856 85.8988 68.8975 86.2014C69.0185 85.9518 69.1674 85.7169 69.3413 85.5009C69.5113 85.2909 69.6944 85.0919 69.8894 84.9049C70.2701 84.5156 70.6921 84.1609 71.0967 83.7281C75.7537 85.4791 75.2295 87.6478 75.2295 87.6478C75.1968 87.8236 75.1532 87.9973 75.0991 88.1677C75.0008 87.8192 74.8194 87.4997 74.5704 87.2367C74.4268 87.0864 74.2319 86.9955 74.0245 86.9822C73.8099 86.9874 73.605 87.0728 73.4502 87.2215C73.3079 87.349 73.1855 87.4971 73.087 87.6609C72.9869 87.8175 72.9043 87.9675 72.8151 88.122C72.6454 88.4309 72.4888 88.7398 72.3126 89.0269C72.1579 89.3114 71.9522 89.565 71.7057 89.7751C71.6427 89.8187 71.5839 89.8708 71.5165 89.9122L71.3077 90.0252C71.1574 90.0884 71.0025 90.1401 70.8444 90.1798C70.1704 90.3108 69.4837 90.3655 68.7975 90.3429C67.7824 90.075 66.8248 89.6239 65.9719 89.0117C63.7598 87.4608 61.2888 87.5434 59.6313 86.6582C59.5965 86.6385 59.5617 86.619 59.5269 86.6016C59.3442 86.4942 59.187 86.3485 59.0661 86.1746C58.9452 86.0006 58.8634 85.8025 58.8264 85.5939C58.7894 85.3853 58.798 85.1712 58.8517 84.9662C58.9054 84.7613 59.0029 84.5704 59.1375 84.4068V84.4068ZM62.2437 84.6787C62.5112 84.8832 62.7875 85.0767 63.0724 85.2551C63.3574 85.4334 63.651 85.5988 63.9512 85.7489C64.2542 85.9059 64.57 86.0368 64.8952 86.1404C64.6598 85.8936 64.4044 85.6666 64.1317 85.4618C63.8642 85.2572 63.5879 85.0637 63.303 84.8853C63.0202 84.7069 62.7266 84.5438 62.4242 84.3915C62.1213 84.2342 61.8055 84.1032 61.4802 84C61.7151 84.2474 61.9705 84.4744 62.2437 84.6787V84.6787Z" fill="#FF6600"/>
<path d="M69.9025 90.5343C69.8503 90.5299 69.7981 90.5234 69.7459 90.5191C69.7763 90.5212 69.8046 90.5256 69.8351 90.5299C69.8568 90.5321 69.8807 90.5343 69.9025 90.5343ZM69.226 90.4386C69.2521 90.4451 69.2804 90.4494 69.3087 90.456C69.3652 90.4669 69.4218 90.4755 69.4783 90.482C69.3935 90.469 69.3087 90.456 69.226 90.4386Z" fill="white"/>
<path d="M64.6294 80.8688C64.611 80.4201 64.5774 79.9814 64.5664 79.5419C64.5481 79.1016 64.5692 78.6607 64.6294 78.2242C64.4493 78.6406 64.3695 79.0935 64.3964 79.5464C64.4067 79.9965 64.4853 80.4423 64.6294 80.8688V80.8688ZM60.0379 81.6894C60.1176 81.3811 60.1745 81.069 60.2263 80.7561C60.2796 80.4434 60.3176 80.1287 60.3509 79.8133C60.3797 79.4975 60.4061 79.1813 60.4117 78.8636C60.4228 78.5458 60.4141 78.2276 60.3856 77.9109L60.2811 78.8547L60.1816 79.7965C60.1528 80.1109 60.1193 80.4249 60.0969 80.7404C60.0722 81.0558 60.048 81.3713 60.0379 81.6894ZM62.3023 3.13074C62.3149 3.63486 62.3752 4.13666 62.4824 4.62942C62.5437 4.86745 62.5829 5.11062 62.5995 5.35584C62.6148 5.60438 62.6134 5.85366 62.5954 6.10202C62.6792 5.86113 62.7253 5.6088 62.7323 5.35388C62.7398 5.09768 62.7117 4.84169 62.6486 4.59326C62.5416 4.1066 62.443 3.61633 62.3023 3.13074Z" fill="#FF6600"/>
<path d="M62.7582 4.71479C62.7582 4.71479 61.5008 4.34321 61.007 5.13072C61.007 5.13072 60.4536 5.02026 60.1941 5.28723C59.9223 5.09516 59.5964 4.99488 59.2637 5.00101C58.931 5.00713 58.6089 5.11934 58.3444 5.32129C58.3444 5.32129 58.2652 6.63988 59.3093 6.68625C59.3093 6.68625 60.373 6.47536 60.215 5.49644C60.215 5.49644 60.4044 5.13064 61.0279 5.33955C61.0279 5.33955 61.4782 6.52992 62.2375 6.13773C62.9968 5.74553 62.7582 4.71479 62.7582 4.71479ZM61.1169 11.7296C60.7148 11.7692 60.3153 11.8319 59.9205 11.9175C59.5115 11.9961 59.1083 12.1019 58.7135 12.2342L58.4976 12.3113L58.6532 12.4494C58.9242 12.6896 59.2087 12.9165 59.4633 13.1726C59.7183 13.4291 59.96 13.6983 60.1877 13.9793L60.2308 14.0311L60.3058 13.9957C60.516 13.8962 60.7269 13.798 60.9326 13.6907L61.5468 13.3636C61.7517 13.255 61.9556 13.1445 62.1557 13.0275C62.3565 12.9117 62.5535 12.7893 62.7503 12.6665L63.0192 12.4987L62.7417 12.3741C62.2115 12.1315 61.6692 11.9164 61.1169 11.7296ZM61.1133 11.7634C61.6192 12.107 62.1036 12.3986 62.5932 12.6711L62.5845 12.3788C62.3796 12.4875 62.1749 12.5966 61.974 12.7122C61.7724 12.8267 61.5747 12.9477 61.3779 13.0706L60.787 13.438C60.591 13.5622 60.4003 13.6954 60.2088 13.8274L60.3268 13.8438C60.052 13.6087 59.7893 13.3599 59.5397 13.0982C59.2905 12.8368 59.0713 12.5464 58.8383 12.2691L58.7781 12.4843C59.172 12.4126 59.5604 12.3137 59.9405 12.1882C60.3261 12.0669 60.7125 11.9342 61.1133 11.7634V11.7634Z" fill="#FF6600"/>
<path d="M58.7457 12.3593L60.2573 13.9115L59.1246 15.1779L56.6695 13.3241L58.7457 12.3593Z" fill="#FF6600"/>
<path d="M61.7938 8.10339C61.6329 8.37867 61.4991 8.66888 61.3942 8.96996C61.2854 9.27022 61.1997 9.5784 61.138 9.89176C61.0738 10.205 61.0366 10.5232 61.0267 10.8428C61.0135 11.1616 61.0333 11.4809 61.0857 11.7957C61.1013 11.6363 61.0944 11.479 61.1145 11.3218C61.1232 11.1646 61.136 11.0082 61.1573 10.8525C61.1954 10.5413 61.2402 10.2315 61.3048 9.92501C61.3639 9.61753 61.4382 9.31297 61.5185 9.00916C61.6003 8.7056 61.6934 8.40493 61.7938 8.10339ZM57.6055 8.16296C57.5884 8.42599 57.5576 8.68488 57.5224 8.941C57.4883 9.19569 57.4346 9.44736 57.3618 9.69377C57.2951 9.93852 57.1933 10.1723 57.0594 10.3878C56.9199 10.6035 56.7353 10.7864 56.5183 10.9238C56.7758 10.8393 57.0019 10.6795 57.1675 10.465C57.3316 10.249 57.4529 10.0036 57.5249 9.74209C57.6 9.48558 57.6434 9.22082 57.6541 8.95375C57.6691 8.68916 57.6528 8.42372 57.6055 8.16296V8.16296ZM62.6625 12.5389C63.063 12.6912 63.4607 12.8464 63.8455 13.0298C64.2333 13.204 64.6119 13.3979 64.9798 13.6109C65.7185 14.0234 66.4082 14.5182 67.0356 15.0858C68.308 16.2226 69.4311 17.5162 70.3779 18.9356C70.6115 19.2916 70.8235 19.6614 71.0128 20.0429C71.0576 20.1349 71.0945 20.2306 71.1232 20.3289C71.1478 20.4294 71.1657 20.5315 71.1766 20.6345C71.199 20.8394 71.1934 21.0464 71.1598 21.2498C71.143 21.3508 71.1197 21.4505 71.0899 21.5484C71.075 21.5983 71.0591 21.6436 71.0417 21.6901L70.9742 21.836L70.712 22.4229C70.5355 22.8134 70.3708 23.2084 70.2002 23.6011C69.5146 25.1707 68.9011 26.7674 68.335 28.3861L68.4013 28.3417C68.2381 28.3538 68.0759 28.3773 67.9159 28.412L67.4457 28.5111L66.9773 28.6103C66.8225 28.6449 66.6654 28.669 66.5073 28.6824V28.7164C66.6684 28.7136 66.8291 28.6998 66.9883 28.6751L67.4629 28.6016L67.9356 28.5281C68.0896 28.5032 68.2452 28.4889 68.4013 28.4851L68.4464 28.4852L68.4676 28.4407C69.2054 26.8916 69.8958 25.3206 70.5142 23.7224C70.6695 23.3231 70.8308 22.9262 70.9802 22.5248L71.2071 21.9238L71.2618 21.7728C71.2788 21.7179 71.2951 21.661 71.3077 21.6075C71.3865 21.2813 71.3996 20.9428 71.3463 20.6116C71.329 20.5022 71.3044 20.3942 71.2725 20.2881C71.2363 20.1822 71.191 20.0797 71.1369 19.9817C70.9321 19.599 70.7056 19.2349 70.4677 18.877C69.9906 18.1633 69.4997 17.4591 68.9758 16.7761C68.4569 16.0853 67.8758 15.4435 67.2399 14.8587C66.9167 14.5678 66.5744 14.2989 66.2152 14.0538C65.8544 13.814 65.4796 13.5961 65.0927 13.4013C64.7068 13.2074 64.3113 13.0334 63.9075 12.8801C63.5034 12.7317 63.0909 12.6069 62.6723 12.5063L62.6625 12.5389Z" fill="#FF6600"/>
<path d="M64.0397 14.5073C64.1969 15.6188 64.3839 16.7239 64.5808 17.827C64.7813 18.9293 64.9849 20.0307 65.2376 21.123C65.4811 22.2169 65.7281 23.311 65.8963 24.4187C65.9884 24.9711 66.0652 25.5261 66.131 26.0817C66.1637 26.3594 66.1936 26.6375 66.2172 26.9149C66.246 27.1844 66.2567 27.4555 66.2493 27.7265L66.3885 27.6033C65.3642 27.5562 64.3402 27.5321 63.3157 27.5073C62.2913 27.4809 61.2664 27.476 60.2414 27.4871C59.2163 27.4983 58.1912 27.5299 57.1662 27.5819C56.6539 27.6134 56.1417 27.6495 55.6303 27.7014C55.3747 27.7286 55.1195 27.7619 54.8653 27.8047C54.6064 27.8335 54.3544 27.9066 54.1202 28.0206L54.1392 28.0489C54.2536 27.9976 54.3753 27.9644 54.4999 27.9504C54.6252 27.9306 54.7513 27.9154 54.8783 27.9047C55.1319 27.8814 55.387 27.8709 55.642 27.8601C56.1519 27.8377 56.663 27.8309 57.1741 27.8288C58.1962 27.8158 59.2191 27.8282 60.2419 27.8355L66.3811 27.8755L66.5173 27.8764L66.5203 27.7523C66.5209 27.4627 66.4958 27.1736 66.4454 26.8884C66.4046 26.6091 66.3558 26.3324 66.308 26.0556L66.0079 24.3997C65.7989 23.2982 65.6403 22.188 65.4699 21.0793C65.3079 19.969 65.0854 18.87 64.8531 17.7734C64.6165 16.6775 64.3642 15.5849 64.073 14.5005L64.0397 14.5073ZM67.2911 36.207C67.5648 35.997 67.7903 35.7308 67.9526 35.4265C68.0359 35.2755 68.1112 35.1203 68.178 34.9614L68.2759 34.7215L68.3543 34.4759C68.5517 33.8184 68.6652 33.1385 68.6922 32.4525C68.7066 32.1114 68.6995 31.7707 68.6942 31.4307C68.6637 31.0921 68.6544 30.752 68.6049 30.4163C68.556 30.0808 68.5092 29.7454 68.441 29.4141C68.3644 29.084 68.2891 28.7544 68.1947 28.4296C68.1937 28.7698 68.212 29.1053 68.229 29.4401L68.2665 30.4423L68.2824 31.4396C68.275 31.7707 68.2789 32.1025 68.2579 32.4318L68.2311 32.9259C68.2221 33.0907 68.1938 33.2526 68.1806 33.4168C68.1693 33.5816 68.1431 33.7433 68.1157 33.9051C68.0911 34.0677 68.0649 34.2297 68.0275 34.3891C67.9192 35.042 67.6677 35.6628 67.2911 36.207V36.207Z" fill="#FF6600"/>
<path d="M67.1465 34.0624C67.3569 34.057 67.5575 33.9724 67.7082 33.8256C67.849 33.6859 67.9479 33.5094 67.9935 33.3164C68.0634 32.953 68.0748 32.5807 68.027 32.2138L67.8923 30.049L67.9114 32.2171C67.9384 32.5696 67.9116 32.9242 67.832 33.2688C67.7879 33.4282 67.6997 33.5719 67.5776 33.6836C67.4618 33.7864 67.3126 33.8438 67.1577 33.8451L67.1465 34.0624ZM54.6175 91.3435C54.7982 91.3602 54.98 91.3638 55.1613 91.3544C55.5422 91.3476 55.9151 91.2435 56.2445 91.052C56.5605 90.8479 56.835 90.586 57.0537 90.2799C57.2669 89.9862 57.4539 89.6882 57.641 89.3967C57.8001 89.1075 57.9977 88.8411 58.2283 88.6049C58.3269 88.5076 58.4576 88.4496 58.5959 88.4418C58.7412 88.449 58.8785 88.5103 58.9809 88.6136C59.2253 88.8527 59.4229 89.1353 59.5638 89.4468C58.5981 91.6502 56.1466 91.6784 54.1781 91.2782C54.3217 91.3021 54.4696 91.3218 54.6175 91.3435ZM44.0678 84.0871C44.2875 83.85 44.5094 83.4084 44.6356 82.5884C44.951 80.5372 46.3344 81.8423 46.3344 81.8423C48.751 83.4563 49.6668 81.4334 49.8908 81.1223C50.1127 80.8112 51.7288 80.7895 52.2618 81.8401C52.4598 82.1789 52.716 82.4801 53.0187 82.7298C52.7289 82.7359 52.4415 82.785 52.166 82.8755C51.8883 82.9599 51.6206 83.0744 51.3678 83.217C51.1077 83.361 50.8726 83.5461 50.6717 83.7651C50.4515 83.9789 50.3202 84.2679 50.3041 84.5744C50.467 84.3545 50.6681 84.1659 50.8979 84.0175C51.1176 83.8674 51.346 83.7282 51.5831 83.5955L52.2988 83.1865C52.5402 83.0474 52.7795 82.9038 53.0209 82.7319C53.4763 83.1235 53.9597 83.4812 54.4674 83.8021C54.1855 83.7728 53.9006 83.8009 53.6299 83.8848C53.356 83.9663 53.0963 84.0895 52.8599 84.2502C52.6206 84.4102 52.412 84.6121 52.2444 84.8463C52.0751 85.078 51.9626 85.3461 51.9159 85.6292C52.1269 85.4335 52.2966 85.2377 52.501 85.0746C52.6924 84.9067 52.8944 84.7512 53.1057 84.6091C53.5277 84.3177 53.978 84.0784 54.4696 83.8043C54.8568 84.0522 55.1352 84.2089 55.1352 84.2089C55.455 84.3481 55.7551 84.4851 56.0335 84.6244C55.741 84.6623 55.4562 84.746 55.1896 84.8723C54.9211 84.994 54.669 85.1489 54.4391 85.3334C54.2012 85.5189 53.9979 85.7449 53.8388 86.0012C53.6696 86.255 53.5843 86.5556 53.5952 86.8604C53.7408 86.6241 53.9131 86.4051 54.1085 86.2079C54.2987 86.0171 54.5007 85.8384 54.7132 85.6728C55.133 85.3247 55.5876 85.0137 56.0335 84.6244C60.4883 86.8365 59.7466 88.9422 59.7466 88.9422C59.6973 89.1143 59.6362 89.2829 59.5639 89.4468C59.5014 89.0898 59.3537 88.7532 59.1332 88.4657C59.0062 88.3017 58.8222 88.1914 58.6177 88.1568C58.4028 88.1411 58.1897 88.2054 58.0195 88.3374C57.8659 88.4504 57.7296 88.5853 57.6149 88.7376C57.4996 88.8833 57.4039 89.0248 57.2995 89.1683C57.0972 89.4576 56.9101 89.7513 56.7057 90.0188C56.5234 90.2862 56.2933 90.5178 56.027 90.7018C55.9596 90.7388 55.8943 90.7845 55.8247 90.8193L55.605 90.9106C55.4488 90.9566 55.2896 90.9922 55.1287 91.0172C54.4431 91.078 53.7529 91.062 53.0709 90.9694C52.0903 90.5994 51.1851 90.054 50.3998 89.3598C48.3551 87.5935 45.8885 87.4238 44.331 86.3754C44.2962 86.3536 44.2636 86.3297 44.2332 86.3079C44.062 86.1831 43.9201 86.0225 43.8172 85.8374C43.7143 85.6522 43.6529 85.4469 43.6371 85.2357C43.6214 85.0245 43.6518 84.8123 43.7261 84.614C43.8005 84.4157 43.9171 84.2359 44.0678 84.0871ZM47.1305 84.6722C47.3763 84.9028 47.6315 85.1217 47.8962 85.3291C48.1615 85.5358 48.4356 85.7272 48.7205 85.9098C49.006 86.0963 49.3065 86.2585 49.6189 86.3949C49.4097 86.1259 49.1791 85.8742 48.9294 85.6423C48.6836 85.4117 48.4283 85.1927 48.1637 84.9854C47.8984 84.7788 47.6235 84.5852 47.3393 84.4046C47.0539 84.2163 46.7526 84.0533 46.4388 83.9175C46.6481 84.1877 46.8795 84.4401 47.1305 84.6722V84.6722Z" fill="#FF6600"/>
<path d="M53.9889 91.2391C54.0215 91.2456 54.0563 91.2543 54.0889 91.2631C54.1128 91.2674 54.1346 91.2718 54.1585 91.2739C54.1019 91.2631 54.0454 91.2521 53.9889 91.2391ZM54.4674 83.8021L54.4696 83.8043C54.4696 83.804 54.4696 83.8037 54.4697 83.8035C54.4698 83.8032 54.47 83.8029 54.4702 83.8027C54.4704 83.8025 54.4706 83.8024 54.4709 83.8023C54.4712 83.8021 54.4714 83.8021 54.4717 83.8021H54.4674ZM53.0187 82.7297L53.0209 82.7319C53.0209 82.7316 53.0209 82.7313 53.021 82.7311C53.0211 82.7308 53.0213 82.7306 53.0215 82.7304C53.0217 82.7302 53.0219 82.73 53.0222 82.7299C53.0225 82.7298 53.0228 82.7297 53.0231 82.7297H53.0187Z" fill="white"/>
<path d="M50.305 81.6894L50.2025 80.804C50.1707 80.5097 50.1363 80.2166 50.1119 79.9231C50.0823 79.6299 50.0697 79.3364 50.0643 79.0434C50.0531 78.749 50.0847 78.4545 50.158 78.1691C50.0212 78.4391 49.9446 78.7357 49.9335 79.0382C49.9105 79.3378 49.9135 79.6389 49.9425 79.938C49.9692 80.2358 50.013 80.5319 50.0738 80.8246C50.1316 81.1177 50.2088 81.4066 50.305 81.6894ZM45.2387 82.1504C45.342 81.8123 45.4243 81.4697 45.5025 81.1262C45.5826 80.7831 45.6478 80.4371 45.7102 80.0905C45.7685 79.7432 45.8249 79.3954 45.8629 79.0447C45.9069 78.6944 45.9326 78.3421 45.9399 77.9891C45.8666 78.3348 45.8001 78.6796 45.7335 79.0248C45.6652 79.3695 45.6046 79.7154 45.5426 80.0613C45.4846 80.4078 45.4238 80.7539 45.3744 81.1023C45.323 81.4503 45.2731 81.7987 45.2387 82.1504ZM62.7719 3.19188C62.7719 3.19188 62.3362 3.65721 61.9725 2.42806C61.9725 2.42806 61.76 1.88433 61.1036 2.32651C61.1036 2.32651 60.6352 2.61433 60.4085 2.15488C60.3565 2.09582 60.2928 2.04812 60.2215 2.01479C60.1502 1.98145 60.0728 1.96319 59.9941 1.96115C59.9154 1.95911 59.8372 1.97333 59.7642 2.00292C59.6913 2.03252 59.6253 2.07685 59.5702 2.13314C59.5702 2.13314 59.4196 2.28377 59.072 2.12263C58.7245 1.96149 58.1585 1.57359 57.9235 1.8607C57.6885 2.1478 58.0137 2.31118 57.7377 2.64004C57.4617 2.96891 57.1365 2.88086 57.2267 3.25601C57.3169 3.63115 57.0245 3.87128 57.0685 4.23598C57.1124 4.60069 57.2479 6.71136 57.5387 6.9083C57.8333 7.15977 58.0949 7.44748 58.3173 7.76459C58.4381 7.91825 59.2928 8.02874 59.5329 7.71851C59.7063 7.51284 59.9204 7.34528 60.1617 7.22636C60.1617 7.22636 60.651 6.84605 61.0135 7.08104C61.0135 7.08104 61.7564 6.67542 62.2142 7.26244C62.2142 7.26244 62.5685 7.26472 62.6073 6.97461C62.6261 6.68388 62.6222 6.39212 62.5954 6.102C62.5954 6.102 62.7759 6.02372 62.7818 7.13796C62.7876 8.2522 62.2131 10.1174 62.1094 10.2106C62.0057 10.3038 61.1278 10.8661 59.2924 10.2886C57.4571 9.71105 57.1686 8.63257 57.0806 8.35511C56.9862 7.78765 56.929 7.21463 56.9093 6.63972C56.9034 6.4294 56.9721 5.45836 56.3606 4.91682C56.3606 4.91682 55.9594 4.51999 55.755 4.73625C55.755 4.73625 55.327 3.96432 55.4478 2.58585C55.4594 2.4541 55.4987 2.32628 55.563 2.21073C55.6274 2.09518 55.7154 1.9945 55.8212 1.91524C55.8406 1.90077 55.8601 1.88634 55.8796 1.87215C56.0598 1.73635 56.1807 1.53635 56.2173 1.31371C56.2273 1.23989 56.2518 1.16878 56.2894 1.10447C56.327 1.04015 56.3769 0.98389 56.4363 0.938926C56.4957 0.893961 56.5633 0.861177 56.6354 0.842454C56.7075 0.823732 56.7826 0.819441 56.8564 0.829829C57.6708 0.838889 58.1722 0.579849 58.422 0.666925C58.6717 0.754002 59.7875 0.160483 60.7958 0.903448C61.2516 1.27303 61.7698 1.55802 62.3261 1.74493C62.517 1.8464 63.4208 2.44914 62.7719 3.19188Z" fill="#FF6600"/>
<path d="M55.755 4.73622C55.6459 4.81312 55.5713 4.92976 55.5473 5.06107C55.5264 5.19626 55.5452 5.33461 55.6015 5.4593C55.6913 5.69166 55.7683 5.92877 55.832 6.16958C55.9116 6.4191 56.0396 6.6505 56.2086 6.85054C56.2989 6.95334 56.4169 7.02779 56.5486 7.06487C56.6791 7.09276 56.8153 7.06925 56.9289 6.99923C56.8126 7.03559 56.6873 7.03071 56.5741 6.98543C56.4687 6.93552 56.3779 6.85958 56.31 6.76478C56.1728 6.56454 56.0659 6.34513 55.9927 6.11365C55.9489 5.99682 55.9195 5.88291 55.8786 5.75657C55.8367 5.63406 55.784 5.51555 55.7209 5.40247C55.6561 5.30185 55.6245 5.1834 55.6306 5.06385C55.6368 4.94431 55.6803 4.82971 55.755 4.73622V4.73622ZM61.6857 5.32565C61.6371 5.32397 61.5911 5.30349 61.5573 5.26853C61.5236 5.23357 61.5047 5.18687 61.5047 5.13826C61.5047 5.08966 61.5236 5.04296 61.5573 5.008C61.5911 4.97304 61.6371 4.95256 61.6857 4.95088C61.7343 4.95256 61.7803 4.97304 61.8141 5.008C61.8478 5.04296 61.8667 5.08966 61.8667 5.13826C61.8667 5.18687 61.8478 5.23357 61.8141 5.26853C61.7803 5.30349 61.7343 5.32397 61.6857 5.32565V5.32565ZM59.3662 5.63261C59.3176 5.63093 59.2716 5.61045 59.2378 5.5755C59.204 5.54054 59.1852 5.49383 59.1852 5.44523C59.1852 5.39663 59.204 5.34992 59.2378 5.31497C59.2716 5.28001 59.3176 5.25953 59.3662 5.25785C59.4148 5.25953 59.4608 5.28001 59.4945 5.31497C59.5283 5.34992 59.5472 5.39663 59.5472 5.44523C59.5472 5.49383 59.5283 5.54054 59.4945 5.5755C59.4608 5.61045 59.4148 5.63093 59.3662 5.63261ZM62.4859 4.21914C62.218 4.15341 61.9385 4.15067 61.6694 4.21112C61.5338 4.241 61.4024 4.28743 61.2782 4.34936C61.1536 4.41245 61.0435 4.50075 60.9549 4.60867C61.1968 4.507 61.4483 4.42951 61.7055 4.37734C61.96 4.32121 62.2178 4.28107 62.4859 4.21914ZM60.1345 4.69055C59.8452 4.59374 59.5393 4.55691 59.2354 4.58233C58.9277 4.59574 58.6296 4.69403 58.3743 4.86633C58.663 4.81053 58.9549 4.77233 59.2482 4.75194C59.5395 4.72916 59.8312 4.71997 60.1345 4.69055ZM61.3554 6.35636C61.3151 6.41343 61.2678 6.46527 61.2147 6.51068C61.1669 6.55134 61.1154 6.58743 61.0609 6.61848C60.9525 6.68476 60.8295 6.73288 60.693 6.81423C60.7671 6.83932 60.8458 6.84782 60.9235 6.83913C61.0026 6.82998 61.079 6.80466 61.1478 6.76473C61.219 6.72292 61.2781 6.66331 61.3193 6.59177C61.362 6.52115 61.3749 6.43651 61.3554 6.35636V6.35636ZM56.1233 4.73936C56.4753 4.89382 56.8396 5.01866 57.2123 5.11258C57.5831 5.21387 57.9619 5.28369 58.3444 5.32128C57.9926 5.16646 57.6283 5.04161 57.2554 4.94807C56.8845 4.84712 56.5058 4.77731 56.1233 4.73936V4.73936ZM59.1247 15.1779C59.1247 15.1779 62.4494 21.9182 62.4869 23.5727L61.3661 25.1544L59.2298 23.8178C59.2298 23.8178 58.6661 16.5873 59.1247 15.1779ZM52.1587 26.4543C52.3001 26.2516 52.394 26.0195 52.4334 25.7754C52.4431 25.7091 52.4408 25.6416 52.4268 25.576C52.4202 25.5364 52.4031 25.4993 52.3773 25.4686C52.3515 25.4378 52.318 25.4145 52.2801 25.4011C52.2114 25.3879 52.1403 25.398 52.0779 25.4296C52.0193 25.4532 51.9661 25.4824 51.9118 25.5103L51.9098 25.5114L51.908 25.5129C51.7745 25.6256 51.6511 25.7497 51.5393 25.8839C51.4319 26.023 51.3406 26.1737 51.2672 26.3333C51.1286 26.6558 51.0719 27.0076 51.1022 27.3573L51.1033 27.3533L51.1026 27.3712H51.1196L51.1232 27.3631L51.1243 27.359C51.1499 27.2759 51.1693 27.1933 51.191 27.1118C51.2178 27.0313 51.2356 26.9497 51.2626 26.8707C51.3107 26.711 51.3745 26.5585 51.4335 26.4048C51.4945 26.2509 51.5666 26.1016 51.6491 25.9581C51.7239 25.8083 51.8225 25.6716 51.9412 25.5535L51.9375 25.556C52.0331 25.5003 52.1676 25.4507 52.2456 25.4929C52.3096 25.5284 52.2917 25.6505 52.2818 25.7567C52.2535 25.98 52.186 26.2087 52.143 26.4479L52.1587 26.4543Z" fill="#FF6600"/>
<path d="M53.3621 27.5184C53.6351 27.2728 53.9027 27.0212 54.1833 26.7952C54.251 26.7393 54.3229 26.689 54.3985 26.6445C54.4315 26.6248 54.4675 26.6107 54.5051 26.6029L54.6373 26.5775C54.8135 26.5448 54.9916 26.523 55.1705 26.5123C55.3503 26.5014 55.5354 26.5079 55.7216 26.4888C55.7723 26.4893 55.8223 26.4778 55.8677 26.4551C55.913 26.4325 55.9523 26.3994 55.9823 26.3586C56.011 26.3168 56.0281 26.2681 56.0319 26.2175C56.0358 26.167 56.0263 26.1163 56.0043 26.0705C55.9164 25.8976 55.7641 25.7661 55.5802 25.7045C55.4045 25.6371 55.2209 25.5923 55.0339 25.5713L55.0902 25.6542C55.1158 25.5711 55.1213 25.483 55.1063 25.3973C55.0987 25.3509 55.0819 25.3065 55.0569 25.2666C55.0319 25.2268 54.9992 25.1924 54.9607 25.1654C54.8119 25.0809 54.6383 25.0508 54.4698 25.0802C54.1631 25.1248 53.8652 25.2166 53.5866 25.3521C53.3111 25.4841 53.0495 25.6433 52.8057 25.8274C52.5636 26.0102 52.3413 26.218 52.1426 26.4473L52.1547 26.4593C52.3837 26.2674 52.6254 26.0909 52.878 25.9312C53.1266 25.7706 53.3878 25.6305 53.6591 25.5124C53.9255 25.3935 54.2045 25.3053 54.4908 25.2493C54.6193 25.2212 54.7533 25.2364 54.8723 25.2924C54.9194 25.3302 54.9538 25.3816 54.9707 25.4396C54.9877 25.4976 54.9864 25.5594 54.967 25.6166L54.9488 25.6961L55.0233 25.6997C55.2024 25.7034 55.3802 25.7306 55.5522 25.7805C55.6375 25.8008 55.7176 25.8391 55.787 25.8928C55.8564 25.9464 55.9135 26.0142 55.9547 26.0917C55.9725 26.129 55.98 26.1705 55.9762 26.2116C55.9725 26.2528 55.9577 26.2922 55.9335 26.3257C55.9092 26.3592 55.8764 26.3855 55.8384 26.4019C55.8004 26.4182 55.7587 26.4241 55.7177 26.4187C55.5376 26.4194 55.3562 26.3949 55.1695 26.3884C54.982 26.3795 54.7942 26.3926 54.6097 26.4274C54.5633 26.4343 54.5181 26.4464 54.4725 26.4566C54.4208 26.4696 54.3714 26.4907 54.3263 26.5192C54.2456 26.5705 54.1692 26.6281 54.0977 26.6917C53.8229 26.9389 53.5724 27.2119 53.3496 27.5069L53.3621 27.5184Z" fill="#FF6600"/>
<path d="M53.3597 27.5208L53.3621 27.5189L53.3606 27.5201C53.8083 27.3197 54.2728 27.1592 54.7486 27.0405C54.9839 26.9706 55.2263 26.9273 55.4713 26.9115C55.5936 26.9041 55.7164 26.9103 55.8374 26.9299C55.8936 26.933 55.9485 26.9472 55.9991 26.9716C56.0498 26.9961 56.095 27.0303 56.1324 27.0723C56.1761 27.1498 56.1053 27.2612 56.0306 27.3317C55.9494 27.4029 55.8472 27.4458 55.7395 27.4541C55.4863 27.4582 55.2348 27.4954 54.9912 27.5646C54.505 27.7088 54.0613 27.9694 53.6986 28.3239L53.7092 28.3371C54.1201 28.0715 54.569 27.8699 55.0406 27.7393C55.2746 27.674 55.5145 27.6317 55.7568 27.6133C55.8981 27.5965 56.0289 27.5305 56.1264 27.427C56.1753 27.3753 56.2123 27.3136 56.2347 27.2461C56.2488 27.2095 56.254 27.1702 56.2498 27.1312C56.2457 27.0923 56.2324 27.0549 56.211 27.0221C56.1134 26.9263 55.9826 26.8721 55.8459 26.8705C55.7211 26.8581 55.5956 26.8534 55.4702 26.8564C55.2189 26.8497 54.9675 26.865 54.7188 26.9021C54.2225 26.9947 53.7543 27.2011 53.3511 27.5051L53.3497 27.5062L53.3495 27.5063L53.3476 27.5088L53.3597 27.5208Z" fill="#FF6600"/>
<path d="M49.9613 29.5607C50.1215 29.9581 50.4213 30.2832 50.8045 30.475C50.9992 30.5675 51.2088 30.6247 51.4236 30.644C51.6369 30.6609 51.8516 30.644 52.0596 30.5939L52.0735 30.5908L52.0808 30.5859L53.5544 29.6038C53.6764 29.5206 53.7997 29.4387 53.9196 29.3508C54.0403 29.2661 54.1528 29.152 54.2626 29.0799C54.5108 28.9434 54.7894 28.8718 55.0727 28.8716C55.1441 28.8683 55.2157 28.8684 55.2874 28.8707C55.3682 28.8755 55.4492 28.8693 55.5282 28.8522C55.6964 28.8185 55.845 28.7211 55.943 28.5803C56.0005 28.5023 56.0271 28.4058 56.0178 28.3093C56.0004 28.2158 55.951 28.1312 55.878 28.0702C55.7531 27.956 55.5905 27.8918 55.4212 27.8898C55.1215 27.9045 54.8234 27.9429 54.5298 28.0046C54.2344 28.0543 53.952 28.1626 53.6991 28.3232L53.6951 28.3305C53.6946 28.3278 53.6994 28.3232 53.7017 28.3242V28.3412C53.7064 28.3423 53.7134 28.3357 53.7127 28.3306L53.7087 28.3378C53.9742 28.2168 54.2581 28.1411 54.5485 28.1136C54.8355 28.0763 55.1245 28.0559 55.4139 28.0526C55.6614 28.0631 55.9556 28.2918 55.7929 28.4781C55.7199 28.5813 55.6114 28.6542 55.4882 28.6826C55.4235 28.6986 55.3569 28.7054 55.2903 28.703C55.2148 28.7027 55.139 28.7048 55.0635 28.7105C54.7545 28.7194 54.4539 28.8128 54.1943 28.9806C54.0656 29.0817 53.9805 29.19 53.8653 29.2824C53.7525 29.3751 53.6391 29.4685 53.5191 29.5533C53.0388 29.8935 52.5352 30.1995 52.012 30.469L52.0331 30.461C51.6399 30.5399 51.2323 30.5031 50.8596 30.355C50.6763 30.2738 50.5077 30.163 50.3604 30.027C50.2097 29.8894 50.0804 29.7299 49.9769 29.554L49.9613 29.5607ZM55.0156 25.5515C54.8059 25.5953 54.5994 25.6532 54.3976 25.725C54.1963 25.7945 54.0006 25.8791 53.812 25.978C53.4268 26.1618 53.104 26.4547 52.8838 26.8203C53.1234 26.4758 53.4592 26.2094 53.8493 26.0546C54.0393 25.9706 54.2354 25.9012 54.4359 25.8468C54.6346 25.7909 54.8368 25.7485 55.0412 25.7198L55.0156 25.5515Z" fill="#FF6600"/>
<path d="M52.4218 25.6396L52.4342 25.5856L52.4345 25.5841C52.5224 25.181 52.6011 24.7735 52.6603 24.3635C52.6907 24.1586 52.7174 23.953 52.7404 23.7468L52.7717 23.4372L52.7957 23.1414L52.7978 23.1268C52.8699 22.027 52.8124 20.9225 52.6267 19.8361C52.5341 19.2911 52.41 18.7599 52.2662 18.2232C52.1911 17.9429 52.0675 17.6779 51.9007 17.4404C51.8125 17.31 51.6994 17.1984 51.5679 17.1118C51.4364 17.0252 51.2891 16.9654 51.1345 16.9358L51.0719 16.926L51.0201 16.9829C50.2898 17.7848 49.56 18.5872 48.8417 19.3998L47.7596 20.6147L46.6889 21.8398L46.6204 21.9181L46.6867 21.994L48.8056 24.4156L50.9045 26.8541L50.9017 26.8505C50.9741 26.9635 51.0231 27.0898 51.0461 27.222C51.069 27.3542 51.0654 27.4896 51.0353 27.6204C50.979 27.8905 50.8799 28.1499 50.7419 28.3888C50.4655 28.8733 50.1255 29.3186 49.731 29.7129L49.8208 29.7061C48.1003 28.3985 46.3923 27.0704 44.7406 25.6812C44.3296 25.3322 43.9213 24.9797 43.5237 24.6188C43.3228 24.4397 43.1291 24.2552 42.9403 24.0669C42.8419 23.9753 42.757 23.8759 42.6675 23.7793C42.6242 23.7304 42.5764 23.6834 42.5367 23.6328L42.4234 23.4787C42.2743 23.2749 42.1592 23.0485 42.0823 22.808C42.0152 22.5674 41.9889 22.3173 42.0045 22.068C42.0573 21.564 42.2509 21.085 42.5633 20.686L42.5735 20.6729L42.5773 20.6671C43.1572 19.771 43.748 18.8805 44.3498 17.9958C44.9495 17.111 45.5678 16.2394 46.1892 15.3712C46.8157 14.5075 47.4538 13.649 48.153 12.8506C48.3343 12.6599 48.5071 12.4536 48.6991 12.2834C48.8923 12.1091 49.1019 11.9539 49.325 11.82C49.7782 11.552 50.2661 11.3476 50.7749 11.2125L50.7522 11.2154L50.7565 11.2154L50.7693 11.2152L50.7793 11.2124C51.3772 11.0546 51.9891 10.9553 52.6063 10.9158C53.2262 10.8726 53.8487 10.882 54.4671 10.9437L54.472 10.9101C53.8525 10.8214 53.2266 10.7854 52.601 10.8023C51.972 10.813 51.3459 10.8918 50.7338 11.0372L50.7565 11.0343L50.7522 11.0342L50.7418 11.0341L50.7294 11.0371C50.1982 11.1618 49.6868 11.3589 49.2094 11.623C48.9693 11.7578 48.7427 11.9155 48.533 12.0939C48.3193 12.274 48.1455 12.478 47.9543 12.6712C47.2284 13.4708 46.5726 14.3214 45.927 15.1784C45.2808 16.0351 44.6698 16.9164 44.0611 17.7984C43.4552 18.6828 42.8595 19.574 42.2739 20.4718L42.2878 20.453C41.9308 20.9118 41.7133 21.4636 41.661 22.0426C41.645 22.334 41.6787 22.626 41.7607 22.9061C41.8507 23.1806 41.9846 23.4388 42.1572 23.6705L42.2861 23.8415C42.3305 23.8965 42.3799 23.9443 42.4266 23.996C42.5217 24.0969 42.6141 24.2021 42.7147 24.2938C42.9108 24.4855 43.1109 24.671 43.315 24.8505C43.7198 25.2143 44.1402 25.5569 44.5605 25.8992C46.2497 27.2574 47.9851 28.5494 49.7389 29.8175L49.7884 29.8533L49.8287 29.8106C50.0237 29.6035 50.2074 29.3861 50.3792 29.1593C50.5523 28.9332 50.7079 28.6943 50.8446 28.4446C50.9865 28.1938 51.0874 27.9219 51.1434 27.6392C51.1747 27.4945 51.1768 27.345 51.1497 27.1994C51.1226 27.0539 51.0667 26.9152 50.9855 26.7914L50.984 26.7894L50.9826 26.7877L48.9139 24.3234L46.8651 21.8423L46.863 21.9963L47.9675 20.8016L49.0606 19.5966C49.7923 18.796 50.5127 17.9851 51.2324 17.1737L51.1181 17.2208C51.2268 17.2411 51.3296 17.2856 51.4188 17.351C51.5178 17.4229 51.6057 17.509 51.6796 17.6065C51.829 17.8163 51.9406 18.0505 52.0095 18.2987C52.1565 18.8156 52.2796 19.3504 52.3883 19.8799C52.5981 20.9463 52.6853 22.0332 52.6479 23.1194L52.6501 23.105C52.6466 23.1357 52.6447 23.1666 52.6444 23.1975L52.6418 23.2735L52.635 23.4276L52.6169 23.7357C52.6028 23.9411 52.5849 24.1462 52.5632 24.3512C52.5194 24.7611 52.4622 25.1691 52.3979 25.578L52.3982 25.5766L52.3888 25.6313L52.4218 25.6396Z" fill="#FF6600"/>
<path d="M56.5135 10.9402C56.866 11.2398 57.2185 11.5099 57.5764 11.7632C57.9285 12.0196 58.2942 12.2568 58.6719 12.4738L58.6883 12.2357C58.3527 12.4189 58.0239 12.6168 57.6839 12.7906C57.3426 12.962 56.9924 13.1153 56.635 13.2499L56.7299 13.2688L56.2201 12.6326C56.0485 12.4221 55.8689 12.2189 55.6896 12.0155C55.3336 11.6061 54.969 11.2047 54.5959 10.8111L54.4706 11.0963L56.5135 10.9402ZM56.5231 10.9075L54.4702 10.7559L54.0649 10.726L54.345 11.0412C54.7052 11.4466 55.0737 11.8445 55.4504 12.2348C55.6376 12.431 55.8245 12.6275 56.0194 12.8167L56.6092 13.3795L56.6567 13.4249L56.7041 13.3984C57.0374 13.212 57.3803 13.0432 57.7314 12.8928C58.0835 12.745 58.4467 12.6212 58.8032 12.4828L59.0248 12.3968L58.8196 12.2447C58.4552 11.9834 58.0774 11.7415 57.6877 11.5199C57.303 11.2947 56.9131 11.0863 56.5231 10.9075L56.5231 10.9075ZM65.2351 20.514C65.4211 20.6765 65.6158 20.8288 65.8182 20.9703C66.0134 21.1016 66.1898 21.2588 66.3428 21.4376C66.5076 21.6111 66.6336 21.8178 66.7123 22.0438C66.7854 22.2744 66.7986 22.5198 66.7507 22.757C66.6332 23.2172 66.4817 23.6982 66.377 24.1744C66.2705 24.6557 66.1924 25.1427 66.1431 25.6331L66.1643 25.6381C66.338 25.1768 66.4845 24.7058 66.6028 24.2274C66.6617 23.9889 66.7089 23.7477 66.7576 23.5069C66.8135 23.2643 66.8508 23.0177 66.8691 22.7694C66.8751 22.5181 66.8451 22.2672 66.7801 22.0244C66.7251 21.7757 66.6252 21.5391 66.4855 21.3261C66.3348 21.1172 66.1372 20.9465 65.9085 20.8279C65.6941 20.7052 65.4732 20.5943 65.2468 20.4956L65.2351 20.514Z" fill="#FF6600"/>
</svg>
