<svg width="25" height="26" viewBox="0 0 25 26" fill="none" xmlns="http://www.w3.org/2000/svg">
<path d="M22.4531 19.0874L12.8584 23.8638C12.7452 23.9123 12.6234 23.9374 12.5002 23.9374C12.3771 23.9374 12.2552 23.9123 12.1421 23.8638L2.54688 19.0874C2.35156 18.9898 2.35156 18.8296 2.54688 18.7315L4.84473 17.5899C4.95806 17.5413 5.08007 17.5163 5.20337 17.5163C5.32667 17.5163 5.44868 17.5413 5.56201 17.5899L12.1421 20.8613C12.2552 20.9101 12.3771 20.9353 12.5002 20.9353C12.6234 20.9353 12.7453 20.9101 12.8584 20.8613L19.4385 17.5899C19.5517 17.5413 19.6737 17.5162 19.7969 17.5162C19.9201 17.5162 20.042 17.5413 20.1553 17.5899L22.4531 18.7339C22.6509 18.8296 22.6509 18.9898 22.4531 19.0874ZM22.4531 12.4209L20.1553 11.2769C20.042 11.2283 19.9201 11.2032 19.7969 11.2032C19.6737 11.2032 19.5517 11.2283 19.4385 11.2769L12.8584 14.5523C12.7452 14.6006 12.6234 14.6255 12.5002 14.6255C12.3771 14.6255 12.2553 14.6006 12.1421 14.5523L5.56201 11.2769C5.44868 11.2283 5.32667 11.2033 5.20337 11.2033C5.08007 11.2033 4.95806 11.2283 4.84473 11.2769L2.54688 12.4209C2.35156 12.5186 2.35156 12.6792 2.54688 12.7778L12.1421 17.5532C12.2552 17.6018 12.3771 17.6268 12.5002 17.6268C12.6234 17.6268 12.7452 17.6018 12.8584 17.5532L22.4531 12.7778C22.6509 12.6792 22.6509 12.5191 22.4531 12.4209ZM2.54688 6.86817L12.1416 11.2769C12.3718 11.3672 12.6277 11.3672 12.8579 11.2769L22.4531 6.86817C22.6484 6.77735 22.6484 6.6294 22.4531 6.53907L12.8579 2.13087C12.6279 2.03955 12.3716 2.03955 12.1416 2.13087L2.54688 6.53907C2.34912 6.6294 2.34912 6.77735 2.54688 6.86817Z" fill="#FF6600"/>
</svg>
