<svg width="100" height="100" viewBox="0 0 100 100" fill="none" xmlns="http://www.w3.org/2000/svg">
<path d="M71.8779 28.125H15.6279C12.1761 28.125 9.37793 30.9232 9.37793 34.375V78.125C9.37793 81.5768 12.1761 84.375 15.6279 84.375H71.8779C75.3297 84.375 78.1279 81.5768 78.1279 78.125V34.375C78.1279 30.9232 75.3297 28.125 71.8779 28.125Z" fill="#FF6600"/>
<path d="M84.3779 15.625H25.0029C24.1741 15.625 23.3793 15.9542 22.7932 16.5403C22.2072 17.1263 21.8779 17.9212 21.8779 18.75C21.8779 19.5788 22.2072 20.3737 22.7932 20.9597C23.3793 21.5458 24.1741 21.875 25.0029 21.875H84.3779V68.75C84.3779 69.5788 84.7072 70.3737 85.2932 70.9597C85.8793 71.5458 86.6741 71.875 87.5029 71.875C88.3317 71.875 89.1266 71.5458 89.7126 70.9597C90.2987 70.3737 90.6279 69.5788 90.6279 68.75V21.875C90.626 20.218 89.9669 18.6294 88.7953 17.4577C87.6236 16.286 86.035 15.6269 84.3779 15.625Z" fill="#FF6600"/>
</svg>
