<svg width="59" height="59" viewBox="0 0 59 59" fill="none" xmlns="http://www.w3.org/2000/svg">
<path d="M46.7083 14.75H39.3333V7.37499C39.3333 6.723 39.0743 6.09771 38.6133 5.63669C38.1523 5.17566 37.527 4.91666 36.875 4.91666C36.223 4.91666 35.5977 5.17566 35.1367 5.63669C34.6757 6.09771 34.4167 6.723 34.4167 7.37499V14.75H24.5833V7.37499C24.5833 6.723 24.3243 6.09771 23.8633 5.63669C23.4023 5.17566 22.777 4.91666 22.125 4.91666C21.473 4.91666 20.8477 5.17566 20.3867 5.63669C19.9257 6.09771 19.6667 6.723 19.6667 7.37499V14.75H12.2917C11.6397 14.75 11.0144 15.009 10.5534 15.47C10.0923 15.931 9.83334 16.5563 9.83334 17.2083C9.83334 17.8603 10.0923 18.4856 10.5534 18.9466C11.0144 19.4077 11.6397 19.6667 12.2917 19.6667H14.75V31.9583C14.7481 32.2819 14.8102 32.6026 14.9325 32.9021C15.0548 33.2016 15.2351 33.474 15.4629 33.7037L22.125 40.3412V51.625C22.125 52.277 22.384 52.9023 22.845 53.3633C23.3061 53.8243 23.9314 54.0833 24.5833 54.0833C25.2353 54.0833 25.8606 53.8243 26.3216 53.3633C26.7827 52.9023 27.0417 52.277 27.0417 51.625V41.7917H31.9583V51.625C31.9583 52.277 32.2173 52.9023 32.6784 53.3633C33.1394 53.8243 33.7647 54.0833 34.4167 54.0833C35.0687 54.0833 35.694 53.8243 36.155 53.3633C36.616 52.9023 36.875 52.277 36.875 51.625V40.3412L43.5371 33.7037C43.7649 33.474 43.9452 33.2016 44.0675 32.9021C44.1899 32.6026 44.2519 32.2819 44.25 31.9583V19.6667H46.7083C47.3603 19.6667 47.9856 19.4077 48.4466 18.9466C48.9077 18.4856 49.1667 17.8603 49.1667 17.2083C49.1667 16.5563 48.9077 15.931 48.4466 15.47C47.9856 15.009 47.3603 14.75 46.7083 14.75ZM39.3333 30.9504L33.4088 36.875H25.5913L19.6667 30.9504V19.6667H39.3333V30.9504ZM27.0417 31.9583H31.9583C32.6103 31.9583 33.2356 31.6993 33.6966 31.2383C34.1577 30.7773 34.4167 30.152 34.4167 29.5C34.4167 28.848 34.1577 28.2227 33.6966 27.7617C33.2356 27.3007 32.6103 27.0417 31.9583 27.0417H27.0417C26.3897 27.0417 25.7644 27.3007 25.3034 27.7617C24.8423 28.2227 24.5833 28.848 24.5833 29.5C24.5833 30.152 24.8423 30.7773 25.3034 31.2383C25.7644 31.6993 26.3897 31.9583 27.0417 31.9583Z" fill="#FF6600"/>
</svg>
