<svg width="169" height="218" viewBox="0 0 169 218" fill="none" xmlns="http://www.w3.org/2000/svg">
<path d="M166.39 0.647217C166.975 0.0614331 167.925 0.0614377 168.511 0.647226C169.097 1.23301 169.097 2.18276 168.511 2.76855L166.39 0.647217ZM26.404 15.3173L27.1067 16.6425L26.404 15.3173ZM15.0491 80.1712L13.7242 80.8745L15.0491 80.1712ZM65.5806 114.561L65.4138 116.051L65.5806 114.561ZM70.5222 90.6531L69.4893 91.7408L70.5222 90.6531ZM14.0715 75.7331L13.8217 74.254L14.0715 75.7331ZM11.0358 121.824L12.3923 121.184L11.0358 121.824ZM58.5 195.5L59.3175 194.242L58.5 195.5ZM122.5 203L112.788 217.341L105.224 201.76L122.5 203ZM165.998 4.83931C165.315 5.30784 164.381 5.1338 163.913 4.45059C163.444 3.76738 163.618 2.83371 164.302 2.36519L165.998 4.83931ZM159.294 4.90385C160.068 4.60985 160.934 4.99938 161.228 5.77388C161.522 6.54838 161.133 7.41458 160.358 7.70857L159.294 4.90385ZM154.44 9.47442C153.633 9.66198 152.827 9.1599 152.639 8.35299C152.451 7.54607 152.954 6.73989 153.76 6.55232L154.44 9.47442ZM148.011 7.6211C148.831 7.50111 149.592 8.06834 149.712 8.88803C149.832 9.70773 149.265 10.4695 148.446 10.5895L148.011 7.6211ZM142.411 11.2918C141.586 11.3661 140.857 10.7575 140.783 9.93241C140.708 9.10732 141.317 8.37822 142.142 8.30391L142.411 11.2918ZM136.22 8.71474C137.047 8.67258 137.752 9.30911 137.794 10.1365C137.836 10.9638 137.2 11.6687 136.373 11.7109L136.22 8.71474ZM130.362 11.9285C129.533 11.9475 128.847 11.2915 128.828 10.4632C128.809 9.63504 129.465 8.94825 130.293 8.92926L130.362 11.9285ZM124.34 9.00151C125.168 8.9995 125.841 9.66945 125.843 10.4979C125.845 11.3263 125.175 11.9995 124.347 12.0015L124.34 9.00151ZM118.336 11.9688C117.507 11.9585 116.844 11.2786 116.855 10.4502C116.865 9.62186 117.545 8.95872 118.373 8.96905L118.336 11.9688ZM112.401 8.86125C113.229 8.88027 113.885 9.56708 113.866 10.3953C113.847 11.2235 113.16 11.8795 112.332 11.8605L112.401 8.86125ZM106.336 11.7007C105.508 11.6761 104.856 10.9848 104.881 10.1567C104.906 9.32868 105.597 8.67739 106.425 8.70204L106.336 11.7007ZM100.448 8.51189C101.276 8.5395 101.925 9.23309 101.898 10.0611C101.87 10.889 101.176 11.5378 100.348 11.5102L100.448 8.51189ZM94.3668 11.3074C93.5389 11.2793 92.8905 10.5853 92.9186 9.75737C92.9467 8.92943 93.6407 8.28104 94.4687 8.30916L94.3668 11.3074ZM88.4826 8.11127C89.3106 8.13749 89.9606 8.82998 89.9344 9.65799C89.9082 10.486 89.2157 11.136 88.3877 11.1098L88.4826 8.11127ZM82.4112 10.9349C81.5831 10.9131 80.9294 10.224 80.9512 9.3959C80.9731 8.56776 81.6621 7.91411 82.4902 7.93592L82.4112 10.9349ZM76.4914 7.80197C77.3197 7.81666 77.9792 8.50004 77.9645 9.32833C77.9498 10.1566 77.2665 10.8162 76.4382 10.8015L76.4914 7.80197ZM70.4704 10.7306C69.642 10.7261 68.974 10.051 68.9784 9.22257C68.9829 8.39415 69.658 7.72618 70.4864 7.73061L70.4704 10.7306ZM64.4772 7.7469C65.3055 7.73728 65.9849 8.401 65.9945 9.22937C66.0041 10.0577 65.3404 10.7371 64.512 10.7467L64.4772 7.7469ZM58.5709 10.8801C57.743 10.9085 57.0487 10.2604 57.0203 9.43251C56.9918 8.60457 57.6399 7.91031 58.4678 7.88183L58.5709 10.8801ZM52.4409 8.17714C53.2675 8.12328 53.9813 8.74978 54.0352 9.57645C54.0891 10.4031 53.4626 11.1169 52.6359 11.1708L52.4409 8.17714ZM46.722 11.674C45.8983 11.7625 45.1589 11.1664 45.0704 10.3427C44.982 9.51906 45.578 8.77961 46.4017 8.69114L46.722 11.674ZM40.3976 9.50429C41.2146 9.36766 41.9878 9.91927 42.1244 10.7363C42.2611 11.5534 41.7094 12.3266 40.8924 12.4632L40.3976 9.50429ZM35.1496 13.6636C34.3474 13.8707 33.5293 13.3883 33.3223 12.5861C33.1153 11.784 33.5977 10.9659 34.3998 10.7588L35.1496 13.6636ZM28.5411 12.6693C29.3078 12.3555 30.1837 12.7227 30.4975 13.4894C30.8113 14.2561 30.4441 15.132 29.6774 15.4458L28.5411 12.6693ZM24.6223 18.1121C23.93 18.5671 23 18.3747 22.545 17.6824C22.09 16.9901 22.2824 16.0601 22.9747 15.6051L24.6223 18.1121ZM18.0494 19.5705C18.6415 18.991 19.5911 19.0012 20.1706 19.5932C20.7501 20.1853 20.7399 21.135 20.1479 21.7144L18.0494 19.5705ZM16.4347 26.1134C15.9613 26.7933 15.0264 26.9606 14.3466 26.4872C13.6667 26.0138 13.4994 25.079 13.9728 24.3991L16.4347 26.1134ZM10.8377 29.8557C11.1892 29.1055 12.0822 28.7823 12.8324 29.1337C13.5826 29.4852 13.9058 30.3783 13.5543 31.1284L10.8377 29.8557ZM11.4924 36.5706C11.2555 37.3644 10.4199 37.8159 9.62607 37.579C8.83224 37.3421 8.38075 36.5065 8.61765 35.7127L11.4924 36.5706ZM7.22897 41.7899C7.36282 40.9723 8.13407 40.4181 8.95161 40.5519C9.76915 40.6857 10.3234 41.457 10.1896 42.2745L7.22897 41.7899ZM9.57216 48.1179C9.53024 48.9453 8.82555 49.582 7.99819 49.5401C7.17083 49.4982 6.53409 48.7935 6.57599 47.9661L9.57216 48.1179ZM6.57784 54.1617C6.53664 53.3343 7.17399 52.6301 8.0014 52.5889C8.82878 52.5477 9.53292 53.1851 9.57413 54.0125L6.57784 54.1617ZM10.1457 59.8892C10.2641 60.7092 9.69535 61.4698 8.87542 61.5882C8.0555 61.7066 7.29485 61.1379 7.17647 60.3179L10.1457 59.8892ZM8.33833 66.3897C8.14563 65.5839 8.64258 64.7746 9.44828 64.5819C10.254 64.3892 11.0633 64.8861 11.256 65.6918L8.33833 66.3897ZM12.8947 71.3634C13.162 72.1475 12.7432 72.9999 11.9591 73.2673C11.175 73.5347 10.3226 73.1158 10.0552 72.3317L12.8947 71.3634ZM12.3486 78.0921C12.0024 77.3395 12.3319 76.4487 13.0845 76.1026C13.8371 75.7564 14.7279 76.0859 15.0741 76.8385L12.3486 78.0921ZM17.8972 82.1377C18.329 82.8447 18.1059 83.7679 17.3988 84.1996C16.6918 84.6314 15.7687 84.4082 15.3369 83.7012L17.8972 82.1377ZM19.025 89.0468C18.5188 88.3911 18.64 87.4491 19.2957 86.9428C19.9515 86.4366 20.8935 86.5578 21.3997 87.2135L19.025 89.0468ZM25.4163 91.9144C25.9841 92.5176 25.9553 93.4669 25.352 94.0347C24.7488 94.6025 23.7994 94.5737 23.2317 93.9704L25.4163 91.9144ZM27.8722 98.4721C27.2525 97.9223 27.1958 96.9743 27.7456 96.3546C28.2954 95.7349 29.2434 95.6782 29.8631 96.228L27.8722 98.4721ZM34.6757 100.141C35.3402 100.635 35.4778 101.575 34.9831 102.239C34.4884 102.904 33.5487 103.042 32.8842 102.547L34.6757 100.141ZM38.2217 106.181C37.5179 105.744 37.3016 104.82 37.7386 104.116C38.1756 103.412 39.1004 103.196 39.8042 103.633L38.2217 106.181ZM45.208 106.677C45.9467 107.052 46.2415 107.954 45.8665 108.693C45.4914 109.432 44.5886 109.727 43.8499 109.351L45.208 106.677ZM49.74 112.018C48.9705 111.711 48.5955 110.839 48.9024 110.069C49.2093 109.3 50.0819 108.925 50.8513 109.232L49.74 112.018ZM56.6978 111.242C57.4937 111.473 57.9523 112.304 57.7222 113.1C57.4921 113.896 56.6605 114.355 55.8646 114.124L56.6978 111.242ZM62.1918 115.591C61.3756 115.449 60.8287 114.673 60.9704 113.856C61.1121 113.04 61.8886 112.493 62.7048 112.635L62.1918 115.591ZM68.5523 113.227C69.3807 113.221 70.0573 113.887 70.0636 114.715C70.0699 115.544 69.4034 116.22 68.575 116.227L68.5523 113.227ZM75.0312 114.886C74.2893 115.255 73.3891 114.953 73.0204 114.211C72.6518 113.469 72.9544 112.568 73.6963 112.2L75.0312 114.886ZM76.7081 108.705C76.9516 107.913 77.7908 107.468 78.5827 107.712C79.3745 107.955 79.8191 108.794 79.5757 109.586L76.7081 108.705ZM79.6307 102.909C79.8148 103.716 79.3091 104.52 78.5014 104.704C77.6937 104.888 76.8897 104.383 76.7057 103.575L79.6307 102.909ZM74.6794 98.4219C74.2801 97.6961 74.5447 96.784 75.2706 96.3846C75.9964 95.9853 76.9085 96.2499 77.3079 96.9758L74.6794 98.4219ZM73.7175 91.8344C74.2585 92.4617 74.1885 93.4089 73.5611 93.9499C72.9338 94.4909 71.9866 94.4209 71.4456 93.7936L73.7175 91.8344ZM67.3136 89.8217C66.6733 89.2961 66.5803 88.3509 67.1058 87.7106C67.6314 87.0702 68.5766 86.9772 69.217 87.5028L67.3136 89.8217ZM64.1711 83.8824C64.8725 84.3232 65.0837 85.2492 64.6429 85.9506C64.2021 86.652 63.2761 86.8632 62.5747 86.4224L64.1711 83.8824ZM57.4503 83.5799C56.706 83.216 56.3976 82.3178 56.7614 81.5735C57.1253 80.8292 58.0235 80.5208 58.7678 80.8846L57.4503 83.5799ZM53.1127 78.4428C53.8873 78.7366 54.2771 79.6026 53.9834 80.3772C53.6897 81.1518 52.8236 81.5417 52.049 81.2479L53.1127 78.4428ZM46.4509 79.3897C45.6547 79.1609 45.1948 78.3299 45.4236 77.5337C45.6524 76.7375 46.4834 76.2776 47.2796 76.5064L46.4509 79.3897ZM41.3192 75.0408C42.1307 75.2078 42.653 76.001 42.486 76.8124C42.3189 77.6239 41.5258 78.1462 40.7143 77.9792L41.3192 75.0408ZM34.8843 77.0038C34.0627 76.8976 33.4828 76.1454 33.5891 75.3238C33.6953 74.5022 34.4475 73.9223 35.2691 74.0286L34.8843 77.0038ZM29.1594 73.4699C29.9866 73.514 30.6214 74.2204 30.5773 75.0477C30.5331 75.8749 29.8267 76.5098 28.9995 76.4656L29.1594 73.4699ZM23.0991 76.3835C22.271 76.4056 21.5818 75.7522 21.5596 74.9241C21.5375 74.096 22.1909 73.4067 23.0191 73.3846L23.0991 76.3835ZM16.8757 73.8188C17.6985 73.7225 18.4436 74.3114 18.5399 75.1342C18.6363 75.957 18.0474 76.7021 17.2246 76.7985L16.8757 73.8188ZM11.3694 77.9939C10.5946 78.2873 9.72874 77.8971 9.43536 77.1224C9.14198 76.3476 9.53219 75.4818 10.3069 75.1884L11.3694 77.9939ZM4.31018 79.5265C4.81835 78.8722 5.76069 78.7538 6.41494 79.262C7.0692 79.7701 7.18763 80.7125 6.67946 81.3667L4.31018 79.5265ZM4.34262 86.8128C4.18124 87.6253 3.39172 88.1532 2.57916 87.9918C1.7666 87.8304 1.23872 87.0409 1.40009 86.2284L4.34262 86.8128ZM0.992807 93.2565C0.946947 92.4293 1.5803 91.7216 2.40746 91.6757C3.23462 91.6299 3.94234 92.2632 3.98821 93.0904L0.992807 93.2565ZM4.84329 99.4985C5.0061 100.311 4.47961 101.101 3.66734 101.264C2.85506 101.427 2.06461 100.9 1.9018 100.088L4.84329 99.4985ZM3.56724 106.7C3.3302 105.906 3.78156 105.07 4.57536 104.833C5.36915 104.596 6.2048 105.048 6.44182 105.841L3.56724 106.7ZM8.54573 112.078C8.83574 112.854 8.44176 113.718 7.66575 114.008C6.88975 114.298 6.02558 113.904 5.73557 113.128L8.54573 112.078ZM8.28396 119.398C7.95114 118.639 8.29632 117.754 9.05494 117.422C9.81357 117.089 10.6984 117.434 11.0312 118.193L8.28396 119.398ZM13.7391 124.068C14.0869 124.82 13.7592 125.711 13.0073 126.059C12.2553 126.407 11.3639 126.079 11.0162 125.327L13.7391 124.068ZM13.6437 131.089C13.3028 130.334 13.6387 129.445 14.3938 129.104C15.1489 128.764 16.0372 129.099 16.378 129.854L13.6437 131.089ZM18.9826 135.646C19.3223 136.401 18.9852 137.289 18.2296 137.629C17.474 137.969 16.5861 137.631 16.2464 136.876L18.9826 135.646ZM18.866 142.667C18.522 141.914 18.8541 141.024 19.6078 140.68C20.3614 140.336 21.2512 140.668 21.5952 141.422L18.866 142.667ZM24.2552 147.163C24.6085 147.913 24.2876 148.807 23.5383 149.16C22.789 149.513 21.8951 149.192 21.5418 148.443L24.2552 147.163ZM24.3138 154.185C23.946 153.443 24.2496 152.543 24.9919 152.175C25.7342 151.807 26.6341 152.111 27.0019 152.853L24.3138 154.185ZM29.8734 158.469C30.2608 159.201 29.9812 160.109 29.249 160.496C28.5167 160.883 27.609 160.604 27.2216 159.872L29.8734 158.469ZM30.3066 165.477C29.8942 164.758 30.1424 163.841 30.8609 163.429C31.5794 163.017 32.4961 163.265 32.9085 163.983L30.3066 165.477ZM36.1479 169.365C36.5909 170.065 36.3824 170.992 35.6823 171.435C34.9823 171.878 34.0557 171.669 33.6127 170.969L36.1479 169.365ZM37.1863 176.31C36.7071 175.635 36.8664 174.698 37.5421 174.219C38.2178 173.74 39.1541 173.899 39.6334 174.575L37.1863 176.31ZM43.4044 179.559C43.9256 180.203 43.8261 181.148 43.1822 181.669C42.5382 182.19 41.5937 182.091 41.0725 181.447L43.4044 179.559ZM45.3158 186.314C44.7477 185.711 44.776 184.761 45.3789 184.193C45.9819 183.625 46.9312 183.653 47.4993 184.256L45.3158 186.314ZM51.9496 188.594C52.5681 189.145 52.6227 190.093 52.0715 190.712C51.5203 191.33 50.5721 191.385 49.9537 190.834L51.9496 188.594ZM55.0034 194.913C54.3337 194.425 54.1861 193.487 54.6737 192.817C55.1613 192.148 56.0995 192 56.7692 192.488L55.0034 194.913ZM61.5666 195.506C62.3075 195.876 62.6078 196.777 62.2372 197.518C61.8667 198.259 60.9657 198.56 60.2247 198.189L61.5666 195.506ZM65.4277 200.435C64.6536 200.14 64.265 199.274 64.5599 198.499C64.8548 197.725 65.7214 197.337 66.4956 197.632L65.4277 200.435ZM71.6343 199.412C72.4242 199.661 72.8619 200.504 72.612 201.294C72.3621 202.084 71.5193 202.522 70.7294 202.272L71.6343 199.412ZM76.1024 203.836C75.3021 203.622 74.8269 202.8 75.041 202C75.255 201.199 76.0773 200.724 76.8776 200.938L76.1024 203.836ZM82.179 202.24C82.9875 202.421 83.496 203.223 83.315 204.031C83.1339 204.84 82.3318 205.348 81.5234 205.167L82.179 202.24ZM86.9975 206.275C86.1823 206.128 85.6409 205.348 85.7883 204.532C85.9357 203.717 86.7161 203.176 87.5313 203.323L86.9975 206.275ZM92.9202 204.175C93.7412 204.286 94.3171 205.041 94.2066 205.862C94.0961 206.683 93.3409 207.259 92.5199 207.148L92.9202 204.175ZM98.0872 207.755C97.2615 207.687 96.6469 206.963 96.7145 206.137C96.782 205.312 97.5061 204.697 98.3318 204.765L98.0872 207.755ZM103.753 205.04C104.582 205.054 105.242 205.737 105.227 206.565C105.213 207.394 104.53 208.054 103.702 208.039L103.753 205.04ZM109.346 207.908C108.52 207.964 107.804 207.34 107.748 206.513C107.691 205.687 108.316 204.971 109.142 204.915L109.346 207.908ZM114.441 204.249C115.255 204.092 116.041 204.624 116.198 205.437C116.355 206.251 115.823 207.037 115.01 207.194L114.441 204.249ZM120.588 205.592C119.82 205.902 118.945 205.531 118.635 204.763C118.324 203.995 118.695 203.121 119.463 202.811L120.588 205.592ZM168.511 2.76855C167.759 3.52052 166.918 4.20888 165.998 4.83931L164.302 2.36519C165.085 1.82776 165.781 1.2554 166.39 0.647217L168.511 2.76855ZM160.358 7.70857C158.541 8.39848 156.559 8.98178 154.44 9.47442L153.76 6.55232C155.776 6.08386 157.625 5.53714 159.294 4.90385L160.358 7.70857ZM148.446 10.5895C146.515 10.872 144.499 11.1037 142.411 11.2918L142.142 8.30391C144.184 8.12004 146.143 7.89446 148.011 7.6211L148.446 10.5895ZM136.373 11.7109C134.416 11.8106 132.41 11.8815 130.362 11.9285L130.293 8.92926C132.317 8.88286 134.295 8.81283 136.22 8.71474L136.373 11.7109ZM124.347 12.0015C122.371 12.0063 120.365 11.9941 118.336 11.9688L118.373 8.96905C120.39 8.99422 122.381 9.00625 124.34 9.00151L124.347 12.0015ZM112.332 11.8605C110.348 11.8149 108.347 11.7606 106.336 11.7007L106.425 8.70204C108.431 8.76174 110.425 8.81589 112.401 8.86125L112.332 11.8605ZM100.348 11.5102C98.3579 11.4438 96.3614 11.3752 94.3668 11.3074L94.4687 8.30916C96.465 8.37696 98.4591 8.44554 100.448 8.51189L100.348 11.5102ZM88.3877 11.1098C86.3875 11.0464 84.3937 10.9871 82.4112 10.9349L82.4902 7.93592C84.4794 7.98832 86.4788 8.04783 88.4826 8.11127L88.3877 11.1098ZM76.4382 10.8015C74.4286 10.7659 72.4374 10.7411 70.4704 10.7306L70.4864 7.73061C72.4677 7.7412 74.4714 7.76614 76.4914 7.80197L76.4382 10.8015ZM64.512 10.7467C62.495 10.7701 60.5124 10.8133 58.5709 10.8801L58.4678 7.88183C60.4348 7.81416 62.4404 7.77056 64.4772 7.7469L64.512 10.7467ZM52.6359 11.1708C50.6014 11.3033 48.6272 11.4694 46.722 11.674L46.4017 8.69114C48.3538 8.48147 50.3702 8.31203 52.4409 8.17714L52.6359 11.1708ZM40.8924 12.4632C38.8628 12.8026 36.9443 13.2004 35.1496 13.6636L34.3998 10.7588C36.2917 10.2705 38.2966 9.85563 40.3976 9.50429L40.8924 12.4632ZM29.6774 15.4458C28.7656 15.819 27.9081 16.2175 27.1067 16.6425L25.7012 13.9921C26.5988 13.5161 27.547 13.0762 28.5411 12.6693L29.6774 15.4458ZM27.1067 16.6425C26.2424 17.1008 25.4146 17.5915 24.6223 18.1121L22.9747 15.6051C23.8458 15.0326 24.7544 14.4942 25.7012 13.9921L27.1067 16.6425ZM20.1479 21.7144C18.7654 23.0675 17.5302 24.5402 16.4347 26.1134L13.9728 24.3991C15.1713 22.678 16.5272 21.0604 18.0494 19.5705L20.1479 21.7144ZM13.5543 31.1284C12.7393 32.8681 12.054 34.6885 11.4924 36.5706L8.61765 35.7127C9.21883 33.6981 9.95567 31.7383 10.8377 29.8557L13.5543 31.1284ZM10.1896 42.2745C9.87587 44.1907 9.67212 46.1446 9.57216 48.1179L6.57599 47.9661C6.6813 45.8874 6.89626 43.8222 7.22897 41.7899L10.1896 42.2745ZM9.57413 54.0125C9.67199 55.9781 9.86468 57.9429 10.1457 59.8892L7.17647 60.3179C6.88242 58.2813 6.68048 56.2231 6.57784 54.1617L9.57413 54.0125ZM11.256 65.6918C11.7194 67.6292 12.2681 69.5261 12.8947 71.3634L10.0552 72.3317C9.39787 70.4041 8.82316 68.4169 8.33833 66.3897L11.256 65.6918ZM15.0741 76.8385C15.4883 77.739 15.922 78.6164 16.374 79.4679L13.7242 80.8745C13.2447 79.9712 12.7858 79.0427 12.3486 78.0921L15.0741 76.8385ZM16.374 79.4679C16.8507 80.366 17.359 81.2563 17.8972 82.1377L15.3369 83.7012C14.7682 82.7699 14.2299 81.8273 13.7242 80.8745L16.374 79.4679ZM21.3997 87.2135C22.6455 88.8273 23.9885 90.3973 25.4163 91.9144L23.2317 93.9704C21.7396 92.385 20.3328 90.7409 19.025 89.0468L21.3997 87.2135ZM29.8631 96.228C31.4035 97.5946 33.0117 98.9016 34.6757 100.141L32.8842 102.547C31.1522 101.257 29.4775 99.8963 27.8722 98.4721L29.8631 96.228ZM39.8042 103.633C41.5663 104.727 43.3716 105.744 45.208 106.677L43.8499 109.351C41.9359 108.38 40.0558 107.32 38.2217 106.181L39.8042 103.633ZM50.8513 109.232C52.7856 110.003 54.7387 110.676 56.6978 111.242L55.8646 114.124C53.8076 113.53 51.7617 112.824 49.74 112.018L50.8513 109.232ZM62.7048 112.635C63.7219 112.812 64.7367 112.957 65.7475 113.07L65.4138 116.051C64.3413 115.931 63.2667 115.777 62.1918 115.591L62.7048 112.635ZM65.7475 113.07C66.7619 113.184 67.6955 113.233 68.5523 113.227L68.575 116.227C67.5867 116.234 66.5335 116.177 65.4138 116.051L65.7475 113.07ZM73.6963 112.2C75.3012 111.402 76.2506 110.193 76.7081 108.705L79.5757 109.586C78.8817 111.844 77.389 113.715 75.0312 114.886L73.6963 112.2ZM76.7057 103.575C76.33 101.926 75.6429 100.173 74.6794 98.4219L77.3079 96.9758C78.384 98.9316 79.1836 100.946 79.6307 102.909L76.7057 103.575ZM71.4456 93.7936C70.8328 93.083 70.1792 92.3959 69.4893 91.7408L71.555 89.5653C72.3182 90.29 73.0406 91.0494 73.7175 91.8344L71.4456 93.7936ZM69.4893 91.7408C68.7944 91.081 68.0684 90.4412 67.3136 89.8217L69.217 87.5028C70.0254 88.1663 70.8057 88.8538 71.555 89.5653L69.4893 91.7408ZM62.5747 86.4224C60.9464 85.399 59.2327 84.4511 57.4503 83.5799L58.7678 80.8846C60.6394 81.7996 62.4468 82.7987 64.1711 83.8824L62.5747 86.4224ZM52.049 81.2479C50.2241 80.5559 48.3529 79.9363 46.4509 79.3897L47.2796 76.5064C49.2577 77.0749 51.2075 77.7204 53.1127 78.4428L52.049 81.2479ZM40.7143 77.9792C38.7796 77.5809 36.8311 77.2556 34.8843 77.0038L35.2691 74.0286C37.2891 74.2899 39.311 74.6274 41.3192 75.0408L40.7143 77.9792ZM28.9995 76.4656C27.007 76.3592 25.0346 76.3319 23.0991 76.3835L23.0191 73.3846C25.0368 73.3307 27.0894 73.3594 29.1594 73.4699L28.9995 76.4656ZM17.2246 76.7985C16.2397 76.9138 15.2711 77.0517 14.3213 77.2121L13.8217 74.254C14.8233 74.0848 15.8422 73.9398 16.8757 73.8188L17.2246 76.7985ZM14.3213 77.2121C13.2258 77.3972 12.2456 77.6621 11.3694 77.9939L10.3069 75.1884C11.3818 74.7813 12.5522 74.4684 13.8217 74.254L14.3213 77.2121ZM6.67946 81.3667C5.52522 82.8528 4.76443 84.6889 4.34262 86.8128L1.40009 86.2284C1.89074 83.758 2.80772 81.4609 4.31018 79.5265L6.67946 81.3667ZM3.98821 93.0904C4.1027 95.1549 4.40523 97.3129 4.84329 99.4985L1.9018 100.088C1.44214 97.7948 1.1168 95.4925 0.992807 93.2565L3.98821 93.0904ZM6.44182 105.841C7.0856 107.997 7.80639 110.099 8.54573 112.078L5.73557 113.128C4.97656 111.097 4.23331 108.93 3.56724 106.7L6.44182 105.841ZM11.0312 118.193C11.5152 119.296 11.9754 120.301 12.3923 121.184L9.67926 122.464C9.25137 121.558 8.77972 120.528 8.28396 119.398L11.0312 118.193ZM12.3923 121.184C12.8427 122.138 13.2914 123.1 13.7391 124.068L11.0162 125.327C10.5712 124.365 10.1258 123.41 9.67926 122.464L12.3923 121.184ZM16.378 129.854C17.2427 131.77 18.1102 133.705 18.9826 135.646L16.2464 136.876C15.3722 134.931 14.5072 133.002 13.6437 131.089L16.378 129.854ZM21.5952 141.422C22.4697 143.338 23.3547 145.254 24.2552 147.163L21.5418 148.443C20.6346 146.519 19.7442 144.591 18.866 142.667L21.5952 141.422ZM27.0019 152.853C27.9379 154.742 28.8935 156.617 29.8734 158.469L27.2216 159.872C26.2276 157.993 25.2599 156.095 24.3138 154.185L27.0019 152.853ZM32.9085 163.983C33.9574 165.811 35.0356 167.607 36.1479 169.365L33.6127 170.969C32.4751 169.171 31.3747 167.338 30.3066 165.477L32.9085 163.983ZM39.6334 174.575C40.8484 176.288 42.1038 177.952 43.4044 179.559L41.0725 181.447C39.7286 179.786 38.4351 178.071 37.1863 176.31L39.6334 174.575ZM47.4993 184.256C48.9287 185.774 50.4103 187.222 51.9496 188.594L49.9537 190.834C48.3451 189.4 46.801 187.89 45.3158 186.314L47.4993 184.256ZM56.7692 192.488C57.6025 193.094 58.4517 193.68 59.3175 194.242L57.6825 196.758C56.7713 196.165 55.8786 195.55 55.0034 194.913L56.7692 192.488ZM59.3175 194.242C59.9242 194.637 60.6768 195.061 61.5666 195.506L60.2247 198.189C59.2643 197.709 58.4083 197.229 57.6825 196.758L59.3175 194.242ZM66.4956 197.632C68.0646 198.229 69.789 198.828 71.6343 199.412L70.7294 202.272C68.8353 201.673 67.0561 201.055 65.4277 200.435L66.4956 197.632ZM76.8776 200.938C78.5907 201.396 80.3648 201.833 82.179 202.24L81.5234 205.167C79.6689 204.752 77.8548 204.305 76.1024 203.836L76.8776 200.938ZM87.5313 203.323C89.3171 203.646 91.1195 203.933 92.9202 204.175L92.5199 207.148C90.6719 206.9 88.825 206.606 86.9975 206.275L87.5313 203.323ZM98.3318 204.765C100.169 204.915 101.983 205.01 103.753 205.04L103.702 208.039C101.861 208.008 99.9823 207.91 98.0872 207.755L98.3318 204.765ZM109.142 204.915C111.007 204.788 112.782 204.569 114.441 204.249L115.01 207.194C113.211 207.541 111.313 207.774 109.346 207.908L109.142 204.915Z" fill="#FF6600"/>
</svg>
