<svg width="100" height="100" viewBox="0 0 100 100" fill="none" xmlns="http://www.w3.org/2000/svg">
<g clip-path="url(#clip0_565_3919)">
<path d="M78.3911 57.8615C78.582 59.1772 78.3097 60.5184 77.6207 61.6554C76.9316 62.7924 75.8688 63.6546 74.6141 64.0942C66.2821 67.0282 57.4961 68.4624 48.6637 68.3304C40.5653 68.2022 32.5417 66.7579 24.907 64.0541C23.6771 63.6177 22.6334 62.7739 21.9489 61.6628C21.2644 60.5518 20.9803 59.2401 21.1437 57.9453C22.65 45.9372 24.1564 33.9291 25.6628 21.921C26.3724 16.2715 29.1202 11.0755 33.3902 7.30879C37.6601 3.54214 43.1584 1.46405 48.8523 1.46484H49.9542C55.5674 1.46408 60.9934 3.48383 65.2399 7.15476C69.4864 10.8257 72.2696 15.9025 73.0807 21.4568L78.3911 57.8615Z" fill="#FF6600"/>
<path d="M78.3914 57.8615L73.081 21.4568C72.2699 15.9025 69.4867 10.8257 65.2402 7.15476C60.9937 3.48383 55.5677 1.46408 49.9545 1.46484H48.8526C47.5643 1.46464 46.2782 1.57049 45.0073 1.78132C49.8915 2.59511 54.3911 4.93913 57.8571 8.47536C61.323 12.0116 63.5763 16.5572 64.292 21.4568L69.6023 57.8615C69.7933 59.1772 69.521 60.5184 68.8319 61.6554C68.1429 62.7924 67.08 63.6546 65.8253 64.0942C59.2474 66.4084 52.3785 67.7931 45.4177 68.2081C46.4784 68.2709 47.5605 68.3117 48.664 68.3304C57.4965 68.4624 66.2824 67.0282 74.6144 64.0942C75.8691 63.6546 76.932 62.7924 77.621 61.6554C78.31 60.5184 78.5824 59.1772 78.3914 57.8615Z" fill="#FF6600"/>
<path d="M86.1973 98.5352H13.8028C13.0491 98.5353 12.3053 98.3649 11.6268 98.0367C10.9484 97.7086 10.353 97.2312 9.88519 96.6404C9.41739 96.0495 9.08932 95.3605 8.92555 94.6249C8.76178 93.8892 8.76654 93.1261 8.93949 92.3926L11.0352 80.7129C11.473 78.8542 12.4372 77.1611 13.8124 75.8361C15.1876 74.5112 16.9154 73.6106 18.7891 73.2422L32.6211 70.5215L49.5547 67.1914C49.672 67.1683 49.7927 67.1676 49.9102 67.1895L67.7891 70.5528L81.7832 73.1856C83.7946 73.5645 85.6401 74.555 87.0676 76.0217C88.4952 77.4884 89.4354 79.36 89.7598 81.3809L91.1329 92.7481C91.247 93.4621 91.2049 94.1924 91.0094 94.8886C90.8139 95.5848 90.4696 96.2302 90.0004 96.7804C89.5312 97.3306 88.9481 97.7724 88.2915 98.0754C87.6349 98.3783 86.9204 98.5352 86.1973 98.5352Z" fill="#FF6600"/>
<path d="M91.1329 92.7481L89.7598 81.3809C89.4354 79.36 88.4952 77.4884 87.0676 76.0217C85.6401 74.555 83.7946 73.5645 81.7833 73.1856L67.7891 70.5528L49.9102 67.1895C49.7927 67.1676 49.6721 67.1683 49.5548 67.1914L32.6212 70.5215L18.7891 73.2422C17.183 73.5582 15.6799 74.2664 14.4136 75.3038L23.8321 73.4512L40.7657 70.1211C40.883 70.098 41.0036 70.0973 41.1212 70.1192L59.0001 73.4825L72.9942 76.1153C75.0056 76.4942 76.851 77.4847 78.2786 78.9514C79.7062 80.4181 80.6463 82.2897 80.9708 84.3106L82.3438 95.6778C82.5012 96.6474 82.3671 97.6419 81.9586 98.5352H86.1973C86.9204 98.5352 87.635 98.3784 88.2915 98.0754C88.9481 97.7725 89.5312 97.3306 90.0004 96.7804C90.4696 96.2303 90.8139 95.5848 91.0094 94.8886C91.2049 94.1924 91.2471 93.4621 91.1329 92.7481Z" fill="#FF6600"/>
<path d="M67.7891 70.5528V70.7891C67.7885 71.4753 67.6317 72.1524 67.3305 72.769C67.0294 73.3855 66.5917 73.9254 66.0508 74.3477L65.5742 74.7188L59 73.4825L41.1211 70.1192C41.0036 70.0973 40.8829 70.098 40.7656 70.1211L32.7051 71.7071L23.832 73.4512L14.4141 75.3047C15.6797 74.2664 17.1828 73.5578 18.7891 73.2422L32.6211 70.5215L49.5547 67.1914C49.672 67.1683 49.7926 67.1676 49.9102 67.1895L67.7891 70.5528Z" fill="#FF6600"/>
<path d="M67.7891 70.5528V70.7891C67.7885 71.4753 67.6317 72.1524 67.3305 72.769C67.0293 73.3855 66.5917 73.9254 66.0508 74.3477L50.9805 86.0762C50.6574 86.3275 50.2587 86.4621 49.8494 86.4578C49.4401 86.4535 49.0443 86.3108 48.7266 86.0528L34.2891 74.3457C33.7677 73.9232 33.3473 73.3894 33.0587 72.7835C32.7702 72.1776 32.6206 71.5149 32.6211 70.8438V70.5215L49.5547 67.1914C49.672 67.1683 49.7926 67.1676 49.9102 67.1895L67.7891 70.5528Z" fill="#F7F3F0"/>
<path d="M67.7891 70.5528V70.7891C67.7885 71.4753 67.6317 72.1524 67.3305 72.769C67.0293 73.3855 66.5917 73.9254 66.0508 74.3477L65.5742 74.7188L59 73.4824L41.1211 70.1192C41.0036 70.0973 40.8829 70.098 40.7656 70.1211L32.7051 71.7071C32.6485 71.4228 32.6204 71.1336 32.6211 70.8438V70.5215L49.5547 67.1914C49.672 67.1683 49.7926 67.1676 49.9102 67.1895L67.7891 70.5528Z" fill="#F7F3F0"/>
<path d="M59.1926 70.7809L50.7351 77.3639C50.5261 77.5265 50.2683 77.6136 50.0036 77.6109C49.7388 77.6083 49.4828 77.5161 49.2772 77.3493L41.1771 70.7806C40.8814 70.5408 40.643 70.2381 40.4792 69.8944C40.3155 69.5507 40.2305 69.1748 40.2305 68.7941V54.5652H60.1793V68.7626C60.1793 69.1519 60.0904 69.5361 59.9194 69.8859C59.7484 70.2357 59.4998 70.5418 59.1926 70.7809Z" fill="white"/>
<path d="M66.835 28.3083V49.4987C66.8351 51.2697 66.3847 53.0117 65.5262 54.5608C64.6677 56.1099 63.4293 57.4152 61.9275 58.3539L56.2389 61.913C54.3008 63.1249 52.061 63.7675 49.7752 63.7675C47.4893 63.7675 45.2495 63.1249 43.3114 61.913L37.6228 58.354C36.121 57.4152 34.8826 56.1099 34.0241 54.5608C33.1656 53.0117 32.7152 51.2697 32.7153 49.4987V28.31C34.5118 28.3311 36.2678 27.7767 37.7266 26.7281C39.1854 25.6795 40.2703 24.1917 40.8228 22.4822C42.0497 23.9691 43.4758 25.2797 45.061 26.3767C45.061 26.3767 45.2013 26.4728 45.3401 26.5669C52.0449 31.1108 59.3892 29.5783 66.835 28.3083Z" fill="white"/>
<path d="M45.3401 26.5669C45.2013 26.4728 45.061 26.3767 45.061 26.3767C43.4758 25.2797 42.0497 23.9691 40.8228 22.4822C40.2703 24.1917 39.1854 25.6795 37.7266 26.7281C36.2678 27.7768 34.5118 28.3311 32.7153 28.31V31.2397C34.5118 31.2607 36.2678 30.7064 37.7266 29.6578C39.1854 28.6092 40.2703 27.1214 40.8228 25.4119C42.0497 26.8988 43.4758 28.2094 45.061 29.3064C45.061 29.3064 45.2013 29.4025 45.3401 29.4966C52.0449 34.0405 59.3892 32.508 66.835 31.238V28.3083C59.3892 29.5783 52.0449 31.1108 45.3401 26.5669Z" fill="white"/>
<path d="M60.9758 29.2506V49.4987C60.9759 51.2698 60.5255 53.0118 59.667 54.5609C58.8085 56.11 57.5701 57.4153 56.0683 58.354L50.3798 61.9131C49.2883 62.5959 48.0955 63.1013 46.8457 63.4106C48.4319 63.8032 50.0808 63.873 51.6945 63.6157C53.3082 63.3585 54.8537 62.7795 56.2392 61.9131L61.9277 58.354C63.4295 57.4153 64.6679 56.11 65.5264 54.5609C66.3849 53.0118 66.8353 51.2698 66.8352 49.4987V28.3083C64.8717 28.6433 62.9154 28.9954 60.9758 29.2506Z" fill="white"/>
<path d="M20.6736 32.3223H26.9852V41.2423H20.6736C20.2823 41.2423 19.907 41.0869 19.6304 40.8102C19.3537 40.5335 19.1982 40.1583 19.1982 39.767V33.7976C19.1982 33.4063 19.3537 33.0311 19.6304 32.7544C19.907 32.4777 20.2823 32.3223 20.6736 32.3223Z" fill="#FF6600"/>
<path d="M32.7158 45.2549H29.107C28.4437 45.2549 27.7868 45.1242 27.174 44.8704C26.5612 44.6165 26.0043 44.2445 25.5353 43.7754C25.0662 43.3064 24.6941 42.7495 24.4403 42.1367C24.1864 41.5238 24.0558 40.867 24.0558 40.2037V33.3616C24.0558 32.6982 24.1864 32.0414 24.4403 31.4285C24.6941 30.8157 25.0662 30.2589 25.5353 29.7898C26.0043 29.3208 26.5612 28.9487 27.174 28.6948C27.7868 28.441 28.4437 28.3103 29.107 28.3103H32.7158V45.2549H32.7158Z" fill="#FF6600"/>
<path d="M26.9854 40.2034V33.3613C26.9853 32.698 27.116 32.0411 27.3698 31.4283C27.6237 30.8154 27.9958 30.2586 28.4648 29.7895C28.9339 29.3205 29.4907 28.9484 30.1036 28.6946C30.7164 28.4407 31.3732 28.3101 32.0366 28.3101H29.1069C28.4436 28.3101 27.7867 28.4407 27.1739 28.6946C26.561 28.9484 26.0042 29.3205 25.5351 29.7895C25.0661 30.2586 24.694 30.8154 24.4402 31.4283C24.1863 32.0411 24.0557 32.698 24.0557 33.3613V40.2034C24.0557 40.8667 24.1863 41.5236 24.4402 42.1364C24.694 42.7492 25.0661 43.3061 25.5351 43.7751C26.0042 44.2442 26.561 44.6163 27.1739 44.8701C27.7867 45.124 28.4436 45.2546 29.1069 45.2546H32.0366C31.3732 45.2546 30.7164 45.124 30.1036 44.8701C29.4907 44.6163 28.9339 44.2442 28.4648 43.7751C27.9958 43.3061 27.6237 42.7492 27.3699 42.1364C27.116 41.5236 26.9854 40.8667 26.9854 40.2034Z" fill="#FF6600"/>
<path d="M50.8209 51.4321H48.333C46.7517 51.4321 45.4697 52.7141 45.4697 54.2954V54.3503C45.4697 55.9316 46.7517 57.2136 48.333 57.2136H50.8209C52.4022 57.2136 53.6842 55.9316 53.6842 54.3503V54.2954C53.6842 52.7141 52.4022 51.4321 50.8209 51.4321Z" fill="#FF6600"/>
<path d="M78.8772 41.2424H72.5656V32.3224H78.8772C79.2685 32.3224 79.6437 32.4778 79.9204 32.7545C80.1971 33.0312 80.3525 33.4064 80.3525 33.7977V39.7671C80.3525 40.1584 80.1971 40.5336 79.9204 40.8103C79.6437 41.087 79.2685 41.2424 78.8772 41.2424Z" fill="#FF6600"/>
<path d="M78.877 32.3223H75.9473C76.141 32.3223 76.3329 32.3604 76.5119 32.4346C76.6908 32.5087 76.8535 32.6174 76.9905 32.7544C77.1275 32.8914 77.2362 33.054 77.3103 33.233C77.3844 33.412 77.4226 33.6038 77.4226 33.7976V39.767C77.4226 39.9607 77.3844 40.1526 77.3103 40.3316C77.2362 40.5106 77.1275 40.6732 76.9905 40.8102C76.8535 40.9472 76.6908 41.0559 76.5119 41.13C76.3329 41.2042 76.141 41.2423 75.9473 41.2423H78.877C79.0707 41.2423 79.2625 41.2042 79.4415 41.13C79.6205 41.0559 79.7832 40.9472 79.9202 40.8102C80.0572 40.6732 80.1658 40.5106 80.24 40.3316C80.3141 40.1526 80.3523 39.9607 80.3523 39.767V33.7976C80.3523 33.6038 80.3141 33.412 80.24 33.233C80.1658 33.054 80.0572 32.8914 79.9202 32.7544C79.7832 32.6174 79.6205 32.5087 79.4415 32.4346C79.2625 32.3604 79.0707 32.3223 78.877 32.3223Z" fill="#FF6600"/>
<path d="M66.835 28.3101H70.4438C71.7834 28.3101 73.0682 28.8422 74.0155 29.7895C74.9628 30.7368 75.495 32.0216 75.495 33.3613V40.2034C75.495 40.8667 75.3643 41.5236 75.1105 42.1364C74.8566 42.7492 74.4846 43.3061 74.0155 43.7751C73.5465 44.2442 72.9896 44.6163 72.3768 44.8701C71.7639 45.124 71.1071 45.2546 70.4438 45.2546H66.835V28.3101H66.835Z" fill="#FF6600"/>
<path d="M70.4438 28.3101H67.5142C68.8538 28.3101 70.1386 28.8422 71.0859 29.7895C72.0332 30.7368 72.5654 32.0216 72.5654 33.3613V40.2034C72.5654 41.543 72.0332 42.8278 71.0859 43.7751C70.1386 44.7224 68.8538 45.2546 67.5142 45.2546H70.4438C71.7835 45.2546 73.0683 44.7224 74.0156 43.7751C74.9629 42.8278 75.4951 41.543 75.4951 40.2034V33.3613C75.4951 32.0216 74.9629 30.7368 74.0156 29.7895C73.0683 28.8422 71.7835 28.3101 70.4438 28.3101Z" fill="#FF6600"/>
<path d="M92.584 92.5463L91.2143 81.2052C91.212 81.1863 91.2093 81.1676 91.2063 81.1489C90.83 78.8319 89.75 76.6867 88.1127 75.0045C86.4755 73.3223 84.3603 72.1847 82.0542 71.7459L68.0856 69.1184L68.0844 69.1182L64.3011 68.4066C67.9675 67.694 71.577 66.7146 75.1006 65.476C76.6739 64.9211 78.0062 63.8378 78.8706 62.4109C79.7349 60.9839 80.0778 59.3014 79.841 57.65L77.6613 42.7072H78.8772C79.6567 42.7063 80.404 42.3963 80.9552 41.8451C81.5064 41.2939 81.8165 40.5466 81.8173 39.7671V33.7976C81.8165 33.0181 81.5064 32.2708 80.9552 31.7196C80.404 31.1684 79.6567 30.8583 78.8772 30.8575H76.4591C76.2702 30.4067 76.0312 29.9787 75.7466 29.5814L74.5307 21.2454C73.6688 15.3429 70.711 9.94783 66.1984 6.04676C61.6857 2.14569 55.9196 -0.000725908 49.9545 1.84157e-07H48.8526C42.8043 0.00799158 36.9661 2.21946 32.4304 6.22064C27.8946 10.2218 24.9721 15.7385 24.2097 21.7386L23.0658 30.8575H20.6737C19.8941 30.8583 19.1468 31.1684 18.5956 31.7196C18.0444 32.2708 17.7344 33.0181 17.7335 33.7976V39.7671C17.7344 40.5466 18.0444 41.2939 18.5956 41.8451C19.1468 42.3963 19.8942 42.7063 20.6737 42.7072H21.5793L19.6906 57.7629C19.4935 59.3882 19.8538 61.0322 20.7128 62.426C21.5717 63.8197 22.8783 64.8806 24.4187 65.435C28.0516 66.7196 31.7763 67.7278 35.5611 68.4511L32.3382 69.0849C32.331 69.0863 32.3237 69.0877 32.3165 69.0892L18.5061 71.805C16.3576 72.2307 14.3766 73.2651 12.7993 74.7848C11.222 76.3046 10.1148 78.2457 9.60951 80.377C9.60341 80.4026 9.59807 80.4283 9.5935 80.4543L7.50419 92.0973C7.28753 93.0438 7.28701 94.027 7.50266 94.9738C7.71831 95.9206 8.14459 96.8066 8.74981 97.5659C9.35502 98.3253 10.1236 98.9385 10.9984 99.3599C11.8732 99.7813 12.8318 100 13.8028 100H86.1974C87.1299 100 88.0514 99.7983 88.8986 99.4086C89.7458 99.0189 90.4986 98.4504 91.1053 97.7423C91.7121 97.0341 92.1584 96.2031 92.4136 95.3062C92.6688 94.4093 92.727 93.4678 92.584 92.5463V92.5463ZM76.9601 33.7917L78.8877 33.7977L78.8772 39.7775H76.9601V33.7917ZM75.0115 44.8398L76.9418 58.0731C77.0817 59.0524 76.8779 60.05 76.3648 60.8959C75.8518 61.7418 75.0614 62.3837 74.1283 62.7123C70.0683 64.1396 65.8911 65.2086 61.6447 65.9072V60.259L62.7042 59.5961C64.2482 58.6343 65.5512 57.3316 66.5134 55.7879H66.7525C68.4439 55.7862 70.0655 55.1137 71.2616 53.9179C72.4577 52.7221 73.1307 51.1007 73.1328 49.4094V46.1341C73.8301 45.8162 74.466 45.378 75.0115 44.8398V44.8398ZM55.4627 60.671C53.7549 61.73 51.7853 62.291 49.7757 62.291C47.7662 62.2911 45.7966 61.7301 44.0887 60.6712L41.0517 58.7712C41.0467 58.7678 41.0413 58.7649 41.0363 58.7616L38.3996 57.1119C37.1051 56.3085 36.0378 55.187 35.2992 53.8544C34.5607 52.5218 34.1755 51.0223 34.1804 49.4988V29.6757C35.6201 29.4781 36.998 28.9636 38.2149 28.1693C39.4318 27.375 40.4573 26.3206 41.2175 25.0821C42.1486 26.0025 43.158 26.8402 44.2342 27.5858L44.5186 27.7796C51.1844 32.2973 58.3802 31.2444 65.3703 30.0464V49.4988C65.3717 50.6495 65.1526 51.7899 64.7246 52.8582H54.9026C54.6042 52.0137 54.0516 51.2824 53.3207 50.7647C52.5898 50.2471 51.7165 49.9685 50.8208 49.9674H48.3331C47.1856 49.9687 46.0854 50.4252 45.274 51.2366C44.4626 52.0481 44.0062 53.1482 44.0049 54.2957V54.3505C44.0062 55.498 44.4627 56.5981 45.2741 57.4095C46.0855 58.2209 47.1856 58.6773 48.3331 58.6786H50.8208C51.7165 58.6775 52.5898 58.3989 53.3207 57.8813C54.0516 57.3636 54.6042 56.6323 54.9026 55.7878H62.7995C62.3035 56.2921 61.7501 56.7366 61.1506 57.1121L55.4627 60.671ZM58.715 62.0921V68.7616C58.7143 68.9282 58.6759 69.0925 58.6026 69.2421C58.5293 69.3917 58.423 69.5227 58.2917 69.6253L50.0182 76.0645L42.1006 69.6436C41.8773 69.4635 41.7341 69.2025 41.7023 68.9174C41.7015 68.9067 41.7016 68.8961 41.7005 68.8854C41.6981 68.8554 41.6955 68.8254 41.6955 68.795V62.6299L42.5351 63.1552C44.7096 64.5033 47.2172 65.2176 49.7757 65.2176C52.3342 65.2176 54.8419 64.5032 57.0163 63.155L58.715 62.0921ZM52.2193 54.2957V54.3505C52.2189 54.7212 52.0714 55.0767 51.8092 55.3389C51.5471 55.6011 51.1916 55.7485 50.8208 55.7489H48.3331C47.9623 55.7485 47.6068 55.6011 47.3447 55.3389C47.0825 55.0767 46.935 54.7212 46.9346 54.3505V54.2957C46.935 53.9249 47.0825 53.5694 47.3446 53.3072C47.6068 53.045 47.9623 52.8975 48.3331 52.8971H50.8208C51.1916 52.8975 51.5471 53.045 51.8093 53.3072C52.0714 53.5694 52.2189 53.9249 52.2193 54.2957ZM67.8756 52.6669C68.1577 51.6345 68.3004 50.569 68.3 49.4987V46.7194H70.2031V49.4094C70.2018 50.1269 69.9769 50.8262 69.5598 51.41C69.1427 51.9938 68.554 52.4331 67.8756 52.6669ZM74.0304 33.3612V40.2034C74.0293 41.1542 73.6511 42.0658 72.9788 42.7381C72.3064 43.4105 71.3949 43.7887 70.444 43.7898H68.3V29.7749L70.444 29.7749C71.3949 29.7759 72.3064 30.1541 72.9788 30.8265C73.6511 31.4988 74.0293 32.4104 74.0304 33.3612V33.3612ZM27.1165 22.1033C27.7891 16.8111 30.367 11.9453 34.3677 8.41621C38.3684 4.88715 43.5179 2.93666 48.8526 2.92969H49.9545C55.2159 2.92892 60.3017 4.82201 64.2821 8.26279C68.2624 11.7036 70.8712 16.4621 71.6315 21.6682L72.4321 27.157C71.7897 26.9503 71.1189 26.8451 70.444 26.8452L66.9089 26.8453C66.9017 26.8449 66.8945 26.8455 66.8874 26.8453H66.8351L66.8292 26.8456C66.7836 26.8457 66.7381 26.8479 66.6925 26.8525C66.6859 26.8531 66.6794 26.854 66.6729 26.8547C66.6449 26.8579 66.6168 26.8596 66.5889 26.8644L65.5862 27.0366C58.6396 28.2332 52.078 29.3634 46.1623 25.3545L45.8959 25.173C44.4217 24.1517 43.0949 22.9325 41.9528 21.5498C41.7857 21.3473 41.5672 21.1935 41.3203 21.1044C41.0734 21.0153 40.807 20.9942 40.5491 21.0433C40.2912 21.0924 40.0513 21.2099 39.8544 21.3835C39.6574 21.5571 39.5108 21.7805 39.4298 22.0302C38.9736 23.4429 38.0771 24.6725 36.8716 25.539C35.6661 26.4055 34.2149 26.8633 32.7304 26.8454C32.7283 26.8453 32.7262 26.8456 32.7241 26.8456C32.7212 26.8456 32.7184 26.8452 32.7155 26.8452L29.1068 26.8453C28.1908 26.8455 27.2852 27.0402 26.45 27.4165L27.1165 22.1033ZM25.5204 33.3612C25.5215 32.4104 25.8997 31.4989 26.5721 30.8265C27.2444 30.1542 28.156 29.776 29.1068 29.775L31.2507 29.7749V43.7898H29.1068C28.156 43.7887 27.2444 43.4105 26.572 42.7382C25.8997 42.0658 25.5215 41.1542 25.5204 40.2034V33.3612ZM20.6632 39.7671L20.6737 33.7872H22.5907V39.773L20.6632 39.7671ZM25.3961 62.6732C24.4838 62.3443 23.7102 61.7156 23.2018 60.8898C22.6934 60.0641 22.4803 59.0902 22.5974 58.1276L24.2959 44.5881C24.9048 45.2593 25.6473 45.7957 26.4759 46.1627C27.3044 46.5298 28.2006 46.7194 29.1068 46.7195H31.2507V49.4988C31.2442 51.5194 31.7551 53.508 32.7345 55.2754C33.7139 57.0428 35.1293 58.5302 36.8461 59.5959L38.7658 60.7969V66.0312C34.2139 65.3329 29.7377 64.2086 25.3961 62.6732V62.6732ZM39.2505 70.7115C39.5029 71.1761 39.8443 71.5864 40.2553 71.9191L48.3548 78.4874C48.8163 78.865 49.3927 79.0739 49.9889 79.0797C50.5851 79.0855 51.1654 78.8878 51.6341 78.5192L60.0906 71.9378C60.4958 71.6212 60.8365 71.2296 61.094 70.7845L66.1672 71.7387C65.9786 72.3123 65.625 72.8176 65.1506 73.1911L50.0796 84.9205C50.0179 84.9687 49.9417 84.9945 49.8634 84.9937C49.7851 84.9928 49.7094 84.9654 49.6488 84.9159L35.2113 73.2067C34.7328 72.8188 34.3844 72.2938 34.2128 71.7021L39.2505 70.7115ZM88.8866 95.829C88.555 96.2184 88.1428 96.5311 87.6785 96.7455C87.2142 96.9598 86.7088 97.0706 86.1974 97.0703H13.8028C13.2702 97.0704 12.7444 96.9499 12.2649 96.718C11.7854 96.4861 11.3646 96.1487 11.0339 95.7312C10.7033 95.3136 10.4713 94.8266 10.3555 94.3067C10.2397 93.7868 10.243 93.2474 10.3652 92.729C10.3713 92.7032 10.3766 92.6773 10.3812 92.6512L12.4698 81.0122C12.8508 79.4364 13.675 78.0028 14.8449 76.8806C16.0149 75.7584 17.4816 74.9946 19.0719 74.6796L31.3287 72.2693C31.637 73.5351 32.3532 74.6644 33.3669 75.4829L47.8042 87.192C48.3781 87.6605 49.0945 87.9197 49.8353 87.9269C50.5762 87.9341 51.2975 87.6888 51.8804 87.2315L66.9515 75.502C67.9933 74.6934 68.7368 73.5612 69.0647 72.2837L81.5118 74.625C83.221 74.9503 84.7892 75.7921 86.0048 77.037C87.2204 78.2818 88.0247 79.8696 88.3092 81.5861L89.6785 92.9237C89.6808 92.9424 89.6834 92.9611 89.6865 92.9796C89.7676 93.4842 89.738 94.0003 89.5999 94.4923C89.4618 94.9843 89.2184 95.4404 88.8866 95.829Z" fill="#FF6600"/>
</g>
<defs>
<clipPath id="clip0_565_3919">
<rect width="100" height="100" fill="white"/>
</clipPath>
</defs>
</svg>
