<svg width="100" height="100" viewBox="0 0 100 100" fill="none" xmlns="http://www.w3.org/2000/svg">
<path d="M30.8429 1.45499C29.4009 2.16299 29.0729 3.14899 29.0729 6.86698V10.104H27.2269C24.5969 10.104 22.9529 10.66 21.4859 12.026C20.8029 12.658 19.9939 13.695 19.6649 14.353L19.0829 15.542V54.616V93.69L19.6899 94.929C20.4229 96.396 21.6369 97.66 23.0789 98.419L24.1409 99.001H46.902H69.663L71.054 98.217C71.813 97.787 72.824 96.952 73.254 96.371C74.949 94.171 74.873 96.675 74.797 54.111L74.721 15.543L74.114 14.304C72.799 11.623 70.27 10.106 67.1339 10.106H65.49V6.94499C65.49 3.30299 65.212 2.29198 63.922 1.50798C63.113 1.02798 62.683 1.00198 47.407 1.00198C32.992 0.999985 31.6519 1.02499 30.8429 1.45499ZM37.6709 13.139V21.232H47.787H57.903V13.139V5.04599H59.926H61.95V15.163V25.279H47.787H33.6249V15.163V5.04698H35.6479H37.6709V13.139ZM54.868 11.116V13.139H47.787H40.706V11.116V9.09298H47.787H54.868V11.116ZM54.868 17.186V19.209H47.787H40.706V17.186V15.163H47.787H54.868V17.186ZM65.617 29.755C66.78 30.362 67.539 31.146 68.121 32.284C68.703 33.422 68.703 40.781 68.146 42.172C67.64 43.361 66.881 44.145 65.617 44.827C64.605 45.383 64.529 45.383 47.282 45.383C30.0339 45.383 29.9579 45.383 28.9469 44.827C27.6819 44.144 26.9239 43.36 26.4179 42.172C25.8619 40.832 25.8619 33.75 26.4179 32.41C27.0759 30.893 28.2639 29.881 30.0849 29.299C30.4389 29.198 38.355 29.122 47.662 29.147C64.479 29.199 64.605 29.199 65.617 29.755ZM34.2569 51.884C35.3949 52.39 35.6479 53.275 35.6479 56.689C35.6479 60.179 35.4459 60.735 33.9789 61.342C32.8659 61.822 28.8199 61.822 27.7069 61.342C26.2149 60.71 26.0379 60.204 26.0379 56.512C26.0379 53.022 26.1899 52.567 27.4289 51.884C28.1109 51.505 33.4219 51.505 34.2569 51.884ZM50.8729 52.314L51.707 53.047L51.783 56.208C51.909 61.039 51.328 61.696 46.902 61.696C42.653 61.696 41.9699 60.988 41.9699 56.512C41.9699 52.036 42.451 51.58 46.952 51.58C50.013 51.581 50.063 51.581 50.8729 52.314ZM67.084 51.859C68.374 52.517 68.526 52.997 68.526 56.513C68.526 60.205 68.349 60.711 66.857 61.343C65.744 61.823 61.698 61.823 60.585 61.343C59.093 60.736 58.916 60.205 58.916 56.639C58.941 51.91 59.22 51.606 63.67 51.581C65.313 51.581 66.7799 51.707 67.084 51.859ZM34.4089 67.514C35.3699 68.045 35.6479 69.082 35.6479 72.193C35.6479 76.821 35.3699 77.099 30.7669 77.125H27.5039L26.7709 76.392L26.0379 75.659V72.194V68.729L26.7709 67.996C27.5039 67.263 27.5039 67.263 30.7159 67.263C32.4609 67.261 34.1299 67.387 34.4089 67.514ZM50.8729 67.994L51.707 68.727V72.192V75.657L50.8729 76.39C50.0639 77.123 50.038 77.123 46.902 77.123C43.766 77.123 43.741 77.123 42.931 76.39L42.096 75.657V72.192V68.727L42.931 67.994C43.74 67.261 43.766 67.261 46.902 67.261C50.038 67.261 50.063 67.261 50.8729 67.994ZM67.792 67.994L68.525 68.727V72.192V75.657L67.792 76.39L67.059 77.123H63.796C59.1679 77.098 58.915 76.845 58.915 71.989C58.915 68.853 58.915 68.828 59.649 68.044L60.382 67.26H63.72H67.058L67.792 67.994ZM33.9789 83.042C35.4709 83.674 35.6479 84.18 35.6479 87.822V91.085L34.7879 91.945L33.9279 92.805H30.9689C26.3409 92.805 26.0629 92.527 26.0369 87.924C26.0369 86.103 26.1629 84.459 26.3149 84.181C26.8969 83.068 28.0349 82.689 30.6649 82.689C32.2079 82.688 33.4479 82.814 33.9789 83.042ZM50.19 83.042C51.606 83.649 51.8839 84.534 51.783 88.176L51.707 91.337L50.8729 92.07C50.0639 92.803 50.0129 92.803 46.9529 92.803C42.4509 92.803 41.971 92.348 41.971 87.871C41.971 83.395 42.629 82.712 46.852 82.687C48.419 82.688 49.633 82.814 50.19 83.042ZM66.856 83.042C68.348 83.674 68.525 84.18 68.525 87.872C68.5 92.526 68.247 92.804 63.593 92.804H60.6339L59.774 91.944L58.914 91.084V87.821C58.914 84.204 59.091 83.673 60.533 83.041C61.596 82.586 65.743 82.586 66.856 83.042Z" fill="#FF6600"/>
<path d="M77.1239 45.5111V67.7671H79.0209H80.9179V45.5111V23.2561H79.0209H77.1239V45.5111Z" fill="#FF6600"/>
</svg>
