<svg width="100" height="100" viewBox="0 0 100 100" fill="none" xmlns="http://www.w3.org/2000/svg">
<path d="M77.1439 42.3348C77.1419 41.904 76.9579 41.4938 76.6364 41.2078C76.3132 40.9215 75.8812 40.788 75.4562 40.8375L24.1482 46.8788C23.3887 46.968 22.8149 47.6133 22.8149 48.3788V61.9713C22.8149 67.932 39.9029 69.523 49.9999 69.523C60.0964 69.523 77.1849 67.932 77.1849 61.9713C77.1849 61.9713 77.1849 61.969 77.1849 61.9683L77.1439 42.3348Z" fill="#FF6600"/>
<path d="M77.144 46.8684H49.9585V69.5224C49.9725 69.5224 49.9862 69.5227 50 69.5227C59.833 69.5227 76.2887 68.0122 77.144 62.4284V46.8684Z" fill="#FF6600"/>
<path d="M95.0166 33.9959L56.3674 20.7444C52.2611 19.3359 47.7391 19.3359 43.6329 20.7444L4.98489 33.9959C3.12539 34.6329 1.92139 36.3149 1.92139 38.2819C1.92139 40.2479 3.12514 41.9301 4.98489 42.5671L43.6331 55.8181C45.6864 56.5221 47.8421 56.8744 50.0004 56.8744C52.1581 56.8744 54.3146 56.5226 56.3674 55.8181L95.0171 42.5671C96.8771 41.9301 98.0791 40.2481 98.0791 38.2819C98.0786 36.3149 96.8766 34.6329 95.0166 33.9959Z" fill="#FF6600"/>
<path d="M78.6541 71.0329C77.8194 71.0329 77.1441 70.3567 77.1441 69.5227V49.7887C77.1441 49.1432 76.7339 48.5687 76.1236 48.3594L49.4691 39.2212C48.6804 38.9504 48.2596 38.0919 48.5294 37.3027C48.8009 36.5137 49.6579 36.0915 50.4484 36.3642L77.1026 45.5029C78.9344 46.1309 80.1646 47.8527 80.1646 49.7889V69.5229C80.1646 70.3567 79.4891 71.0329 78.6541 71.0329Z" fill="#F7F3F0"/>
<path d="M80.1645 81.6052H77.144C76.3095 81.6052 75.6338 80.929 75.6338 80.0947V71.033C75.6338 69.3647 76.9858 68.0122 78.654 68.0122C80.3228 68.0122 81.6745 69.3647 81.6745 71.033V80.0947C81.6745 80.929 80.9985 81.6052 80.1645 81.6052Z" fill="#FF6600"/>
<path d="M77.144 58.6298C77.1545 58.6233 77.1675 58.6173 77.178 58.6108L77.1693 54.4771C77.1675 54.5006 77.148 54.5273 77.144 54.5505V58.6298Z" fill="#F7F3F0"/>
<path d="M50 40.8271C53.3363 40.8271 56.041 39.4748 56.041 37.8066C56.041 36.1385 53.3363 34.7861 50 34.7861C46.6636 34.7861 43.959 36.1385 43.959 37.8066C43.959 39.4748 46.6636 40.8271 50 40.8271Z" fill="#F7F3F0"/>
</svg>
