<svg width="100" height="100" viewBox="0 0 100 100" fill="none" xmlns="http://www.w3.org/2000/svg">
<path d="M82.9102 34.375C82.9102 25.7156 79.4973 17.4052 73.4114 11.2452C67.3255 5.08515 59.057 1.57197 50.3982 1.46718C32.1968 1.25138 17.1754 16.0151 17.0903 34.2176C17.0596 40.2845 18.7069 46.2418 21.85 51.4311C24.9932 56.6203 29.5099 60.8396 34.9009 63.6225C36.5584 64.4678 37.9511 65.7531 38.9263 67.3376C39.9016 68.9221 40.4217 70.7445 40.4297 72.605V72.7539H59.5704V72.5113C59.5782 70.6756 60.0923 68.8775 61.0563 67.3152C62.0202 65.7528 63.3965 64.4867 65.0337 63.6563C70.4183 60.8918 74.936 56.6958 78.0899 51.5297C81.2439 46.3636 82.9118 40.4277 82.9102 34.375Z" fill="#FF6600"/>
<path d="M50.3983 1.4672C48.8018 1.44859 47.2059 1.54628 45.6235 1.75952C52.5652 2.69972 59.0259 5.83001 64.0659 10.6951C69.1059 15.5602 72.4624 21.9063 73.6471 28.8105C74.8318 35.7146 73.783 42.8167 70.6533 49.0837C67.5235 55.3507 62.4759 60.4557 56.2448 63.6563C54.6076 64.4868 53.2313 65.7529 52.2673 67.3152C51.3034 68.8776 50.7892 70.6756 50.7814 72.5114V72.7539H59.5705V72.5114C59.5783 70.6756 60.0924 68.8776 61.0564 67.3152C62.0203 65.7529 63.3966 64.4868 65.0339 63.6563C71.5715 60.2986 76.7972 54.8493 79.8784 48.1768C82.9595 41.5044 83.7187 33.9926 82.0351 26.8386C80.3515 19.6845 76.3218 13.2998 70.5883 8.70172C64.8548 4.10367 57.7473 1.5569 50.3983 1.4672Z" fill="#FF6600"/>
<path d="M52.1208 98.5352H47.8792C46.6707 98.5352 45.4918 98.1615 44.5039 97.4653C43.5161 96.7692 42.7677 95.7846 42.3612 94.6465L40.8203 90.332H59.1797L57.6388 94.6465C57.2323 95.7846 56.4839 96.7692 55.4961 97.4653C54.5082 98.1615 53.3293 98.5352 52.1208 98.5352Z" fill="#FF6600"/>
<path d="M53.3203 90.332L51.7794 94.6465C51.4191 95.6541 50.7898 96.5437 49.9596 97.2188C49.1294 97.894 48.1302 98.3288 47.0703 98.4761C47.3383 98.5144 47.6085 98.5342 47.8792 98.5352H52.1208C53.3293 98.5352 54.5082 98.1615 55.4961 97.4653C56.4839 96.7692 57.2323 95.7846 57.6388 94.6465L59.1797 90.332H53.3203Z" fill="#F7F3F0"/>
<path d="M62.3006 68.9264H37.6992C35.8115 68.9264 34.2812 70.4567 34.2812 72.3444V72.943C34.2812 74.8307 35.8115 76.361 37.6992 76.361H62.3006C64.1883 76.361 65.7186 74.8307 65.7186 72.943V72.3444C65.7186 70.4567 64.1883 68.9264 62.3006 68.9264Z" fill="#F7F3F0"/>
<path d="M62.3008 68.9264H53.5117C53.9606 68.9264 54.405 69.0148 54.8197 69.1866C55.2344 69.3583 55.6112 69.6101 55.9286 69.9275C56.246 70.2449 56.4977 70.6217 56.6695 71.0364C56.8413 71.451 56.9297 71.8955 56.9297 72.3444V72.9429C56.9297 73.3918 56.8413 73.8362 56.6695 74.2509C56.4977 74.6656 56.246 75.0424 55.9286 75.3598C55.6112 75.6772 55.2344 75.9289 54.8197 76.1007C54.405 76.2725 53.9606 76.3609 53.5117 76.3609H62.3008C63.2073 76.3609 64.0767 76.0008 64.7176 75.3598C65.3586 74.7188 65.7188 73.8494 65.7188 72.9429V72.3444C65.7188 71.4379 65.3586 70.5685 64.7176 69.9275C64.0767 69.2865 63.2073 68.9264 62.3008 68.9264Z" fill="#F7F3F0"/>
<path d="M62.3006 76.361H37.6992C35.8115 76.361 34.2812 77.8912 34.2812 79.7789V80.3776C34.2812 82.2653 35.8115 83.7955 37.6992 83.7955H62.3006C64.1883 83.7955 65.7186 82.2653 65.7186 80.3776V79.7789C65.7186 77.8912 64.1883 76.361 62.3006 76.361Z" fill="#FF6600"/>
<path d="M62.3008 76.3608H53.5117C53.9606 76.3608 54.405 76.4492 54.8197 76.621C55.2344 76.7928 55.6112 77.0445 55.9286 77.3619C56.246 77.6793 56.4977 78.0561 56.6695 78.4708C56.8413 78.8855 56.9297 79.3299 56.9297 79.7788V80.3774C56.9297 80.8262 56.8413 81.2707 56.6695 81.6854C56.4977 82.1001 56.246 82.4768 55.9286 82.7942C55.6112 83.1116 55.2344 83.3634 54.8197 83.5352C54.405 83.7069 53.9606 83.7953 53.5117 83.7953H62.3008C62.7496 83.7953 63.1941 83.7069 63.6088 83.5352C64.0235 83.3634 64.4003 83.1116 64.7176 82.7942C65.035 82.4768 65.2868 82.1001 65.4586 81.6854C65.6303 81.2707 65.7188 80.8262 65.7188 80.3774V79.7788C65.7188 79.3299 65.6303 78.8855 65.4586 78.4708C65.2868 78.0561 65.035 77.6793 64.7176 77.3619C64.4003 77.0445 64.0235 76.7928 63.6088 76.621C63.1941 76.4492 62.7496 76.3608 62.3008 76.3608Z" fill="#F7F3F0"/>
<path d="M62.3006 83.7953H37.6992C35.8115 83.7953 34.2812 85.3256 34.2812 87.2133V87.8119C34.2812 89.6996 35.8115 91.2299 37.6992 91.2299H62.3006C64.1883 91.2299 65.7186 89.6996 65.7186 87.8119V87.2133C65.7186 85.3256 64.1883 83.7953 62.3006 83.7953Z" fill="#F7F3F0"/>
<path d="M62.3008 83.7954H53.5117C53.9606 83.7954 54.405 83.8838 54.8197 84.0556C55.2344 84.2274 55.6112 84.4791 55.9286 84.7965C56.246 85.1139 56.4977 85.4907 56.6695 85.9054C56.8413 86.3201 56.9297 86.7645 56.9297 87.2134V87.8119C56.9297 88.2608 56.8413 88.7053 56.6695 89.1199C56.4977 89.5346 56.246 89.9114 55.9286 90.2288C55.6112 90.5462 55.2344 90.798 54.8197 90.9697C54.405 91.1415 53.9606 91.2299 53.5117 91.2299H62.3008C63.2073 91.2299 64.0767 90.8698 64.7176 90.2288C65.3586 89.5878 65.7188 88.7184 65.7188 87.8119V87.2134C65.7188 86.3069 65.3586 85.4375 64.7176 84.7965C64.0767 84.1555 63.2073 83.7954 62.3008 83.7954Z" fill="#F7F3F0"/>
<path d="M39.8546 32.4449L46.6809 38.3999C46.8052 38.5084 46.892 38.6534 46.9288 38.8142C46.9657 38.975 46.9506 39.1433 46.8859 39.2951L40.6592 53.8977C40.59 54.06 40.5778 54.241 40.6246 54.4112C40.6714 54.5814 40.7744 54.7307 40.9169 54.8349C41.0594 54.939 41.233 54.9918 41.4094 54.9847C41.5857 54.9776 41.7545 54.911 41.8881 54.7957L60.1457 39.0471C60.2267 38.9772 60.2925 38.8914 60.3391 38.795C60.3856 38.6987 60.4118 38.5938 60.416 38.4868C60.4203 38.3799 60.4026 38.2732 60.364 38.1734C60.3253 38.0736 60.2666 37.9828 60.1914 37.9067L52.693 30.3113C52.5864 30.2033 52.5135 30.0666 52.4833 29.9179C52.4531 29.7692 52.4669 29.6149 52.5229 29.4739L58.1839 15.2274C58.2502 15.0606 58.257 14.8762 58.2033 14.705C58.1496 14.5338 58.0385 14.3863 57.8889 14.2873C57.7392 14.1883 57.56 14.1438 57.3815 14.1614C57.2029 14.179 57.0358 14.2574 56.9083 14.3837L39.8185 31.3009C39.7422 31.3765 39.6823 31.467 39.6425 31.5667C39.6027 31.6665 39.5839 31.7734 39.5873 31.8807C39.5907 31.9881 39.6162 32.0936 39.6621 32.1907C39.7081 32.2877 39.7736 32.3743 39.8546 32.4449Z" fill="#FF6600"/>
<path d="M60.1914 37.9067L52.693 30.3113C52.5864 30.2033 52.5136 30.0666 52.4834 29.9179C52.4532 29.7692 52.4669 29.6149 52.523 29.4739L58.184 15.2274C58.2503 15.0606 58.2571 14.8762 58.2034 14.705C58.1496 14.5338 58.0386 14.3863 57.8889 14.2873C57.7393 14.1883 57.5601 14.1438 57.3815 14.1614C57.2029 14.179 57.0358 14.2574 56.9083 14.3837L49.9052 21.3161L46.6636 29.4739C46.6076 29.6149 46.5938 29.7692 46.624 29.9179C46.6542 30.0666 46.727 30.2033 46.8336 30.3113L54.3321 37.9067C54.4072 37.9828 54.466 38.0736 54.5046 38.1734C54.5433 38.2732 54.561 38.3799 54.5567 38.4868C54.5524 38.5937 54.5262 38.6986 54.4797 38.795C54.4332 38.8914 54.3674 38.9772 54.2864 39.0471L42.7476 49.0002L40.6593 53.8977C40.5901 54.06 40.5778 54.241 40.6246 54.4112C40.6714 54.5814 40.7745 54.7307 40.917 54.8348C41.0595 54.939 41.2331 54.9918 41.4094 54.9847C41.5858 54.9776 41.7545 54.9109 41.8882 54.7957L60.1457 39.0471C60.2268 38.9772 60.2926 38.8914 60.3391 38.795C60.3856 38.6987 60.4118 38.5937 60.4161 38.4868C60.4204 38.3799 60.4026 38.2732 60.364 38.1734C60.3254 38.0736 60.2666 37.9828 60.1914 37.9067Z" fill="white"/>
</svg>
