<svg width="39" height="38" viewBox="0 0 39 38" fill="none" xmlns="http://www.w3.org/2000/svg">
<path d="M32.4312 2.41269H6.52541C5.5885 2.41269 4.68997 2.78487 4.02747 3.44737C3.36498 4.10986 2.9928 5.00839 2.9928 5.9453L2.9928 31.8511C2.9928 32.788 3.36498 33.6865 4.02747 34.349C4.68997 35.0115 5.5885 35.3837 6.52541 35.3837H16.6265V24.1743H11.9899V18.8982H16.6265V14.8769C16.6265 10.3029 19.3495 7.77637 23.5202 7.77637C25.5176 7.77637 27.6062 8.13257 27.6062 8.13257V12.6219H25.3049C23.0374 12.6219 22.3302 14.0291 22.3302 15.4723V18.8982H27.3921L26.5825 24.1743H22.3302V35.3837H32.4312C33.3681 35.3837 34.2666 35.0115 34.9291 34.349C35.5916 33.6865 35.9638 32.788 35.9638 31.8511V5.9453C35.9638 5.00839 35.5916 4.10986 34.9291 3.44737C34.2666 2.78487 33.3681 2.41269 32.4312 2.41269Z" fill="#F7F3F0"/>
</svg>
