<svg width="30" height="29" viewBox="0 0 30 29" fill="none" xmlns="http://www.w3.org/2000/svg">
<path d="M23.26 0H7.35C3.7712 0 0.870003 2.90119 0.870003 6.48V22.39C0.870003 25.9688 3.7712 28.87 7.35 28.87H23.26C26.8388 28.87 29.74 25.9688 29.74 22.39V6.48C29.74 2.90119 26.8388 0 23.26 0Z" fill="#4C76BE"/>
<path fill-rule="evenodd" clip-rule="evenodd" d="M17.73 9.29024H19.38V6.76024C19.12 6.76024 18.85 6.70024 18.58 6.68024H17.09C16.3398 6.67595 15.6066 6.90291 14.99 7.33024C14.6486 7.57748 14.3602 7.89075 14.1421 8.25147C13.9239 8.61219 13.7804 9.01303 13.72 9.43024C13.6636 9.78755 13.6335 10.1485 13.63 10.5102V12.4202H11.22V15.2302H13.62V22.3002H16.55V15.2202H18.94L19.31 12.3902H16.53V10.3902C16.58 9.56024 17.07 9.31024 17.73 9.29024Z" fill="white"/>
</svg>
