<svg width="108" height="130" viewBox="0 0 108 130" fill="none" xmlns="http://www.w3.org/2000/svg">
<path d="M40.0292 8.63159C39.2337 9.03756 38.0818 9.68117 37.3656 10.1598C37.4283 10.6911 38.0257 11.0344 38.5472 11.0179C39.0815 10.9578 39.5911 10.7599 40.0259 10.4436C39.9409 10.7106 39.9125 10.9923 39.9426 11.2709C39.9728 11.5494 40.0607 11.8186 40.2008 12.0613C40.3409 12.3039 40.5301 12.5146 40.7563 12.6799C40.9825 12.8452 41.2407 12.9615 41.5144 13.0213" fill="#A26760"/>
<path d="M60.7733 118.56L62.9979 125.719C62.9979 125.719 55.3142 128.442 55.2977 129.888L70.4143 129.696L67.7969 117.785L60.7733 118.56Z" fill="#F7F3F0"/>
<g opacity="0.6">
<path opacity="0.6" d="M67.6352 124.831C67.7825 124.869 67.911 124.959 67.9962 125.085C68.0814 125.211 68.1173 125.364 68.0973 125.515C68.0654 125.66 67.9798 125.789 67.8575 125.875C67.7352 125.96 67.5851 125.997 67.4372 125.977C67.2817 125.935 67.1467 125.839 67.0573 125.705C66.968 125.572 66.9305 125.41 66.952 125.25C67.0007 125.099 67.1064 124.972 67.2468 124.897C67.3872 124.822 67.5513 124.804 67.7045 124.848" fill="white"/>
</g>
<g opacity="0.6">
<path opacity="0.6" d="M70.4142 129.696L70.1502 128.482L55.7696 129.168C55.6162 129.25 55.4857 129.369 55.39 129.514C55.2943 129.66 55.2364 129.827 55.2217 130L70.4142 129.696Z" fill="white"/>
</g>
<path d="M62.7503 125.657C62.7503 125.729 63.1266 125.746 63.4996 125.963C63.8725 126.181 64.0838 126.482 64.1597 126.449C64.2356 126.416 64.097 125.996 63.6382 125.739C63.1794 125.482 62.7305 125.591 62.7503 125.657Z" fill="#FF6600"/>
<path d="M61.1991 126.389C61.1991 126.462 61.5292 126.571 61.7767 126.871C62.0243 127.171 62.1332 127.498 62.2058 127.488C62.2784 127.478 62.3048 127.062 61.9681 126.696C61.6315 126.33 61.1958 126.32 61.1991 126.389Z" fill="#FF6600"/>
<path d="M60.3937 128.33C60.463 128.33 60.5456 127.97 60.3376 127.574C60.1297 127.178 59.7732 127.039 59.7468 127.102C59.7204 127.165 59.9416 127.369 60.1099 127.696C60.2782 128.023 60.3211 128.327 60.3937 128.33Z" fill="#FF6600"/>
<path d="M62.8032 123.871C62.8362 123.937 63.1696 123.818 63.5887 123.825C64.0079 123.831 64.338 123.947 64.3743 123.881C64.4106 123.815 64.0838 123.567 63.592 123.567C63.1002 123.567 62.7537 123.815 62.8032 123.871Z" fill="#FF6600"/>
<path d="M62.6876 122.3C62.9383 122.357 63.2001 122.343 63.4435 122.26C63.7135 122.197 63.975 122.102 64.2224 121.976C64.3677 121.901 64.5088 121.817 64.6449 121.725C64.727 121.673 64.8005 121.609 64.8627 121.534C64.9048 121.477 64.9275 121.408 64.9275 121.338C64.9275 121.267 64.9048 121.198 64.8627 121.141C64.8231 121.092 64.7727 121.053 64.7154 121.027C64.6582 121 64.5956 120.988 64.5326 120.989C64.4368 120.991 64.342 121.009 64.2521 121.042C64.0926 121.089 63.9379 121.151 63.79 121.227C63.5403 121.355 63.312 121.521 63.1134 121.719C62.7833 122.049 62.6744 122.343 62.7008 122.356C62.7272 122.369 62.8956 122.138 63.2388 121.854C63.4399 121.688 63.6618 121.548 63.8989 121.438C64.038 121.376 64.1814 121.324 64.328 121.283C64.4864 121.234 64.6218 121.227 64.6581 121.283C64.6944 121.339 64.6779 121.319 64.6581 121.366C64.6136 121.421 64.56 121.468 64.4996 121.504C64.3747 121.595 64.2447 121.679 64.1102 121.755C63.8814 121.886 63.6418 121.996 63.3939 122.085C63.1539 122.141 62.9179 122.212 62.6876 122.3Z" fill="#FF6600"/>
<path d="M62.8031 122.402C62.8328 122.402 62.9649 122.141 62.9682 121.663C62.9662 121.382 62.9171 121.103 62.8229 120.838C62.7652 120.681 62.6922 120.531 62.6051 120.389C62.5605 120.291 62.491 120.207 62.4036 120.144C62.3161 120.081 62.2137 120.043 62.1067 120.032C62.039 120.036 61.9739 120.06 61.9194 120.101C61.8649 120.141 61.8233 120.196 61.7998 120.26C61.7646 120.35 61.7435 120.444 61.7371 120.541C61.7196 120.71 61.7273 120.882 61.7602 121.049C61.8179 121.33 61.9424 121.592 62.1232 121.815C62.4533 122.191 62.7503 122.264 62.7569 122.237C62.7635 122.211 62.5127 122.069 62.2685 121.706C62.1283 121.495 62.0349 121.256 61.9945 121.006C61.973 120.862 61.973 120.715 61.9945 120.57C61.9945 120.409 62.0605 120.277 62.1232 120.29C62.1859 120.303 62.3312 120.399 62.4005 120.524C62.4814 120.651 62.551 120.785 62.6084 120.924C62.7045 121.162 62.7667 121.413 62.7932 121.669C62.8031 122.112 62.747 122.392 62.8031 122.402Z" fill="#FF6600"/>
<path d="M13.8921 66.8965L8.08643 72.1015C8.08643 72.1015 1.29387 67.583 0.128769 68.4378L9.37035 80.4123L18.7473 72.6857L13.8921 66.8965Z" fill="#F7F3F0"/>
<g opacity="0.6">
<path opacity="0.6" d="M11.5818 75.2667C11.6457 75.4085 11.6536 75.5693 11.6041 75.7168C11.5545 75.8643 11.451 75.9876 11.3144 76.0621C11.1774 76.1273 11.0204 76.1368 10.8764 76.0888C10.7325 76.0409 10.6127 75.939 10.5421 75.8047C10.4812 75.6558 10.4767 75.4897 10.5296 75.3378C10.5825 75.1858 10.689 75.0584 10.8292 74.9795C10.98 74.9277 11.1449 74.9363 11.2894 75.0033C11.434 75.0704 11.547 75.1908 11.6049 75.3393" fill="white"/>
</g>
<g opacity="0.6">
<path opacity="0.6" d="M9.3604 80.4124L10.3044 79.6334L0.99017 68.3818C0.832541 68.3106 0.659889 68.2792 0.48729 68.2901C0.314691 68.301 0.147392 68.354 0 68.4445L9.3604 80.4124Z" fill="white"/>
</g>
<path d="M7.98738 71.8572C7.93457 71.9067 8.14251 72.2103 8.19532 72.6427C8.24813 73.0751 8.12931 73.4216 8.19532 73.4546C8.26133 73.4876 8.52538 73.1246 8.44946 72.6097C8.37355 72.0948 8.03029 71.801 7.98738 71.8572Z" fill="#FF6600"/>
<path d="M6.4692 71.0586C6.40319 71.0916 6.51211 71.4184 6.4329 71.8111C6.35368 72.2039 6.14575 72.4712 6.19526 72.524C6.24476 72.5769 6.59463 72.3458 6.68704 71.8639C6.77946 71.382 6.52531 71.0157 6.4692 71.0586Z" fill="#FF6600"/>
<path d="M4.43593 71.58C4.46564 71.6427 4.8155 71.4843 5.00363 71.0816C5.19176 70.679 5.09605 70.3093 5.03003 70.3225C4.96402 70.3357 4.93432 70.6525 4.77259 70.9826C4.61086 71.3127 4.38313 71.5206 4.43593 71.58Z" fill="#FF6600"/>
<path d="M9.44297 70.8209C9.40996 70.8869 9.70702 71.0817 9.95126 71.4216C10.1955 71.7616 10.3044 72.0817 10.377 72.0817C10.4496 72.0817 10.4529 71.6626 10.1592 71.2665C9.86544 70.8704 9.46607 70.7549 9.44297 70.8209Z" fill="#FF6600"/>
<path d="M10.6345 69.7911C10.6114 69.8109 10.7632 70.065 11.1197 70.372C11.3327 70.5503 11.5665 70.7021 11.8161 70.8242C11.9631 70.8979 12.1154 70.9608 12.2716 71.0123C12.3627 71.0468 12.4583 71.0679 12.5554 71.075C12.6278 71.0785 12.6993 71.0582 12.759 71.017C12.8186 70.9758 12.8631 70.9162 12.8855 70.8473C12.9013 70.7858 12.9024 70.7215 12.8886 70.6595C12.8748 70.5976 12.8466 70.5398 12.8063 70.4908C12.7453 70.4173 12.6742 70.3528 12.595 70.2994C12.462 70.1987 12.3194 70.1114 12.1693 70.0386C11.9171 69.9175 11.6476 69.8362 11.3705 69.7977C11.1194 69.737 10.8557 69.7542 10.6147 69.8472C10.6147 69.8901 10.9018 69.8736 11.3375 69.9759C11.5892 70.0357 11.8322 70.1278 12.0603 70.2499C12.195 70.3222 12.3231 70.4062 12.4432 70.5007C12.5785 70.5964 12.6643 70.6987 12.6379 70.7779C12.6379 70.8043 12.6181 70.8142 12.562 70.8175C12.4911 70.8108 12.4212 70.7953 12.3541 70.7713C12.2069 70.726 12.0625 70.672 11.9217 70.6096C11.6825 70.5037 11.4537 70.3755 11.2385 70.2268C10.8622 69.9726 10.6543 69.7647 10.6345 69.7911Z" fill="#FF6600"/>
<path d="M10.6146 69.933C10.6146 69.9627 10.9183 69.9033 11.3044 69.6194C11.5284 69.4501 11.7215 69.2436 11.8754 69.0088C11.9663 68.8696 12.0426 68.7214 12.1032 68.5665C12.1567 68.4731 12.1849 68.3673 12.1849 68.2596C12.1849 68.1519 12.1567 68.046 12.1032 67.9526C12.0585 67.9019 12.0004 67.8647 11.9357 67.8455C11.8709 67.8262 11.8019 67.8256 11.7368 67.8437C11.6446 67.8705 11.5568 67.9105 11.4761 67.9625C11.3289 68.0516 11.1964 68.163 11.0833 68.2926C10.8919 68.5048 10.7558 68.761 10.6872 69.0385C10.6436 69.1621 10.6249 69.2931 10.6322 69.424C10.6396 69.5549 10.6729 69.683 10.7301 69.8009C10.7585 69.5617 10.8026 69.3247 10.8622 69.0913C10.9471 68.8529 11.0809 68.6348 11.2549 68.451C11.3523 68.3473 11.4633 68.2573 11.585 68.1837C11.7236 68.0978 11.8622 68.0615 11.8886 68.1176C11.9114 68.1762 11.9211 68.239 11.9171 68.3017C11.9131 68.3644 11.8955 68.4255 11.8655 68.4807C11.8133 68.6218 11.7481 68.7577 11.6708 68.8867C11.5374 69.1072 11.3741 69.3082 11.1856 69.4841C10.8589 69.791 10.5981 69.8966 10.6146 69.933Z" fill="#FF6600"/>
<path d="M83.2006 27.8739C83.1346 28.1445 75.1374 34.4354 73.9591 36.1418C72.7808 37.8482 69.9588 44.3239 69.9588 44.3239L64.9188 49.5091L78.0023 56.1663L95.0761 39.3763L97.7892 32.5871L93.8912 27.4613L85.3724 26.0916L83.2006 27.8739Z" fill="#FFE0CC"/>
<path d="M84.676 26.6724L72.7015 24.2069L68.764 31.9764L79.9001 37.0857L84.676 26.6724Z" fill="#FFE0CC"/>
<path d="M10.3241 67.0616C10.3241 67.0616 22.2986 57.2985 27.3815 52.5391C28.1077 51.8633 28.9838 51.3694 29.938 51.098C30.8922 50.8266 31.8971 50.7855 32.8703 50.9779L61.945 52.7074L54.9676 69.065L34.5041 63.124L18.0013 76.247L10.3241 67.0616Z" fill="#FF6600"/>
<path d="M37.1181 11.8397C37.3541 12.0511 37.6032 12.2474 37.864 12.4272C37.9921 12.5273 38.1266 12.6188 38.2667 12.7012C38.4356 12.7884 38.6171 12.8486 38.8047 12.8794C39.0146 12.9241 39.2323 12.9162 39.4384 12.8563C39.5511 12.8179 39.6545 12.7563 39.742 12.6756C39.8296 12.5949 39.8993 12.4968 39.9467 12.3876C39.9884 12.2688 39.9953 12.1405 39.9665 12.018C39.9367 11.9053 39.8826 11.8005 39.8081 11.711C39.671 11.5554 39.5208 11.4119 39.3592 11.2819C39.096 11.0574 38.8169 10.8523 38.5241 10.668C38.327 10.5466 38.1231 10.4364 37.9135 10.338C37.8394 10.2947 37.7594 10.2624 37.6759 10.2422C37.6759 10.2621 37.9895 10.4271 38.4713 10.7571C38.7519 10.9502 39.0208 11.1596 39.2767 11.3842C39.4287 11.511 39.57 11.6501 39.6991 11.8001C39.7653 11.8723 39.8111 11.9607 39.832 12.0564C39.8528 12.1521 39.848 12.2515 39.818 12.3447C39.7767 12.4349 39.7178 12.5158 39.6446 12.5827C39.5715 12.6496 39.4857 12.7011 39.3922 12.7342C39.208 12.7892 39.0131 12.7982 38.8245 12.7606C38.6495 12.7339 38.4793 12.6816 38.3195 12.6055C38.181 12.5296 38.0475 12.4447 37.9201 12.3513C37.666 12.1609 37.3979 11.9899 37.1181 11.8397Z" fill="#7B4B45"/>
<path d="M36.5274 13.2029C36.5274 13.2029 36.5802 13.2755 36.6957 13.3877C36.8112 13.4999 36.9795 13.6517 37.204 13.8267C37.4696 14.0357 37.7672 14.2007 38.0852 14.3151C38.2776 14.3885 38.484 14.4178 38.6892 14.401C38.8078 14.3976 38.9229 14.3597 39.0201 14.2917C39.1174 14.2237 39.1926 14.1288 39.2365 14.0185C39.2804 13.9083 39.291 13.7876 39.2671 13.6714C39.2431 13.5552 39.1857 13.4485 39.1018 13.3646C38.9754 13.2091 38.8339 13.0664 38.6793 12.9388C38.4304 12.7189 38.1704 12.5118 37.9004 12.3183C37.6694 12.1533 37.4746 12.0279 37.3393 11.9486C37.2719 11.9007 37.1972 11.864 37.1182 11.8397C37.1182 11.8397 37.3987 12.0477 37.841 12.3975C38.0621 12.5691 38.3196 12.7837 38.5935 13.0345C38.7397 13.1576 38.8734 13.2947 38.9929 13.4438C39.0556 13.5133 39.0992 13.5979 39.1194 13.6893C39.1397 13.7807 39.1359 13.8758 39.1084 13.9653C39.0678 14.0493 39.0059 14.1212 38.9289 14.1739C38.8519 14.2266 38.7624 14.2582 38.6694 14.2656C38.4847 14.2831 38.2985 14.2583 38.1248 14.193C37.8173 14.0877 37.527 13.9376 37.2634 13.7474C36.8079 13.4207 36.5439 13.1864 36.5274 13.2029Z" fill="#7B4B45"/>
<path d="M36.4845 14.3845C36.5972 14.5775 36.7463 14.7468 36.9235 14.8829C37.1074 15.0413 37.3076 15.1796 37.5209 15.2955C37.6479 15.3683 37.7831 15.4259 37.9236 15.4671C38.0067 15.4911 38.0944 15.495 38.1794 15.4783C38.2643 15.4617 38.3441 15.425 38.412 15.3714C38.4754 15.3077 38.5187 15.227 38.5369 15.1391C38.5551 15.0512 38.5472 14.9599 38.5144 14.8763C38.4585 14.7378 38.3767 14.6112 38.2734 14.5034C38.1085 14.3246 37.921 14.1682 37.7156 14.038C37.5389 13.907 37.3537 13.7879 37.1611 13.6815C37.3035 13.8519 37.4717 13.9989 37.6595 14.1172C37.8485 14.2545 38.0222 14.4116 38.1777 14.5859C38.2667 14.6822 38.3372 14.7941 38.3856 14.9159C38.4053 14.9718 38.4095 15.0319 38.3979 15.09C38.3863 15.1481 38.3592 15.202 38.3196 15.246C38.2684 15.2857 38.2085 15.3127 38.1448 15.3248C38.0811 15.3368 38.0155 15.3336 37.9533 15.3153C37.8239 15.2767 37.6989 15.2248 37.5803 15.1602C37.3707 15.0553 37.1717 14.9304 36.9862 14.7872C36.666 14.5628 36.5043 14.368 36.4845 14.3845Z" fill="#7B4B45"/>
<path d="M41.5146 13.0214C41.2185 12.9232 40.9416 12.7747 40.696 12.5824C40.4282 12.3617 40.2242 12.0734 40.1052 11.7473C39.957 11.3336 39.9477 10.8829 40.0788 10.4634L40.1316 10.2984L39.9831 10.3875C39.5868 10.6616 39.1368 10.8484 38.6629 10.9354C38.0886 11.0212 37.4681 10.6582 37.4087 10.1532L37.379 10.2126C38.1249 9.7175 38.7949 9.34124 39.2669 9.06729L39.8148 8.73723C39.8829 8.70361 39.947 8.66266 40.0062 8.61511C39.9329 8.63444 39.862 8.66212 39.795 8.69763C39.663 8.76034 39.4649 8.85605 39.2273 8.98148C38.7454 9.23562 38.0688 9.59868 37.3064 10.0905L37.2767 10.1103V10.1499C37.2988 10.2988 37.3546 10.4407 37.4398 10.5648C37.525 10.6889 37.6374 10.792 37.7684 10.8661C38.0401 11.032 38.3605 11.0996 38.6761 11.0575C39.1655 10.9665 39.6294 10.7706 40.0359 10.4832L39.9369 10.4073C39.8017 10.8544 39.8179 11.3336 39.9831 11.7705C40.1205 12.1124 40.3487 12.4103 40.6432 12.6319C40.8292 12.7791 41.0407 12.891 41.267 12.962C41.3451 12.9972 41.4291 13.0174 41.5146 13.0214Z" fill="#7B4B45"/>
<path d="M64.9287 49.5222C64.6779 49.6047 56.3473 56.658 56.0172 60.929C56.0172 60.929 48.4622 91.9906 49.1355 95.0304C49.8089 98.0702 60.4664 123.567 60.4664 123.567L70.1733 120.989L63.8132 95.2615L70.5826 76.2667C70.5826 76.2667 76.2794 73.5701 77.7976 68.0813C79.3159 62.5925 78.0089 56.1795 78.0089 56.1795L64.9287 49.5222Z" fill="#FF6600"/>
<path d="M59.5587 56.5889C59.5394 56.6466 59.5116 56.7011 59.4762 56.7506C59.4069 56.8694 59.3211 57.0179 59.2122 57.1995C58.9778 57.5823 58.6544 58.1467 58.2682 58.8498C57.882 59.5528 57.4497 60.4076 57.0074 61.3747C56.5651 62.3418 56.1228 63.421 55.6872 64.5729C54.8455 66.8833 54.2448 69.0221 53.8323 70.5767C53.6309 71.3358 53.4692 71.9596 53.3504 72.4184C53.2943 72.623 53.2514 72.788 53.215 72.9201C53.2041 72.98 53.1841 73.0378 53.1556 73.0917C53.1563 73.0314 53.1651 72.9714 53.182 72.9135C53.2084 72.7781 53.2415 72.6098 53.2844 72.4052C53.3768 71.9629 53.522 71.3292 53.7134 70.547C54.2124 68.5029 54.8228 66.4876 55.5419 64.5102C55.9677 63.355 56.4199 62.2724 56.8622 61.3054C57.3044 60.3383 57.7599 59.4868 58.1593 58.787C58.5587 58.0873 58.8986 57.5295 59.1495 57.1566L59.4399 56.7275C59.4742 56.677 59.5141 56.6305 59.5587 56.5889Z" fill="#F7F3F0"/>
<path d="M34.5536 63.3022C34.3727 63.1291 34.2171 62.9313 34.0915 62.7147C33.7555 62.2135 33.4629 61.6846 33.2169 61.1337C32.9676 60.5849 32.7645 60.0164 32.6096 59.4339C32.5318 59.1957 32.4863 58.9482 32.4742 58.6979C32.5271 58.6979 32.8043 59.7937 33.372 61.0644C33.9397 62.3351 34.5998 63.2725 34.5536 63.3022Z" fill="#F7F3F0"/>
<path d="M76.3354 59.3184C76.184 59.4064 76.0249 59.4804 75.8601 59.5395C75.4176 59.7199 74.9633 59.8699 74.5003 59.9884C73.8104 60.1689 73.0969 60.2424 72.3846 60.2062C71.5031 60.1675 70.6477 59.8953 69.9059 59.4174C69.1692 58.9202 68.617 58.194 68.3349 57.3512C68.1438 56.7808 68.0861 56.1742 68.1662 55.578C68.2463 54.9817 68.4621 54.4118 68.7969 53.912C68.8687 53.8033 68.9493 53.7006 69.0379 53.6051C69.0973 53.5391 69.1303 53.5061 69.1336 53.5094C69.1369 53.5127 69.028 53.6612 68.853 53.9484C68.6111 54.3566 68.4403 54.8031 68.3481 55.2686C68.2091 55.9507 68.257 56.6577 68.4867 57.3149C68.7625 58.1224 69.2945 58.8178 70.0016 59.2953C70.7202 59.7561 71.5456 60.0233 72.3979 60.0709C73.095 60.1099 73.7941 60.0488 74.4739 59.8894C74.9355 59.785 75.3907 59.6539 75.837 59.4966C75.9979 59.4233 76.1646 59.3637 76.3354 59.3184Z" fill="#F7F3F0"/>
<path d="M64.2323 51.0241C64.2323 51.0241 64.295 51.0043 64.4039 51.0241C64.5626 51.0613 64.7071 51.1439 64.8198 51.2617C64.9074 51.3503 64.9705 51.4602 65.0029 51.5805C65.0353 51.7009 65.0359 51.8276 65.0046 51.9482C64.972 52.0954 64.8934 52.2283 64.7802 52.3278C64.7174 52.3825 64.6438 52.4234 64.5642 52.4479C64.4846 52.4723 64.4008 52.4798 64.3181 52.4697C64.1523 52.4528 63.999 52.3738 63.889 52.2486C63.8384 52.1891 63.8013 52.1193 63.7803 52.0441C63.7592 51.9689 63.7546 51.89 63.7669 51.8129C63.7895 51.691 63.8404 51.5762 63.9155 51.4776C63.9906 51.379 64.0878 51.2994 64.1993 51.2452C64.3398 51.174 64.4917 51.1282 64.6481 51.1099C64.7571 51.1099 64.8165 51.1099 64.8198 51.1099C64.8231 51.1099 64.5788 51.1726 64.2587 51.3541C64.1718 51.4054 64.0972 51.4751 64.0401 51.5584C63.9831 51.6417 63.945 51.7364 63.9286 51.836C63.9232 51.8938 63.9296 51.9521 63.9475 52.0073C63.9655 52.0625 63.9945 52.1134 64.0328 52.157C64.0711 52.2006 64.118 52.2359 64.1704 52.2607C64.2229 52.2856 64.2799 52.2994 64.3379 52.3014C64.4568 52.3103 64.5749 52.2758 64.6702 52.2041C64.7656 52.1325 64.8316 52.0286 64.8561 51.9119C64.884 51.8143 64.8872 51.7113 64.8653 51.6122C64.8434 51.5131 64.7971 51.421 64.7307 51.3442C64.5914 51.2005 64.4209 51.0909 64.2323 51.0241Z" fill="#F7F3F0"/>
<path d="M74.4608 35.1352C74.4705 34.6194 74.5347 34.1061 74.6522 33.6038C74.8634 32.6136 76.7843 29.346 76.7843 29.346V27.633L75.8833 27.4185C75.8833 27.4185 75.8635 26.4283 76.616 26.2138C76.616 26.2138 77.2431 25.2929 77.7019 25.3787C77.7019 25.3787 77.659 24.7912 78.9957 25.085C80.3325 25.3787 80.5833 25.92 80.5833 25.92L80.108 25.3457C80.0545 25.2808 80.0202 25.2023 80.0089 25.1189C79.9976 25.0355 80.0098 24.9507 80.0441 24.8739C80.0784 24.797 80.1334 24.7313 80.203 24.6841C80.2726 24.6368 80.354 24.6099 80.4381 24.6064C80.4906 24.5997 80.544 24.6065 80.5932 24.6262C80.7186 24.7087 81.9728 25.6164 81.9728 25.6164L82.2237 27.4119L81.2335 31.1679L78.636 34.5939L78.4346 36.7063L74.4739 35.122" fill="#A26760"/>
<path d="M74.4773 35.0163C74.4773 35.0163 77.1408 50.298 78.0419 52.9978C78.9429 55.6977 79.3621 56.7077 82.0323 56.7143C85.0028 56.7143 94.6965 44.7398 94.6965 44.7398L88.2967 39.5777L82.8607 47.2845L78.6195 34.5906L74.4773 35.0163Z" fill="#A26760"/>
<path d="M97.6604 32.4088C97.6604 32.4088 98.3205 32.9765 98.8255 34.9172C99.4658 37.3927 98.2182 40.251 96.5976 42.4425C95.218 44.3106 92.7822 47.8852 92.7822 47.8852L85.884 42.3765C85.884 42.3765 89.5146 37.5643 90.3002 36.5774C92.2475 34.1614 97.6604 32.4088 97.6604 32.4088Z" fill="#FFE0CC"/>
<path d="M70.8598 32.927L70.2492 33.3627L70.3317 33.7653L70.8994 33.4782L70.8598 32.927Z" fill="#FF6600"/>
<path d="M91.5973 34.5048C91.5408 34.618 91.4698 34.7234 91.3861 34.8183L90.7589 35.6402C90.2276 36.33 89.4981 37.2904 88.7126 38.3565C87.9271 39.4226 87.2339 40.4128 86.7323 41.1257L86.1382 41.9673C86.0714 42.0758 85.9928 42.1766 85.9038 42.2677C85.9498 42.1509 86.0096 42.0401 86.082 41.9376C86.2075 41.7297 86.4121 41.4293 86.6332 41.063C87.1085 40.3336 87.7851 39.3368 88.574 38.2641C89.3628 37.1914 90.1087 36.2442 90.6632 35.5708C90.9405 35.2408 91.1715 34.9668 91.3233 34.7853C91.4039 34.6818 91.4958 34.5877 91.5973 34.5048Z" fill="#FF6600"/>
<path d="M97.0003 32.3263C96.41 32.4103 95.8249 32.5271 95.2477 32.6762C94.685 32.8811 94.1341 33.1169 93.5974 33.3825C94.0486 32.9672 94.5949 32.6691 95.1883 32.5145C95.768 32.3056 96.3899 32.241 97.0003 32.3263Z" fill="#FF6600"/>
<path d="M93.9406 3.97453C95.1552 2.88864 97.8287 3.35072 98.3832 4.20557C98.8837 4.02957 99.4328 4.05351 99.9161 4.27241C100.399 4.4913 100.78 4.88827 100.977 5.38057L103.776 6.30473C104.268 6.42071 104.723 6.66042 105.097 7.00115C105.427 7.37081 105.549 7.99131 105.199 8.36428C106.189 8.73064 106.42 10.2753 105.595 10.9222C105.68 11.0446 105.738 11.183 105.768 11.3289C105.797 11.4748 105.796 11.6251 105.765 11.7707C105.734 11.9162 105.674 12.054 105.588 12.1754C105.502 12.2968 105.392 12.3994 105.265 12.4768C105.957 13.5096 106.468 14.6524 106.777 15.8566C106.955 16.3492 106.955 16.8888 106.777 17.3814C106.545 17.8468 105.875 18.1141 105.486 17.7676C105.605 17.9815 105.661 18.225 105.646 18.4695C105.632 18.7139 105.547 18.9491 105.403 19.1472C105.885 19.2066 105.951 19.9724 105.585 20.2892C105.219 20.6061 104.671 20.5863 104.186 20.5269C103.7 20.4675 103.179 20.3849 102.753 20.6193C102.75 20.6799 102.76 20.7405 102.782 20.7973C102.803 20.854 102.836 20.9058 102.879 20.9493C103.255 21.3001 103.483 21.7826 103.513 22.2965C103.543 22.8105 103.374 23.3163 103.04 23.7086L102.859 23.9165C102.529 24.2862 101.806 24.5767 101.35 24.7582C100.195 25.2137 99.5516 25.0387 98.3106 25.0882C98.5614 25.9101 96.3962 27.4515 94.3004 25.4975C90.1137 26.2417 85.8412 26.3751 81.6163 25.8936C80.9562 25.8276 80.1508 25.6526 79.9165 25.0189C79.6341 25.0453 79.3497 24.9983 79.0907 24.8827C78.8316 24.7671 78.6068 24.5866 78.4379 24.3588C78.1036 23.9021 77.8492 23.3921 77.6853 22.8505C77.1237 22.6219 76.6467 22.2251 76.3199 21.7144C75.9931 21.2038 75.8324 20.6044 75.8601 19.9988C75.5007 19.6478 75.218 19.226 75.0299 18.7602C74.8419 18.2943 74.7526 17.7945 74.7676 17.2923C74.5055 17.1648 74.2723 16.9849 74.0826 16.7637C73.8928 16.5424 73.7506 16.2846 73.6645 16.0061C73.5785 15.7276 73.5506 15.4344 73.5825 15.1447C73.6144 14.855 73.7055 14.5749 73.8501 14.3218C74.2385 12.9616 74.8485 11.6747 75.6555 10.5129C74.9062 10.2654 74.7247 9.19272 75.1142 8.5128C75.5036 7.83289 76.2529 7.43682 76.9592 7.08366C76.3684 7.17608 75.9426 6.40374 76.1407 5.83935C76.3387 5.27495 76.8998 4.93169 77.4411 4.67755C78.236 4.30759 79.0727 4.03497 79.933 3.86561C80.3126 2.87544 81.7219 1.86547 82.7154 1.51561C86.7223 0.106265 89.4485 -0.0719662 93.9373 4.00093" fill="#FF6600"/>
<path d="M93.8681 27.8442L96.9079 10.4139C96.9765 10.0303 96.8986 9.63494 96.6896 9.30608C96.4805 8.97721 96.1556 8.73886 95.7791 8.63822L87.9402 5.28815C85.3691 4.60163 83.1247 7.54573 82.5471 10.1433C81.9035 13.028 81.2269 16.5794 81.2269 18.8073C81.1825 20.0314 81.5326 21.2375 82.2255 22.2476C82.9183 23.2578 83.9174 24.0187 85.0754 24.4182L84.6397 27.3359C84.6397 27.3359 83.897 29.577 84.8509 29.5671C86.1249 29.5506 93.8582 27.8508 93.8582 27.8508" fill="#A26760"/>
<path d="M82.3853 13.4966C82.4183 13.5956 82.9431 13.4966 83.4976 13.7475C84.0521 13.9983 84.3261 14.4703 84.4185 14.4307C84.4614 14.4307 84.4548 14.2623 84.336 14.0511C84.1732 13.774 83.9288 13.5538 83.6363 13.4207C83.3491 13.2862 83.0265 13.2468 82.7154 13.3085C82.4844 13.3514 82.3688 13.4537 82.3853 13.4966Z" fill="#FF6600"/>
<path d="M88.4882 14.5297C88.5542 14.6056 88.9965 14.302 89.6071 14.3251C90.2177 14.3482 90.6534 14.6551 90.7227 14.599C90.792 14.5429 90.6897 14.4307 90.4982 14.269C90.2422 14.075 89.9315 13.9664 89.6104 13.9587C89.2925 13.9441 88.9786 14.0333 88.7159 14.2128C88.5212 14.3614 88.4552 14.4934 88.4882 14.5297Z" fill="#FF6600"/>
<path d="M86.049 17.3121C85.7464 17.1618 85.4259 17.0509 85.0951 16.982C84.9433 16.9424 84.8014 16.8896 84.7948 16.7807C84.8049 16.6185 84.8661 16.4637 84.9697 16.3384C85.1711 15.9886 85.3856 15.6222 85.61 15.2393C86.5045 13.6683 87.1778 12.3645 87.1151 12.3282C87.0524 12.2919 86.2734 13.5395 85.379 15.1106C85.1612 15.4968 84.9532 15.8664 84.7552 16.2229C84.6285 16.3928 84.5665 16.6022 84.5803 16.8137C84.5934 16.8717 84.6199 16.9258 84.6577 16.9717C84.6956 17.0175 84.7436 17.0539 84.7981 17.0777C84.8802 17.1149 84.9667 17.1415 85.0555 17.157C85.379 17.2497 85.7127 17.3018 86.049 17.3121Z" fill="#FF6600"/>
<path d="M85.0853 24.4116C85.0853 24.4116 87.4188 25.0255 90.6105 23.7317C90.6105 23.7317 89.3925 26.8804 84.8609 25.9233L85.0853 24.4116Z" fill="#7B4B45"/>
<path d="M89.0658 10.6416C89.1021 10.8133 89.7259 10.8298 90.4091 11.0278C91.0923 11.2258 91.6468 11.5064 91.7656 11.3744C91.8185 11.3117 91.7425 11.1433 91.5346 10.9453C91.257 10.7029 90.928 10.5267 90.5723 10.4301C90.2167 10.3334 89.8437 10.3189 89.4816 10.3875C89.2077 10.4502 89.0526 10.5591 89.0658 10.6416Z" fill="#FF6600"/>
<path d="M83.567 10.0773C83.6528 10.2324 84.0918 10.1532 84.5902 10.2258C85.0885 10.2984 85.5011 10.4634 85.6199 10.3347C85.6727 10.272 85.6199 10.1235 85.4648 9.96503C85.2404 9.77241 84.9643 9.65 84.6709 9.61303C84.3775 9.57606 84.0797 9.62616 83.8145 9.7571C83.6132 9.86932 83.5307 10.0013 83.567 10.0773Z" fill="#FF6600"/>
<path d="M80.3357 12.0312C80.4315 11.337 80.7637 10.6971 81.2764 10.2192C81.5884 10.0038 81.8892 9.77248 82.1774 9.52612C82.7451 8.92872 82.7781 8.02106 83.0752 7.25533C83.2732 6.7617 83.5861 6.32243 83.9879 5.97399C84.3897 5.62555 84.8689 5.37799 85.3856 5.25189C86.2437 5.04725 87.1745 5.19248 87.993 4.86902C88.6003 4.62808 89.0921 4.1528 89.7126 3.94816C90.9173 3.5521 92.1814 4.27822 93.1947 5.05715C93.3135 5.94171 92.6831 6.62492 92.0791 7.28173C91.7745 7.61045 91.4023 7.86919 90.988 8.04013C90.5738 8.21108 90.1274 8.29015 89.6796 8.2719C88.9898 8.2389 88.2043 7.99136 87.6663 8.42703C87.1283 8.86271 87.1976 9.81657 86.7124 10.3612C86.0226 11.1401 84.6991 10.6648 83.7419 11.0873C83.0092 11.4173 82.6263 12.2062 82.1972 12.8861C81.7682 13.566 81.0882 14.2492 80.2928 14.1238C80.2267 13.427 80.2411 12.7248 80.3357 12.0312Z" fill="#FF6600"/>
<path d="M91.3002 6.42023C93.3166 6.61637 95.2758 7.20145 97.0696 8.14312C97.6277 8.37929 98.0967 8.78596 98.4096 9.30492C98.6015 9.80202 98.6485 10.3434 98.5449 10.8661C98.3403 12.5164 97.4524 14.4505 96.6537 15.9028L94.4588 16.8929C92.9175 16.3417 93.9505 13.6881 94.1816 12.3282C93.6596 12.014 93.2358 11.56 92.9582 11.0176C92.6806 10.4752 92.5601 9.86595 92.6105 9.25871C92.1945 8.91307 91.8609 8.47883 91.6342 7.98773C91.4075 7.49663 91.2934 6.96108 91.3002 6.42023Z" fill="#FF6600"/>
<path d="M94.5546 16.3219C94.7229 15.3879 95.8979 15.3318 96.6538 15.9094C97.0663 16.2394 97.3436 16.7906 97.1753 17.7841C96.7231 20.4245 94.1552 19.4344 94.1651 19.3552C94.175 19.2759 94.3566 17.421 94.5546 16.3219Z" fill="#A26760"/>
<path d="M95.1487 18.497C95.1487 18.497 95.1883 18.5366 95.2609 18.5861C95.3595 18.6468 95.4766 18.6702 95.591 18.6521C95.888 18.596 96.1983 18.1934 96.294 17.7181C96.3402 17.492 96.3346 17.2584 96.2775 17.0349C96.2674 16.9477 96.2359 16.8645 96.1858 16.7925C96.1357 16.7205 96.0685 16.662 95.9903 16.6223C95.9398 16.5991 95.8828 16.5943 95.8291 16.6087C95.7754 16.6232 95.7285 16.656 95.6966 16.7015C95.6504 16.7708 95.657 16.8236 95.6405 16.8269C95.624 16.8302 95.591 16.7741 95.6405 16.6685C95.6649 16.6045 95.7118 16.5517 95.7725 16.52C95.8131 16.4982 95.8576 16.4846 95.9035 16.4801C95.9494 16.4756 95.9957 16.4801 96.0398 16.4936C96.1474 16.531 96.2435 16.5957 96.3187 16.6813C96.3939 16.7669 96.4456 16.8705 96.4689 16.9821C96.5428 17.2306 96.5553 17.4934 96.5052 17.7478C96.3963 18.2792 96.0365 18.738 95.6372 18.7776C95.5622 18.786 95.4862 18.7777 95.4149 18.7531C95.3435 18.7286 95.2785 18.6884 95.2246 18.6356C95.1487 18.5597 95.1487 18.5003 95.1487 18.497Z" fill="#7B4B45"/>
<path d="M95.3137 19.6489C95.3137 19.6489 95.3137 19.6489 95.3137 19.6852C95.3155 19.7214 95.3233 19.7571 95.3368 19.7908C95.387 19.9302 95.4853 20.0473 95.614 20.1208C95.8116 20.235 96.0308 20.3069 96.2576 20.3321C96.4008 20.3523 96.5456 20.3589 96.69 20.3519C96.8544 20.3483 97.0171 20.3183 97.1719 20.2628L97.1422 20.243C97.1495 20.4747 97.2178 20.7004 97.3401 20.8974C97.4624 21.0944 97.6344 21.2557 97.8388 21.3651C98.0432 21.4745 98.2728 21.5281 98.5045 21.5206C98.7363 21.5131 98.9619 21.4447 99.1588 21.3222H99.1159C99.15 21.3875 99.1967 21.4454 99.2534 21.4924C99.3101 21.5395 99.3755 21.5747 99.446 21.5962C99.5883 21.6374 99.7394 21.6374 99.8817 21.5962C100.031 21.5598 100.165 21.4751 100.261 21.3553C100.356 21.23 100.419 21.084 100.446 20.9295C100.492 20.6096 100.424 20.2839 100.255 20.0086C100.077 19.7299 99.8668 19.4739 99.6275 19.2462V19.3056C99.7459 19.2482 99.8509 19.1665 99.9356 19.0659C100.02 18.9652 100.083 18.8478 100.119 18.7214C100.199 18.4622 100.199 18.1852 100.119 17.926C100.036 17.664 99.9027 17.4207 99.7265 17.2097C99.5492 16.9965 99.3585 16.7948 99.1555 16.6057V16.6519C99.2636 16.5604 99.3507 16.4467 99.411 16.3186C99.4714 16.1905 99.5036 16.0509 99.5054 15.9093C99.5203 15.6192 99.4466 15.3314 99.2942 15.0842C98.9781 14.6475 98.5689 14.2868 98.096 14.028L98.1126 14.0775C98.2121 13.8072 98.2448 13.5169 98.2079 13.2313C98.1709 12.9456 98.0654 12.6732 97.9004 12.4371C97.7354 12.2011 97.5157 12.0085 97.2601 11.8757C97.0045 11.7429 96.7206 11.674 96.4326 11.6747L96.4689 11.7275C96.5377 11.5026 96.5542 11.2649 96.517 11.0326C96.4798 10.8003 96.39 10.5797 96.2543 10.3875C96.1363 10.2046 95.9803 10.0492 95.7969 9.93189C95.6135 9.81458 95.4071 9.73807 95.1916 9.70755L95.2213 9.74716C95.2403 9.51938 95.2074 9.29024 95.1251 9.077C95.0427 8.86376 94.9131 8.67197 94.746 8.51605C94.6057 8.37241 94.4377 8.25882 94.2522 8.18222C94.0666 8.10561 93.8674 8.06759 93.6667 8.07047L93.6931 8.10018C93.7051 7.8559 93.6575 7.61236 93.5545 7.39056C93.4693 7.19362 93.351 7.01276 93.2046 6.85587C92.9781 6.59921 92.6728 6.42507 92.3366 6.36078H92.2375H92.1418C92.0847 6.35581 92.0273 6.35581 91.9702 6.36078C91.8822 6.36726 91.7949 6.38161 91.7095 6.40369L91.5543 6.4499C91.518 6.4499 91.5015 6.4499 91.5015 6.4697H91.5543L91.7128 6.43009C91.7788 6.41029 91.8712 6.41029 91.9735 6.39379C92.0296 6.39058 92.0858 6.39058 92.1418 6.39379H92.2343L92.33 6.41359C92.6587 6.48029 92.956 6.65446 93.1749 6.90868C93.309 7.05742 93.4182 7.22682 93.4984 7.41036C93.5971 7.62395 93.6414 7.8587 93.6271 8.09358V8.12328H93.6601C93.8519 8.12042 94.0423 8.15637 94.2198 8.22897C94.3973 8.30157 94.5583 8.40933 94.6932 8.54576C94.8531 8.69438 94.9771 8.87734 95.056 9.08088C95.1349 9.28441 95.1666 9.5032 95.1486 9.72076V9.75376H95.1849C95.3911 9.78392 95.5882 9.85858 95.7626 9.97258C95.9371 10.0866 96.0846 10.2372 96.1949 10.4139C96.3237 10.596 96.4091 10.8053 96.4446 11.0255C96.4801 11.2458 96.4647 11.4712 96.3996 11.6846L96.3798 11.7374H96.4359C96.7124 11.7366 96.9851 11.8031 97.2302 11.931C97.4754 12.059 97.6858 12.2446 97.8433 12.472C98.0009 12.6993 98.1008 12.9615 98.1344 13.236C98.1681 13.5105 98.1345 13.7891 98.0366 14.0478V14.0808H98.0663C98.5277 14.3326 98.9278 14.6831 99.2381 15.1073C99.3818 15.3408 99.452 15.6122 99.4394 15.8862C99.4357 16.0174 99.4044 16.1464 99.3475 16.2646C99.2906 16.3829 99.2095 16.4879 99.1093 16.5727L99.073 16.6024L99.106 16.6354C99.5268 16.9742 99.8521 17.4167 100.05 17.9194C100.122 18.1639 100.122 18.4241 100.05 18.6686C100.017 18.785 99.9592 18.8931 99.8813 18.9858C99.8033 19.0785 99.7068 19.1537 99.5978 19.2066L99.5483 19.2297L99.5879 19.2693C99.8226 19.4925 100.03 19.7429 100.205 20.0152C100.365 20.2769 100.431 20.5857 100.39 20.8899C100.374 21.031 100.317 21.1644 100.226 21.2735C100.135 21.3827 100.014 21.4627 99.8784 21.5038C99.7528 21.546 99.6166 21.5445 99.492 21.4995C99.3674 21.4546 99.2616 21.3689 99.1918 21.2562V21.2265L99.1621 21.243C98.9559 21.3648 98.72 21.4271 98.4806 21.423C98.2412 21.4189 98.0075 21.3486 97.8056 21.2199C97.6378 21.1079 97.4979 20.959 97.3966 20.7844C97.2953 20.6099 97.2354 20.4145 97.2214 20.2133V20.1835H97.1917C97.0409 20.2367 96.8828 20.2667 96.723 20.2727C96.5825 20.2862 96.441 20.2862 96.3005 20.2727C96.0769 20.2507 95.8602 20.1833 95.6635 20.0746C95.5401 20.0089 95.4416 19.9046 95.383 19.7776C95.3203 19.7017 95.3203 19.6489 95.3137 19.6489Z" fill="#F7F3F0"/>
<path d="M105.793 17.9326C105.837 17.8854 105.876 17.8346 105.912 17.7808C106.01 17.6247 106.078 17.451 106.11 17.2692C106.164 16.9764 106.121 16.674 105.988 16.4078C105.896 16.2318 105.769 16.0767 105.615 15.9523C105.46 15.8279 105.281 15.7369 105.09 15.685L105.107 15.7213C105.246 15.2779 105.213 14.798 105.014 14.3779C104.907 14.143 104.75 13.9337 104.555 13.764C104.338 13.6007 104.106 13.4581 103.862 13.3383C103.741 13.2739 103.629 13.1916 103.532 13.094C103.436 12.9929 103.365 12.8709 103.324 12.7375C103.235 12.4702 103.229 12.1633 103.11 11.8695C102.983 11.5704 102.769 11.3162 102.496 11.1397C102.223 10.9632 101.903 10.8725 101.578 10.8793L101.618 10.9321C101.7 10.6134 101.707 10.2801 101.64 9.9579C101.573 9.63573 101.433 9.33327 101.23 9.07379C101.028 8.8143 100.768 8.6047 100.472 8.4611C100.176 8.3175 99.8511 8.24374 99.522 8.24548L99.5616 8.29499C99.6396 7.94335 99.6154 7.57673 99.4919 7.23839C99.3683 6.90006 99.1506 6.60412 98.8643 6.38552C98.578 6.16691 98.2352 6.03476 97.8763 6.00466C97.5173 5.97456 97.1573 6.04776 96.8386 6.21563H96.8815C96.6435 5.93522 96.3473 5.70997 96.0135 5.55552C95.7192 5.40484 95.4062 5.29385 95.0827 5.22546C94.56 5.10581 94.02 5.08121 93.4885 5.15285C93.1449 5.19316 92.8103 5.29019 92.4984 5.44C92.4167 5.4773 92.3383 5.52146 92.264 5.57202L92.1848 5.62483C92.1848 5.62483 92.2937 5.55882 92.5149 5.4565C92.8296 5.31872 93.1635 5.22968 93.505 5.19246C94.0308 5.12925 94.5636 5.15829 95.0794 5.27827C95.3979 5.34928 95.7062 5.46017 95.997 5.60833C96.3212 5.76608 96.6081 5.99112 96.8386 6.26844L96.8584 6.29154H96.8815C97.1743 6.14539 97.5002 6.07853 97.8268 6.09764C98.1534 6.11675 98.4694 6.22116 98.743 6.40046C99.0392 6.60786 99.2681 6.89757 99.4012 7.23373C99.5344 7.56989 99.5661 7.93772 99.4923 8.29169V8.3412H99.5418C99.8586 8.33866 100.172 8.40904 100.457 8.54689C100.742 8.68474 100.992 8.88638 101.187 9.1362C101.382 9.38602 101.517 9.67733 101.581 9.9876C101.646 10.2979 101.638 10.6188 101.558 10.9255V10.9783H101.615C101.923 10.9713 102.227 11.0564 102.486 11.2228C102.746 11.3892 102.951 11.6293 103.073 11.9124C103.186 12.1864 103.192 12.49 103.288 12.7739C103.33 12.9179 103.407 13.0493 103.512 13.1567C103.61 13.2569 103.721 13.3435 103.842 13.4142C104.083 13.5299 104.312 13.6692 104.526 13.83C104.715 13.9916 104.869 14.1919 104.975 14.4175C105.169 14.8234 105.204 15.2873 105.074 15.718V15.7444H105.103C105.288 15.793 105.461 15.8794 105.611 15.9981C105.761 16.1168 105.885 16.2653 105.975 16.4342C106.109 16.6918 106.156 16.9858 106.11 17.2725C106.081 17.452 106.018 17.6244 105.925 17.7808C105.833 17.8798 105.79 17.9293 105.793 17.9326Z" fill="#F7F3F0"/>
<path d="M80.2103 15.8104C80.2306 15.7783 80.244 15.7424 80.2497 15.7049C80.2554 15.6674 80.2532 15.6291 80.2433 15.5925C80.2215 15.5029 80.1759 15.4207 80.1113 15.3549C80.0229 15.267 79.9173 15.1985 79.801 15.1536C79.6588 15.0999 79.5253 15.0253 79.405 14.9324C79.272 14.8103 79.1827 14.648 79.1508 14.4703C79.1129 14.2663 79.1129 14.0571 79.1508 13.8531C79.1838 13.6353 79.2432 13.4043 79.2729 13.1567C79.2784 12.6142 79.223 12.0729 79.1079 11.5427C79.0696 11.2477 79.0909 10.9481 79.1706 10.6615C79.2093 10.5113 79.28 10.3712 79.3781 10.251C79.4761 10.1307 79.599 10.0332 79.7383 9.96506C80.0519 9.85507 80.3778 9.78413 80.7087 9.75382C80.8844 9.72514 81.054 9.66713 81.2104 9.5822C81.3696 9.49063 81.5017 9.35853 81.5932 9.19933C81.7611 8.87402 81.8949 8.53225 81.9926 8.17946C82.0474 8.00624 82.1286 7.84256 82.2336 7.69427C82.3408 7.54945 82.4928 7.44392 82.6659 7.39392C82.9147 7.3623 83.1664 7.3623 83.4152 7.39392C83.5448 7.39751 83.6742 7.37967 83.798 7.34111C83.9255 7.29922 84.0394 7.22401 84.1281 7.12327C84.2772 6.92152 84.3961 6.69915 84.4812 6.46316C84.6169 6.15019 84.8462 5.88694 85.1376 5.70962C85.4289 5.53231 85.7681 5.44964 86.1084 5.47299C86.5249 5.51036 86.9123 5.70228 87.1943 6.01098L87.224 6.04729L87.2504 6.00438C87.4382 5.69386 87.6903 5.42716 87.9897 5.22221C88.2892 5.01726 88.6291 4.87881 88.9865 4.81618C89.2842 4.764 89.5892 4.77073 89.8843 4.83598C90.136 4.88872 90.3763 4.98596 90.5939 5.12313C90.9 5.31697 91.1431 5.59563 91.2936 5.92517C91.3362 6.0112 91.3715 6.10062 91.3992 6.19251L91.4223 6.26183V6.28493C91.4223 6.28493 91.4223 6.28493 91.4223 6.25853L91.4025 6.18922C91.3794 6.09508 91.3473 6.00335 91.3068 5.91527C91.1605 5.57707 90.9184 5.28909 90.6104 5.08683C90.3899 4.94629 90.1463 4.84573 89.8909 4.78977C89.589 4.71863 89.2762 4.70741 88.97 4.75677C88.6034 4.82016 88.2545 4.96099 87.9466 5.16986C87.6387 5.37874 87.3788 5.65085 87.1844 5.96808H87.2405C86.9478 5.644 86.5434 5.44243 86.1084 5.40368C85.8755 5.3852 85.6413 5.41494 85.4204 5.49103C85.1995 5.56713 84.9966 5.68795 84.8245 5.84596C84.6469 6.00668 84.5043 6.20214 84.4053 6.42025C84.3255 6.64488 84.2144 6.85712 84.0753 7.05066C83.9917 7.13953 83.8884 7.20759 83.7738 7.24943C83.6592 7.29127 83.5364 7.30571 83.4152 7.2916C83.1579 7.2654 82.8984 7.27205 82.6428 7.31141C82.4529 7.36728 82.2862 7.48306 82.1676 7.64146C82.058 7.79561 81.9734 7.96602 81.9167 8.14645C81.8211 8.48897 81.6906 8.82076 81.5272 9.13662C81.4401 9.28426 81.3176 9.40789 81.1708 9.49638C81.0212 9.57555 80.8595 9.6291 80.6922 9.65481C80.3544 9.68816 80.0219 9.76241 79.702 9.87595C79.5466 9.95165 79.4127 10.0651 79.3126 10.206C79.2158 10.3362 79.1432 10.4826 79.098 10.6384C79.0164 10.9337 78.9962 11.2426 79.0386 11.546C79.1547 12.0717 79.2122 12.6085 79.2102 13.1468C79.1871 13.391 79.1277 13.6188 79.0947 13.8432C79.0533 14.0524 79.0533 14.2677 79.0947 14.4769C79.1303 14.6627 79.2252 14.8318 79.3654 14.9588C79.4904 15.0519 79.6283 15.1264 79.7746 15.18C79.8888 15.221 79.9933 15.285 80.0816 15.3681C80.1446 15.4313 80.1901 15.5098 80.2136 15.5958C80.2364 15.6657 80.2353 15.7412 80.2103 15.8104Z" fill="#F7F3F0"/>
<path d="M75.4938 11.1037C75.5064 11.0896 75.5175 11.0741 75.5268 11.0575L75.6159 10.9156L75.9459 10.3677C76.0945 10.1301 76.276 9.83301 76.4971 9.51286C76.7411 9.14037 77.0839 8.84321 77.4873 8.65471C77.715 8.56229 77.9725 8.51278 78.2365 8.43027C78.3715 8.38826 78.5011 8.33066 78.6227 8.25864C78.7517 8.17585 78.8583 8.06247 78.933 7.92858C79.0914 7.66784 79.131 7.35428 79.263 7.08034C79.3257 6.94236 79.4294 6.8271 79.5601 6.75028C79.7012 6.67476 79.8541 6.62344 80.0122 6.59846C80.18 6.57184 80.3447 6.52872 80.504 6.46973C80.6711 6.40584 80.8133 6.29019 80.91 6.13968C81.0629 5.82551 81.1739 5.4926 81.24 5.14951C81.2859 4.97874 81.3643 4.81847 81.4711 4.67753C81.5308 4.6086 81.6035 4.55213 81.6851 4.51135C81.7666 4.47057 81.8554 4.44629 81.9464 4.43989C82.3028 4.40688 82.6659 4.57191 83.0653 4.5521C83.2641 4.54078 83.454 4.46554 83.6066 4.33757C83.7505 4.21263 83.88 4.07203 83.9927 3.9184C84.0947 3.76938 84.2049 3.62614 84.3228 3.48932C84.4392 3.35806 84.5867 3.25818 84.7519 3.19887C85.0913 3.12591 85.4454 3.16771 85.7585 3.31769C86.0697 3.45704 86.4078 3.5258 86.7487 3.51903C87.0727 3.47518 87.386 3.37226 87.6729 3.21538C87.9403 3.07961 88.2199 2.96911 88.5079 2.88532C89.0379 2.76939 89.5903 2.81304 90.0955 3.01074C90.5142 3.16889 90.8913 3.42064 91.1979 3.74677C91.4276 3.99458 91.618 4.27621 91.7623 4.58181C91.8503 4.77653 91.921 4.97865 91.9735 5.18581C91.9933 5.25513 92.0065 5.30793 92.0197 5.34754L92.0362 5.40365V5.34754C92.0362 5.30463 92.0164 5.25182 91.9999 5.18251C91.952 4.97205 91.8846 4.76653 91.7986 4.56861C91.6601 4.25615 91.4729 3.96763 91.2441 3.71376C90.9332 3.38034 90.5506 3.12189 90.1252 2.95793C89.6265 2.751 89.0786 2.69255 88.5475 2.7896C88.2537 2.87737 87.9695 2.99459 87.6993 3.13946C87.4183 3.28917 87.1134 3.38859 86.7982 3.43321C86.4641 3.43656 86.1331 3.36789 85.8278 3.23188C85.6611 3.17001 85.4902 3.12037 85.3162 3.08335C85.1343 3.04599 84.9459 3.05508 84.7684 3.10976C84.5907 3.17273 84.4318 3.27943 84.3063 3.42001C84.1713 3.55769 84.0446 3.70316 83.9267 3.85569C83.8194 4.00469 83.6954 4.1409 83.5571 4.26165C83.4154 4.37765 83.2413 4.44684 83.0587 4.45969C82.689 4.47949 82.3259 4.31446 81.9365 4.34747C81.7412 4.36487 81.5603 4.45712 81.4315 4.60491C81.3141 4.75254 81.2297 4.92361 81.1839 5.1066C81.1181 5.44977 81.0071 5.78272 80.8539 6.09677C80.7663 6.23641 80.637 6.34496 80.4842 6.40702C80.3285 6.46232 80.1684 6.50428 80.0056 6.53244C79.8401 6.55833 79.6803 6.61307 79.5337 6.69417C79.3882 6.77895 79.2728 6.90703 79.2036 7.06053C79.065 7.35098 79.0287 7.66124 78.8735 7.90878C78.7196 8.14114 78.484 8.30722 78.2134 8.37416C77.956 8.45667 77.6952 8.50948 77.4609 8.6052C77.0459 8.79773 76.6944 9.10457 76.4476 9.48975C76.2166 9.81981 76.0516 10.1169 75.9063 10.3545C75.7611 10.5921 75.6555 10.7803 75.5763 10.9123C75.54 10.9717 75.5136 11.0212 75.4938 11.0575C75.474 11.0938 75.4905 11.1037 75.4938 11.1037Z" fill="#F7F3F0"/>
<path d="M78.6458 8.63159C78.6458 8.63159 78.6293 8.63159 78.5996 8.63159C78.5506 8.62163 78.5001 8.62163 78.4511 8.63159C78.3632 8.67141 78.2868 8.73286 78.2291 8.81021C78.1714 8.88755 78.1342 8.97826 78.1211 9.07386C78.1016 9.20849 78.1016 9.34521 78.1211 9.47983C78.1428 9.6353 78.1428 9.79305 78.1211 9.94852C78.0822 10.1238 77.9992 10.2862 77.8801 10.4205C77.758 10.569 77.6095 10.7142 77.4807 10.8925C77.4084 10.9845 77.3581 11.0917 77.3335 11.2061C77.3089 11.3205 77.3107 11.439 77.3388 11.5526C77.3982 11.7902 77.5435 11.9982 77.5963 12.2391C77.6407 12.4921 77.5851 12.7525 77.4411 12.9652C77.3124 13.1963 77.1375 13.4141 77.0055 13.6749C76.9349 13.8062 76.8891 13.9494 76.8701 14.0973C76.8563 14.2501 76.8743 14.404 76.9229 14.5495C77.0379 14.8349 77.1793 15.109 77.3454 15.368C77.5153 15.6258 77.5824 15.9379 77.5336 16.2427C77.4272 16.5465 77.2854 16.8368 77.1111 17.1074C77.0301 17.2559 76.9774 17.4182 76.956 17.586C76.9415 17.7544 76.9664 17.9239 77.0286 18.0811C77.1585 18.3723 77.3225 18.647 77.517 18.8996C77.6988 19.1388 77.8292 19.413 77.8999 19.705C77.9431 19.9958 78.0048 20.2835 78.0847 20.5664C78.1316 20.7051 78.2108 20.8307 78.3158 20.9328C78.4216 21.0281 78.5434 21.1041 78.6755 21.1572C78.7971 21.2076 78.915 21.266 79.0287 21.3322C79.1356 21.3981 79.2314 21.4806 79.3126 21.5764C79.4645 21.7641 79.59 21.9718 79.6855 22.1936C79.7878 22.4081 79.8803 22.6161 79.9859 22.8042C80.1779 23.152 80.478 23.4277 80.8407 23.5898C81.1102 23.7153 81.4049 23.7774 81.7022 23.7713C81.8887 23.7685 82.0736 23.7362 82.2501 23.6756C82.3112 23.6546 82.3708 23.6292 82.4283 23.5997C82.1963 23.6886 81.9506 23.7366 81.7022 23.7416C81.4111 23.7389 81.1241 23.6736 80.8605 23.5501C80.5101 23.387 80.2218 23.1149 80.0387 22.7745C79.9331 22.5897 79.8439 22.3817 79.7449 22.1672C79.6475 21.9389 79.5198 21.7246 79.3654 21.5302C79.2787 21.4298 79.1775 21.343 79.065 21.2728C78.9495 21.2001 78.8241 21.1506 78.7052 21.0912C78.5836 21.0408 78.4719 20.9693 78.3752 20.88C78.281 20.7865 78.2078 20.674 78.1607 20.5499C78.0838 20.27 78.0242 19.9856 77.9824 19.6984C77.9105 19.3959 77.7768 19.1116 77.5897 18.8633C77.3996 18.6155 77.239 18.3463 77.1111 18.0613C77.0536 17.9168 77.031 17.7607 77.0451 17.6058C77.0647 17.4473 77.114 17.2939 77.1903 17.1536C77.3673 16.8777 77.5113 16.5819 77.6194 16.2724C77.659 16.1109 77.659 15.9422 77.6194 15.7806C77.577 15.6259 77.5149 15.4772 77.4345 15.3383C77.2723 15.0833 77.1321 14.815 77.0154 14.5363C76.9713 14.4012 76.9545 14.2588 76.9659 14.1171C76.9844 13.9778 77.0269 13.8427 77.0913 13.7178C77.2167 13.4669 77.3916 13.2491 77.5237 13.0081C77.6753 12.78 77.7322 12.5018 77.6821 12.2325C77.6227 11.9751 77.4774 11.7704 77.4213 11.546C77.3939 11.4409 77.3909 11.3309 77.4126 11.2244C77.4344 11.118 77.4803 11.018 77.5468 10.9321C77.6689 10.7572 77.8174 10.602 77.9395 10.4601C78.0643 10.3186 78.1497 10.1467 78.1871 9.96172C78.203 9.80083 78.1952 9.63846 78.164 9.47983C78.1366 9.35079 78.1299 9.21821 78.1442 9.08707C78.1543 8.99697 78.186 8.91063 78.2365 8.83537C78.2871 8.76011 78.355 8.69813 78.4346 8.65469C78.5005 8.62391 78.5748 8.61579 78.6458 8.63159Z" fill="#F7F3F0"/>
<path d="M105.734 17.8368C105.805 17.8446 105.877 17.8446 105.948 17.8368C106.155 17.8179 106.356 17.7572 106.539 17.6586C106.837 17.5029 107.071 17.2469 107.199 16.9358C107.281 16.7293 107.317 16.5073 107.304 16.2854C107.291 16.0635 107.229 15.8472 107.123 15.6519C106.987 15.434 106.829 15.2306 106.651 15.0446C106.457 14.8504 106.311 14.6145 106.222 14.3548C106.163 14.0667 106.213 13.7672 106.361 13.5131C106.496 13.2392 106.691 12.9751 106.816 12.6715C106.961 12.3353 107.034 11.9727 107.032 11.6066C107.029 11.2406 106.95 10.8791 106.8 10.5451C106.65 10.2112 106.433 9.91203 106.161 9.6667C105.889 9.42137 105.57 9.23522 105.222 9.12006L105.239 9.18277C105.381 9.02457 105.483 8.83434 105.536 8.62827C105.588 8.41897 105.599 8.20153 105.569 7.98796C105.537 7.77223 105.469 7.56348 105.367 7.37076C105.261 7.17888 105.126 7.00417 104.968 6.85257C104.487 6.42465 103.913 6.11398 103.291 5.94491C102.714 5.76597 102.113 5.67148 101.509 5.66436L101.549 5.70727C101.568 5.45354 101.537 5.19843 101.456 4.95707C101.375 4.71571 101.247 4.49301 101.079 4.30217C100.91 4.11133 100.705 3.95623 100.476 3.84608C100.247 3.73593 99.9973 3.67297 99.7431 3.66092C99.4389 3.66006 99.1364 3.70456 98.8453 3.79294C98.7069 3.82548 98.5651 3.84209 98.4229 3.84245C98.2864 3.83839 98.1519 3.80814 98.0268 3.75334C97.7912 3.63853 97.5696 3.49676 97.3667 3.33086C97.1714 3.17592 96.9574 3.04618 96.7297 2.9447C96.5187 2.8584 96.2964 2.80282 96.0696 2.77967C95.7307 2.7444 95.3883 2.78537 95.0673 2.89959C94.7464 3.01381 94.455 3.19838 94.2146 3.43978C94.0886 3.56853 93.9779 3.7114 93.8846 3.86556C93.8498 3.9188 93.8199 3.97515 93.7955 4.03388C93.7955 4.03388 93.8285 3.97778 93.8945 3.87546C93.9878 3.72437 94.0986 3.58479 94.2246 3.45959C94.4292 3.25801 94.6699 3.09677 94.9342 2.9843C95.2137 2.86675 95.5138 2.8062 95.8171 2.8062C96.1203 2.8062 96.4205 2.86675 96.7 2.9843C96.9245 3.08319 97.1353 3.21077 97.3271 3.36387C97.5346 3.53537 97.7617 3.68162 98.0037 3.79954C98.1362 3.85695 98.2785 3.88833 98.4229 3.89196C98.5705 3.89474 98.718 3.87922 98.8618 3.84575C99.1477 3.75991 99.4446 3.71654 99.7431 3.71703C100.056 3.73493 100.359 3.83142 100.624 3.99758C100.906 4.17522 101.134 4.42653 101.284 4.72437C101.433 5.02221 101.499 5.35523 101.473 5.68747V5.76008H101.515C102.112 5.76766 102.705 5.86103 103.275 6.03733C103.887 6.20195 104.452 6.50709 104.925 6.92848C105.068 7.07009 105.19 7.23255 105.285 7.41036C105.382 7.59471 105.447 7.79462 105.476 8.00116C105.506 8.2036 105.496 8.40991 105.446 8.60847C105.398 8.80227 105.303 8.98127 105.169 9.12996L105.13 9.17616L105.186 9.19597C105.524 9.30593 105.836 9.48541 106.101 9.7229C106.366 9.96038 106.579 10.2506 106.725 10.5751C106.871 10.8995 106.948 11.2509 106.951 11.6068C106.954 11.9627 106.882 12.3152 106.74 12.6418C106.615 12.9388 106.427 13.2029 106.291 13.4834C106.136 13.7515 106.086 14.0684 106.153 14.3713C106.244 14.6392 106.397 14.8822 106.598 15.0809C106.773 15.2647 106.93 15.4647 107.067 15.6783C107.172 15.8662 107.233 16.0749 107.248 16.2895C107.262 16.5041 107.228 16.7192 107.15 16.9193C107.03 17.2227 106.808 17.4749 106.522 17.6322C106.346 17.7347 106.151 17.7988 105.948 17.8203C105.81 17.8401 105.734 17.8335 105.734 17.8368Z" fill="#FF6600"/>
<path d="M77.9099 6.69084C77.9111 6.67436 77.9111 6.65781 77.9099 6.64133L77.9396 6.49281C77.9693 6.35749 78.0089 6.16275 78.0584 5.92511C78.1079 5.68747 78.1838 5.37722 78.2894 5.03396C78.4044 4.6461 78.5662 4.27369 78.7713 3.92497C79.0189 3.49929 79.3569 3.13312 79.7615 2.85229C79.9866 2.70405 80.234 2.59264 80.4942 2.52223C80.7757 2.45537 81.0613 2.40686 81.3491 2.377C81.659 2.34239 81.9593 2.24825 82.2336 2.09976C82.5126 1.92304 82.7678 1.71116 82.9927 1.46935C83.2271 1.24161 83.4515 1.00067 83.709 0.789433C83.969 0.573937 84.2667 0.40833 84.5869 0.300948C85.2267 0.10093 85.901 0.0357468 86.5673 0.109515C87.1895 0.158727 87.8072 0.253599 88.4156 0.393364C89.4465 0.622483 90.4324 1.02063 91.3333 1.57167C91.9384 1.94936 92.4807 2.41932 92.9406 2.9645C93.0199 3.06022 93.0925 3.14604 93.1519 3.22525C93.2113 3.30446 93.2542 3.37047 93.2905 3.42658L93.3796 3.54871C93.3994 3.57511 93.4093 3.59161 93.4126 3.58831L93.3862 3.5454L93.307 3.41668C93.2674 3.36057 93.2245 3.29126 93.1717 3.20875C93.1189 3.12623 93.043 3.04372 92.9671 2.9447C92.5142 2.38773 91.9735 1.90835 91.3663 1.52546C90.4628 0.961996 89.4708 0.554731 88.4321 0.320751C87.8209 0.177132 87.1997 0.0800387 86.5738 0.0303022C85.8987 -0.0453315 85.2151 0.0209992 84.5671 0.225037C84.241 0.340589 83.9389 0.515119 83.676 0.739924C83.4152 0.957762 83.1875 1.1987 82.9564 1.42644C82.7357 1.6526 82.4873 1.84999 82.2171 2.01394C81.9528 2.15959 81.6623 2.25157 81.3623 2.28459C81.0715 2.31934 80.7828 2.37003 80.4975 2.43641C80.2229 2.50955 79.9629 2.62898 79.7285 2.78957C79.3227 3.07993 78.9849 3.45494 78.7383 3.88866C78.5346 4.24303 78.3749 4.62101 78.263 5.01416C78.1748 5.30941 78.1021 5.60907 78.0452 5.91191C77.9957 6.15945 77.9627 6.35419 77.9396 6.48291L77.9165 6.63473C77.9099 6.67434 77.9066 6.69084 77.9099 6.69084Z" fill="#FF6600"/>
<path d="M87.7257 18.4277L85.686 18.9294L85.4912 18.9756C85.536 19.3249 85.6235 19.6675 85.752 19.9954C85.8127 20.1358 85.9031 20.2614 86.0171 20.3634C86.1311 20.4654 86.2659 20.5414 86.4121 20.5862C86.6571 20.6309 86.91 20.5974 87.1349 20.4905C87.3096 20.3998 87.4634 20.2737 87.5867 20.1203C87.71 19.9668 87.8001 19.7895 87.8512 19.5994C87.9105 19.4057 87.93 19.2021 87.9084 19.0007C87.8869 18.7993 87.8247 18.6044 87.7257 18.4277Z" fill="#7B4B45"/>
<path d="M86.3032 20.5796C86.5651 20.6129 86.8313 20.5777 87.0755 20.4773C87.3282 20.355 87.5327 20.1517 87.6564 19.8997C87.8051 19.5922 87.8503 19.2448 87.7851 18.9095C87.7675 18.8212 87.7443 18.7342 87.7158 18.6488C87.7056 18.6126 87.69 18.5781 87.6696 18.5465C87.6696 18.53 87.6696 18.53 87.63 18.5465L87.1316 18.6752L86.2768 18.8864C86.0159 18.9674 85.747 19.0194 85.4747 19.0415C85.7204 18.9235 85.9783 18.8327 86.2438 18.7709L87.092 18.52C87.257 18.4738 87.4221 18.4276 87.6036 18.3781C87.6409 18.3716 87.6792 18.3752 87.7146 18.3885C87.7501 18.4019 87.7813 18.4245 87.8049 18.454C87.8359 18.5011 87.8603 18.5522 87.8775 18.6059C87.9083 18.7001 87.9336 18.7959 87.9535 18.893C88.0291 19.2674 87.9743 19.6564 87.7983 19.9954C87.6551 20.2704 87.4222 20.4881 87.1382 20.6126C86.9444 20.6892 86.7337 20.7131 86.5276 20.6819C86.3692 20.6324 86.2999 20.5895 86.3032 20.5796Z" fill="#FF6600"/>
<path d="M81.1345 42.0366C81.1819 41.9058 81.2415 41.7798 81.3127 41.6603L81.8474 40.6701C82.3161 39.7988 82.9333 38.6601 83.6132 37.396C84.2932 36.1319 84.8873 34.98 85.346 34.0954L85.8741 33.1052C85.934 32.9798 86.0058 32.8604 86.0887 32.7488C86.0501 32.8824 85.9981 33.0118 85.9335 33.1349C85.8279 33.3792 85.6629 33.729 85.455 34.1581C85.0424 35.0163 84.4483 36.1913 83.7651 37.4752C83.0819 38.7591 82.4448 39.9044 81.9531 40.7262C81.7121 41.1388 81.5141 41.4689 81.3722 41.6933C81.3078 41.8173 81.2279 41.9327 81.1345 42.0366Z" fill="#F7F3F0"/>
<path d="M72.6852 25.2136L57.2353 20.1637L42.693 11.579L41.6797 16.6189L53.8357 26.4117L69.7708 32.0029L72.6852 25.2136Z" fill="#A26760"/>
<path d="M34.4942 6.56543C35.2401 6.47302 39.4615 8.90553 39.4615 8.90553L40.0292 8.63159C40.2722 8.51153 40.5372 8.44262 40.8079 8.42912C41.0786 8.41563 41.3492 8.45783 41.6029 8.55313C41.8566 8.64842 42.088 8.79478 42.2829 8.98314C42.4777 9.17149 42.6319 9.39784 42.7357 9.64816C43.4123 11.2753 44.1517 13.3283 44.1517 13.3283L41.8974 16.4143L40.9072 16.7444C40.049 17.1701 38.2667 15.9324 37.0917 15.0215C35.9167 14.1105 36.6165 13.4042 36.6165 13.4042C35.9365 12.2193 37.0851 11.8826 37.0851 11.8826C36.5174 10.8133 37.5901 10.2324 37.5901 10.2324C37.5901 10.2324 34.8342 8.52597 34.0882 7.80645C33.3423 7.08692 33.7582 6.65785 34.4942 6.56543Z" fill="#A26760"/>
<g opacity="0.3">
<path opacity="0.3" d="M79.0981 52.8394C78.2307 46.7454 76.8786 40.7303 75.0549 34.8513L74.3948 36.0527L76.1375 53.044C76.1592 53.6507 76.3064 54.2464 76.5698 54.7933C76.676 55.0696 76.872 55.3023 77.1263 55.4538C77.3806 55.6053 77.6784 55.667 77.972 55.629C78.2656 55.5909 78.5378 55.4552 78.745 55.2438C78.9522 55.0324 79.0824 54.7575 79.1146 54.4633C79.2125 53.9259 79.2069 53.3747 79.0981 52.8394Z" fill="#0E0D0D"/>
</g>
</svg>
