<svg width="59" height="59" viewBox="0 0 59 59" fill="none" xmlns="http://www.w3.org/2000/svg">
<path d="M54.0833 12.4884C54.0854 10.9893 53.6424 9.52341 52.8106 8.27634C51.9787 7.02928 50.7954 6.05719 49.4106 5.48325C48.0258 4.90932 46.5018 4.75936 45.0316 5.05237C43.5615 5.34539 42.2114 6.06819 41.1525 7.12921L34.2446 14.0371L18.29 8.72712C17.8652 8.59361 17.4121 8.57798 16.9792 8.68189C16.5462 8.78581 16.1496 9.00536 15.8317 9.31712L9.98082 15.1188C9.70359 15.3992 9.4979 15.7422 9.3811 16.1189C9.26429 16.4955 9.23981 16.8947 9.30972 17.2828C9.37962 17.6709 9.54186 18.0365 9.78274 18.3487C10.0236 18.6609 10.3361 18.9106 10.6937 19.0767L23.4279 24.8538L17.0362 31.2455L12.8325 29.1313C12.3786 28.8856 11.8589 28.7891 11.3471 28.8553C10.8353 28.9214 10.3573 29.147 9.98082 29.5L5.62957 33.9496C5.1717 34.4102 4.9147 35.0333 4.9147 35.6827C4.9147 36.3322 5.1717 36.9553 5.62957 37.4159L21.5842 53.3704C22.0448 53.8283 22.6678 54.0853 23.3173 54.0853C23.9667 54.0853 24.5898 53.8283 25.0504 53.3704L29.5 49.0192C29.8689 48.6541 30.1128 48.1815 30.1968 47.6692C30.2807 47.157 30.2003 46.6313 29.9671 46.1675L27.8529 41.9638L34.2446 35.5721L40.0217 48.3063C40.1877 48.6639 40.4374 48.9764 40.7496 49.2173C41.0619 49.4582 41.4274 49.6204 41.8155 49.6903C42.2036 49.7602 42.6028 49.7357 42.9795 49.6189C43.3561 49.5021 43.6991 49.2964 43.9796 49.0192L49.7812 43.2175C50.093 42.8996 50.3126 42.503 50.4165 42.07C50.5204 41.6371 50.5047 41.184 50.3712 40.7592L45.0612 24.8046L51.8708 17.8475C52.5769 17.1458 53.1362 16.3106 53.516 15.3905C53.8959 14.4703 54.0887 13.4838 54.0833 12.4884ZM48.38 14.3813L40.415 22.3463C40.1032 22.6642 39.8837 23.0608 39.7798 23.4938C39.6758 23.9268 39.6915 24.3798 39.825 24.8046L45.135 40.7346L42.9225 42.9471L37.1454 30.2375C36.9814 29.8766 36.7326 29.5606 36.4201 29.3166C36.1076 29.0726 35.7408 28.9078 35.3508 28.8363C34.9576 28.7645 34.5529 28.7897 34.1717 28.9097C33.7904 29.0296 33.4442 29.2407 33.1629 29.5246L23.0346 39.7513C22.6709 40.1145 22.4303 40.5826 22.3465 41.0897C22.2628 41.5968 22.34 42.1175 22.5675 42.5784L24.5833 46.7084L23.2067 48.085L10.8412 35.695L12.2917 34.4167L16.4954 36.5309C16.9563 36.7583 17.4769 36.8356 17.984 36.7518C18.4911 36.668 18.9592 36.4274 19.3225 36.0638L29.5 25.8371C29.7825 25.5569 29.9927 25.2122 30.1126 24.8328C30.2325 24.4534 30.2585 24.0505 30.1884 23.6588C30.1183 23.2671 29.9541 22.8983 29.71 22.5841C29.4659 22.2698 29.1492 22.0195 28.7871 21.8546L15.9792 16.0775L18.1917 13.865L34.1217 19.175C34.5464 19.3085 34.9995 19.3242 35.4325 19.2203C35.8654 19.1164 36.2621 18.8968 36.58 18.585L44.545 10.62C44.79 10.3695 45.0825 10.1705 45.4055 10.0346C45.7284 9.89873 46.0752 9.82874 46.4256 9.82874C46.776 9.82874 47.1228 9.89873 47.4458 10.0346C47.7687 10.1705 48.0613 10.3695 48.3062 10.62C48.5627 10.8576 48.7655 11.1472 48.9011 11.4693C49.0368 11.7915 49.1022 12.1389 49.0929 12.4884C49.1062 12.8355 49.05 13.1818 48.9276 13.5068C48.8052 13.8319 48.619 14.1292 48.38 14.3813Z" fill="#FF6600"/>
</svg>
