<svg width="24" height="25" viewBox="0 0 24 25" fill="none" xmlns="http://www.w3.org/2000/svg">
<path d="M5 7.05762H19C19.6 7.05762 20 6.65762 20 6.05762C20 5.45762 19.6 5.05762 19 5.05762H5C4.4 5.05762 4 5.45762 4 6.05762C4 6.65762 4.4 7.05762 5 7.05762ZM5 13.0576H19C19.6 13.0576 20 12.6576 20 12.0576C20 11.4576 19.6 11.0576 19 11.0576H5C4.4 11.0576 4 11.4576 4 12.0576C4 12.6576 4.4 13.0576 5 13.0576ZM5 19.0576H19C19.6 19.0576 20 18.6576 20 18.0576C20 17.4576 19.6 17.0576 19 17.0576H5C4.4 17.0576 4 17.4576 4 18.0576C4 18.6576 4.4 19.0576 5 19.0576Z" fill="black"/>
</svg>
