<svg width="34" height="39" viewBox="0 0 34 39" fill="none" xmlns="http://www.w3.org/2000/svg">
<g clip-path="url(#clip0_1057_1529)">
<path d="M17.0127 15.0988C16.2298 15.0991 15.4645 15.3315 14.8137 15.7667C14.1629 16.2019 13.6557 16.8203 13.3563 17.5437C13.0569 18.2671 12.9787 19.063 13.1316 19.8309C13.2845 20.5987 13.6617 21.304 14.2154 21.8575C14.7691 22.411 15.4745 22.7879 16.2424 22.9405C17.0103 23.0931 17.8062 23.0146 18.5295 22.715C19.2528 22.4153 19.871 21.9079 20.3059 21.2569C20.7409 20.6059 20.973 19.8405 20.973 19.0576C20.9722 18.0077 20.5547 17.0009 19.8121 16.2586C19.0695 15.5164 18.0627 15.0992 17.0127 15.0988V15.0988ZM26.2685 12.0558C26.067 11.5451 25.7626 11.0812 25.3744 10.6929C24.9861 10.3047 24.5223 10.0004 24.0115 9.79883C22.4529 9.18355 18.742 9.3216 17.0127 9.3216C15.2834 9.3216 11.5762 9.17836 10.0131 9.79883C9.50238 10.0004 9.0385 10.3047 8.65025 10.6929C8.262 11.0812 7.95767 11.5451 7.75613 12.0558C7.1416 13.6144 7.27891 17.3291 7.27891 19.0569C7.27891 20.7847 7.1416 24.4949 7.7591 26.0587C7.96064 26.5694 8.26497 27.0333 8.65322 27.4215C9.04147 27.8098 9.50535 28.1141 10.0161 28.3157C11.5747 28.9309 15.2856 28.7929 17.0157 28.7929C18.7457 28.7929 22.4514 28.9361 24.0145 28.3157C24.5252 28.1141 24.9891 27.8098 25.3774 27.4215C25.7656 27.0333 26.0699 26.5694 26.2715 26.0587C26.8912 24.5001 26.7487 20.7854 26.7487 19.0576C26.7487 17.3298 26.8912 13.6204 26.2715 12.0566L26.2685 12.0558ZM17.0127 25.1436C15.809 25.1436 14.6324 24.7866 13.6315 24.1179C12.6307 23.4492 11.8507 22.4987 11.39 21.3866C10.9294 20.2745 10.8089 19.0509 11.0437 17.8703C11.2785 16.6898 11.8582 15.6053 12.7093 14.7542C13.5604 13.9031 14.6448 13.3234 15.8254 13.0886C17.0059 12.8538 18.2296 12.9743 19.3417 13.4349C20.4537 13.8956 21.4042 14.6756 22.073 15.6765C22.7417 16.6773 23.0986 17.8539 23.0986 19.0576C23.0996 19.8571 22.9429 20.6489 22.6374 21.3878C22.3319 22.1266 21.8836 22.7979 21.3183 23.3632C20.753 23.9285 20.0817 24.3768 19.3428 24.6823C18.604 24.9878 17.8122 25.1445 17.0127 25.1436V25.1436ZM23.3495 14.1369C23.0685 14.1371 22.7938 14.0539 22.5601 13.8979C22.3264 13.7419 22.1442 13.5201 22.0365 13.2605C21.9289 13.0009 21.9007 12.7153 21.9554 12.4397C22.0101 12.1641 22.1454 11.9109 22.344 11.7122C22.5426 11.5134 22.7958 11.378 23.0713 11.3232C23.3469 11.2683 23.6326 11.2964 23.8922 11.4039C24.1518 11.5114 24.3737 11.6935 24.5298 11.9271C24.686 12.1607 24.7693 12.4354 24.7693 12.7164C24.7701 12.903 24.734 13.0879 24.6632 13.2605C24.5923 13.4331 24.4881 13.5901 24.3565 13.7223C24.2248 13.8546 24.0684 13.9595 23.8961 14.0312C23.7238 14.1029 23.5391 14.1398 23.3525 14.1399L23.3495 14.1369ZM30.0752 2.43262H3.9502C3.00536 2.43262 2.09923 2.80795 1.43113 3.47605C0.763029 4.14415 0.387695 5.05028 0.387695 5.99512L0.387695 32.1201C0.387695 33.065 0.763029 33.9711 1.43113 34.6392C2.09923 35.3073 3.00536 35.6826 3.9502 35.6826H30.0752C31.02 35.6826 31.9262 35.3073 32.5943 34.6392C33.2624 33.9711 33.6377 33.065 33.6377 32.1201V5.99512C33.6377 5.05028 33.2624 4.14415 32.5943 3.47605C31.9262 2.80795 31.02 2.43262 30.0752 2.43262V2.43262ZM28.8046 23.9561C28.7088 25.8583 28.2746 27.5438 26.886 28.9287C25.4974 30.3136 23.8134 30.7567 21.9134 30.8473C19.9532 30.9579 14.0766 30.9579 12.1165 30.8473C10.2143 30.7515 8.53469 30.3166 7.14383 28.9287C5.75297 27.5408 5.31582 25.8546 5.22527 23.9561C5.11469 21.9952 5.11469 16.1178 5.22527 14.1592C5.32102 12.257 5.75 10.5714 7.14383 9.18652C8.53766 7.8016 10.2217 7.36371 12.1165 7.27316C14.0766 7.16258 19.9532 7.16258 21.9134 7.27316C23.8156 7.36891 25.5004 7.80383 26.886 9.19172C28.2717 10.5796 28.714 12.2659 28.8046 14.1681C28.9152 16.1215 28.9152 21.9937 28.8046 23.9561Z" fill="white"/>
</g>
<defs>
<clipPath id="clip0_1057_1529">
<rect width="33.25" height="38" fill="white" transform="translate(0.387695 0.0576172)"/>
</clipPath>
</defs>
</svg>
