<svg width="29" height="29" viewBox="0 0 29 29" fill="none" xmlns="http://www.w3.org/2000/svg">
<g clip-path="url(#clip0_924_583)">
<path d="M22.39 0H6.48C2.90119 0 0 2.90119 0 6.48V22.39C0 25.9688 2.90119 28.87 6.48 28.87H22.39C25.9688 28.87 28.87 25.9688 28.87 22.39V6.48C28.87 2.90119 25.9688 0 22.39 0Z" fill="url(#paint0_linear_924_583)"/>
<path d="M10 5H19C19.2 5.1 19.5 5.1 19.7 5.2C20.5776 5.34223 21.3982 5.72642 22.0695 6.30938C22.7408 6.89234 23.2362 7.65096 23.5 8.5C23.6477 8.98927 23.7481 9.49157 23.8 10V18.8C23.657 19.9153 23.2452 20.9791 22.6 21.9C22.0465 22.5413 21.3525 23.0464 20.572 23.3759C19.7916 23.7054 18.9457 23.8506 18.1 23.8H10.6C9.26155 23.865 7.94555 23.4382 6.9 22.6C6.2642 22.0507 5.76246 21.3632 5.43314 20.5902C5.10383 19.8172 4.95567 18.9791 5 18.14V11.14C4.98348 10.6379 5.01698 10.1354 5.1 9.64C5.20098 8.61479 5.62251 7.64748 6.30469 6.87554C6.98687 6.1036 7.89499 5.5663 8.9 5.34L10 5ZM6.9 14.5V18.4C6.85736 18.8966 6.9238 19.3966 7.09467 19.8649C7.26553 20.3331 7.53669 20.7584 7.88916 21.1108C8.24163 21.4633 8.66688 21.7345 9.13514 21.9053C9.60341 22.0762 10.1034 22.1426 10.6 22.1C13.2 22.2 15.8 22.2 18.4 22.1C20.7 22.1 22 20.7 22.1 18.4C22.2 15.8 22.2 13.2 22.1 10.6C22.1259 10.1073 22.0479 9.61462 21.8712 9.15398C21.6944 8.69334 21.4228 8.27501 21.0739 7.92613C20.725 7.57724 20.3067 7.3056 19.846 7.12883C19.3854 6.95205 18.8927 6.87409 18.4 6.9C15.8 6.8 13.2 6.8 10.6 6.9C10.1034 6.85736 9.60341 6.9238 9.13514 7.09467C8.66688 7.26553 8.24163 7.53669 7.88916 7.88916C7.53669 8.24163 7.26553 8.66688 7.09467 9.13515C6.9238 9.60341 6.85736 10.1034 6.9 10.6V14.5Z" fill="white"/>
<path d="M9.64 14.5401C9.64264 13.2414 10.1597 11.9966 11.0781 11.0782C11.9965 10.1599 13.2413 9.64278 14.54 9.64014C15.8315 9.66572 17.0631 10.1902 17.9765 11.1036C18.89 12.0171 19.4144 13.2486 19.44 14.5401C19.4374 15.8389 18.9203 17.0837 18.0019 18.002C17.0835 18.9204 15.8387 19.4375 14.54 19.4401C13.2485 19.4146 12.0169 18.8901 11.1035 17.9767C10.19 17.0632 9.66558 15.8317 9.64 14.5401ZM14.54 11.4401C13.9326 11.4303 13.3361 11.602 12.827 11.9333C12.3178 12.2646 11.9192 12.7404 11.6822 13.2997C11.4451 13.859 11.3805 14.4763 11.4966 15.0726C11.6127 15.6689 11.9042 16.2169 12.3337 16.6464C12.7633 17.0759 13.3113 17.3674 13.9075 17.4835C14.5038 17.5996 15.1212 17.535 15.6805 17.298C16.2398 17.061 16.7156 16.6623 17.0469 16.1532C17.3782 15.644 17.5499 15.0475 17.54 14.4401C17.54 13.6445 17.2239 12.8814 16.6613 12.3188C16.0987 11.7562 15.3356 11.4401 14.54 11.4401Z" fill="white"/>
<path d="M18.34 9.43997C18.3344 9.28088 18.3616 9.12234 18.42 8.97422C18.4783 8.82611 18.5665 8.69158 18.679 8.57901C18.7916 8.46645 18.9261 8.37826 19.0742 8.31993C19.2224 8.2616 19.3809 8.23439 19.54 8.23997C19.8513 8.26103 20.1445 8.39422 20.3651 8.61486C20.5857 8.83551 20.7189 9.12865 20.74 9.43997C20.74 9.75823 20.6136 10.0635 20.3885 10.2885C20.1635 10.5135 19.8583 10.64 19.54 10.64C19.2217 10.64 18.9165 10.5135 18.6915 10.2885C18.4664 10.0635 18.34 9.75823 18.34 9.43997Z" fill="white"/>
</g>
<defs>
<linearGradient id="paint0_linear_924_583" x1="-1.84" y1="30.47" x2="32.16" y2="-3.03" gradientUnits="userSpaceOnUse">
<stop stop-color="#FED576"/>
<stop offset="0.26" stop-color="#F47133"/>
<stop offset="0.61" stop-color="#BC3081"/>
<stop offset="1" stop-color="#4C63D2"/>
</linearGradient>
<clipPath id="clip0_924_583">
<rect width="28.87" height="28.87" fill="white"/>
</clipPath>
</defs>
</svg>
