<svg width="100" height="100" viewBox="0 0 100 100" fill="none" xmlns="http://www.w3.org/2000/svg">
<path d="M96.875 26.5625H93.75C93.7438 21.1772 91.6017 16.0142 87.7938 12.2062C83.9858 8.39826 78.8228 6.2562 73.4375 6.25V3.125C79.6514 3.13203 85.6087 5.60359 90.0025 9.99745C94.3964 14.3913 96.868 20.3486 96.875 26.5625Z" fill="#FF6600"/>
<path d="M90.625 26.5625H87.5C87.4955 22.8343 86.0124 19.2601 83.3762 16.6238C80.7399 13.9876 77.1657 12.5045 73.4375 12.5V9.375C77.9943 9.38038 82.3628 11.1929 85.585 14.415C88.8071 17.6372 90.6196 22.0057 90.625 26.5625Z" fill="#FF6600"/>
<path d="M84.375 26.5625H81.25C81.2475 24.4913 80.4236 22.5056 78.959 21.041C77.4944 19.5764 75.5087 18.7525 73.4375 18.75V15.625C76.3373 15.6283 79.1174 16.7817 81.1678 18.8322C83.2183 20.8826 84.3717 23.6627 84.375 26.5625Z" fill="#F7F3F0"/>
<path d="M73.4375 29.6875C75.1634 29.6875 76.5625 28.2884 76.5625 26.5625C76.5625 24.8366 75.1634 23.4375 73.4375 23.4375C71.7116 23.4375 70.3125 24.8366 70.3125 26.5625C70.3125 28.2884 71.7116 29.6875 73.4375 29.6875Z" fill="#FF6600"/>
<path d="M6.25 26.5625H3.125C3.13203 20.3486 5.60359 14.3913 9.99745 9.99745C14.3913 5.60359 20.3486 3.13203 26.5625 3.125V6.25C21.1772 6.2562 16.0142 8.39826 12.2062 12.2062C8.39826 16.0142 6.2562 21.1772 6.25 26.5625Z" fill="#FF6600"/>
<path d="M12.5 26.5625H9.375C9.38038 22.0057 11.1929 17.6372 14.415 14.415C17.6372 11.1929 22.0057 9.38038 26.5625 9.375V12.5C22.8343 12.5045 19.2601 13.9876 16.6238 16.6238C13.9876 19.2601 12.5045 22.8343 12.5 26.5625Z" fill="#FF6600"/>
<path d="M18.75 26.5625H15.625C15.6283 23.6627 16.7817 20.8826 18.8322 18.8322C20.8826 16.7817 23.6627 15.6283 26.5625 15.625V18.75C24.4913 18.7525 22.5056 19.5764 21.041 21.041C19.5764 22.5056 18.7525 24.4913 18.75 26.5625Z" fill="#F7F3F0"/>
<path d="M26.5625 29.6875C28.2884 29.6875 29.6875 28.2884 29.6875 26.5625C29.6875 24.8366 28.2884 23.4375 26.5625 23.4375C24.8366 23.4375 23.4375 24.8366 23.4375 26.5625C23.4375 28.2884 24.8366 29.6875 26.5625 29.6875Z" fill="#FF6600"/>
<path d="M82.8124 62.5C82.8167 70.0818 80.1967 77.4314 75.3974 83.3008C70.5981 89.1703 63.9153 93.1978 56.4837 94.6994C49.0522 96.2011 41.3299 95.0843 34.6282 91.5388C27.9265 87.9933 22.6584 82.2376 19.7185 75.249C16.7787 68.2604 16.3482 60.4697 18.5002 53.1998C20.6522 45.9298 25.2541 39.6287 31.5243 35.3664C37.7946 31.1042 45.3469 29.1434 52.8987 29.8172C60.4504 30.4909 67.5363 33.7576 72.953 39.0625C76.0791 42.1122 78.5622 45.7575 80.2557 49.7831C81.9491 53.8086 82.8185 58.1328 82.8124 62.5Z" fill="#FF6600"/>
<path d="M73.7344 85.1563C70.6705 88.3659 66.9874 90.9207 62.9079 92.6662C58.8284 94.4118 54.4373 95.3118 50 95.3118C45.5628 95.3118 41.1716 94.4118 37.0921 92.6662C33.0126 90.9207 29.3295 88.3659 26.2656 85.1563C29.3275 81.9431 33.0098 79.385 37.0896 77.6372C41.1694 75.8894 45.5616 74.9881 50 74.9881C54.4384 74.9881 58.8306 75.8894 62.9104 77.6372C66.9902 79.385 70.6725 81.9431 73.7344 85.1563ZM72.9531 39.0625C69.2191 42.7332 64.6593 45.4551 59.6562 47C53.3614 48.9166 46.6386 48.9166 40.3438 47C35.3407 45.4551 30.7809 42.7332 27.0469 39.0625C33.1758 33.0535 41.4168 29.6875 50 29.6875C58.5832 29.6875 66.8242 33.0535 72.9531 39.0625Z" fill="#FF6600"/>
<path d="M50 95.3125C56.0406 95.3125 60.9375 80.6218 60.9375 62.5C60.9375 44.3782 56.0406 29.6875 50 29.6875C43.9594 29.6875 39.0625 44.3782 39.0625 62.5C39.0625 80.6218 43.9594 95.3125 50 95.3125Z" fill="#FF6600"/>
<path d="M84.3749 62.5C84.3708 53.3845 80.7478 44.6434 74.3021 38.1978C67.8565 31.7521 59.1155 28.1291 49.9999 28.125C48.8687 28.125 47.7458 28.1771 46.6312 28.2813C40.1168 28.9113 33.9223 31.4069 28.7905 35.4688C27.8005 36.2428 26.8527 37.0695 25.9515 37.9453C21.0741 42.7237 17.7302 48.8465 16.3463 55.5328C14.9624 62.2192 15.6011 69.1662 18.181 75.4881C20.7609 81.8101 25.1651 87.2204 30.832 91.0294C36.4989 94.8384 43.1718 96.8734 49.9999 96.875C54.6507 96.8905 59.2556 95.9547 63.5315 94.1251C67.8074 92.2955 71.6639 89.6108 74.864 86.2359C80.9824 79.8503 84.391 71.3438 84.3749 62.5ZM70.8468 85.7422C70.4968 86.0547 70.1421 86.3672 69.7796 86.6672C69.3452 87.025 68.8984 87.3641 68.4484 87.6969C68.0749 87.9719 67.7015 88.2453 67.3171 88.5016C66.8484 88.8141 66.3687 89.1063 65.8859 89.3938C65.4952 89.625 65.1046 89.8625 64.7093 90.0734C64.2062 90.3422 63.6905 90.5844 63.1734 90.825C62.7734 91.0109 62.3765 91.2062 61.9671 91.375C61.428 91.5984 60.8734 91.7891 60.3218 91.9828C59.9187 92.1234 59.5202 92.2766 59.1109 92.4C58.5234 92.5781 57.9218 92.7125 57.3234 92.8609C56.9327 92.9531 56.5421 93.0641 56.153 93.1422C56.0624 93.1609 55.9687 93.1672 55.878 93.1844C58.2405 89.8813 59.9952 84.6328 61.1015 78.5906C64.9621 80.0645 68.4937 82.2861 71.4937 85.1281C71.2796 85.3344 71.0671 85.5438 70.8468 85.7422ZM42.6718 92.8594C42.0749 92.7172 41.4765 92.5781 40.8905 92.4C40.4796 92.2766 40.078 92.1219 39.6734 91.9813C39.1234 91.7891 38.5796 91.5984 38.0327 91.375C37.6234 91.2062 37.2249 91.0109 36.8234 90.8234C36.3077 90.5828 35.7937 90.3422 35.2905 90.0734C34.8921 89.8594 34.5093 89.625 34.1155 89.3938C33.6312 89.1078 33.1499 88.8156 32.6812 88.5016C32.2984 88.2453 31.9265 87.9719 31.553 87.6984C31.1015 87.3656 30.6546 87.025 30.2187 86.6656C29.8577 86.3687 29.5046 86.0594 29.1546 85.7437C28.9343 85.5453 28.7218 85.3344 28.5062 85.1297C31.5077 82.2862 35.0422 80.0649 38.9062 78.5938C40.0124 84.6359 41.7671 89.8828 44.1296 93.1875C44.039 93.1703 43.9452 93.1641 43.8546 93.1453C43.4515 93.0641 43.064 92.9531 42.6718 92.8594ZM18.8249 64.0625H37.5124C37.5714 67.879 37.8652 71.6883 38.3921 75.4688C33.9099 77.0809 29.8106 79.6048 26.353 82.8812C21.8075 77.6281 19.1566 71.0013 18.8249 64.0625ZM27.1312 41.2672C30.4794 44.2581 34.3802 46.5655 38.614 48.0594C37.9455 52.321 37.5774 56.6243 37.5124 60.9375H18.8265C19.1657 53.6014 22.1103 46.6268 27.1312 41.2672ZM29.9437 38.5781C30.278 38.2953 30.6187 38.0219 30.9624 37.7547C31.3947 37.4203 31.8348 37.099 32.2827 36.7906C32.6405 36.5422 32.9999 36.2984 33.3671 36.0672C33.8249 35.7766 34.2937 35.5047 34.7655 35.2391C35.1421 35.0281 35.5171 34.8172 35.9015 34.6219C36.3874 34.375 36.8843 34.1531 37.3827 33.9312C37.7702 33.7594 38.164 33.5828 38.5499 33.4281C39.0671 33.2234 39.5968 33.0484 40.1249 32.8719C40.5155 32.7422 40.9062 32.6016 41.2999 32.4875C41.8593 32.3312 42.4296 32.1984 42.9999 32.0688C43.378 31.9813 43.7515 31.8797 44.1343 31.8078C41.6398 35.8076 39.9612 40.2613 39.1952 44.9125C35.5927 43.5879 32.264 41.613 29.3749 39.0859C29.5577 38.9172 29.7437 38.7406 29.9374 38.5781H29.9437ZM58.714 32.4844C59.1077 32.5984 59.4952 32.7375 59.8812 32.8672C60.4124 33.0437 60.9437 33.2203 61.464 33.425C61.8562 33.5813 62.2452 33.7562 62.6265 33.9266C63.1265 34.1484 63.6249 34.3734 64.114 34.6203C64.4952 34.8141 64.8702 35.025 65.2437 35.2344C65.7124 35.5016 66.1812 35.7734 66.6499 36.0656C67.0155 36.2969 67.3749 36.5344 67.7312 36.7875C68.178 37.1 68.6181 37.4214 69.0515 37.7516C69.3968 38.0187 69.739 38.2953 70.0749 38.5781C70.2671 38.7344 70.4515 38.9156 70.6405 39.0828C67.751 41.61 64.4218 43.585 60.8187 44.9094C60.0527 40.2582 58.3741 35.8044 55.8796 31.8047C56.2593 31.8766 56.6327 31.9781 57.0093 32.0641C57.5734 32.1984 58.1452 32.3266 58.7077 32.4875L58.714 32.4844ZM81.1734 60.9375H62.4874C62.4249 56.6245 62.0594 52.3212 61.3937 48.0594C65.6274 46.5644 69.5285 44.2572 72.878 41.2672C77.8955 46.6281 80.8367 53.6026 81.1734 60.9375ZM58.5796 74.5406C52.9496 73.107 47.0502 73.107 41.4202 74.5406C40.9564 71.0663 40.6997 67.5674 40.6515 64.0625H59.3484C59.3002 67.5674 59.0435 71.0663 58.5796 74.5406ZM40.6515 60.9375C40.706 56.9272 41.038 52.9254 41.6452 48.9609C47.1289 50.3464 52.871 50.3464 58.3546 48.9609C58.9618 52.9254 59.2939 56.9272 59.3484 60.9375H40.6515ZM57.8015 45.8766C52.6812 47.1727 47.3186 47.1727 42.1984 45.8766C44.0124 36.9578 47.1124 31.25 49.9999 31.25C52.8874 31.25 55.9874 36.9578 57.8015 45.8766ZM41.903 77.6438C47.2097 76.2398 52.7902 76.2398 58.0968 77.6438C56.339 87.4203 53.0452 93.75 49.9999 93.75C46.9546 93.75 43.6609 87.4203 41.903 77.6438ZM61.6077 75.4562C62.1346 71.6758 62.4284 67.8665 62.4874 64.05H81.1749C80.8426 70.9876 78.1911 77.6128 73.6452 82.8641C70.1866 79.594 66.0879 77.076 61.6077 75.4688V75.4562Z" fill="#F7F3F0"/>
</svg>
