<svg width="30" height="29" viewBox="0 0 30 29" fill="none" xmlns="http://www.w3.org/2000/svg">
<g clip-path="url(#clip0_924_595)">
<path d="M23.13 0H7.22001C3.6412 0 0.740005 2.90119 0.740005 6.48V22.39C0.740005 25.9688 3.6412 28.87 7.22001 28.87H23.13C26.7088 28.87 29.61 25.9688 29.61 22.39V6.48C29.61 2.90119 26.7088 0 23.13 0Z" fill="#0B86CA"/>
<path d="M8.74001 11.9999H11.74V21.6799H8.74001V11.9999ZM10.27 7.18994C10.6137 7.18995 10.9497 7.29175 11.2357 7.4825C11.5216 7.67326 11.7446 7.94442 11.8766 8.26178C12.0086 8.57914 12.0436 8.92849 11.9773 9.26574C11.9109 9.60299 11.7462 9.91304 11.5039 10.1568C11.2615 10.4005 10.9524 10.567 10.6156 10.6353C10.2787 10.7035 9.92916 10.6705 9.61104 10.5403C9.29293 10.4102 9.02049 10.1887 8.8281 9.90389C8.63571 9.61907 8.53199 9.28365 8.53001 8.93994C8.52869 8.7106 8.57273 8.48326 8.65958 8.271C8.74643 8.05874 8.87439 7.86574 9.0361 7.70311C9.1978 7.54047 9.39006 7.41141 9.60182 7.32334C9.81359 7.23527 10.0407 7.18994 10.27 7.18994ZM13.66 11.9999H16.55V13.3199C16.8393 12.8262 17.2572 12.4204 17.7592 12.1456C18.2611 11.8709 18.8282 11.7376 19.4 11.7599C22.4 11.7599 23.01 13.7599 23.01 16.3699V21.6799H20.01V16.9999C20.01 15.8799 20.01 14.4299 18.45 14.4299C16.89 14.4299 16.65 15.6499 16.65 16.9099V21.6999H13.65L13.66 11.9999Z" fill="white"/>
</g>
<defs>
<clipPath id="clip0_924_595">
<rect width="28.87" height="28.87" fill="white" transform="translate(0.740005)"/>
</clipPath>
</defs>
</svg>
