<svg width="221" height="66" viewBox="0 0 221 66" fill="none" xmlns="http://www.w3.org/2000/svg">
<path d="M212.486 65.3298H8.67184C4.18794 65.3298 0.519287 61.6611 0.519287 57.1772V8.26188C0.519287 3.77797 4.18794 0.109318 8.67184 0.109318H212.486C216.97 0.109318 220.638 3.77797 220.638 8.26188V57.1772C220.638 61.6611 216.97 65.3298 212.486 65.3298Z" fill="#0E0D0D"/>
<path d="M212.486 0.109318H8.67184C4.18794 0.109318 0.519287 3.77797 0.519287 8.26188V57.1772C0.519287 61.6611 4.18794 65.3298 8.67184 65.3298H212.486C216.97 65.3298 220.638 61.6611 220.638 57.1772V8.26188C220.638 3.77797 216.97 0.109318 212.486 0.109318ZM212.486 1.41373C216.262 1.41373 219.334 4.48626 219.334 8.26188V57.1772C219.334 60.9535 216.262 64.026 212.486 64.026H8.67184C4.89623 64.026 1.8237 60.9535 1.8237 57.1772V8.26188C1.8237 4.48626 4.89623 1.41373 8.67184 1.41373H212.486Z" fill="#A6A6A6"/>
<path d="M77.8356 16.8113C77.8356 18.1773 77.4311 19.2652 76.6209 20.0767C75.7006 21.0417 74.5012 21.5244 73.0267 21.5244C71.6147 21.5244 70.4142 21.0353 69.4269 20.0557C68.4378 19.0767 67.9443 17.8628 67.9443 16.4144C67.9443 14.9654 68.4378 13.7521 69.4269 12.7725C70.4142 11.7936 71.6147 11.3038 73.0267 11.3038C73.7274 11.3038 74.3982 11.4407 75.035 11.714C75.6719 11.9879 76.1827 12.3515 76.5649 12.8069L75.705 13.6673C75.0574 12.8935 74.1656 12.5069 73.0267 12.5069C71.9969 12.5069 71.1065 12.8687 70.355 13.5928C69.6033 14.3178 69.2276 15.2577 69.2276 16.4144C69.2276 17.5711 69.6033 18.5111 70.355 19.236C71.1065 19.9601 71.9969 20.3219 73.0267 20.3219C74.1192 20.3219 75.03 19.9582 75.7591 19.2297C76.2325 18.755 76.5062 18.0953 76.5794 17.2481H73.0267V16.073H77.7674C77.8133 16.3285 77.8356 16.5737 77.8356 16.8113Z" fill="white"/>
<path d="M77.8355 16.8113H77.6724C77.6711 18.1462 77.2812 19.183 76.5054 19.9614L76.5037 19.9627L76.503 19.964C75.6119 20.8957 74.4667 21.3594 73.0266 21.3614C71.6522 21.3594 70.5019 20.8907 69.5414 19.9404C68.583 18.9882 68.109 17.8258 68.1072 16.4144C68.109 15.0024 68.583 13.8407 69.5414 12.8891C70.5019 11.9382 71.6522 11.4688 73.0266 11.4668C73.7062 11.4668 74.3533 11.5994 74.9705 11.8637C75.5883 12.1299 76.0763 12.4789 76.4399 12.9121L76.5648 12.8069L76.4495 12.6916L75.5896 13.5527L75.7049 13.6673L75.8304 13.563C75.1526 12.7508 74.2012 12.3414 73.0266 12.3438C71.9586 12.3425 71.0191 12.7241 70.242 13.4757C69.4574 14.2299 69.0632 15.2227 69.0645 16.4144C69.0632 17.6062 69.4574 18.599 70.242 19.3531C71.0191 20.1048 71.9586 20.4863 73.0266 20.485C74.1552 20.487 75.1171 20.1041 75.8743 19.3449C76.3801 18.8379 76.6667 18.1354 76.7419 17.2621L76.757 17.0851H73.1896V16.236H77.7673V16.073L77.6067 16.1017C77.6514 16.3489 77.6724 16.5838 77.6724 16.8113H77.8355H77.9985C77.9985 16.5634 77.9755 16.3088 77.9277 16.0438L77.9036 15.9099H72.8635V17.2481V17.4112H76.5793V17.2481L76.4169 17.2341C76.345 18.0546 76.0838 18.6724 75.6437 19.1144C74.9431 19.8124 74.0833 20.1569 73.0266 20.1589C72.0349 20.1576 71.1936 19.8162 70.4682 19.1188C69.7498 18.4239 69.3924 17.5367 69.3906 16.4144C69.3924 15.2921 69.7498 14.405 70.4682 13.7101C71.1936 13.0127 72.0349 12.6713 73.0266 12.67C74.1291 12.6726 74.9617 13.0368 75.5801 13.7725L75.6948 13.9088L76.6801 12.9222L76.7857 12.8165L76.6895 12.7024C76.2889 12.2248 75.7553 11.8457 75.0991 11.5643C74.4419 11.2821 73.7483 11.1407 73.0266 11.1407C71.5771 11.1394 70.3261 11.6489 69.3115 12.6572C68.2931 13.6636 67.7798 14.9285 67.7811 16.4144C67.7798 17.8997 68.2931 19.1653 69.3121 20.1723C70.3261 21.1799 71.5771 21.6888 73.0266 21.6875C74.5361 21.6888 75.7883 21.1874 76.7386 20.1894L76.6207 20.0767L76.736 20.192C77.5806 19.348 77.9997 18.208 77.9985 16.8113H77.8355Z" fill="white"/>
<path d="M85.3511 12.7247H80.8959V15.8266H84.9136V17.0022H80.8959V20.1041H85.3511V21.3059H79.6399V11.5229H85.3511V12.7247Z" fill="white"/>
<path d="M85.3511 12.7247V12.5617H80.7329V15.9897H84.7506V16.8387L80.7329 16.8392V20.2671H85.1881V21.1429H79.803V11.6859H85.1881V12.7247H85.3511V12.5617V12.7247H85.5142V11.5229V11.3598H79.4769V21.469H85.5142V20.1041V19.941H81.059V17.1653H85.0767V15.8266V15.6636H81.059V12.8878H85.5142V12.7247H85.3511Z" fill="white"/>
<path d="M90.6521 21.3059H89.3941V12.7247H86.6617V11.5229H93.3845V12.7247H90.6521V21.3059Z" fill="white"/>
<path d="M90.6521 21.3059V21.1429H89.5572V12.5617H86.8248V11.6859H93.2215V12.5617H90.4891V21.3059H90.6521V21.1429V21.3059H90.8152V12.8878H93.5476V11.5229V11.3598H86.4987V12.7247V12.8878H89.2311V21.469H90.6521H90.8152V21.3059H90.6521Z" fill="white"/>
<path d="M98.2487 21.3059V11.5229H99.5053V21.3059H98.2487Z" fill="white"/>
<path d="M98.2487 21.3059H98.4117V11.6859H99.3423V21.1429H98.2487V21.3059H98.4117H98.2487V21.469H99.5053H99.6684V11.3598H98.2487H98.0856V21.469H98.2487V21.3059Z" fill="white"/>
<path d="M105.081 21.3059H103.824V12.7247H101.091V11.5229H107.814V12.7247H105.081V21.3059Z" fill="white"/>
<path d="M105.082 21.3059V21.1429H103.987V12.5617H101.254V11.6859H107.651V12.5617H104.918V21.3059H105.082V21.1429V21.3059H105.245V12.8878H107.977V11.5229V11.3598H100.928V12.7247V12.8878H103.661V21.469H105.082H105.245V21.3059H105.082Z" fill="white"/>
<path d="M114.295 19.2227C115.019 19.9557 115.905 20.3219 116.953 20.3219C118.001 20.3219 118.887 19.9557 119.61 19.2227C120.335 18.4896 120.698 17.5525 120.698 16.4144C120.698 15.2763 120.335 14.3393 119.61 13.6062C118.887 12.8731 118.001 12.5069 116.953 12.5069C115.905 12.5069 115.019 12.8731 114.295 13.6062C113.572 14.3393 113.209 15.2763 113.209 16.4144C113.209 17.5525 113.572 18.4896 114.295 19.2227ZM120.54 20.0417C119.578 21.0307 118.382 21.5244 116.953 21.5244C115.522 21.5244 114.327 21.0307 113.367 20.0417C112.405 19.0537 111.926 17.8444 111.926 16.4144C111.926 14.9845 112.405 13.775 113.367 12.7872C114.327 11.798 115.522 11.3038 116.953 11.3038C118.375 11.3038 119.568 11.8006 120.534 12.7935C121.499 13.7865 121.982 14.9934 121.982 16.4144C121.982 17.8444 121.5 19.0537 120.54 20.0417Z" fill="white"/>
<path d="M114.295 19.2227L114.179 19.3373C114.93 20.0997 115.867 20.487 116.953 20.485C118.038 20.487 118.977 20.0997 119.726 19.3373C120.482 18.5742 120.862 17.5869 120.861 16.4144C120.862 15.2419 120.482 14.2547 119.726 13.4916C118.977 12.7291 118.038 12.3419 116.953 12.3439C115.867 12.3419 114.93 12.7291 114.179 13.4916C113.425 14.2547 113.044 15.2419 113.046 16.4144C113.044 17.5869 113.425 18.5742 114.179 19.3373L114.295 19.2227L114.411 19.108C113.719 18.4041 113.374 17.5188 113.372 16.4144C113.374 15.3101 113.719 14.4247 114.411 13.7208C115.109 13.0171 115.943 12.6719 116.953 12.67C117.963 12.6719 118.798 13.0171 119.494 13.7208C120.187 14.4247 120.533 15.3101 120.535 16.4144C120.533 17.5188 120.187 18.4041 119.494 19.108C118.798 19.8118 117.963 20.1569 116.953 20.1589C115.943 20.1569 115.109 19.8118 114.411 19.108L114.295 19.2227ZM120.54 20.0417L120.424 19.9283C119.489 20.8863 118.345 21.3594 116.953 21.3614C115.56 21.3594 114.417 20.8863 113.484 19.9283L113.479 19.9233L113.484 19.9283C112.551 18.9672 112.09 17.808 112.089 16.4144C112.09 15.0208 112.551 13.8617 113.484 12.9005C114.417 11.9426 115.56 11.4688 116.953 11.4668C118.336 11.4688 119.477 11.9445 120.417 12.9075C121.354 13.8731 121.817 15.0304 121.819 16.4144C121.817 17.808 121.355 18.9672 120.424 19.9283L120.54 20.0417L120.657 20.155C121.646 19.1398 122.146 17.8806 122.145 16.4144C122.146 14.9566 121.644 13.6999 120.651 12.6802C119.657 11.6566 118.413 11.1389 116.953 11.1407C115.486 11.1389 114.237 11.6541 113.25 12.6739V12.6732C112.26 13.689 111.762 14.9483 111.763 16.4144C111.762 17.8806 112.26 19.1398 113.25 20.1556L113.254 20.1602L113.25 20.155C114.237 21.1747 115.486 21.6888 116.953 21.6875C118.42 21.6888 119.668 21.1747 120.657 20.155L120.54 20.0417Z" fill="white"/>
<path d="M123.746 21.3059V11.5229H125.276L130.03 19.1334H130.085L130.03 17.2481V11.5229H131.288V21.3059H129.976L125.002 13.3265H124.948L125.002 15.2126V21.3059H123.746Z" fill="white"/>
<path d="M123.746 21.3059H123.909V11.6859H125.185L129.94 19.2965H130.084H130.252L130.193 17.2456V11.6859H131.125V21.1429H130.067L125.092 13.1635H124.948H124.78L124.839 15.2152V21.1429H123.746V21.3059H123.909H123.746V21.469H125.002H125.165V15.21L125.111 13.3221L124.948 13.3265V13.4896H125.002V13.3265L124.863 13.4133L129.886 21.469H131.288H131.451V11.3598H130.03H129.867V17.25L129.921 19.1379L130.084 19.1334V18.9704H130.03V19.1334L130.168 19.0469L125.366 11.3598H123.746H123.583V21.469H123.746V21.3059Z" fill="white"/>
<path d="M174.88 49.0246H177.922V28.6413H174.88V49.0246ZM202.284 35.9838L198.796 44.821H198.692L195.072 35.9838H191.794L197.222 48.3354L194.128 55.2059H197.302L205.667 35.9838H202.284ZM185.029 46.7095C184.032 46.7095 182.642 46.2114 182.642 44.9784C182.642 43.4051 184.374 42.802 185.868 42.802C187.206 42.802 187.834 43.0904 188.648 43.4842C188.411 45.372 186.786 46.7095 185.029 46.7095ZM185.396 35.5379C183.194 35.5379 180.912 36.5085 179.968 38.6588L182.669 39.7862C183.246 38.6588 184.32 38.2913 185.449 38.2913C187.022 38.2913 188.622 39.2359 188.648 40.9141V41.1237C188.096 40.809 186.918 40.3371 185.475 40.3371C182.564 40.3371 179.6 41.9363 179.6 44.926C179.6 47.6534 181.987 49.4106 184.661 49.4106C186.707 49.4106 187.834 48.4928 188.543 47.4178H188.648V48.9909H191.584V41.1758C191.584 37.5576 188.884 35.5379 185.396 35.5379ZM166.593 38.4651H162.266V31.4782H166.593C168.868 31.4782 170.159 33.3615 170.159 34.9716C170.159 36.5512 168.868 38.4651 166.593 38.4651ZM166.515 28.6413H159.225V49.0246H162.266V41.302H166.515C169.887 41.302 173.202 38.8607 173.202 34.9716C173.202 31.0827 169.887 28.6413 166.515 28.6413ZM126.762 46.7132C124.66 46.7132 122.9 44.9534 122.9 42.5363C122.9 40.0938 124.66 38.3073 126.762 38.3073C128.837 38.3073 130.465 40.0938 130.465 42.5363C130.465 44.9534 128.837 46.7132 126.762 46.7132ZM130.255 37.1252H130.15C129.467 36.3111 128.153 35.5755 126.499 35.5755C123.031 35.5755 119.853 38.6225 119.853 42.5363C119.853 46.4241 123.031 49.445 126.499 49.445C128.153 49.445 129.467 48.7093 130.15 47.8693H130.255V48.8673C130.255 51.5208 128.837 52.9392 126.551 52.9392C124.686 52.9392 123.531 51.5991 123.057 50.4698L120.405 51.573C121.166 53.4117 123.189 55.6709 126.551 55.6709C130.124 55.6709 133.145 53.569 133.145 48.4469V35.9959H130.255V37.1252ZM135.246 49.0246H138.293V28.6406H135.246V49.0246ZM142.785 42.3001C142.706 39.6205 144.86 38.2549 146.41 38.2549C147.619 38.2549 148.643 38.8587 148.984 39.7263L142.785 42.3001ZM152.242 39.9887C151.664 38.4384 149.903 35.5755 146.305 35.5755C142.732 35.5755 139.764 38.3862 139.764 42.5103C139.764 46.398 142.706 49.445 146.646 49.445C149.825 49.445 151.664 47.5011 152.426 46.3718L150.062 44.7954C149.274 45.9515 148.196 46.7132 146.646 46.7132C145.096 46.7132 143.993 46.0038 143.284 44.612L152.556 40.7765L152.242 39.9887ZM78.366 37.7033V40.6453H85.4057C85.1956 42.3001 84.644 43.5083 83.8033 44.349C82.7791 45.3738 81.1767 46.5031 78.366 46.5031C74.0316 46.5031 70.6433 43.0095 70.6433 38.6753C70.6433 34.3411 74.0316 30.847 78.366 30.847C80.704 30.847 82.411 31.7667 83.672 32.9488L85.7472 30.8738C83.9874 29.1922 81.6492 27.9051 78.366 27.9051C72.4292 27.9051 67.4383 32.7386 67.4383 38.6753C67.4383 44.612 72.4292 49.445 78.366 49.445C81.5709 49.445 83.9874 48.3948 85.8784 46.4241C87.8223 44.4802 88.4268 41.7485 88.4268 39.5422C88.4268 38.8587 88.3744 38.2289 88.2688 37.7033H78.366ZM96.4303 46.7132C94.3284 46.7132 92.5157 44.9795 92.5157 42.5103C92.5157 40.0148 94.3284 38.3073 96.4303 38.3073C98.5314 38.3073 100.344 40.0148 100.344 42.5103C100.344 44.9795 98.5314 46.7132 96.4303 46.7132ZM96.4303 35.5755C92.5947 35.5755 89.4687 38.4912 89.4687 42.5103C89.4687 46.5031 92.5947 49.445 96.4303 49.445C100.265 49.445 103.391 46.5031 103.391 42.5103C103.391 38.4912 100.265 35.5755 96.4303 35.5755ZM111.616 46.7132C109.514 46.7132 107.702 44.9795 107.702 42.5103C107.702 40.0148 109.514 38.3073 111.616 38.3073C113.717 38.3073 115.529 40.0148 115.529 42.5103C115.529 44.9795 113.717 46.7132 111.616 46.7132ZM111.616 35.5755C107.78 35.5755 104.655 38.4912 104.655 42.5103C104.655 46.5031 107.78 49.445 111.616 49.445C115.451 49.445 118.577 46.5031 118.577 42.5103C118.577 38.4912 115.451 35.5755 111.616 35.5755Z" fill="white"/>
<path d="M17.6557 52.9207L17.5345 52.8048C17.06 52.3028 16.7799 51.5232 16.7799 50.5138V50.7513V14.691C16.7799 14.6877 16.7799 14.6853 16.7799 14.6826C16.7799 14.6857 16.7799 14.6884 16.7799 14.6916V14.9298C16.7799 13.8367 17.1065 13.0133 17.6537 12.5196L37.8554 32.7208L17.6557 52.9207ZM16.7799 14.6807C16.7799 14.5908 16.7824 14.5036 16.7869 14.4177C16.7824 14.503 16.7799 14.5908 16.7799 14.6807ZM16.7869 14.4138C16.7869 14.4126 16.7869 14.4113 16.7874 14.41C16.7869 14.4113 16.7869 14.4126 16.7869 14.4138ZM16.7874 14.4024C16.7874 14.4017 16.7874 14.4011 16.7874 14.4004C16.7874 14.4011 16.7874 14.4017 16.7874 14.4024Z" fill="url(#paint0_linear_11_86)"/>
<path d="M44.5883 39.6957L44.7419 39.6084L52.7199 35.0755C53.4805 34.6431 53.9874 34.1188 54.2403 33.5641C53.9881 34.1188 53.481 34.6437 52.7199 35.0761L44.7419 39.6091L44.5883 39.6957ZM44.5903 39.4568L37.8555 32.7208L44.5896 25.986L52.7199 30.6049C53.7523 31.1916 54.3319 31.9477 54.4288 32.7202C54.4288 32.7208 54.4288 32.7221 54.4288 32.7233C54.3319 33.494 53.7523 34.2507 52.7199 34.8372L44.5903 39.4568Z" fill="url(#paint1_linear_11_86)"/>
<path d="M19.0955 53.69C18.5312 53.69 18.0388 53.5066 17.6548 53.1601L17.6555 53.1595C18.0394 53.5059 18.5325 53.69 19.0968 53.69C19.1457 53.69 19.1955 53.6887 19.2459 53.6863C19.1948 53.6887 19.1444 53.69 19.0955 53.69ZM19.0962 53.4512C18.5319 53.4518 18.0394 53.2677 17.6555 52.9212V52.9208L37.8552 32.7208L44.59 39.4568L20.9228 52.9041C20.268 53.2754 19.6476 53.4512 19.0962 53.4512ZM17.6498 53.1557C17.614 53.1233 17.579 53.0889 17.5446 53.0532L17.6498 53.1557Z" fill="url(#paint2_linear_11_86)"/>
<path d="M37.8552 32.7208L17.6535 12.5196C18.0375 12.1738 18.5293 11.9903 19.0929 11.9903C19.6458 11.9903 20.2667 12.1668 20.9228 12.5387L44.5894 25.986L37.8552 32.7208ZM44.7417 25.8339L20.9228 12.3006C20.2667 11.9285 19.6458 11.7521 19.0929 11.7521C19.0903 11.7521 19.0885 11.7521 19.0859 11.7521C19.0892 11.7521 19.0916 11.7521 19.0955 11.7521C19.6471 11.7521 20.2674 11.9279 20.9228 12.3L44.7417 25.8339Z" fill="url(#paint3_linear_11_86)"/>
<path d="M19.2461 53.6863C19.7587 53.6569 20.3263 53.4805 20.9231 53.1423L44.5883 39.6957L20.9231 53.1423C20.3268 53.4812 19.7587 53.6569 19.2461 53.6863ZM17.655 53.1601L17.65 53.1557C17.6518 53.157 17.6537 53.1588 17.655 53.1601ZM17.5448 53.0532L17.5345 53.043V53.0424C17.5385 53.0461 17.5416 53.0499 17.5448 53.0532Z" fill="#0E0D0D"/>
<path d="M44.5884 39.6957L44.742 39.6084L44.5884 39.6957Z" fill="url(#paint4_linear_11_86)"/>
<path d="M19.0972 53.69C18.5329 53.69 18.0398 53.5059 17.6558 53.1595L17.6552 53.1601C17.6539 53.1588 17.6519 53.157 17.6501 53.1557L17.545 53.0532C17.5417 53.0499 17.5386 53.0461 17.5347 53.0424L17.6558 52.9212C18.0398 53.2677 18.5322 53.4518 19.0966 53.4512C19.648 53.4512 20.2684 53.2754 20.9232 52.9041L44.5904 39.4568L44.7421 39.6084L44.5885 39.6957L20.9232 53.1423C20.3265 53.4805 19.7589 53.6569 19.2462 53.6863C19.1959 53.6887 19.1461 53.69 19.0972 53.69Z" fill="url(#paint5_linear_11_86)"/>
<path d="M17.5344 53.043C17.0599 52.541 16.7798 51.7614 16.7798 50.752V50.7513C16.7798 51.7614 17.0599 52.5403 17.5344 53.0424V53.043Z" fill="#0E0D0D"/>
<path d="M17.5345 53.0424C17.06 52.5404 16.7799 51.7615 16.7799 50.7514V50.5138C16.7799 51.5233 17.06 52.3028 17.5345 52.8049L17.6557 52.9208L17.5345 53.0424Z" fill="url(#paint6_linear_11_86)"/>
<path d="M17.5347 53.0424L17.6558 52.9208V52.9213L17.5347 53.0424Z" fill="url(#paint7_linear_11_86)"/>
<path d="M54.2402 33.5641C54.3656 33.2889 54.4287 33.0062 54.4287 32.7233C54.4287 32.7228 54.4287 32.7221 54.4287 32.7221C54.4287 33.0055 54.3656 33.2883 54.2402 33.5641Z" fill="#0E0D0D"/>
<path d="M44.7418 39.6085L44.5902 39.4568L52.7198 34.8373C53.7522 34.2508 54.3319 33.494 54.4287 32.7233C54.4287 33.0062 54.3656 33.2889 54.2402 33.5642C53.9873 34.1189 53.4804 34.6431 52.7198 35.0755L44.7418 39.6085Z" fill="url(#paint8_linear_11_86)"/>
<path d="M54.4286 32.7208V32.7202C54.428 31.8673 53.858 31.0145 52.7197 30.3673L44.7418 25.8344H44.7411L44.7418 25.8339L52.7197 30.3667C53.8593 31.0138 54.4299 31.8679 54.4286 32.7208Z" fill="#404040"/>
<path d="M54.4286 32.7202C54.3318 31.9476 53.7521 31.1916 52.7197 30.6049L44.5895 25.986L44.7411 25.8344H44.7418L52.7197 30.3674C53.858 31.0145 54.428 31.8673 54.4286 32.7202Z" fill="url(#paint9_linear_11_86)"/>
<path d="M16.7798 14.6827C16.7798 14.682 16.7798 14.6814 16.7798 14.6807C16.7798 14.6814 16.7798 14.682 16.7798 14.6827ZM16.7868 14.4177C16.7868 14.4164 16.7868 14.4151 16.7868 14.4138C16.7868 14.4151 16.7868 14.4164 16.7868 14.4177ZM16.7873 14.4101C16.7873 14.4074 16.7873 14.405 16.7873 14.4024C16.7873 14.405 16.7873 14.4074 16.7873 14.4101ZM16.7873 14.4004C16.8817 12.7254 17.7925 11.7579 19.081 11.7522C18.5223 11.7554 18.0358 11.9389 17.6549 12.2821V12.2814L17.6503 12.286C17.6102 12.3222 17.5721 12.3605 17.5344 12.4C17.1064 12.8528 16.8364 13.531 16.7873 14.4004Z" fill="#404040"/>
<path d="M16.7799 14.9298V14.6916C16.7799 14.6884 16.7799 14.6858 16.7799 14.6827C16.7799 14.682 16.7799 14.6814 16.7799 14.6807C16.7799 14.5909 16.7824 14.503 16.7869 14.4177C16.7869 14.4164 16.7869 14.4151 16.7869 14.4138C16.7869 14.4126 16.7869 14.4113 16.7874 14.41C16.7874 14.4074 16.7874 14.405 16.7874 14.4024C16.7874 14.4017 16.7874 14.4011 16.7874 14.4004C16.8365 13.531 17.1065 12.8527 17.5345 12.3999L17.6537 12.5196C17.1065 13.0133 16.7799 13.8367 16.7799 14.9298ZM17.6504 12.286L17.655 12.2814C17.6537 12.2834 17.6517 12.2847 17.6504 12.286Z" fill="url(#paint10_linear_11_86)"/>
<path d="M44.5898 25.986L20.9232 12.5387C20.2671 12.1668 19.6462 11.9904 19.0933 11.9904C18.5296 11.9904 18.0379 12.1738 17.6539 12.5196L17.5347 12.3999C17.5724 12.3605 17.6105 12.3222 17.6506 12.286C17.6519 12.2847 17.6539 12.2834 17.6552 12.2821C18.0361 11.9388 18.5226 11.7554 19.0812 11.7521C19.0825 11.7521 19.0843 11.7521 19.0863 11.7521C19.0889 11.7521 19.0907 11.7521 19.0933 11.7521C19.6462 11.7521 20.2671 11.9286 20.9232 12.3006L44.7421 25.8339L44.7414 25.8344L44.5898 25.986Z" fill="url(#paint11_linear_11_86)"/>
<defs>
<linearGradient id="paint0_linear_11_86" x1="36.0641" y1="14.3106" x2="8.70007" y2="41.6746" gradientUnits="userSpaceOnUse">
<stop stop-color="#00A0FF"/>
<stop offset="0.00657445" stop-color="#00A1FF"/>
<stop offset="0.2601" stop-color="#00BEFF"/>
<stop offset="0.5122" stop-color="#00D2FF"/>
<stop offset="0.7604" stop-color="#00DFFF"/>
<stop offset="1" stop-color="#00E3FF"/>
</linearGradient>
<linearGradient id="paint1_linear_11_86" x1="55.6867" y1="32.7218" x2="16.2333" y2="32.7218" gradientUnits="userSpaceOnUse">
<stop stop-color="#FFE000"/>
<stop offset="0.4087" stop-color="#FFBD00"/>
<stop offset="0.7754" stop-color="#FFA500"/>
<stop offset="1" stop-color="#FF9C00"/>
</linearGradient>
<linearGradient id="paint2_linear_11_86" x1="40.9998" y1="36.4633" x2="3.89214" y2="73.571" gradientUnits="userSpaceOnUse">
<stop stop-color="#FF3A44"/>
<stop offset="1" stop-color="#C31162"/>
</linearGradient>
<linearGradient id="paint3_linear_11_86" x1="12.4174" y1="0.396592" x2="28.9875" y2="16.9667" gradientUnits="userSpaceOnUse">
<stop stop-color="#32A071"/>
<stop offset="0.0685" stop-color="#2DA771"/>
<stop offset="0.4762" stop-color="#15CF74"/>
<stop offset="0.8009" stop-color="#06E775"/>
<stop offset="1" stop-color="#00F076"/>
</linearGradient>
<linearGradient id="paint4_linear_11_86" x1="55.6864" y1="32.7217" x2="16.2344" y2="32.7217" gradientUnits="userSpaceOnUse">
<stop stop-color="#CCB300"/>
<stop offset="0.4087" stop-color="#CC9700"/>
<stop offset="0.7754" stop-color="#CC8400"/>
<stop offset="1" stop-color="#CC7D00"/>
</linearGradient>
<linearGradient id="paint5_linear_11_86" x1="41.0002" y1="36.4634" x2="3.89253" y2="73.571" gradientUnits="userSpaceOnUse">
<stop stop-color="#CC2E36"/>
<stop offset="1" stop-color="#9C0E4E"/>
</linearGradient>
<linearGradient id="paint6_linear_11_86" x1="36.0641" y1="14.3106" x2="8.70006" y2="41.6746" gradientUnits="userSpaceOnUse">
<stop stop-color="#008DE0"/>
<stop offset="0.00657445" stop-color="#008DE0"/>
<stop offset="0.2601" stop-color="#00A7E0"/>
<stop offset="0.5122" stop-color="#00B8E0"/>
<stop offset="0.7604" stop-color="#00C4E0"/>
<stop offset="1" stop-color="#00C7E0"/>
</linearGradient>
<linearGradient id="paint7_linear_11_86" x1="41.0004" y1="36.4642" x2="3.89457" y2="73.5722" gradientUnits="userSpaceOnUse">
<stop stop-color="#E0333C"/>
<stop offset="1" stop-color="#AB0F56"/>
</linearGradient>
<linearGradient id="paint8_linear_11_86" x1="55.6867" y1="32.7218" x2="16.2332" y2="32.7218" gradientUnits="userSpaceOnUse">
<stop stop-color="#E0C500"/>
<stop offset="0.4087" stop-color="#E0A600"/>
<stop offset="0.7754" stop-color="#E09100"/>
<stop offset="1" stop-color="#E08900"/>
</linearGradient>
<linearGradient id="paint9_linear_11_86" x1="55.6866" y1="32.7218" x2="16.2331" y2="32.7218" gradientUnits="userSpaceOnUse">
<stop stop-color="#FFE840"/>
<stop offset="0.4087" stop-color="#FFCE40"/>
<stop offset="0.7754" stop-color="#FFBC40"/>
<stop offset="1" stop-color="#FFB540"/>
</linearGradient>
<linearGradient id="paint10_linear_11_86" x1="36.0641" y1="14.3106" x2="8.70005" y2="41.6746" gradientUnits="userSpaceOnUse">
<stop stop-color="#40B8FF"/>
<stop offset="0.00657445" stop-color="#40B9FF"/>
<stop offset="0.2601" stop-color="#40CEFF"/>
<stop offset="0.5122" stop-color="#40DDFF"/>
<stop offset="0.7604" stop-color="#40E7FF"/>
<stop offset="1" stop-color="#40EAFF"/>
</linearGradient>
<linearGradient id="paint11_linear_11_86" x1="12.4178" y1="0.396611" x2="28.9879" y2="16.9667" gradientUnits="userSpaceOnUse">
<stop stop-color="#65B895"/>
<stop offset="0.0685" stop-color="#62BD95"/>
<stop offset="0.4762" stop-color="#50DB97"/>
<stop offset="0.8009" stop-color="#44ED98"/>
<stop offset="1" stop-color="#40F498"/>
</linearGradient>
</defs>
</svg>
