<svg width="69" height="131" viewBox="0 0 69 131" fill="none" xmlns="http://www.w3.org/2000/svg">
<path d="M64.5375 38.9893L50.0142 44.7925L41.9391 40.7625L43.3397 47.3793C43.3397 47.3793 48.1796 49.5449 51.1572 48.7325C54.1348 47.9206 65.1516 40.382 65.1516 40.382L64.5375 38.9893Z" fill="#F4CABA"/>
<path opacity="0.35" d="M51.8666 48.4665C51.4497 48.5753 51.0208 48.6482 50.5899 48.6643C50.2552 48.6773 49.8914 48.6643 49.5786 48.531C49.3319 48.4259 49.1154 48.264 48.8905 48.1209C48.648 47.9669 48.3904 47.8461 48.101 47.8175C47.7809 47.7857 47.4592 47.8284 47.1386 47.8138C46.8867 47.8024 46.639 47.7493 46.4188 47.6233C46.0389 47.4063 45.7984 47.0133 45.6621 46.6079C45.5913 46.3981 45.5444 46.1811 45.5174 45.9615C45.4856 45.7033 45.4809 45.4426 45.4533 45.1839C45.3909 44.5958 45.2764 44.0118 45.0895 43.4497C44.9214 42.9443 44.6955 42.4603 44.4249 42.0022L41.9396 40.762L43.3402 47.3787C43.3402 47.3787 48.1801 49.5444 51.1577 48.7319C51.3815 48.6711 51.6511 48.5711 51.9577 48.4405C51.927 48.4488 51.8968 48.4587 51.8666 48.4665Z" fill="#E8AD80"/>
<path d="M37.2314 36.8126L44.5269 41.6046C44.5269 41.6046 45.7651 46.9467 44.4202 47.7399C43.0748 48.5331 38.9677 44.9731 38.9677 44.9731L37.2314 36.8126Z" fill="#FF6600"/>
<path opacity="0.35" d="M43.6556 45.0761C43.2216 44.2741 42.6948 43.5231 42.0885 42.8418C41.4671 42.1438 40.7634 41.5213 40.0019 40.9806C39.3248 40.4996 38.6029 40.0853 37.8529 39.7299L38.9683 44.9721C38.9683 44.9721 43.0753 48.5321 44.4207 47.7389C44.5108 47.6858 44.5883 47.6119 44.6565 47.5213C44.4077 46.675 44.0757 45.8527 43.6556 45.0761Z" fill="#FF6600"/>
<path d="M67.9757 39.8433L67.9752 39.8428C67.8357 39.949 67.6218 40.0775 67.2887 40.2352C67.2887 40.2352 67.2903 40.2331 67.2939 40.23C67.1305 40.3148 66.9546 40.3919 66.7745 40.4595C66.4643 40.5772 66.2306 40.6453 66.0635 40.6854C66.0625 40.6854 66.0619 40.6859 66.0614 40.6859C65.8142 40.7437 65.1516 40.382 65.1516 40.382C65.1516 40.382 61.3902 42.8636 60.9915 43.0078C60.5351 43.001 59.7694 41.0768 59.7694 41.0768C59.8428 40.6865 64.2903 39.5805 64.5375 38.9892C64.8258 38.2991 64.615 36.5706 65.1423 36.785C65.6705 37 65.4249 38.1726 65.4249 38.1726C65.4249 38.1726 65.4348 38.1611 65.454 38.1414C65.5701 38.0196 66.0203 37.5704 66.5507 37.3164L66.5512 37.3159C66.699 37.2461 66.8531 37.191 67.0076 37.1624C67.0347 37.1577 67.0623 37.153 67.0894 37.1493C67.1378 37.1431 67.1872 37.14 67.2356 37.1405C67.2434 37.1405 67.2517 37.1405 67.2601 37.1405C67.2845 37.141 67.3085 37.1421 67.3329 37.1441L67.3355 37.1447C67.3361 37.1452 67.3361 37.1452 67.3366 37.1457C67.398 37.1696 67.4636 37.217 67.5255 37.3055C67.7243 37.5912 67.5255 37.7828 67.5255 37.7828C67.5255 37.7828 67.7925 37.7338 67.9174 37.9889C68.0507 38.26 67.8435 38.3501 67.8435 38.3501C67.8435 38.3501 68.1339 38.3891 68.2307 38.6067C68.3333 38.8362 68.0913 38.9366 68.0913 38.9366C68.0913 38.9366 68.301 38.9346 68.4238 39.2021C68.5352 39.442 67.9757 39.8433 67.9757 39.8433Z" fill="#F4CABA"/>
<path opacity="0.2" d="M65.0116 36.8646C65.0116 36.8646 65.0169 37.3127 64.9528 37.3617C64.8888 37.4106 64.8154 37.345 64.8154 37.345C64.8154 37.345 64.8779 36.9188 65.0116 36.8646Z" fill="white"/>
<path d="M68.4249 39.2021C68.3021 38.9346 68.0923 38.9366 68.0923 38.9366C68.0923 38.9366 68.3343 38.8362 68.2318 38.6067C68.135 38.3896 67.8446 38.3501 67.8446 38.3501C67.8446 38.3501 68.0517 38.2595 67.9185 37.9889C67.7936 37.7338 67.5266 37.7828 67.5266 37.7828C67.5266 37.7828 67.7254 37.5907 67.5266 37.3055C67.4651 37.217 67.399 37.1696 67.3376 37.1457C67.3371 37.1452 67.3371 37.1452 67.3366 37.1447L67.334 37.1441C67.31 37.1421 67.2856 37.141 67.2611 37.1405C67.2528 37.14 67.2445 37.1405 67.2367 37.1405C66.7885 37.1405 65.8579 38.0102 65.9292 38.3761C65.9724 38.5983 66.431 38.5119 66.661 38.3652C66.5075 38.4729 66.2171 38.7009 66.202 38.8888C66.1811 39.1453 67.0155 38.8513 67.0155 38.8513C67.0155 38.8513 66.4908 39.1833 66.5673 39.4477C66.6444 39.7121 67.2335 39.3535 67.2335 39.3535C67.2335 39.3535 66.8317 39.6283 66.8723 39.8693C66.9046 40.0588 68.1459 39.6351 68.1818 39.6715C68.3286 39.5341 68.4889 39.341 68.4249 39.2021Z" fill="#FEBEA5"/>
<path d="M66.3014 37.9852L66.4554 38.347C66.4554 38.347 66.09 38.5203 65.9818 38.3808C65.8735 38.2408 66.3014 37.9852 66.3014 37.9852ZM66.5647 38.5421L66.7068 38.8752C66.7068 38.8752 66.3706 39.0345 66.2707 38.9059C66.1707 38.7774 66.5647 38.5421 66.5647 38.5421ZM66.8603 39.1173L66.9811 39.3999C66.9811 39.3999 66.6959 39.5352 66.611 39.4259C66.5257 39.3171 66.8603 39.1173 66.8603 39.1173ZM67.1794 39.5045L67.3001 39.7871C67.3001 39.7871 67.0149 39.9224 66.9301 39.8131C66.8447 39.7043 67.1794 39.5045 67.1794 39.5045Z" fill="#F4CABA"/>
<path d="M4.8097 39.1781L18.8598 44.7919L26.935 40.7619L25.5344 47.3787C25.5344 47.3787 20.6945 49.5443 17.7169 48.7319C14.7393 47.9199 4.05865 40.7619 4.05865 40.7619L4.8097 39.1781Z" fill="#F4CABA"/>
<path opacity="0.35" d="M17.0069 48.4665C17.4238 48.5753 17.8527 48.6482 18.2837 48.6643C18.6183 48.6773 18.9821 48.6643 19.2949 48.531C19.5416 48.4259 19.7582 48.264 19.983 48.1209C20.2255 47.9669 20.4832 47.8461 20.7726 47.8175C21.0926 47.7857 21.4143 47.8284 21.7349 47.8138C21.9868 47.8024 22.2346 47.7493 22.4547 47.6233C22.8347 47.4063 23.0751 47.0133 23.2115 46.6079C23.2823 46.3981 23.3291 46.1811 23.3562 45.9615C23.3879 45.7033 23.3926 45.4426 23.4202 45.1839C23.4827 44.5958 23.5972 44.0118 23.784 43.4497C23.9521 42.9443 24.178 42.4603 24.4487 42.0022L26.9339 40.762L25.5333 47.3787C25.5333 47.3787 20.6934 49.5444 17.7158 48.7319C17.492 48.6711 17.2224 48.5711 16.9159 48.4405C16.9471 48.4488 16.9768 48.4587 17.0069 48.4665Z" fill="#E8AD80"/>
<path d="M31.7222 36.4352L24.3466 41.604C24.3466 41.604 23.1084 46.9461 24.4533 47.7393C25.7982 48.5325 29.9058 44.9725 29.9058 44.9725L31.7222 36.4352Z" fill="#FF6600"/>
<path opacity="0.35" d="M25.2184 45.0761C25.6525 44.2741 26.1792 43.5231 26.7856 42.8418C27.407 42.1438 28.1107 41.5213 28.8727 40.9806C29.5498 40.4996 30.2717 40.0853 31.0217 39.7299L29.9063 44.9721C29.9063 44.9721 25.7993 48.5321 24.4539 47.7389C24.3638 47.6858 24.2857 47.6119 24.2181 47.5213C24.4658 46.675 24.7984 45.8527 25.2184 45.0761Z" fill="#FF6600"/>
<path d="M1.51926 40.2154L1.51978 40.2149C1.65926 40.321 1.87318 40.4496 2.20628 40.6073C2.20628 40.6073 2.20472 40.6052 2.20108 40.6021C2.3645 40.6869 2.54042 40.7639 2.72051 40.8316C3.03071 40.9492 3.2644 41.0174 3.43147 41.0575C3.43251 41.0575 3.43303 41.058 3.43355 41.058C3.68078 41.1158 4.34334 40.7541 4.34334 40.7541C4.34334 40.7541 5.28747 41.4879 5.68564 41.6321C6.14261 41.6253 6.58033 40.0837 6.58033 40.0837C6.50694 39.6928 5.20472 39.9531 4.9575 39.3613C4.66915 38.6711 4.87994 36.9426 4.3527 37.1571C3.82443 37.372 4.07009 38.5447 4.07009 38.5447C4.07009 38.5447 4.0602 38.5332 4.04094 38.5134C3.92488 38.3916 3.47467 37.9425 2.94431 37.6885L2.94379 37.688C2.79598 37.6182 2.64192 37.563 2.48734 37.5344C2.45975 37.5297 2.43269 37.5251 2.40562 37.5214C2.35722 37.5152 2.30777 37.512 2.25937 37.5126C2.25156 37.5126 2.24323 37.5126 2.2349 37.5126C2.21044 37.5131 2.1865 37.5141 2.16204 37.5162L2.15944 37.5167C2.15892 37.5172 2.15892 37.5172 2.1584 37.5178C2.09698 37.5417 2.0314 37.5891 1.96947 37.6776C1.77065 37.9633 1.96947 38.1548 1.96947 38.1548C1.96947 38.1548 1.70247 38.1059 1.57755 38.3609C1.44431 38.6321 1.65146 38.7221 1.65146 38.7221C1.65146 38.7221 1.36103 38.7612 1.26423 38.9787C1.16169 39.2083 1.40371 39.3087 1.40371 39.3087C1.40371 39.3087 1.19396 39.3066 1.07113 39.5742C0.96027 39.8141 1.51926 40.2154 1.51926 40.2154Z" fill="#F4CABA"/>
<path opacity="0.2" d="M3.86192 36.8646C3.86192 36.8646 3.85671 37.3127 3.92073 37.3617C3.98527 37.4106 4.05814 37.345 4.05814 37.345C4.05814 37.345 3.99568 36.9188 3.86192 36.8646Z" fill="white"/>
<path d="M0.287292 32.3975C0.287292 32.3975 1.15388 37.7609 2.85842 37.9493C4.56297 38.1377 6.58032 33.0933 6.58032 33.0933L0.287292 32.3975Z" fill="#FF6600"/>
<path d="M6.58033 33.0933C6.54442 33.4191 5.10636 33.5274 3.3685 33.3354C1.63065 33.1433 0.251394 32.7233 0.287307 32.3975C0.323219 32.0716 1.76128 31.9634 3.49914 32.1554C5.237 32.3475 6.61677 32.7675 6.58033 33.0933Z" fill="#5E3F35"/>
<path d="M1.40994 32.9127C1.40994 32.9127 1.87108 32.477 3.26126 32.7045C4.65144 32.9319 4.9757 33.6018 5.4155 32.8247C5.85529 32.0477 5.83031 30.5409 6.67504 30.7668C7.52028 30.9927 7.37767 31.4788 7.77219 30.4456C8.16671 29.413 9.77497 28.7354 9.07806 30.2364C8.38114 31.7369 7.19343 31.9451 7.49322 32.4354C7.79301 32.9257 6.57979 33.0938 6.57979 33.0938C6.57979 33.0938 5.36969 33.7777 1.40994 32.9127Z" fill="#FF6600"/>
<path d="M2.6586 37.356L2.08035 42.5857L2.34267 42.6148L3.09579 37.4044L2.6586 37.356Z" fill="#FF6600"/>
<path d="M3.74117 42.7694C3.71827 42.975 3.00522 43.0645 2.14852 42.9698C1.29183 42.875 0.615733 42.6315 0.638113 42.4264C0.661014 42.2208 1.37406 42.1313 2.23076 42.226C3.08798 42.3207 3.76407 42.5638 3.74117 42.7694Z" fill="#FF6600"/>
<path d="M42.7296 62.1439C42.7296 62.1439 50.1645 77.4239 56.661 82.4236C56.661 82.4236 57.1997 87.531 51.957 85.7249C33.5162 79.3731 42.7296 62.1439 42.7296 62.1439Z" fill="#FF6600" fill-opacity="0.5"/>
<path d="M25.68 60.7292C25.68 60.7292 23.4726 76.957 11.1869 78.3196C11.1869 78.3196 17.1218 82.0519 15.4522 84.7115C13.7825 87.3712 30.7754 70.2851 25.68 60.7292Z" fill="#FF6600"/>
<path d="M39.9086 126.959C39.9086 126.959 43.6378 128.791 43.4577 130.267C43.3036 131.525 39.0014 129.265 38.7458 128.422C38.5845 127.891 39.9086 126.959 39.9086 126.959Z" fill="#0E0D0D"/>
<path d="M40.4051 126.898C40.4051 126.898 42.1929 128.052 42.7061 129.42C42.9039 129.946 39.5802 130.042 38.8265 128.03C38.0141 125.864 40.4051 126.898 40.4051 126.898Z" fill="#5E3F35"/>
<path d="M35.0193 78.176C35.6558 84.3223 36.8003 99.7574 36.7332 102.615C36.6541 106.229 39.0175 127.557 39.0175 127.557C39.0175 127.557 40.2126 128.525 40.7523 127.692C41.2858 126.864 43.8481 105.96 43.9209 105.023C43.9839 104.215 45.6317 87.4503 46.9922 79.5121L35.0193 78.176Z" fill="#F4CABA"/>
<path opacity="0.35" d="M36.7332 102.615C36.6739 105.331 37.9938 118.049 38.6532 124.203C38.7714 120.923 38.8734 121.111 38.8599 119.588C38.8422 117.574 38.6699 115.557 38.5267 113.548C38.4554 112.549 38.3852 111.55 38.3295 110.549C38.2769 109.607 38.2035 108.651 38.2259 107.707C38.2389 107.162 38.3212 106.591 38.6225 106.125C38.8619 105.754 39.2221 105.495 39.5937 105.269C40.084 104.969 40.5889 104.698 41.0505 104.354C41.6933 103.875 42.2643 103.287 42.6088 102.554C43.2386 101.215 42.9726 99.7084 42.7301 98.3099C42.6031 97.5761 42.4646 96.8354 42.4318 96.0896C42.4095 95.5827 42.4397 95.0403 42.678 94.5813C43.0528 93.8604 43.8663 93.6553 44.5892 93.4529C44.7797 93.3998 44.9697 93.3446 45.157 93.2832C45.7139 88.4079 46.3817 83.0731 46.9917 79.5131L35.0193 78.1765C35.6563 84.3222 36.8003 99.7574 36.7332 102.615Z" fill="#E8AD80"/>
<path d="M40.8751 127.352C40.8751 127.352 42.4397 128.761 42.3324 129.059C42.2252 129.358 39.1586 128.493 39.0175 127.557C38.8765 126.621 40.8751 127.352 40.8751 127.352ZM24.2533 82.1628C25.2735 86.806 32.3284 101.757 32.4867 102.477C32.6459 103.203 39.3803 100.947 38.9665 98.119C38.5465 95.2881 38.4992 80.2756 38.4992 80.2756C37.4619 79.752 36.2325 79.535 34.9365 79.5147C34.6701 79.5095 34.3937 79.511 34.1204 79.5256C31.6648 79.6323 29.0734 80.3521 27.1648 81.0079C26.9296 81.0917 26.7053 81.1724 26.4908 81.2468C25.1319 81.7517 24.2533 82.1628 24.2533 82.1628Z" fill="#F4CABA"/>
<path opacity="0.35" d="M30.0639 93.9333C30.3808 93.6549 30.7618 93.4592 31.1626 93.3322C31.6716 93.1708 32.1905 93.0569 32.7271 93.0871C33.2138 93.1146 33.6827 93.2546 34.1376 93.4222C34.3942 93.517 34.6477 93.6195 34.9017 93.7199C35.1681 93.8251 35.4263 93.9526 35.698 94.0442C35.9358 94.1244 36.2231 94.1951 36.4683 94.1051C36.6707 94.0307 36.8259 93.8719 36.994 93.7434C37.0767 93.6804 37.1642 93.6211 37.2604 93.5815C37.3599 93.5404 37.4624 93.5279 37.5691 93.5258C37.7721 93.5216 37.9751 93.5617 38.1614 93.6414C38.3685 93.7298 38.5507 93.8631 38.7115 94.0197C38.5247 88.5995 38.4981 80.2772 38.4981 80.2772C37.4608 79.7536 36.2315 79.5366 34.9355 79.5163C34.669 79.5111 34.3926 79.5126 34.1194 79.5272C31.6638 79.6339 29.0724 80.3537 27.1638 81.0095C26.9286 81.0933 26.7042 81.174 26.4898 81.2484C25.1303 81.7517 24.2523 82.1634 24.2523 82.1634C24.8154 84.7262 27.2169 90.4285 29.2821 95.1455C29.4367 94.6844 29.6891 94.2628 30.0639 93.9333Z" fill="#E8AD80"/>
<path d="M19.7512 114.249C19.7512 114.249 18.1888 114.717 18.3543 115.209C18.5203 115.701 18.3231 116.069 18.3231 116.069C18.3231 116.069 19.0179 122.145 19.9272 121.544C20.8364 120.943 21.1778 117.464 20.9582 116.368C20.7391 115.272 20.7464 114.382 19.7512 114.249Z" fill="#0E0D0D"/>
<path d="M21.0691 116.152C21.0691 116.152 20.5346 118.632 20.1333 120.048C19.732 121.463 18.5844 116.552 18.7608 115.373C18.9378 114.193 19.8449 114.092 20.2629 114.485C20.6803 114.878 21.0691 116.152 21.0691 116.152Z" fill="#5E3F35"/>
<path d="M20.6876 116.601C20.6876 116.601 20.3154 119.409 19.9652 118.927C19.6149 118.444 19.0137 115.551 19.7919 114.993C20.5694 114.434 20.6876 116.601 20.6876 116.601Z" fill="#F4CABA"/>
<path d="M31.0611 97.3044L19.7913 114.992L20.5507 117.466C20.5507 117.466 41.0833 103.38 38.788 97.1883C36.4933 90.9963 31.0611 97.3044 31.0611 97.3044Z" fill="#F4CABA"/>
<path d="M57.2393 88.637C57.2393 88.637 54.0811 89.4671 49.9209 90.3176C45.0488 91.3185 38.8088 92.3453 34.6888 92.0898C29.2473 91.7499 11.9624 90.3962 11.1046 83.6207C11.1374 83.6207 11.1577 83.6071 11.1838 83.6014C12.2429 83.3068 24.0935 80.1148 25.8793 58.7551C25.8793 58.7551 28.3312 59.0882 31.3073 59.5067C35.6105 60.1219 41.0125 60.9203 41.7131 61.2008C41.7224 61.2045 41.7318 61.2086 41.7417 61.2133C42.8992 61.8014 43.452 70.6229 57.2393 88.637Z" fill="#FF6600"/>
<path opacity="0.5" d="M11.1869 83.604C12.2455 83.3095 24.0977 80.1174 25.8788 58.7567C25.8783 58.7567 28.7372 79.8363 11.1869 83.604Z" fill="#FF6600" fill-opacity="0.5"/>
<path opacity="0.5" d="M42.3147 76.7926C39.2804 72.5154 40.8678 65.6587 36.6379 66.0553C26.051 67.0473 26.6392 61.3908 26.6392 61.3908C26.6392 61.3908 28.5488 60.5336 31.3088 59.5067C35.6121 60.1219 41.0141 60.9203 41.7146 61.2008C41.724 61.2045 41.7334 61.2087 41.7432 61.2133C42.9003 61.8004 43.453 70.6224 57.2403 88.6365C57.2403 88.6365 54.0821 89.4666 49.9219 90.3171C50.38 89.4599 51.3017 88.4918 52.5966 87.6096C57.0769 84.5362 45.3428 81.0631 42.3147 76.7926Z" fill="#FF6600"/>
<path d="M20.6688 23.3251C20.6688 23.3251 22.4998 35.2871 29.6386 33.2411C29.6386 33.2411 34.3593 38.2132 38.3612 33.9073C42.3631 29.6014 39.0467 27.2947 39.0467 27.2947C39.0467 27.2947 50.5736 18.748 35.8494 13.2513C35.8494 13.2513 31.4462 12.1974 37.1454 7.42518C42.8446 2.65297 21.4324 -4.69766 17.5928 6.6351C13.7538 17.9679 20.6688 23.3251 20.6688 23.3251Z" fill="#0E0D0D"/>
<path d="M34.173 35.6624C26.0511 35.6598 25.2386 58.0432 24.7847 59.7456C24.0759 62.4042 40.9142 64.3539 43.7502 61.5184C45.2461 60.0215 42.7343 35.665 34.173 35.6624Z" fill="#FF6600"/>
<path opacity="0.5" d="M34.631 45.6579C34.0772 45.6579 33.5234 45.4471 33.1018 45.0256C32.4195 44.3432 32.4195 43.2325 33.1018 42.5497C33.3704 42.2811 33.7269 42.1333 34.1063 42.1333C34.4858 42.1333 34.8428 42.2811 35.1109 42.5497C35.5621 43.0009 35.5621 43.7348 35.1109 44.186C34.7418 44.5551 34.1417 44.5551 33.7727 44.186C33.4698 43.8831 33.4698 43.3897 33.7727 43.0868C34.0231 42.8365 34.4306 42.8365 34.6809 43.0868C34.7819 43.1878 34.8376 43.3221 34.8376 43.4647C34.8376 43.6073 34.7819 43.7416 34.6809 43.8425C34.5966 43.9268 34.4837 43.9737 34.3645 43.9737C34.2448 43.9737 34.1324 43.9274 34.048 43.8425C33.9002 43.6947 33.9002 43.4548 34.048 43.307C34.0881 43.2669 34.1527 43.2669 34.1922 43.307C34.2323 43.347 34.2323 43.4116 34.1922 43.4511C34.124 43.5193 34.124 43.6302 34.1922 43.6978C34.238 43.7436 34.2994 43.7691 34.3645 43.7691C34.4296 43.7691 34.491 43.7436 34.5368 43.6978C34.5992 43.6354 34.6336 43.5526 34.6336 43.4647C34.6336 43.3767 34.5992 43.2934 34.5368 43.231C34.3661 43.0603 34.0881 43.0603 33.9169 43.231C33.6936 43.4543 33.6936 43.8181 33.9169 44.0419C34.2063 44.3313 34.6768 44.3313 34.9662 44.0419C35.3378 43.6703 35.3378 43.0655 34.9662 42.6939C34.4915 42.2197 33.7196 42.2197 33.2455 42.6939C32.6428 43.2971 32.6428 44.2782 33.2455 44.8809C34.009 45.6444 35.2519 45.6444 36.0154 44.8809C36.0555 44.8408 36.12 44.8408 36.1596 44.8809C36.1997 44.921 36.1997 44.9855 36.1596 45.025C35.7385 45.4471 35.1848 45.6579 34.631 45.6579ZM34.8949 59.8262C34.0199 59.8262 33.145 59.4931 32.4788 58.8269C31.4004 57.7485 31.4004 55.9935 32.4788 54.915C32.903 54.4909 33.4667 54.2577 34.0663 54.2577C34.6658 54.2577 35.2295 54.4914 35.6537 54.915C36.3668 55.6281 36.3668 56.7877 35.6537 57.5008C35.0708 58.0837 34.1225 58.0837 33.5395 57.5008C33.0607 57.0219 33.0607 56.2428 33.5395 55.7639C33.9351 55.3684 34.5789 55.3684 34.9745 55.7639C35.1338 55.9232 35.2217 56.1356 35.2217 56.3609C35.2217 56.5863 35.1338 56.7981 34.9745 56.9579C34.8407 57.0917 34.6632 57.1651 34.4743 57.1651C34.2854 57.1651 34.1074 57.0917 33.9741 56.9579C33.741 56.7247 33.741 56.3453 33.9741 56.1116C34.0371 56.0486 34.1391 56.0486 34.2021 56.1116C34.2651 56.1746 34.2651 56.2766 34.2021 56.3396C34.0944 56.4473 34.0944 56.6222 34.2021 56.7294C34.275 56.8023 34.3718 56.8424 34.4743 56.8424C34.5774 56.8424 34.6737 56.8023 34.7465 56.7294C34.8449 56.631 34.8995 56.4999 34.8995 56.3604C34.8995 56.2209 34.8454 56.0903 34.7465 55.9914C34.4764 55.7218 34.0376 55.7213 33.7675 55.9914C33.4146 56.3443 33.4146 56.9189 33.7675 57.2723C34.2245 57.7292 34.9682 57.7292 35.4257 57.2723C36.0128 56.6852 36.0128 55.7301 35.4257 55.1425C34.6763 54.393 33.4563 54.393 32.7068 55.1425C31.7543 56.0955 31.7543 57.6454 32.7068 58.5979C33.9132 59.8044 35.8765 59.8044 37.0834 58.5979C37.1464 58.5349 37.2484 58.5349 37.3114 58.5979C37.3744 58.6609 37.3744 58.7629 37.3114 58.8259C36.6452 59.4926 35.7698 59.8262 34.8949 59.8262Z" fill="#F7F3F0"/>
<path opacity="0.25" d="M30.5765 51.736C30.3787 52.2544 29.9842 52.6973 29.4393 52.9419C28.5571 53.3375 27.5177 52.9414 27.1221 52.0592C26.9665 51.7126 26.9556 51.3259 27.0909 50.9704C27.2262 50.6149 27.4917 50.3338 27.8388 50.1782C28.4218 49.9169 29.1088 50.1787 29.3706 50.7617C29.5845 51.2384 29.3701 51.8 28.8933 52.0139C28.5014 52.1893 28.0403 52.0134 27.8643 51.622C27.7191 51.2983 27.8643 50.9168 28.1881 50.7721C28.3187 50.7138 28.4639 50.7096 28.5972 50.7601C28.7309 50.8111 28.8366 50.911 28.8949 51.0412C28.9438 51.1505 28.9474 51.2723 28.9048 51.3842C28.8621 51.4961 28.7783 51.5845 28.669 51.6335C28.478 51.7188 28.2537 51.6335 28.1678 51.4424C28.1449 51.3909 28.1678 51.3305 28.2193 51.3071C28.2708 51.2842 28.3312 51.3071 28.3546 51.3587C28.3942 51.4466 28.4978 51.4862 28.5857 51.4466C28.645 51.4201 28.6908 51.3717 28.7137 51.3108C28.7372 51.2499 28.7351 51.1838 28.7085 51.1239C28.6726 51.0432 28.6071 50.9818 28.5248 50.9501C28.4421 50.9189 28.3525 50.9209 28.2719 50.9574C28.0512 51.0563 27.9518 51.3165 28.0507 51.5372C28.1803 51.826 28.5207 51.9556 28.8095 51.826C29.1832 51.6584 29.3513 51.2181 29.1837 50.8439C28.9683 50.3635 28.4025 50.148 27.9226 50.3635C27.3095 50.6383 27.0342 51.3607 27.309 51.9738C27.6582 52.753 28.5763 53.1033 29.356 52.7535C30.3428 52.3111 30.7863 51.1484 30.3439 50.161C30.321 50.1095 30.3439 50.0491 30.3954 50.0257C30.4469 50.0028 30.5073 50.0257 30.5307 50.0772C30.7743 50.6243 30.7743 51.2181 30.5765 51.736Z" fill="#F7F3F0"/>
<path opacity="0.85" d="M32.8275 50.4666C33.0248 50.984 33.4188 51.4264 33.9632 51.6705C34.8444 52.0655 35.8822 51.67 36.2767 50.7888C36.4318 50.4427 36.4427 50.0565 36.3079 49.7015C36.1726 49.3471 35.9077 49.066 35.5611 48.9109C34.9787 48.6502 34.2927 48.9115 34.0319 49.4939C33.8185 49.9701 34.0324 50.5307 34.5082 50.744C34.8995 50.9194 35.3602 50.7435 35.5356 50.3526C35.6803 50.0294 35.5356 49.6484 35.2123 49.5038C35.0822 49.4455 34.937 49.4413 34.8038 49.4918C34.6705 49.5428 34.5649 49.6422 34.5066 49.7723C34.4577 49.8816 34.454 50.0029 34.4967 50.1148C34.5394 50.2267 34.6227 50.3152 34.732 50.3641C34.9224 50.4495 35.1468 50.3641 35.2321 50.1736C35.255 50.1221 35.2321 50.0617 35.1806 50.0388C35.1291 50.0159 35.0687 50.0388 35.0458 50.0903C35.0062 50.1783 34.9032 50.2173 34.8152 50.1783C34.7559 50.1517 34.7101 50.1033 34.6872 50.0424C34.6638 49.9815 34.6659 49.9155 34.6924 49.8561C34.7283 49.7754 34.7939 49.714 34.8761 49.6828C34.9584 49.6516 35.0484 49.6542 35.1286 49.6901C35.3487 49.789 35.4481 50.0487 35.3492 50.2694C35.2202 50.5577 34.8803 50.6873 34.5919 50.5582C34.2188 50.3912 34.0512 49.9508 34.2182 49.5777C34.4332 49.0983 34.9984 48.8828 35.4778 49.0978C36.0899 49.3721 36.3647 50.0934 36.0904 50.706C35.7417 51.4842 34.8246 51.8334 34.0465 51.4847C33.0612 51.0428 32.6183 49.8816 33.0602 48.8964C33.0831 48.8448 33.0602 48.7845 33.0087 48.7616C32.9571 48.7387 32.8968 48.7616 32.8739 48.8131C32.6303 49.3565 32.6303 49.9488 32.8275 50.4666Z" fill="#F7F3F0"/>
<path opacity="0.5" d="M29.8369 44.9528C30.2288 44.8924 30.6431 44.9814 30.9872 45.2338C31.5441 45.6424 31.6648 46.4278 31.2562 46.9852C31.0954 47.2043 30.8591 47.3474 30.5906 47.3886C30.322 47.4297 30.0534 47.3641 29.8348 47.2033C29.4669 46.9332 29.3867 46.4137 29.6568 46.0457C29.8775 45.7449 30.3022 45.6793 30.6031 45.9C30.8503 46.0817 30.9039 46.4304 30.7228 46.6776C30.5729 46.8821 30.2845 46.9264 30.0805 46.7765C29.9983 46.7161 29.9441 46.6271 29.9285 46.5261C29.9129 46.4252 29.9379 46.3242 29.9983 46.242C30.0488 46.1727 30.1232 46.128 30.208 46.115C30.2929 46.102 30.3772 46.1228 30.4464 46.1733C30.5666 46.2617 30.5932 46.4314 30.5047 46.5522C30.4807 46.5844 30.4349 46.5917 30.4027 46.5678C30.3699 46.5438 30.3631 46.498 30.3871 46.4658C30.4277 46.4101 30.4157 46.332 30.36 46.2914C30.3225 46.2638 30.2762 46.2524 30.2304 46.2597C30.1846 46.2669 30.144 46.2914 30.1164 46.3289C30.0789 46.3799 30.0638 46.4423 30.0732 46.5043C30.0826 46.5667 30.1159 46.6214 30.1669 46.6589C30.3064 46.7609 30.5031 46.7307 30.6051 46.5917C30.7389 46.4096 30.6993 46.1519 30.5172 46.0182C30.2809 45.8448 29.9483 45.8964 29.775 46.1321C29.5527 46.4356 29.6183 46.8629 29.9212 47.0857C30.3085 47.3698 30.8544 47.2855 31.1386 46.8988C31.4993 46.407 31.3926 45.7126 30.9008 45.352C30.2778 44.895 29.3987 45.0298 28.9417 45.6533C28.9178 45.6861 28.872 45.6929 28.8397 45.6689C28.8074 45.645 28.8001 45.5992 28.8241 45.5669C29.0765 45.2224 29.4455 45.0131 29.8369 44.9528ZM39.3355 55.5095C39.728 55.4491 40.1433 55.5381 40.4879 55.7911C41.0458 56.2002 41.1666 56.9871 40.7575 57.5451C40.5966 57.7642 40.3598 57.9078 40.0913 57.9495C39.8222 57.9906 39.5536 57.925 39.334 57.7642C38.9655 57.4935 38.8853 56.9736 39.156 56.6051C39.3772 56.3037 39.8024 56.2381 40.1038 56.4593C40.3515 56.641 40.4051 56.9902 40.2235 57.238C40.0736 57.4425 39.7847 57.4873 39.5802 57.3369C39.4979 57.2765 39.4438 57.1875 39.4282 57.0865C39.4126 56.9855 39.4375 56.8846 39.4979 56.8018C39.5484 56.7326 39.6234 56.6873 39.7077 56.6743C39.7925 56.6613 39.8773 56.6821 39.9461 56.7326C40.0668 56.8211 40.0928 56.9913 40.0043 57.112C39.9804 57.1448 39.9346 57.1516 39.9023 57.1276C39.8695 57.1037 39.8628 57.0579 39.8867 57.0256C39.9273 56.9699 39.9153 56.8913 39.8597 56.8507C39.8222 56.8232 39.7759 56.8117 39.7301 56.819C39.6837 56.8263 39.6431 56.8507 39.6156 56.8882C39.5781 56.9392 39.563 57.0017 39.5723 57.0641C39.5817 57.1266 39.615 57.1818 39.666 57.2192C39.8055 57.3218 40.0028 57.2916 40.1048 57.1516C40.2386 56.9689 40.199 56.7113 40.0163 56.5775C39.78 56.4042 39.4464 56.4552 39.2731 56.692C39.0503 56.9954 39.1159 57.4238 39.4199 57.6465C39.8076 57.9307 40.3546 57.8469 40.6388 57.4592C41 56.9663 40.8933 56.2715 40.4004 55.9097C39.7764 55.4517 38.8963 55.587 38.4382 56.2111C38.4143 56.2439 38.3685 56.2506 38.3362 56.2267C38.3034 56.2028 38.2967 56.157 38.3206 56.1247C38.5736 55.7796 38.9431 55.5699 39.3355 55.5095ZM28.6617 54.5903C28.2693 54.53 27.8539 54.619 27.5094 54.8719C26.9514 55.281 26.8307 56.068 27.2398 56.6259C27.4006 56.845 27.6374 56.9887 27.906 57.0303C28.1751 57.0714 28.4436 57.0058 28.6633 56.845C29.0323 56.5744 29.1119 56.0544 28.8413 55.6859C28.6201 55.3846 28.1948 55.319 27.8935 55.5402C27.6457 55.7218 27.5921 56.0711 27.7738 56.3188C27.9237 56.5234 28.2125 56.5681 28.4171 56.4177C28.4993 56.3573 28.5534 56.2683 28.5691 56.1674C28.5847 56.0664 28.5597 55.9654 28.4993 55.8827C28.4488 55.8134 28.3739 55.7682 28.289 55.7551C28.2042 55.7421 28.1194 55.763 28.0507 55.8134C27.9299 55.9019 27.9039 56.0721 27.9924 56.1929C28.0163 56.2257 28.0621 56.2324 28.0944 56.2085C28.1272 56.1845 28.1339 56.1387 28.11 56.1065C28.0694 56.0508 28.0814 55.9722 28.1371 55.9316C28.1745 55.904 28.2209 55.8926 28.2667 55.8998C28.313 55.9071 28.3536 55.9316 28.3812 55.9691C28.4186 56.0201 28.4337 56.0825 28.4244 56.145C28.415 56.2074 28.3812 56.2626 28.3307 56.2996C28.1912 56.4021 27.9939 56.3719 27.8919 56.2319C27.7582 56.0492 27.7977 55.7916 27.9804 55.6578C28.2167 55.4845 28.5503 55.5355 28.7236 55.7723C28.9464 56.0758 28.8808 56.5041 28.5769 56.7269C28.1891 57.011 27.6421 56.9273 27.3579 56.5395C26.9962 56.0466 27.1034 55.3518 27.5958 54.9901C28.2198 54.532 29.0999 54.6674 29.5579 55.2914C29.5819 55.3242 29.6277 55.331 29.66 55.307C29.6928 55.2831 29.6995 55.2373 29.6756 55.205C29.4231 54.8605 29.0541 54.6507 28.6617 54.5903Z" fill="#F7F3F0"/>
<path opacity="0.25" d="M39.6405 45.1666C39.2486 45.1063 38.8343 45.1953 38.4903 45.4477C37.9334 45.8563 37.8126 46.6416 38.2212 47.1991C38.382 47.4182 38.6183 47.5613 38.8869 47.6024C39.1555 47.6435 39.424 47.578 39.6426 47.4171C40.0106 47.147 40.0907 46.6276 39.8206 46.2596C39.5999 45.9588 39.1752 45.8932 38.8744 46.1139C38.6272 46.2955 38.5736 46.6442 38.7547 46.8915C38.9046 47.096 39.1929 47.1402 39.397 46.9904C39.4792 46.93 39.5333 46.841 39.5489 46.74C39.5645 46.639 39.5396 46.5381 39.4792 46.4558C39.4287 46.3866 39.3543 46.3418 39.2694 46.3288C39.1846 46.3158 39.1003 46.3366 39.0311 46.3871C38.9108 46.4756 38.8843 46.6453 38.9728 46.766C38.9967 46.7988 39.0425 46.8056 39.0748 46.7817C39.1071 46.7577 39.1143 46.7119 39.0904 46.6796C39.0498 46.6239 39.0618 46.5459 39.1175 46.5053C39.1549 46.4777 39.2013 46.4662 39.2471 46.4735C39.2929 46.4808 39.3335 46.5053 39.361 46.5427C39.3985 46.5938 39.4136 46.6562 39.4042 46.7181C39.3949 46.7806 39.3616 46.8353 39.3106 46.8727C39.1711 46.9747 38.9749 46.9446 38.8723 46.8056C38.7386 46.6234 38.7781 46.3658 38.9603 46.232C39.196 46.0587 39.5292 46.1102 39.7025 46.346C39.9247 46.6495 39.8591 47.0768 39.5557 47.2995C39.1685 47.5837 38.6225 47.4994 38.3383 47.1127C37.9776 46.6208 38.0838 45.9265 38.5762 45.5658C39.1992 45.1088 40.0782 45.2437 40.5352 45.8672C40.5592 45.8994 40.605 45.9067 40.6372 45.8828C40.6695 45.8589 40.6768 45.813 40.6528 45.7808C40.4009 45.4362 40.0319 45.227 39.6405 45.1666Z" fill="#F7F3F0"/>
<path opacity="0.5" d="M41.5169 50.3599C41.8666 50.8731 42.0207 51.519 41.8963 52.1758C41.6949 53.2391 40.6664 53.9402 39.6031 53.7388C39.1851 53.6597 38.8229 53.4224 38.5835 53.071C38.3441 52.7197 38.2556 52.2955 38.3347 51.8776C38.4679 51.175 39.1477 50.7112 39.8503 50.8445C40.4249 50.9532 40.8038 51.5091 40.695 52.0837C40.6055 52.5558 40.1491 52.867 39.677 52.7775C39.2872 52.7036 39.0295 52.3262 39.1034 51.9364C39.1331 51.7792 39.2226 51.6429 39.3543 51.5528C39.4865 51.4628 39.6458 51.4295 39.8029 51.4591C39.9346 51.4841 40.0486 51.5591 40.1241 51.6694C40.1995 51.7803 40.2276 51.914 40.2027 52.0457C40.1589 52.2757 39.9367 52.4272 39.7067 52.3835C39.6447 52.3715 39.6036 52.3117 39.6156 52.2497C39.6275 52.1878 39.6874 52.1467 39.7493 52.1586C39.8555 52.1789 39.958 52.1087 39.9778 52.003C39.9914 51.9312 39.9763 51.8589 39.9351 51.7985C39.894 51.7381 39.8321 51.6975 39.7603 51.684C39.6629 51.6658 39.5646 51.6861 39.4829 51.7417C39.4011 51.7974 39.346 51.8818 39.3278 51.9786C39.2773 52.2445 39.4527 52.5022 39.7191 52.5526C40.0673 52.6187 40.4041 52.3887 40.4702 52.041C40.5555 51.5903 40.2584 51.1547 39.8076 51.0693C39.2289 50.9595 38.6688 51.3415 38.5595 51.9203C38.4195 52.6593 38.9072 53.3739 39.6458 53.514C40.5847 53.692 41.4934 53.0726 41.6714 52.1331C41.8968 50.9439 41.1119 49.7931 39.9226 49.5677C39.8607 49.5558 39.8196 49.4959 39.8316 49.434C39.8435 49.372 39.9034 49.3309 39.9653 49.3429C40.6222 49.4673 41.1671 49.8472 41.5169 50.3599Z" fill="#F7F3F0"/>
<path d="M32.5559 36.8032L33.5963 33.7418L35.5174 34.0255L36.6463 36.8032C36.6463 36.8032 36.486 38.0763 34.6685 38.0763C32.4351 38.0763 32.5559 36.8032 32.5559 36.8032Z" fill="#F4CABA"/>
<path opacity="0.35" d="M35.5169 34.0249L33.5958 33.7412L33.3668 34.4152C33.5505 34.7504 33.1295 34.9352 33.4428 35.1382C33.7556 35.3411 34.0158 36.4347 34.39 36.4347C35.0885 36.4347 35.9535 35.0981 35.4554 36.7058C35.4065 36.864 35.2936 36.9999 35.2769 37.1685C35.2556 37.3887 35.3831 37.5885 35.3998 37.804C35.4044 37.8686 35.3977 37.9331 35.3836 37.9966C36.5297 37.7192 36.6458 36.8021 36.6458 36.8021L35.5169 34.0249Z" fill="#E8AD80"/>
<path d="M38.3654 30.2255C38.1348 30.0168 37.9084 29.9642 37.7237 29.9673C37.7309 29.4994 36.5162 27.2801 34.668 27.5331C32.8198 27.2801 31.605 29.4994 31.6123 29.9673C31.4275 29.9642 31.2016 30.0168 30.9705 30.2255C30.5401 30.6148 31.2802 31.5933 31.7247 31.7437C31.9079 33.3301 33.2414 35.6618 34.6003 35.6613C36.0118 35.6613 37.428 33.3301 37.6112 31.7437C38.0557 31.5928 38.7953 30.6148 38.3654 30.2255Z" fill="#F4CABA"/>
<path opacity="0.1" d="M33.5957 31.9769C33.5957 32.2892 33.3423 32.5426 33.03 32.5426C32.7172 32.5426 32.4642 32.2892 32.4642 31.9769C32.4642 31.6641 32.7177 31.4111 33.03 31.4111C33.3428 31.4106 33.5957 31.6641 33.5957 31.9769Z" fill="#0E0D0D"/>
<path d="M32.5351 30.2317C33.3153 30.1021 33.7769 30.3416 33.8789 30.263C33.9809 30.1844 33.4917 29.8934 33.0279 29.9954C32.5642 30.098 32.3841 30.2567 32.5351 30.2317ZM33.4428 31.5126C33.3923 31.5126 33.3376 31.5084 33.2778 31.4991C32.7911 31.422 32.8151 30.9177 32.8156 30.9125C32.8172 30.8849 32.8406 30.8636 32.8682 30.8662C32.8952 30.8677 32.9166 30.8912 32.915 30.9182C32.914 30.9354 32.8968 31.3383 33.2939 31.4007C33.7004 31.4652 33.8399 31.2586 33.8456 31.2498C33.8607 31.2269 33.8909 31.2201 33.9143 31.2347C33.9372 31.2493 33.944 31.2794 33.9294 31.3029C33.9226 31.3133 33.7925 31.5126 33.4428 31.5126ZM31.0517 30.6887C31.0434 30.6518 31.0371 30.6106 31.0345 30.5648C31.0106 30.1937 31.3859 30.1276 31.3895 30.1271C31.4098 30.1235 31.4296 30.1375 31.4327 30.1578C31.4363 30.1781 31.4223 30.1974 31.402 30.201C31.389 30.2031 31.0897 30.2572 31.1095 30.5596C31.1293 30.8698 31.3047 30.938 31.312 30.9411C31.3312 30.9484 31.3411 30.9698 31.3343 30.989C31.3276 31.0083 31.3062 31.0187 31.287 31.0114C31.2781 31.0093 31.11 30.9463 31.0517 30.6887ZM38.2374 30.6887C38.2457 30.6518 38.2519 30.6106 38.2545 30.5648C38.2785 30.1937 37.9032 30.1276 37.8996 30.1271C37.8793 30.1235 37.8595 30.1375 37.8569 30.1578C37.8532 30.1781 37.8673 30.1974 37.8876 30.201C37.9006 30.2031 38.1999 30.2572 38.1801 30.5596C38.1603 30.8698 37.9849 30.938 37.9776 30.9411C37.9584 30.9484 37.9485 30.9698 37.9553 30.989C37.962 31.0083 37.9834 31.0187 38.0026 31.0114C38.0109 31.0093 38.1796 30.9463 38.2374 30.6887Z" fill="#0E0D0D"/>
<path d="M32.7119 31.4173C32.6948 31.4173 32.6781 31.4085 32.6687 31.3923C32.6552 31.3684 32.6635 31.3382 32.687 31.3247L32.9269 31.1873C32.9508 31.1737 32.981 31.1816 32.9945 31.2055C33.0081 31.2294 32.9998 31.2596 32.9763 31.2732L32.7364 31.4106C32.7286 31.4152 32.7203 31.4173 32.7119 31.4173ZM32.9789 31.7161C32.9706 31.7161 32.9623 31.714 32.955 31.7098C32.931 31.6963 32.9222 31.6661 32.9357 31.6422L33.0773 31.3866C33.0908 31.3627 33.121 31.3538 33.145 31.3674C33.1689 31.3809 33.1778 31.4111 33.1642 31.435L33.0227 31.6906C33.0133 31.7067 32.9961 31.7161 32.9789 31.7161ZM33.4661 31.8025C33.4422 31.8025 33.4213 31.7853 33.4172 31.7608L33.3698 31.4777C33.3651 31.4506 33.3833 31.4251 33.4104 31.4204C33.4375 31.4158 33.463 31.434 33.4677 31.461L33.515 31.7442C33.5197 31.7712 33.5015 31.7967 33.4744 31.8014C33.4718 31.802 33.4687 31.8025 33.4661 31.8025Z" fill="#0E0D0D"/>
<path opacity="0.1" d="M36.4392 32.5426C36.7517 32.5426 37.0049 32.2893 37.0049 31.9769C37.0049 31.6644 36.7517 31.4111 36.4392 31.4111C36.1267 31.4111 35.8734 31.6644 35.8734 31.9769C35.8734 32.2893 36.1267 32.5426 36.4392 32.5426Z" fill="#0E0D0D"/>
<path d="M36.9347 30.2317C36.1545 30.1021 35.6928 30.3416 35.5908 30.263C35.4888 30.1844 35.9781 29.8934 36.4418 29.9954C36.905 30.098 37.0851 30.2567 36.9347 30.2317ZM36.0265 31.5126C35.6767 31.5126 35.5466 31.3133 35.5409 31.3034C35.5263 31.28 35.5331 31.2498 35.5565 31.2352C35.5794 31.2206 35.6101 31.2274 35.6247 31.2508C35.6304 31.2591 35.7699 31.4658 36.1764 31.4012C36.5735 31.3388 36.5558 30.9359 36.5553 30.9188C36.5537 30.8917 36.5745 30.8677 36.6021 30.8667C36.6281 30.8646 36.6526 30.886 36.6547 30.913C36.6552 30.9182 36.6791 31.4226 36.1925 31.4996C36.1316 31.5084 36.077 31.5126 36.0265 31.5126Z" fill="#0E0D0D"/>
<path d="M36.7577 31.4173C36.7494 31.4173 36.7411 31.4152 36.7333 31.4106L36.4933 31.2732C36.4694 31.2596 36.4616 31.2294 36.4751 31.2055C36.4887 31.1816 36.5194 31.1737 36.5428 31.1873L36.7827 31.3247C36.8067 31.3382 36.8145 31.3684 36.8009 31.3923C36.7916 31.4085 36.7749 31.4173 36.7577 31.4173ZM36.4902 31.7161C36.4725 31.7161 36.4559 31.7067 36.447 31.6906L36.3055 31.435C36.2919 31.4111 36.3008 31.3809 36.3247 31.3674C36.3487 31.3543 36.3788 31.3627 36.3924 31.3866L36.5339 31.6422C36.5475 31.6661 36.5386 31.6963 36.5147 31.7098C36.5069 31.714 36.4986 31.7161 36.4902 31.7161ZM36.0031 31.8025C36.0005 31.8025 35.9973 31.8025 35.9947 31.802C35.9677 31.7973 35.9494 31.7718 35.9541 31.7447L36.0015 31.4616C36.0062 31.4345 36.0312 31.4163 36.0587 31.421C36.0858 31.4257 36.104 31.4512 36.0993 31.4782L36.052 31.7614C36.0478 31.7853 36.027 31.8025 36.0031 31.8025Z" fill="#0E0D0D"/>
<path d="M34.3811 32.234C34.3811 32.234 34.6112 32.399 34.7351 32.387C34.8589 32.3751 35.089 32.2278 35.089 32.2278C35.089 32.2278 35.0541 32.5744 34.7351 32.5817C34.4722 32.5879 34.3811 32.234 34.3811 32.234Z" fill="#0E0D0D"/>
<path d="M33.9557 33.774C34.0166 33.8688 34.2529 34.1795 34.6984 34.1946C35.2095 34.2118 35.502 33.8141 35.5166 33.7943C35.5 33.7996 35.2252 33.8948 34.7224 33.9234C34.2446 33.9505 33.9927 33.7985 33.9557 33.774Z" fill="#0E0D0D"/>
<path d="M35.4822 33.7485C35.4822 33.7485 35.5551 33.786 35.5353 33.8625C35.5353 33.8625 35.6181 33.7428 35.4822 33.7485ZM33.9864 33.7418C33.8511 33.7361 33.9333 33.8558 33.9333 33.8558C33.9135 33.7793 33.9864 33.7418 33.9864 33.7418Z" fill="#0E0D0D"/>
<path opacity="0.35" d="M35.4523 95.145C35.4523 95.145 38.9941 96.0694 38.9676 98.6114C38.9676 98.6119 39.6629 94.851 35.4523 95.145Z" fill="#E8AD80"/>
<path d="M31.4953 29.9731C31.6015 30.0231 32.364 29.8747 32.6508 28.9524C32.9376 28.0302 33.4929 29.2934 34.0545 28.4913C34.6161 27.6893 34.8966 28.3909 35.4379 28.2306C35.9792 28.0702 35.6383 28.9525 36.3805 28.7521C37.1222 28.5517 37.2637 30.44 37.7243 29.9668C38.185 29.4937 37.525 26.6665 34.4563 26.8071C31.3876 26.9476 30.9816 29.73 31.4953 29.9731Z" fill="#0E0D0D"/>
<path d="M1.01546 39.6049C1.13829 39.3374 1.34804 39.3395 1.34804 39.3395C1.34804 39.3395 1.10602 39.239 1.20856 39.0095C1.30537 38.7925 1.59579 38.7529 1.59579 38.7529C1.59579 38.7529 1.38864 38.6623 1.52188 38.3917C1.6468 38.1367 1.9138 38.1856 1.9138 38.1856C1.9138 38.1856 1.71498 37.9935 1.9138 37.7083C1.97573 37.6198 2.04131 37.5725 2.10273 37.5485C2.10325 37.548 2.10325 37.548 2.10377 37.5475L2.10637 37.547C2.13031 37.5449 2.15478 37.5433 2.17924 37.5433C2.18757 37.5428 2.19589 37.5433 2.2037 37.5433C2.65183 37.5433 3.58243 38.413 3.51112 38.7789C3.46793 39.0012 3.00939 38.9148 2.77934 38.768C2.93288 38.8757 3.2233 39.1037 3.2384 39.2916C3.25922 39.5482 2.4249 39.2541 2.4249 39.2541C2.4249 39.2541 2.94953 39.5862 2.87303 39.8506C2.796 40.115 2.20682 39.7564 2.20682 39.7564C2.20682 39.7564 2.60863 40.0312 2.56803 40.2722C2.53628 40.4616 1.29444 40.0379 1.25852 40.0744C1.11227 39.937 0.951443 39.7439 1.01546 39.6049Z" fill="#FEBEA5"/>
<path d="M3.13898 38.3881L2.98492 38.7498C2.98492 38.7498 3.34977 38.9231 3.45855 38.7836C3.56733 38.6441 3.13898 38.3881 3.13898 38.3881ZM2.87562 38.945L2.73353 39.2781C2.73353 39.2781 3.06976 39.4373 3.16969 39.3088C3.26962 39.1802 2.87562 38.945 2.87562 38.945ZM2.58051 39.5201L2.45977 39.8027C2.45977 39.8027 2.74499 39.938 2.82982 39.8287C2.91518 39.72 2.58051 39.5201 2.58051 39.5201ZM2.26094 39.9073L2.1402 40.1899C2.1402 40.1899 2.42542 40.3253 2.51025 40.216C2.59561 40.1072 2.26094 39.9073 2.26094 39.9073Z" fill="#F4CABA"/>
<path opacity="0.15" d="M36.8937 37.914C36.8088 37.3836 36.6683 36.8652 36.4674 36.3749C36.6183 36.8834 36.7245 37.4055 36.775 37.9306C36.8255 38.4537 36.8161 38.9877 36.6829 39.4827C36.6152 39.7288 36.5106 39.961 36.3701 40.1634C36.2301 40.3664 36.0463 40.5314 35.8402 40.6568C35.6492 40.7708 35.439 40.8489 35.2224 40.903C34.9747 40.7537 34.754 40.8671 34.613 40.9889C34.6124 40.9889 34.6119 40.9889 34.6114 40.9889C34.8852 40.5174 34.4516 40.2597 34.4516 40.2597C34.2221 40.4986 34.2721 40.7838 34.3486 40.9749C34.0535 40.5699 33.7375 40.8364 33.6714 40.9009C33.4575 40.8364 33.2551 40.737 33.0869 40.5897C32.9053 40.4351 32.7606 40.2342 32.6586 40.0068C32.555 39.7799 32.4952 39.529 32.4556 39.2745C32.4171 39.0189 32.4072 38.7571 32.4124 38.4953C32.4161 38.233 32.4379 37.9702 32.4712 37.7084C32.5358 37.1843 32.644 36.6638 32.784 36.1511C32.5883 36.644 32.4457 37.1598 32.3447 37.6865C32.249 38.2132 32.1964 38.7566 32.2552 39.3031C32.2844 39.5753 32.3442 39.8486 32.4535 40.1057C32.5618 40.3623 32.7221 40.6027 32.9324 40.787C33.1416 40.9728 33.3951 41.094 33.6527 41.168C33.8291 41.2153 34.0082 41.2424 34.1872 41.2528C33.8317 41.4724 34.0134 41.8987 34.0134 41.8987C34.3236 41.8576 34.437 41.5999 34.4787 41.3975C34.5281 41.9814 35.0241 41.8716 35.0241 41.8716C35.0559 41.5911 34.9284 41.4173 34.7894 41.3116C34.9445 41.3314 35.0517 41.2694 35.1246 41.1893C35.1558 41.183 35.1865 41.1784 35.2178 41.1711C35.4749 41.1107 35.7289 41.017 35.9589 40.8702C36.1879 40.7245 36.3935 40.5304 36.5465 40.2977C36.7016 40.0666 36.8036 39.8033 36.8682 39.5358C36.9952 38.9965 36.9728 38.4438 36.8937 37.914Z" fill="#FF6600"/>
<path d="M32.7847 36.1505C32.6447 36.6377 32.5365 37.1326 32.4719 37.6313C32.4391 37.88 32.4167 38.1304 32.4131 38.3797C32.4079 38.629 32.4178 38.8778 32.4563 39.1203C32.4953 39.3623 32.5557 39.6007 32.6593 39.8167C32.7613 40.0327 32.906 40.2242 33.0876 40.371C33.2677 40.5204 33.4868 40.6188 33.7169 40.6797C33.949 40.7374 34.1916 40.7588 34.4372 40.7556C34.6839 40.7536 34.9291 40.7322 35.1674 40.6833C35.4043 40.6313 35.6343 40.5527 35.842 40.435C36.0481 40.3164 36.2318 40.1592 36.3718 39.9661C36.5123 39.774 36.617 39.5534 36.6846 39.3186C36.8179 38.8481 36.8272 38.3401 36.7767 37.8426C36.7257 37.3434 36.6196 36.8469 36.4691 36.3634C36.67 36.8297 36.8106 37.3226 36.8954 37.827C36.975 38.3308 36.9969 38.8564 36.8704 39.3686C36.8059 39.6226 36.7039 39.8734 36.5488 40.0931C36.3963 40.3143 36.1907 40.4985 35.9612 40.6375C35.7311 40.7765 35.4766 40.866 35.22 40.9232C34.9624 40.9784 34.7011 41.0029 34.4414 41.007C34.1806 41.0138 33.9147 40.9878 33.6555 40.9212C33.3978 40.8509 33.1444 40.7359 32.9351 40.5589C32.7249 40.384 32.5646 40.155 32.4563 39.9109C32.347 39.6663 32.2872 39.4066 32.258 39.1474C32.1992 38.628 32.2518 38.1117 32.3475 37.6104C32.4464 37.1097 32.589 36.6189 32.7847 36.1505Z" fill="#0E0D0D"/>
<path d="M34.4523 40.0577C34.4523 40.0577 35.0092 40.3721 34.4632 40.9399C34.4632 40.9399 34.0692 40.4366 34.4523 40.0577Z" fill="white"/>
<path d="M35.2606 40.6926C35.2606 40.6926 35.1081 41.3375 34.4507 40.9206C34.4513 40.9206 34.8172 40.3949 35.2606 40.6926Z" fill="white"/>
<path d="M35.0254 41.5894C35.0254 41.5894 34.406 41.7206 34.482 40.917C34.482 40.917 35.0904 41.0403 35.0254 41.5894Z" fill="white"/>
<path d="M34.0141 41.6155C34.0141 41.6155 33.744 41.0149 34.5033 40.8988C34.5033 40.8993 34.5361 41.5499 34.0141 41.6155Z" fill="white"/>
<path d="M33.6591 40.6797C33.6591 40.6797 34.1067 40.2108 34.4643 40.9249C34.4643 40.9249 33.8923 41.1752 33.6591 40.6797Z" fill="white"/>
<path d="M34.4986 40.8842C34.6423 40.6625 34.4799 40.4965 34.4799 40.4965C34.3571 40.6349 34.4289 40.853 34.4539 40.9165C34.291 40.6495 34.0667 40.7796 34.0667 40.7796C34.1515 40.9337 34.3503 40.9347 34.4279 40.929C34.2067 41.0216 34.241 41.2449 34.241 41.2449C34.3909 41.2158 34.4606 41.0523 34.4882 40.9633C34.5018 41.2491 34.7386 41.2688 34.7386 41.2688C34.7474 41.1143 34.6236 41.006 34.5465 40.954C34.7615 41.0143 34.8635 40.828 34.8635 40.828C34.7271 40.7499 34.572 40.8337 34.4986 40.8842Z" fill="#FF6600"/>
<path d="M34.5398 40.9029C34.5476 40.9378 34.5267 40.9727 34.4934 40.981C34.4601 40.9893 34.4268 40.9675 34.419 40.9321C34.4112 40.8972 34.432 40.8623 34.4653 40.854C34.4986 40.8462 34.5325 40.8681 34.5398 40.9029Z" fill="#F26522"/>
<path d="M10.1268 28.4226C10.9144 28.4226 11.5529 27.7841 11.5529 26.9965C11.5529 26.2089 10.9144 25.5704 10.1268 25.5704C9.33923 25.5704 8.70074 26.2089 8.70074 26.9965C8.70074 27.7841 9.33923 28.4226 10.1268 28.4226Z" fill="#F7F3F0"/>
</svg>
