<svg width="124" height="124" viewBox="0 0 124 124" fill="none" xmlns="http://www.w3.org/2000/svg">
<path d="M108.5 3.875H63.9375C60.7273 3.875 58.125 6.47734 58.125 9.6875V50.375C58.125 53.5852 60.7273 56.1875 63.9375 56.1875H108.5C111.71 56.1875 114.312 53.5852 114.312 50.375V9.6875C114.312 6.47734 111.71 3.875 108.5 3.875Z" fill="#F7F3F0"/>
<path d="M114.312 9.6875V13.5625H58.125V9.6875C58.125 8.14593 58.7374 6.6675 59.8274 5.57744C60.9175 4.48739 62.3959 3.875 63.9375 3.875H108.5C110.042 3.875 111.52 4.48739 112.61 5.57744C113.7 6.6675 114.312 8.14593 114.312 9.6875Z" fill="#FF6600"/>
<path d="M104.625 63.9375C113.185 63.9375 120.125 56.9979 120.125 48.4375C120.125 39.8771 113.185 32.9375 104.625 32.9375C96.0646 32.9375 89.125 39.8771 89.125 48.4375C89.125 56.9979 96.0646 63.9375 104.625 63.9375Z" fill="#F7F3F0"/>
<path d="M3.875 112.375V87.1875C3.875 85.1321 4.69152 83.1608 6.14492 81.7074C7.59833 80.254 9.56957 79.4375 11.625 79.4375H31C33.0554 79.4375 35.0267 80.254 36.4801 81.7074C37.9335 83.1608 38.75 85.1321 38.75 87.1875V112.375H3.875Z" fill="#F7F3F0"/>
<path d="M21.3125 77.5C26.1277 77.5 30.0312 73.5965 30.0312 68.7812C30.0312 63.966 26.1277 60.0625 21.3125 60.0625C16.4973 60.0625 12.5938 63.966 12.5938 68.7812C12.5938 73.5965 16.4973 77.5 21.3125 77.5Z" fill="#F7F3F0"/>
<path d="M38.75 120.125C45.1703 120.125 50.375 114.92 50.375 108.5C50.375 102.08 45.1703 96.875 38.75 96.875C32.3297 96.875 27.125 102.08 27.125 108.5C27.125 114.92 32.3297 120.125 38.75 120.125Z" fill="#F7F3F0"/>
<path d="M39.2712 23.3043L35.4369 12.3284L46.5 14.6224L39.2712 23.3043Z" fill="#FF6600"/>
<path d="M70.2305 105.739L72.7648 117.085L62.0426 113.524L70.2305 105.739Z" fill="#FF6600"/>
<path d="M3.875 114.313H26.5147C27.5185 116.43 29.0543 118.252 30.9722 119.599C32.89 120.946 35.1244 121.772 37.4572 121.998C39.7899 122.223 42.1413 121.84 44.2817 120.885C46.4221 119.931 48.2784 118.438 49.6693 116.551C51.0603 114.665 51.9383 112.45 52.2176 110.123C52.497 107.796 52.1682 105.437 51.2633 103.275C50.3584 101.113 48.9084 99.2228 47.0548 97.7887C45.2012 96.3546 43.0073 95.4256 40.6875 95.0926V87.1876C40.6844 84.6192 39.6628 82.157 37.8467 80.3409C36.0306 78.5248 33.5683 77.5031 31 77.5001H27.4195C29.278 76.2016 30.674 74.3442 31.4044 72.1978C32.1349 70.0515 32.1617 67.7281 31.4811 65.5655C30.8004 63.4029 29.4478 61.5137 27.6197 60.1726C25.7917 58.8315 23.5836 58.1084 21.3164 58.1084C19.0492 58.1084 16.841 58.8315 15.013 60.1726C13.185 61.5137 11.8323 63.4029 11.1517 65.5655C10.471 67.7281 10.4979 70.0515 11.2283 72.1978C11.9588 74.3442 13.3547 76.2016 15.2133 77.5001H11.625C9.05666 77.5031 6.59439 78.5248 4.7783 80.3409C2.96221 82.157 1.94058 84.6192 1.9375 87.1876V112.375C1.9375 112.889 2.14163 113.382 2.50498 113.745C2.86833 114.108 3.36114 114.313 3.875 114.313ZM38.75 98.8126C40.666 98.8126 42.539 99.3807 44.1321 100.445C45.7252 101.51 46.9669 103.023 47.7001 104.793C48.4333 106.563 48.6252 108.511 48.2514 110.39C47.8776 112.269 46.9549 113.995 45.6001 115.35C44.2453 116.705 42.5191 117.628 40.6399 118.001C38.7607 118.375 36.8129 118.183 35.0428 117.45C33.2726 116.717 31.7596 115.475 30.6951 113.882C29.6307 112.289 29.0625 110.416 29.0625 108.5C29.0656 105.932 30.0872 103.469 31.9033 101.653C33.7194 99.8373 36.1817 98.8156 38.75 98.8126ZM14.5312 68.7813C14.5312 67.4401 14.929 66.129 15.6741 65.0139C16.4192 63.8987 17.4783 63.0295 18.7174 62.5163C19.9565 62.003 21.32 61.8687 22.6355 62.1304C23.9509 62.392 25.1592 63.0379 26.1076 63.9862C27.0559 64.9346 27.7018 66.1429 27.9635 67.4584C28.2251 68.7738 28.0908 70.1373 27.5776 71.3764C27.0643 72.6155 26.1951 73.6746 25.08 74.4197C23.9648 75.1649 22.6537 75.5626 21.3125 75.5626C19.514 75.5626 17.7892 74.8481 16.5174 73.5764C15.2457 72.3046 14.5312 70.5798 14.5312 68.7813ZM5.8125 87.1876C5.8125 85.646 6.42489 84.1676 7.51494 83.0775C8.605 81.9875 10.0834 81.3751 11.625 81.3751H31C32.5416 81.3751 34.02 81.9875 35.1101 83.0775C36.2001 84.1676 36.8125 85.646 36.8125 87.1876V95.0926C35.0453 95.3323 33.3436 95.9216 31.8066 96.826C30.2696 97.7305 28.9281 98.9319 27.8604 100.36C26.7927 101.789 26.0201 103.416 25.5878 105.146C25.1555 106.876 25.0721 108.675 25.3425 110.438H5.8125V87.1876Z" fill="#FF6600"/>
<path d="M34.9738 114.216C35.3372 114.579 35.8299 114.783 36.3436 114.783C36.8574 114.783 37.3501 114.579 37.7134 114.216L45.9323 105.995L43.1927 103.255L36.3436 110.106L33.6021 107.365L30.8624 110.104L34.9738 114.216ZM63.9375 58.125H90.1325C91.5053 60.1811 93.2999 61.9215 95.3972 63.2305C97.4945 64.5395 99.8463 65.3872 102.296 65.7172C104.747 66.0472 107.239 65.8519 109.608 65.1444C111.977 64.4369 114.168 63.2333 116.036 61.6136C117.903 59.994 119.405 57.9953 120.441 55.7505C121.477 53.5057 122.023 51.0662 122.043 48.594C122.064 46.1218 121.557 43.6736 120.559 41.4122C119.56 39.1507 118.091 37.1277 116.25 35.4776V9.6875C116.25 7.63207 115.433 5.66083 113.98 4.20742C112.527 2.75402 110.555 1.9375 108.5 1.9375H63.9375C61.8821 1.9375 59.9108 2.75402 58.4574 4.20742C57.004 5.66083 56.1875 7.63207 56.1875 9.6875V50.375C56.1875 52.4304 57.004 54.4017 58.4574 55.8551C59.9108 57.3085 61.8821 58.125 63.9375 58.125ZM118.188 48.4375C118.188 51.1199 117.392 53.7421 115.902 55.9724C114.412 58.2028 112.293 59.9411 109.815 60.9676C107.337 61.9941 104.61 62.2627 101.979 61.7394C99.3482 61.2161 96.9316 59.9244 95.0349 58.0276C93.1381 56.1309 91.8464 53.7143 91.3231 51.0834C90.7998 48.4525 91.0684 45.7256 92.0949 43.2474C93.1214 40.7691 94.8597 38.651 97.0901 37.1607C99.3204 35.6704 101.943 34.875 104.625 34.875C108.221 34.8791 111.668 36.3093 114.211 38.8519C116.753 41.3945 118.183 44.8418 118.188 48.4375ZM60.0625 9.6875C60.0625 8.65979 60.4708 7.67416 61.1975 6.94746C61.9242 6.22076 62.9098 5.8125 63.9375 5.8125H108.5C109.528 5.8125 110.513 6.22076 111.24 6.94746C111.967 7.67416 112.375 8.65979 112.375 9.6875V11.625H60.0625V9.6875ZM60.0625 15.5H112.375V32.8406C109.97 31.6321 107.316 31.0018 104.625 31C101.833 30.9922 99.0805 31.6567 96.5997 32.9373C94.1189 34.218 91.983 36.0771 90.3724 38.3575C88.7618 40.638 87.724 43.2727 87.3467 46.0389C86.9694 48.8051 87.2637 51.6215 88.2047 54.25H63.9375C62.9098 54.25 61.9242 53.8417 61.1975 53.115C60.4708 52.3883 60.0625 51.4027 60.0625 50.375V15.5Z" fill="#FF6600"/>
<path d="M83.3125 23.25H77.5V27.125H83.3125V23.25Z" fill="#FF6600"/>
<path d="M94.9375 23.25H89.125V27.125H94.9375V23.25Z" fill="#FF6600"/>
<path d="M106.562 23.25H100.75V27.125H106.562V23.25Z" fill="#FF6600"/>
<path d="M102.688 38.75V40.7863C101.512 41.0274 100.469 41.6959 99.7581 42.6624C99.0476 43.6289 98.7211 44.8247 98.8417 46.0181C98.9622 47.2116 99.5214 48.3179 100.411 49.1228C101.3 49.9276 102.457 50.3739 103.656 50.375H105.594C105.851 50.375 106.097 50.4771 106.279 50.6587C106.46 50.8404 106.562 51.0868 106.562 51.3438C106.562 51.6007 106.46 51.8471 106.279 52.0288C106.097 52.2104 105.851 52.3125 105.594 52.3125H103.656C103.399 52.3125 103.153 52.2104 102.971 52.0288C102.79 51.8471 102.688 51.6007 102.688 51.3438H98.8125C98.8127 52.46 99.1985 53.542 99.9046 54.4066C100.611 55.2712 101.594 55.8654 102.688 56.0887V58.125H106.562V56.0887C107.738 55.8476 108.781 55.1791 109.492 54.2126C110.202 53.2461 110.529 52.0503 110.408 50.8569C110.288 49.6634 109.729 48.5571 108.839 47.7522C107.95 46.9474 106.793 46.5011 105.594 46.5H103.656C103.399 46.5 103.153 46.3979 102.971 46.2163C102.79 46.0346 102.688 45.7882 102.688 45.5312C102.688 45.2743 102.79 45.0279 102.971 44.8462C103.153 44.6646 103.399 44.5625 103.656 44.5625H105.594C105.851 44.5625 106.097 44.6646 106.279 44.8462C106.46 45.0279 106.562 45.2743 106.562 45.5312H110.438C110.437 44.415 110.051 43.333 109.345 42.4684C108.639 41.6038 107.656 41.0096 106.562 40.7863V38.75H102.688Z" fill="#FF6600"/>
<path d="M83.3125 32.9375H77.5V36.8125H83.3125V32.9375Z" fill="#FF6600"/>
<path d="M71.6875 32.9375H65.875V36.8125H71.6875V32.9375Z" fill="#FF6600"/>
<path d="M83.3125 42.625H77.5V46.5H83.3125V42.625Z" fill="#FF6600"/>
<path d="M71.6875 42.625H65.875V46.5H71.6875V42.625Z" fill="#FF6600"/>
<path d="M36.3785 20.8978L37.4403 23.9416C37.5533 24.2659 37.7505 24.5542 38.0116 24.7772C38.2727 25.0002 38.5884 25.1498 38.9263 25.2107C39.0402 25.2308 39.1556 25.2412 39.2712 25.2417C39.5552 25.2416 39.8357 25.179 40.0928 25.0585C40.3499 24.938 40.5774 24.7624 40.7592 24.5442L47.9899 15.8622C48.204 15.6047 48.3477 15.296 48.4069 14.9664C48.4661 14.6367 48.4389 14.2973 48.3278 13.9814C48.2168 13.6654 48.0257 13.3836 47.7733 13.1635C47.5209 12.9434 47.2157 12.7924 46.8875 12.7254L35.8244 10.4314C35.4886 10.3618 35.1405 10.3826 34.8154 10.4916C34.4903 10.6006 34.1999 10.7939 33.9739 11.0517C33.748 11.3096 33.5945 11.6228 33.5292 11.9594C33.4638 12.296 33.489 12.6439 33.6021 12.9676L35.0688 17.1662C29.092 20.7556 23.8926 25.5029 19.7759 31.1295C15.6592 36.756 12.7081 43.1484 11.0961 49.9313L14.8684 50.8186C17.8183 38.4015 25.5479 27.6495 36.3785 20.8978ZM42.9447 15.8603L39.9706 19.435L38.3935 14.9187L42.9447 15.8603ZM112.904 74.0686L109.132 73.1812C107.051 81.9484 102.565 89.9609 96.1779 96.317C89.791 102.673 81.757 107.12 72.9798 109.159L72.1215 105.317C72.0466 104.982 71.8842 104.673 71.6511 104.422C71.4179 104.171 71.1222 103.986 70.7942 103.886C70.4663 103.787 70.1177 103.776 69.7841 103.855C69.4506 103.934 69.144 104.1 68.8956 104.336L60.7077 112.121C60.4656 112.352 60.2873 112.641 60.1901 112.961C60.0929 113.281 60.0801 113.621 60.1531 113.947C60.226 114.273 60.3822 114.575 60.6063 114.823C60.8305 115.071 61.1151 115.257 61.4323 115.363L72.1544 118.924C72.352 118.989 72.5587 119.022 72.7667 119.022C73.0571 119.022 73.3437 118.957 73.6053 118.831C73.867 118.705 74.097 118.522 74.2783 118.295C74.4597 118.068 74.5878 117.804 74.6531 117.521C74.7184 117.238 74.7194 116.944 74.6558 116.661L73.8188 112.939C83.3074 110.743 91.9941 105.941 98.8998 99.0728C105.806 92.205 110.656 83.545 112.904 74.0686ZM65.7181 112.702L69.0854 109.502L70.1278 114.167L65.7181 112.702Z" fill="#FF6600"/>
</svg>
