<svg width="75" height="130" viewBox="0 0 75 130" fill="none" xmlns="http://www.w3.org/2000/svg">
<path d="M12.4875 37.1009C12.4875 37.1009 11.1241 40.0446 11.8677 42.2447C11.8677 42.2447 10.0189 42.3996 9.93626 41.6249C9.85363 40.8503 10.6489 35.469 10.6489 35.469L12.4875 37.1009Z" fill="#F59481"/>
<path d="M14.6049 25.3366C14.6049 25.3366 17.2078 28.8071 16.65 33.0832C16.0923 37.3593 13.1692 38.7743 11.4546 36.8738C9.74007 34.9733 7.43675 34.6015 8.25273 31.8747C9.07903 29.1479 7.35412 24.1694 14.6049 25.3366Z" fill="#FFA58D"/>
<path d="M18.034 27.96C17.8998 28.1356 17.7655 28.2802 17.6519 28.4041C16.7016 29.3957 16.2988 28.9825 16.2988 28.9825C16.2988 28.9825 15.5035 26.1731 14.1401 26.5243C12.7767 26.8755 12.9626 28.7863 12.3532 29.4473C11.7438 30.1084 9.57477 29.3337 9.14096 30.8624C8.70715 32.391 9.76069 34.8493 10.5767 36.0474C10.9175 36.5432 10.9588 37.3901 10.7626 38.1545C10.4837 39.2183 9.75036 40.1273 8.73814 39.7451C6.99257 39.0944 5.26767 36.4399 6.02167 33.8061C6.77567 31.1722 5.45359 30.8417 5.19537 30.4492C4.93715 30.067 4.51367 26.5863 7.29211 26.5656C10.0705 26.5449 9.06866 22.1862 11.6818 23.0951C14.295 24.0041 12.8077 24.9336 15.3486 24.2623C17.9101 23.5702 19.2632 26.4107 18.034 27.96Z" fill="#0E0D0D"/>
<path d="M16.65 30.666C16.65 30.666 17.1354 34.56 17.466 35.0867C17.466 35.0867 15.927 35.2313 15.8753 34.436C15.8237 33.6407 16.65 30.666 16.65 30.666ZM15.0284 36.5534C15.018 36.5534 15.0077 36.5534 14.9871 36.5534C14.8941 36.5328 12.756 36.0886 12.4978 34.6013C12.4772 34.498 12.5495 34.405 12.6528 34.3844C12.756 34.3637 12.849 34.436 12.8697 34.5393C13.0866 35.7684 15.049 36.1816 15.0697 36.1919C15.173 36.2126 15.2349 36.3055 15.2143 36.4088C15.1936 36.4915 15.111 36.5534 15.0284 36.5534Z" fill="#FF888D"/>
<path d="M14.2434 30.7901C14.2537 31.007 14.2537 31.2239 14.233 31.4511C14.2124 31.6164 14.388 31.761 14.5429 31.761C14.7288 31.761 14.8321 31.6164 14.8528 31.4511C14.8734 31.2342 14.8838 31.0173 14.8631 30.7901C14.8528 30.6248 14.7288 30.4802 14.5533 30.4802C14.3983 30.4802 14.2331 30.6248 14.2434 30.7901Z" fill="#671C54"/>
<path d="M13.3654 30.346C13.3241 30.346 13.2725 30.3253 13.2415 30.2943C13.1692 30.222 13.1589 30.1084 13.2312 30.0361C14.2537 28.9412 15.4209 29.6643 15.4312 29.6746C15.5138 29.7262 15.5448 29.8398 15.4828 29.9328C15.4312 30.0154 15.3176 30.0464 15.2246 29.9844C15.1833 29.9638 14.3054 29.4164 13.4894 30.284C13.4687 30.3253 13.4171 30.346 13.3654 30.346Z" fill="#E0392B"/>
<path d="M17.6519 28.4041C16.7016 29.3956 16.2988 28.9825 16.2988 28.9825C16.2988 28.9825 15.5035 26.1731 14.1401 26.5242C12.7767 26.8754 12.9626 28.7862 12.3532 29.4473C11.7438 30.1083 9.57478 29.3337 9.14098 30.8623C8.70717 32.391 9.7607 34.8492 10.5767 36.0474C10.9175 36.5432 10.9588 37.3901 10.7626 38.1544C9.9053 37.545 9.30624 36.791 9.18229 36.6361C7.19917 34.0952 7.32311 30.1187 8.78979 29.251C9.69873 28.7139 10.6903 29.6332 11.5269 28.9722C12.5185 28.1872 11.5786 26.5242 12.5288 25.6153C13.4377 24.758 15.5861 25.0266 16.7223 26.1731C17.1045 26.5139 17.5176 27.0923 17.6519 28.4041Z" fill="#0E0D0D"/>
<path d="M14.0058 33.744C13.9542 33.7543 14.0885 33.744 14.0885 33.744C14.1401 33.744 14.1918 33.744 14.2434 33.7543C14.1814 33.744 14.3363 33.775 14.326 33.7647C14.3777 33.775 14.419 33.7853 14.4706 33.806C14.6875 33.8783 14.9561 33.7233 15.0077 33.5064C15.0594 33.2689 14.9354 33.052 14.7082 32.9693C14.3983 32.8764 14.0988 32.8661 13.7889 32.9074C13.5617 32.9384 13.4171 33.2379 13.4894 33.4445C13.5514 33.682 13.7579 33.775 14.0058 33.744Z" fill="#FF988D"/>
<path d="M8.80012 108.431C9.20294 108.431 9.20294 107.812 8.80012 107.812C8.40762 107.812 8.3973 108.431 8.80012 108.431Z" fill="#FFA58D"/>
<path d="M8.80012 108.431C9.20294 108.431 9.20294 107.812 8.80012 107.812C8.40762 107.812 8.3973 108.431 8.80012 108.431Z" fill="#FFA58D"/>
<path d="M9.76064 119.07C9.76064 119.07 10.7935 121.508 9.98787 123.873C9.18222 126.238 9.10993 127.457 12.6424 127.065C16.1748 126.672 21.866 127.023 21.8866 126.631C21.9073 126.238 21.0087 125.174 19.3044 125.071C17.6002 124.968 13.3654 124.524 13.2931 123.687C13.2208 122.85 13.2828 118.905 13.2828 118.905L9.76064 119.07Z" fill="#F59481"/>
<path d="M10.2254 122.881C10.2254 122.881 8.0977 126.755 8.84137 126.982C9.59537 127.209 22.6613 127.364 22.7336 127.023C23.1674 125.092 21.081 124.999 20.0791 124.761C20.0791 124.761 19.7486 125.98 19.0875 126.125C18.4265 126.269 12.0433 126.218 11.7334 126.073C10.5766 125.515 10.2254 122.881 10.2254 122.881Z" fill="#F31C00"/>
<path d="M18.8397 68.0047L12.0743 65.97C12.0743 65.97 7.76723 66.2385 7.2198 70.5456C6.67238 74.8527 8.1907 90.8727 8.1907 90.8727C8.1907 90.8727 6.78599 111.479 8.3353 120.206C8.3353 120.206 14.0161 121.756 14.9457 116.591L18.8397 68.0047Z" fill="#0E0D0D"/>
<path d="M25.3364 121.942C25.3364 121.942 25.9148 123.873 25.5843 124.999C25.2434 126.135 24.4894 127.623 25.9355 127.736C27.3815 127.84 32.7215 129.513 33.2172 129.399C33.713 129.286 37.638 128.201 37.7619 127.943C37.8859 127.685 36.2952 126.765 34.9938 127.065C33.6924 127.364 29.6022 126.507 29.1994 125.96C28.7965 125.412 28.528 121.653 28.528 121.653L25.3364 121.942Z" fill="#F59481"/>
<path d="M34.8388 126.6C34.8388 126.6 33.6923 127.085 33.4858 127.85C33.2792 128.604 33.2792 128.604 33.2792 128.604C33.2792 128.604 25.7392 127.499 25.512 126.714C25.2847 125.929 25.6772 124.369 25.6772 124.369C25.6772 124.369 23.9936 126.693 24.0762 127.034C24.1589 127.375 24.1072 127.385 25.4087 127.85C26.7101 128.314 33.3515 129.719 33.62 129.668C33.8783 129.606 38.0201 128.655 38.1957 128.253C38.3816 127.85 37.8755 126.858 34.8388 126.6Z" fill="#F31C00"/>
<path d="M25.5843 93.1451C24.3551 87.6708 24.0763 87.8567 16.7945 68.0978L9.69861 68.6659C10.8348 66.0011 6.12485 72.911 9.31644 80.7299C10.9587 84.7478 18.9842 94.9939 18.9842 94.9939H19.0565C19.3147 98.4644 20.7091 115.848 23.1673 123.429C23.1673 123.429 29.0031 124.193 29.7055 121.322C29.7055 121.312 26.989 99.456 25.5843 93.1451Z" fill="#FF6600"/>
<path d="M12.7457 43.0813C12.7457 43.0813 21.4425 51.7265 20.6885 51.8814C19.9345 52.0363 14.4809 52.6974 14.4809 52.6974L12.7457 43.0813Z" fill="#F59481"/>
<path d="M16.2988 51.4166C16.2988 51.4166 18.158 68.5107 18.9946 70.4319C19.5937 71.8056 27.0304 71.7746 31.0689 69.6572C31.5441 69.4093 31.823 68.8929 31.761 68.3558L29.6952 50.6626L16.2988 51.4166Z" fill="#FF6600"/>
<path d="M16.2988 51.4168C16.2988 51.4168 23.1778 55.3004 29.6849 50.6628C29.6849 50.6628 25.2435 49.1444 16.2988 51.4168Z" fill="#51121B"/>
<path d="M17.2697 15.5035C17.2387 15.5138 17.1354 15.5448 16.9702 15.5861C15.9889 15.834 12.7251 16.4537 9.64708 14.5842C9.51281 14.5016 9.37853 14.419 9.24426 14.326C8.20105 13.6133 7.19915 12.6011 6.32121 11.1861C6.29022 11.1344 6.25923 11.0828 6.21792 11.0208C6.1766 10.9485 6.13529 10.8865 6.09398 10.8142C5.5259 9.81234 5.01978 8.88275 4.56532 8.03579C4.53433 7.98414 4.51368 7.94283 4.49302 7.89119C3.75968 6.50713 3.18126 5.31932 2.69581 4.32776C2.67515 4.27611 2.64416 4.22447 2.62351 4.18316C1.39438 1.63195 0.805645 0.330521 0 0C0.0206576 0.0103288 0.113614 0.0413145 0.268546 0.0929584C0.423477 0.154931 0.640379 0.227231 0.898599 0.330519C1.73523 0.640382 3.05732 1.15682 4.4517 1.75589C4.51367 1.77655 4.56532 1.80753 4.62729 1.82819C5.50524 2.21036 6.41417 2.62351 7.24047 3.04699C7.30244 3.07798 7.35408 3.10896 7.41606 3.13995C7.82921 3.34652 8.22171 3.56343 8.57289 3.78033C9.25459 4.18315 10.0602 4.65828 10.9072 5.19537C10.9692 5.23669 11.0415 5.27801 11.1138 5.31932C12.6114 6.26957 14.1917 7.38508 15.3899 8.56256C15.4519 8.62453 15.5242 8.69683 15.5861 8.7588C16.557 9.76069 17.2387 10.8142 17.3214 11.8471C17.3937 12.4875 17.8585 14.9044 17.2697 15.5035ZM42.1104 10.2565C42.1104 10.2565 42.1104 10.3081 42.1001 10.4114C42.0588 10.9072 41.8935 12.4772 41.4494 14.295C41.4391 14.357 41.4184 14.4086 41.4081 14.4706C41.2325 15.173 41.0052 15.9166 40.7264 16.6397C40.7057 16.6913 40.6851 16.7533 40.6644 16.8049C40.4991 17.2284 40.3132 17.6416 40.1066 18.0444C40.0653 18.1167 40.0343 18.189 39.993 18.2613C39.5592 19.0566 39.0428 19.7693 38.4127 20.327C38.3714 20.3683 38.3301 20.4097 38.2785 20.4406C37.9376 20.7299 37.5658 20.9674 37.1629 21.1533C33.0004 23.0125 30.5732 21.4839 27.5778 23.6013C27.4229 23.7149 27.2576 23.8388 27.1027 23.9628C27.1027 23.9628 27.0924 23.9008 27.0924 23.7872C27.0511 22.9505 27.0614 19.2838 29.6333 16.619C29.7056 16.5467 29.7882 16.4641 29.8605 16.3918C30.3666 15.9063 30.976 15.4519 31.6887 15.0594C31.7403 15.0284 31.792 15.0077 31.8436 14.9767C32.0399 14.8734 32.2361 14.7805 32.453 14.6875C33.4859 14.2434 34.4258 13.8509 35.2831 13.4997C35.3347 13.4791 35.3864 13.4584 35.4484 13.4377C36.192 13.1382 36.8634 12.8697 37.4831 12.6321C37.5348 12.6114 37.5864 12.5908 37.6277 12.5701C39.5179 11.8264 40.7883 11.3203 41.5217 10.8349C41.7799 10.6283 41.9865 10.4527 42.1104 10.2565Z" fill="#006D23"/>
<path d="M23.3844 40.9433C24.0454 38.7743 24.3553 36.0062 24.2933 32.9902C24.2933 32.9592 24.2933 32.9282 24.2933 32.8972C24.283 32.6183 24.283 32.3394 24.2623 32.0606C24.2417 31.4925 24.2003 30.9244 24.1487 30.346C24.0867 29.592 23.9938 28.838 23.8905 28.0737C23.2707 23.7046 22.0416 20.0069 20.7609 18.6538C19.9655 17.8172 18.7054 16.7223 17.2594 15.5139C16.8669 15.1833 16.4641 14.8528 16.0509 14.512C16.0096 14.481 15.9889 14.4293 15.9889 14.3674C16.0612 13.5721 16.2059 10.9899 15.6068 8.7795C15.5965 8.74852 15.5861 8.72786 15.5655 8.7072C15.5138 8.65556 15.4622 8.59358 15.4002 8.54194C16.0199 10.5457 15.9476 12.9523 15.8753 14.0265C15.865 14.1608 15.7101 14.2331 15.6068 14.1401C15.4312 13.9955 15.2453 13.8509 15.0697 13.696C14.0678 12.8697 13.0453 12.0331 12.095 11.2378C12.0537 11.2068 12.033 11.1551 12.033 11.0931C12.1053 10.3288 12.2189 7.82925 11.1344 5.34002C11.1241 5.30903 11.0931 5.27805 11.0725 5.26772C11.0208 5.23673 10.9692 5.19542 10.9175 5.16443C11.9607 7.40578 11.9814 9.70909 11.9297 10.742C11.9194 10.8762 11.7645 10.9485 11.6612 10.8556C10.1945 9.6058 8.94472 8.46964 8.23204 7.60202C8.21138 7.58136 8.19073 7.55038 8.17007 7.52972C8.14941 7.49873 8.12875 7.45742 8.12875 7.42643C8.12875 6.76539 8.06678 4.79259 7.44705 3.17097C7.43672 3.12966 7.40573 3.09867 7.36442 3.07802C7.3231 3.05736 7.28179 3.0367 7.24048 3.01604C7.77757 4.3278 7.9325 5.92876 7.97382 6.86868C7.98415 7.02361 7.78791 7.10624 7.68462 6.98229C6.94095 6.13533 6.07333 5.23673 5.19538 4.35878C5.1644 4.3278 5.15407 4.29681 5.14374 4.2555C5.09209 3.80103 4.93716 2.65454 4.64796 1.85922C4.6273 1.81791 4.59631 1.78692 4.555 1.76626C4.51368 1.75593 4.4827 1.73527 4.44138 1.72495C4.67894 2.27237 4.8442 3.08834 4.92683 3.68741C4.94749 3.84235 4.76157 3.94563 4.64796 3.83202C3.2639 2.46862 1.87984 1.19818 0.877954 0.299576C0.619734 0.196288 0.402826 0.123984 0.247894 0.0620117C1.27044 0.981273 2.93338 2.48928 4.59631 4.12122C4.70993 4.22451 4.6273 4.41043 4.47237 4.4001C3.85264 4.35878 3.047 4.22451 2.61319 4.15221C2.62352 4.17287 2.63384 4.20385 2.64417 4.22451C2.66483 4.27615 2.71647 4.30714 2.76812 4.31747C3.32587 4.41043 4.23481 4.55503 4.80289 4.55503C4.85453 4.55503 4.90617 4.55503 4.94749 4.55503C4.9888 4.55503 5.04045 4.57569 5.07143 4.60667C6.05267 5.58791 7.00292 6.57947 7.78791 7.50906C7.86021 7.59169 7.82921 7.72597 7.72593 7.76728C6.95127 8.07714 5.17472 7.94287 4.47237 7.8809C4.4827 7.90156 4.49302 7.92221 4.50335 7.94287C4.53434 7.99452 4.57565 8.0255 4.63762 8.0255C5.00946 8.05649 5.54656 8.0978 6.09399 8.0978C6.86864 8.0978 7.65363 8.0255 8.01514 7.76728C8.01514 7.76728 8.01514 7.76728 8.01514 7.77761C8.75881 8.67621 10.0809 9.86402 11.5992 11.1654C11.6922 11.2481 11.6715 11.403 11.5476 11.4443C10.1325 11.9608 7.16818 11.2687 6.18695 11.0105C6.21793 11.0622 6.24892 11.1241 6.29024 11.1758C7.09588 11.3824 8.77947 11.7645 10.1842 11.7645C10.8246 11.7645 11.403 11.6819 11.8161 11.4753C11.8781 11.4443 11.9401 11.4547 11.9917 11.496C12.9213 12.281 13.9129 13.0969 14.8838 13.8922C15.0697 14.0369 15.2453 14.1918 15.4312 14.3364C15.5448 14.4293 15.4932 14.6049 15.3486 14.6256C14.2537 14.8115 11.5682 15.1214 9.20295 14.3157C9.33722 14.4087 9.4715 14.4913 9.60577 14.5739C10.6696 14.8735 11.7645 14.9664 12.7457 14.9664C14.2021 14.9664 15.3796 14.7599 15.7514 14.6772C15.803 14.6669 15.8547 14.6772 15.8857 14.7082C16.2368 14.9974 16.588 15.2866 16.9185 15.5655C18.4162 16.8153 19.728 17.9411 20.5336 18.7984C22.1862 20.5337 23.7252 26.3384 23.9628 32.1845C23.9731 32.3911 23.9834 32.5873 23.9834 32.7939C24.0557 35.6653 23.8078 38.5057 23.0952 40.8504C20.8745 48.1528 23.5806 51.458 23.6942 51.6026C23.7149 51.6336 23.7562 51.6439 23.7872 51.6439C23.8182 51.6439 23.8492 51.6336 23.8698 51.6129C23.9215 51.5716 23.9318 51.489 23.8801 51.4374C23.9111 51.427 21.205 48.1115 23.3844 40.9433Z" fill="#549208"/>
<path d="M42.1104 10.2566C41.9865 10.4528 41.7903 10.6284 41.5217 10.8143C40.6954 11.9608 39.4043 13.5928 37.6381 15.3384C37.5451 15.4313 37.3799 15.39 37.3385 15.2557C37.1526 14.6153 37.4315 13.2726 37.6277 12.5496C37.6071 12.5599 37.5864 12.5702 37.5658 12.5702C37.5141 12.5909 37.4728 12.6322 37.4522 12.6942C37.2662 13.4069 36.9461 14.8736 37.2869 15.4726C37.3282 15.5449 37.3179 15.6276 37.2662 15.6895C36.5226 16.4022 35.7066 17.1252 34.808 17.8379C34.6944 17.9309 34.5188 17.8482 34.5188 17.7036C34.4465 16.3093 35.3451 13.7167 35.4484 13.4172C35.4174 13.4275 35.3967 13.4379 35.3658 13.4482C35.3141 13.4688 35.2831 13.5102 35.2625 13.5515C35.0042 14.3055 34.1986 16.8154 34.4258 18.0135C34.4362 18.0755 34.4052 18.1478 34.3535 18.1891C33.4239 18.9121 32.4117 19.6145 31.3169 20.2755C31.2032 20.2239 31.1619 20.2135 31.0483 20.1619C30.8314 19.1187 31.6371 15.7722 31.8436 14.9459C31.8126 14.9562 31.792 14.9768 31.761 14.9872C31.7197 15.0078 31.6784 15.0491 31.668 15.1008C31.3788 16.2679 30.5732 19.7281 31.007 20.4304C31.007 20.4304 31.0173 20.4408 31.0173 20.4511L31.007 20.4614C30.253 20.9056 29.5816 21.3807 28.9929 21.8765C28.8793 21.9694 28.714 21.8971 28.7037 21.7525C28.5178 20.007 29.4887 17.3215 29.8605 16.3609C29.7882 16.4229 29.7262 16.4952 29.6539 16.5571C29.6333 16.5778 29.6229 16.5985 29.6126 16.6191C29.1478 17.8379 28.2905 20.4408 28.6107 22.0727C28.6211 22.1347 28.6004 22.1967 28.5591 22.2483C28.0013 22.7441 27.5159 23.2502 27.0924 23.7666C25.7083 25.4296 24.9647 27.1338 24.5618 28.4972C24.3656 29.1583 24.2417 29.778 24.159 30.3357C24.0454 31.0897 24.0247 31.7301 24.0247 32.1949V32.2052C24.0247 32.4635 24.0351 32.67 24.0454 32.8043V32.8146C24.0557 32.9179 24.1487 32.9902 24.252 32.9799L24.3036 32.9696H24.314C24.314 32.9696 24.314 32.9386 24.3036 32.8766C24.2933 32.7423 24.2726 32.4428 24.2726 32.04C24.2726 32.04 24.2726 32.04 24.2726 32.0297C24.283 31.224 24.3759 29.9742 24.7994 28.5489C25.2229 27.1132 26.0285 25.3056 27.5779 23.5704C27.991 23.1159 28.4455 22.6511 28.9619 22.2173C28.9826 22.207 29.0032 22.1967 29.0239 22.1863C30.2633 21.7525 35.2315 20.0793 38.1958 20.4201C38.2475 20.4304 38.2888 20.4098 38.3301 20.3788C38.3508 20.3581 38.3817 20.3375 38.4024 20.3168C36.0888 19.976 32.4324 20.9572 30.3253 21.6182C30.1291 21.6802 29.9948 21.4117 30.1704 21.2981C30.4699 21.0915 30.7901 20.8849 31.131 20.6783C31.1826 20.6473 31.2446 20.6164 31.2962 20.575C31.3169 20.5647 31.3375 20.5544 31.3582 20.5544C32.3291 20.3685 37.9893 19.2943 39.9414 18.2614C39.9724 18.2407 39.993 18.2201 40.0137 18.1891C40.0447 18.1374 40.0757 18.0755 40.1067 18.0238C38.8465 18.8295 34.7564 19.7384 32.5873 20.1825C32.3911 20.2239 32.2878 19.9656 32.453 19.852C33.207 19.3562 33.9301 18.8398 34.6014 18.313C34.9939 18.2511 38.2785 17.683 40.5921 16.8154C40.6438 16.7947 40.6747 16.7637 40.6954 16.7121C40.7057 16.6811 40.716 16.6501 40.7264 16.6191C39.0634 17.2698 36.7911 17.7553 35.5207 18.0032C35.3348 18.0342 35.2315 17.8069 35.3761 17.683C36.2024 17.0013 36.9667 16.3093 37.6587 15.6379C37.6794 15.6172 37.7104 15.5966 37.7517 15.5862C38.4127 15.4623 40.1583 15.0905 41.3461 14.4707C41.3874 14.4501 41.4287 14.4088 41.4391 14.3571C41.4494 14.3261 41.4494 14.2951 41.4597 14.2642C40.5921 14.7496 39.332 15.1008 38.454 15.3074C38.2785 15.3487 38.1648 15.1318 38.2888 15.0078C40.1067 13.1383 41.3771 11.4444 42.1104 10.3909C42.1001 10.3082 42.1104 10.2566 42.1104 10.2566Z" fill="#549208"/>
<path d="M15.3279 79.8415L15.5035 79.7795C15.4002 79.8415 15.3279 79.8415 15.3279 79.8415Z" fill="#1A8124"/>
<path d="M20.7196 71.6196C21.0811 72.1051 20.9468 72.7971 20.4097 73.0966C19.5318 73.5924 18.1374 74.2535 16.4125 74.6356C13.789 75.214 10.4114 75.1521 6.94097 72.89C6.60012 72.6731 6.42453 72.2703 6.4865 71.8778C6.67242 70.7726 7.03393 68.2318 7.14755 64.2862C7.26116 59.9274 7.79827 50.6005 8.3147 43.3704C8.37668 42.4821 8.70719 41.6455 9.22363 40.9225C9.36823 40.7159 9.49218 40.468 9.53349 40.1685C9.56448 39.9412 9.52317 39.714 9.40955 39.5178C9.28561 39.3009 9.17199 39.0117 9.55416 39.0943C9.97764 39.1769 11.0725 39.5901 11.9195 39.8173C12.25 39.9103 12.5392 39.9619 12.7458 39.9619C13.4481 39.9619 13.3242 40.3131 13.0143 40.5093C12.7044 40.7056 12.25 41.1497 12.7148 42.1929C12.7354 42.2342 12.7561 42.2859 12.7664 42.3375C13.0453 43.3394 16.0923 54.5048 18.5815 66.5275C19.1186 69.12 20.0585 70.7417 20.7196 71.6196Z" fill="#863906"/>
<path d="M16.4125 74.6356C16.4848 72.7041 16.1646 71.8468 14.3467 66.3003C9.9983 53.0381 7.64334 48.8963 9.59548 44.6512C10.4941 42.699 11.1655 40.9431 11.9195 39.7966C12.25 39.8896 12.5392 39.9412 12.7458 39.9412C13.4481 39.9412 13.3242 40.2924 13.0143 40.4887C12.7044 40.6849 12.2293 41.1497 12.7458 42.2446C12.7458 42.2446 15.9787 53.9057 18.5815 66.5068C19.4698 70.7933 21.4529 72.4356 21.4529 72.4356C21.4529 72.4356 19.4388 73.9642 16.4125 74.6356Z" fill="#849324"/>
<path d="M30.0877 54.0607L30.4183 57.3556C30.4493 57.5725 30.346 57.7791 30.1601 57.8927C28.0736 59.1425 22.4754 62.0862 22.4754 62.0862C22.4754 62.0862 11.7438 44.2277 10.7419 44.3414C9.74006 44.455 9.2546 47.4193 9.24428 48.5245C9.1823 52.8213 10.711 55.9406 17.7862 63.4806C18.4059 64.1416 19.1186 64.7304 19.9036 65.2055C20.7918 65.7426 21.897 66.2177 22.775 65.9595C24.5205 65.4534 31.3995 59.2561 32.3188 58.6054C32.2981 58.6054 33.7338 54.288 30.0877 54.0607Z" fill="#FFA58D"/>
<path d="M30.8935 61.0225C30.8935 61.0225 29.0653 61.6628 29.024 62.6131C28.9827 63.5633 31.3066 64.3483 31.8437 63.6047C32.3808 62.861 30.8935 61.0225 30.8935 61.0225Z" fill="#FFA58D"/>
<path d="M53.6166 37.9584C53.6166 37.9584 54.4429 39.0532 54.8664 42.9472C55.0419 44.5481 54.7941 44.3312 54.7941 44.3312C54.7941 44.3312 56.9838 44.135 57.0354 43.6805C57.087 43.226 55.8683 39.7659 55.6204 36.6363L55.1865 35.686L53.6166 37.9584Z" fill="#F59481"/>
<path d="M49.1855 28.6003C49.1855 28.6003 48.101 34.1882 48.9893 36.6567C49.8776 39.1253 51.3029 41.7385 53.9058 39.807C54.7941 39.146 56.0542 37.607 56.5396 36.2746C56.5396 36.2746 58.3472 32.9074 57.6861 31.2238C57.0251 29.5402 54.7527 26.3796 52.5114 26.9064C50.2907 27.4331 49.9602 27.2989 49.1855 28.6003Z" fill="#FFA58D"/>
<path d="M48.7207 32.0916C48.7207 32.0916 47.7395 35.7376 47.0578 36.378C47.0578 36.378 48.7414 36.7498 48.917 36.4193C49.0926 36.0991 48.7207 32.0916 48.7207 32.0916ZM50.2287 38.4128C50.0841 38.4128 49.9912 38.4024 49.9705 38.4024C49.8672 38.3921 49.7949 38.2991 49.8053 38.2062C49.8156 38.1029 49.9085 38.0306 50.0015 38.0409C50.0222 38.0409 51.9433 38.1959 52.5734 36.9048C52.6147 36.8118 52.7283 36.7705 52.8213 36.8221C52.9142 36.8634 52.9555 36.9771 52.9039 37.07C52.3048 38.2785 50.8278 38.4128 50.2287 38.4128Z" fill="#FF888D"/>
<path d="M49.2475 32.5977C49.2578 32.8249 49.2578 33.0522 49.2372 33.2794C49.2165 33.4447 49.3921 33.5893 49.547 33.5893C49.7329 33.5893 49.8362 33.4447 49.8569 33.2794C49.8776 33.0522 49.8879 32.8249 49.8672 32.5977C49.8569 32.4324 49.7329 32.2878 49.5574 32.2878C49.4024 32.2878 49.2372 32.4324 49.2475 32.5977Z" fill="#671C54"/>
<path d="M51.1377 32.1226C51.086 32.1226 51.0344 32.102 50.9931 32.0607C50.3114 31.2447 49.4851 31.5855 49.4541 31.6062C49.3611 31.6475 49.2475 31.6062 49.2062 31.5132C49.1649 31.4203 49.2062 31.3067 49.2992 31.2653C49.3095 31.2653 50.4043 30.7902 51.272 31.8231C51.3339 31.9057 51.3236 32.0193 51.2513 32.0813C51.2203 32.1123 51.179 32.1226 51.1377 32.1226Z" fill="#FF6600"/>
<path d="M58.595 28.1253C58.595 28.1253 58.564 28.0737 58.5227 27.991C58.2852 27.5676 58.0063 26.5037 58.0063 26.5037C58.0063 26.5037 57.9237 27.1544 57.4589 26.6793C56.9941 26.2042 57.4589 25.5225 57.4589 25.5225C57.4485 25.5225 57.4485 25.5225 57.4382 25.5328C56.6842 25.7187 55.8992 25.729 55.1452 25.5741C55.0626 25.5534 54.98 25.5431 54.918 25.5328H54.9077C52.0776 25.1403 49.671 27.1544 47.5949 28.0427C46.531 28.4971 49.8569 29.468 50.7761 29.2718C51.5301 29.1065 52.2945 28.9826 53.0588 29.0033H53.1104C54.1227 29.0239 53.8645 32.2362 53.8541 32.8352C53.8438 33.4343 54.825 32.0812 55.8992 32.0296C56.9734 31.9779 55.2382 37.3902 55.6926 38.2269C56.1471 39.0738 58.3058 35.4071 59.0185 32.9282C59.5659 31.038 59.3594 29.4474 58.595 28.1253Z" fill="#0E0D0D"/>
<path d="M51.1274 34.7149C51.0757 34.7253 51.21 34.7149 51.21 34.7149C51.2616 34.7149 51.3133 34.715 51.3649 34.7253C51.3029 34.715 51.4579 34.7459 51.4475 34.7356C51.4992 34.7459 51.5405 34.7563 51.5921 34.7769C51.8091 34.8492 52.0776 34.6943 52.1292 34.4774C52.1809 34.2398 52.0569 34.0229 51.8297 33.9403C51.5198 33.8473 51.2203 33.837 50.9105 33.8783C50.6832 33.9093 50.5386 34.2088 50.6109 34.4154C50.6832 34.6633 50.8898 34.7563 51.1274 34.7149Z" fill="#FF988D"/>
<path d="M52.2223 67.4366C52.2223 67.4366 45.7152 90.728 45.2401 92.5355C44.7649 94.343 50.0326 96.9562 51.6232 94.1365C53.2139 91.3064 59.8449 73.1071 60.6506 70.9277C61.4562 68.7483 59.4731 67.1577 59.0703 66.476C58.6675 65.8046 52.2223 67.4366 52.2223 67.4366Z" fill="#B2AFAC"/>
<path d="M66.2176 109.692L70.0289 113.999L72.5388 112.697L68.4073 107.833L66.2176 109.692Z" fill="#EC8C74"/>
<path d="M71.0824 111.065C71.0824 111.065 73.4581 113.441 73.1379 113.988C72.8177 114.536 71.289 115.941 70.3801 115.558C69.4712 115.176 67.7049 112.429 68.6345 112.098C69.5641 111.768 71.0824 111.065 71.0824 111.065Z" fill="#241C31"/>
<path d="M51.6541 90.0979L45.6944 93.8163C45.6944 93.8163 62.9641 109.929 65.7219 111.757C65.7219 111.757 71.2271 110.063 70.8966 107.089C70.5661 104.114 51.6541 90.0979 51.6541 90.0979Z" fill="#B2AFAC"/>
<path d="M74.1295 113.802C74.4393 114.092 70.4421 117.934 66.6618 120.94C65.319 122.014 63.9866 122.954 62.9227 123.666C61.58 124.565 60.6711 125.102 60.6711 125.102C60.6711 125.102 59.6898 124.317 59.7415 123.284C59.8034 122.272 60.0926 121.167 61.7659 120.186C62.1068 119.989 62.5096 119.793 62.9744 119.607C65.5566 118.574 67.5294 116.571 68.2214 115.806C68.397 115.62 68.5003 115.372 68.5106 115.114L68.6242 113.286C68.6242 113.286 71.1031 113.214 71.7229 111.313C71.7332 111.324 73.5614 113.276 74.1295 113.802Z" fill="#FF6600"/>
<path d="M60.6711 125.102C60.6711 125.102 60.7227 125.866 61.2391 125.722C61.7556 125.577 75.0281 114.908 74.8731 113.968C74.7182 113.038 74.1294 113.802 74.1294 113.802C74.1294 113.802 70.7933 117.862 60.6711 125.102Z" fill="#0E0D0D"/>
<path d="M63.088 119.566C63.088 119.566 67.9632 118.895 68.8928 116.106C69.8327 113.317 69.6984 112.449 68.9961 112.625C68.2937 112.79 68.5726 112.821 67.5913 114.835C66.6101 116.839 66.5791 117.779 63.088 119.566Z" fill="#2E1C54"/>
<path d="M66.8167 118.771C66.3829 118.781 66.0317 118.822 65.6392 118.595C65.4946 118.512 65.288 118.399 65.1847 118.254C65.1228 118.203 65.1021 118.13 65.1331 118.048C65.0711 117.893 65.1228 117.81 65.2983 117.789C65.5153 117.686 65.5566 117.727 65.7425 117.841C65.9491 117.965 66.135 117.645 65.9284 117.521C65.6392 117.345 65.2983 117.201 64.9988 117.438C64.7819 117.614 64.6166 117.944 64.7199 118.223C64.8439 118.554 65.257 118.822 65.5566 118.977C65.98 119.184 66.3519 119.153 66.8063 119.143C67.0542 119.143 67.0542 118.771 66.8167 118.771Z" fill="#FF6600"/>
<path d="M67.8908 118.058C67.457 118.099 67.1368 118.223 66.7857 117.882C66.6411 117.738 66.4965 117.583 66.3519 117.428C66.2899 117.366 66.2279 117.304 66.1659 117.232C65.9387 117.004 66.0317 116.86 66.4551 116.777C66.6617 116.891 66.8476 116.57 66.6411 116.457C66.0213 116.126 65.4119 116.777 65.8044 117.366C66.0317 117.696 66.4035 118.068 66.7134 118.316C67.0852 118.595 67.4674 118.461 67.8908 118.419C68.1284 118.399 68.1284 118.037 67.8908 118.058ZM69.3265 116.519C68.8308 116.725 68.2833 116.416 67.8805 116.147C67.7359 116.054 67.5913 115.951 67.457 115.837C67.3537 115.765 67.2608 115.682 67.1782 115.6C66.9096 115.341 66.9819 115.135 67.4054 114.98C67.643 115.031 67.7359 114.67 67.5087 114.618C66.6514 114.432 66.4448 115.383 66.9716 115.909C67.581 116.519 68.6345 117.211 69.5228 116.839C69.7294 116.746 69.5434 116.426 69.3265 116.519ZM69.812 115.011C69.3575 114.98 68.934 114.877 68.5312 114.67C68.3453 114.577 68.1594 114.463 68.0045 114.329C67.7979 114.164 67.6429 113.823 68.0354 113.73C68.273 113.678 68.1697 113.317 67.9322 113.369C67.3021 113.513 67.1368 114.03 67.6223 114.494C68.211 115.052 69.0167 115.331 69.812 115.383C70.0496 115.403 70.0496 115.031 69.812 115.011Z" fill="#FF6600"/>
<path d="M70.1838 113.038C69.843 113.079 69.4815 113.11 69.151 113.028C69.0477 112.987 68.9547 112.956 68.8514 112.914C68.5312 112.408 68.5312 112.181 68.8514 112.243C69.0064 112.243 69.0064 112.253 68.8618 112.284C68.7895 112.305 68.7172 112.326 68.6449 112.336C68.4486 112.377 68.242 112.408 68.0458 112.408C67.9425 112.418 67.8495 112.408 67.7463 112.387C67.5087 112.387 67.488 112.367 67.6843 112.315C67.7772 112.233 67.8289 112.233 67.8495 112.336C67.8599 112.367 67.8805 112.398 67.8908 112.429C67.9425 112.48 67.9735 112.563 68.0148 112.615C68.3143 112.956 68.8101 113.049 69.12 113.389C69.6984 114.019 70.0702 115.073 69.4298 115.765C69.2646 115.941 69.5331 116.199 69.6881 116.023C70.2458 115.434 70.2561 114.732 69.9256 114.019C69.7604 113.648 69.5538 113.265 69.2439 112.987C68.8824 112.666 68.4486 112.594 68.1697 112.15C68.0458 111.954 68.0458 111.737 67.7876 111.644C67.5707 111.561 67.3744 111.664 67.2195 111.799C66.6927 112.243 66.9819 112.625 67.5603 112.728C68.0561 112.821 69.3162 112.821 69.5538 112.212C69.7397 111.726 69.2026 111.51 68.8308 111.685C68.3866 111.892 67.9425 112.449 68.2833 112.925C68.7068 113.524 69.6468 113.472 70.2768 113.389C70.5144 113.358 70.4111 112.997 70.1838 113.038Z" fill="#FF6600"/>
<path d="M65.1021 122.065L62.933 123.656C61.5903 124.555 60.6814 125.092 60.6814 125.092C60.6814 125.092 59.7001 124.307 59.7518 123.274C59.8138 122.262 60.103 121.157 61.7762 120.175C62.272 121.157 63.3359 122.582 65.1021 122.065Z" fill="#0E0D0D"/>
<path d="M51.1067 69.3888C51.1067 69.3888 51.8504 97.1629 51.871 99.0324C51.8917 100.902 57.6655 102.028 58.4505 98.8775C59.2354 95.7272 60.6505 76.557 61.0636 74.264C62.0036 69.1202 59.3077 65.2263 58.7397 64.6789C58.1819 64.1315 51.1067 69.3888 51.1067 69.3888Z" fill="#FF6600"/>
<path d="M53.72 119.597L54.1228 125.319L56.9012 125.825L56.581 119.442L53.72 119.597Z" fill="#EC8C74"/>
<path d="M56.7463 123.635C56.7463 123.635 57.1904 126.972 56.6017 127.209C56.013 127.447 53.9472 127.633 53.4514 126.775C52.9556 125.918 53.2345 122.664 54.1641 122.964C55.0937 123.264 56.7463 123.635 56.7463 123.635Z" fill="#241C31"/>
<path d="M58.6158 95.3862L51.7988 96.9975C51.7988 96.9975 49.8363 118.719 51.2101 121.384C51.2101 121.384 56.7773 122.634 58.0684 120.217C59.3801 117.81 58.6158 95.3862 58.6158 95.3862Z" fill="#B2AFAC"/>
<path d="M57.2421 128.738C57.304 129.161 51.7781 129.616 46.9443 129.575C45.2297 129.554 43.6081 129.451 42.3273 129.337C40.7263 129.192 39.6625 129.027 39.6625 129.027C39.6625 129.027 39.3939 127.798 40.0963 127.023C40.778 126.269 41.7076 125.608 43.6184 125.898C44.0109 125.96 44.4447 126.063 44.9198 126.207C47.5743 127.034 50.3734 126.724 51.3857 126.569C51.6439 126.528 51.8711 126.404 52.0467 126.218L53.2861 124.875C53.2861 124.875 55.2589 126.383 56.9322 125.298C56.9425 125.298 57.1284 127.974 57.2421 128.738Z" fill="#FF6600"/>
<path d="M39.6728 129.017C39.6728 129.017 39.239 129.647 39.7245 129.853C40.2099 130.07 57.2421 130.153 57.7172 129.327C58.1923 128.5 57.2524 128.728 57.2524 128.728C57.2524 128.728 52.088 129.781 39.6728 129.017Z" fill="#0E0D0D"/>
<path d="M45.0335 126.238C45.0335 126.238 49.2373 128.79 51.7162 127.22C54.1951 125.65 54.6496 124.896 53.9988 124.586C53.3481 124.276 53.5444 124.472 51.5199 125.412C49.4852 126.352 48.8758 127.054 45.0335 126.238Z" fill="#2E1C54"/>
<path d="M48.4523 127.994C48.1011 127.715 47.7809 127.498 47.6157 127.065C47.564 126.91 47.4814 126.683 47.4917 126.517C47.5124 126.3 47.688 126.156 47.8945 126.218C48.0805 126.269 48.1115 126.393 48.1838 126.579C48.2664 126.806 48.6279 126.703 48.5453 126.476C48.442 126.187 48.2974 125.867 47.9565 125.815C47.6673 125.763 47.2748 125.939 47.1715 126.218C47.0476 126.538 47.1922 127.003 47.3161 127.302C47.5021 127.757 47.8222 127.974 48.1941 128.263C48.3697 128.397 48.6382 128.139 48.4523 127.994Z" fill="#FF6600"/>
<path d="M49.6917 128.087C49.3199 127.839 49.01 127.726 48.9584 127.209C48.9377 127.054 48.9274 126.899 48.9171 126.744C48.9067 126.662 48.9067 126.59 48.8964 126.507C48.8344 126.238 48.9997 126.156 49.4129 126.238C49.5058 126.455 49.826 126.269 49.733 126.052C49.4128 125.35 48.5246 125.65 48.5246 126.362C48.5246 126.765 48.5246 127.313 48.6795 127.695C48.8241 128.067 49.1959 128.201 49.5161 128.407C49.7021 128.542 49.888 128.221 49.6917 128.087ZM51.8194 127.819C51.2927 127.643 51.0655 127.116 50.9105 126.631C50.8589 126.466 50.8072 126.29 50.7762 126.125C50.7659 126.063 50.7453 126.001 50.7349 125.949C50.5903 125.515 50.7762 125.34 51.2927 125.433C51.4476 125.619 51.7058 125.35 51.5509 125.174C51.0241 124.524 50.2805 125.123 50.3424 125.825C50.4044 126.703 50.8176 127.881 51.7265 128.19C51.9537 128.252 52.0467 127.891 51.8194 127.819ZM53.1415 126.972C52.8523 126.703 52.6148 126.404 52.4288 126.052C52.3359 125.877 52.2636 125.691 52.2119 125.495C52.1913 125.422 52.1706 125.34 52.15 125.257C52.026 124.978 52.1603 124.834 52.5425 124.823C52.7594 124.927 52.9453 124.606 52.7284 124.503C52.15 124.224 51.6852 124.472 51.7575 125.143C51.8504 125.939 52.3049 126.682 52.8833 127.22C53.0486 127.395 53.3171 127.127 53.1415 126.972Z" fill="#FF6600"/>
<path d="M54.6805 125.66C54.3397 125.453 53.9782 125.205 53.7716 124.844C53.7303 124.741 53.689 124.648 53.6477 124.544C53.7303 124.235 53.8852 124.09 54.1125 124.1C54.1848 124.08 54.2054 124.1 54.1848 124.183C54.2054 124.358 54.1021 124.338 53.8749 124.121C53.5857 123.966 53.1829 123.749 53.0279 123.439C52.8317 123.036 53.3068 123.284 53.3481 123.429C53.3688 123.481 53.2552 123.718 53.2448 123.77C53.1519 124.358 53.6167 124.854 53.596 125.443C53.565 126.28 53.2242 127.178 52.3049 127.312C52.0674 127.343 52.1707 127.705 52.4082 127.674C53.2035 127.56 53.6373 127.003 53.8336 126.259C53.9369 125.877 54.0092 125.453 53.9472 125.061C53.8749 124.565 53.565 124.224 53.6477 123.697C53.689 123.46 53.8026 123.284 53.6477 123.067C53.4927 122.84 53.1829 122.819 52.935 122.881C52.3153 123.026 52.5218 123.491 52.8627 123.852C53.2138 124.224 54.1228 124.947 54.6599 124.648C55.135 124.389 54.8458 123.863 54.4223 123.759C53.9472 123.646 53.2965 123.811 53.2448 124.369C53.1725 125.092 53.9369 125.67 54.474 125.99C54.7012 126.104 54.8871 125.784 54.6805 125.66Z" fill="#FF6600"/>
<path d="M45.0231 129.461L42.3273 129.327C40.7263 129.182 39.6625 129.017 39.6625 129.017C39.6625 129.017 39.3939 127.788 40.0963 127.013C40.778 126.259 41.7076 125.598 43.6184 125.887C43.4015 126.961 43.3189 128.748 45.0231 129.461Z" fill="#0E0D0D"/>
<path d="M61.9931 69.1512C61.9931 69.1512 58.8842 73.6132 48.7929 72.3118C48.7929 72.3118 48.8136 71.0517 48.8652 69.1409C48.8962 67.7775 48.9479 66.0732 49.0098 64.276C49.1338 60.9088 49.3197 57.1905 49.5882 54.6393C49.6502 54.0609 49.7122 53.4824 49.7845 52.904C50.1667 49.6195 50.6108 46.5518 50.8897 44.7546C51.0343 43.8147 51.7883 43.0814 52.7282 42.9677C54.0193 42.8025 55.8268 42.5339 56.994 42.1414C57.3452 42.0278 57.6447 41.8936 57.8409 41.7593C57.8409 41.7593 58.7705 44.641 59.1734 49.7331C59.2147 50.3012 59.287 50.9002 59.3593 51.5303C59.917 56.1473 61.2185 62.3755 61.6109 68.3146C61.6419 68.7071 61.8795 68.9653 61.9931 69.1512Z" fill="#0E0D0D"/>
<path d="M62.0035 69.1202C62.0035 69.1202 58.8015 73.6752 48.6897 72.6113C48.6897 72.6113 48.8756 71.3305 48.8756 69.4197C51.2512 70.0601 56.8804 71.1033 61.6006 68.3042C61.7452 68.6554 61.8795 68.9343 62.0035 69.1202Z" fill="#849324"/>
<path d="M59.3593 51.5509C58.9151 53.0176 58.1818 54.8251 56.932 56.7463C54.8972 59.8656 51.5611 63.1604 49.0202 64.2863C49.1441 60.9191 49.33 57.2007 49.5986 54.6495C49.6606 54.0711 49.7225 53.4927 49.7948 52.9143C51.0859 51.8607 52.532 50.5903 53.9986 48.4626C55.6926 45.994 56.4775 43.732 56.994 42.1517C57.3452 42.0381 57.6447 41.9038 57.841 41.7695C57.841 41.7695 58.7705 44.6513 59.1734 49.7433C59.2147 50.3218 59.287 50.9208 59.3593 51.5509Z" fill="#FF6600" fill-opacity="0.5"/>
<path d="M29.788 59.8037C29.695 59.7933 29.6124 59.783 29.5298 59.7727C29.1993 59.7314 28.8791 59.6384 28.5692 59.5041C28.2283 59.3492 27.8049 59.2046 27.2678 59.122C25.0781 58.7604 24.0762 58.5229 24.0762 58.5229C24.0659 59.1116 26.71 59.7727 26.71 59.7727C26.71 59.7727 22.6095 59.3595 21.1222 59.6177C20.6264 59.6074 20.2029 59.6074 19.9343 59.6074C18.54 59.6281 18.8705 61.8901 20.9466 62.3239C25.0368 63.1708 27.5467 62.4272 28.8068 61.7971C29.2406 61.7042 29.6744 61.6318 30.0772 61.6009C30.2528 61.5905 30.4284 61.6009 30.604 61.6215C32.4735 61.8797 44.2793 61.4149 44.2793 61.4149V56.7463C44.2689 56.7463 30.573 59.9276 29.788 59.8037Z" fill="#EC8C74"/>
<path d="M42.7816 60.9604C42.7816 60.9604 43.9798 61.9107 45.7666 61.0741C47.5535 60.2374 56.2607 51.9744 57.025 51.1068C57.7893 50.2392 56.8804 46.4485 56.0231 45.1161C56.0128 45.0954 56.0025 45.0851 55.9921 45.0645C55.4137 44.1865 54.1123 44.1968 53.5339 45.0748C51.5508 48.1011 43.5356 57.6036 42.1826 59.0393C41.8314 59.4215 42.7816 60.9604 42.7816 60.9604Z" fill="#EC8C74"/>
</svg>
