<svg width="100" height="100" viewBox="0 0 100 100" fill="none" xmlns="http://www.w3.org/2000/svg">
<g clip-path="url(#clip0_570_1896)">
<path d="M93.4582 31.3334H5.95817C3.65698 31.3334 1.7915 33.1989 1.7915 35.5V93.8334C1.7915 96.1346 3.65698 98 5.95817 98H93.4582C95.7594 98 97.6248 96.1346 97.6248 93.8334V35.5C97.6248 33.1989 95.7594 31.3334 93.4582 31.3334Z" fill="#FF6600"/>
<path d="M64.2917 39.6666H14.2917C11.9905 39.6666 10.125 41.5321 10.125 43.8333V85.5C10.125 87.8012 11.9905 89.6666 14.2917 89.6666H64.2917C66.5928 89.6666 68.4583 87.8012 68.4583 85.5V43.8333C68.4583 41.5321 66.5928 39.6666 64.2917 39.6666Z" fill="white"/>
<path d="M83.0415 52.1666C86.4933 52.1666 89.2915 49.3684 89.2915 45.9166C89.2915 42.4648 86.4933 39.6666 83.0415 39.6666C79.5897 39.6666 76.7915 42.4648 76.7915 45.9166C76.7915 49.3684 79.5897 52.1666 83.0415 52.1666Z" fill="white"/>
<path d="M64.2918 23.0416C66.502 23.0416 68.6216 23.9196 70.1844 25.4824C71.7472 27.0452 72.6252 29.1648 72.6252 31.375H55.9585C55.9585 29.1648 56.8365 27.0452 58.3993 25.4824C59.9621 23.9196 62.0817 23.0416 64.2918 23.0416Z" fill="white"/>
<path d="M89.2918 87.5H76.7918C76.2393 87.5 75.7094 87.7195 75.3187 88.1102C74.928 88.5009 74.7085 89.0308 74.7085 89.5833C74.7085 90.1358 74.928 90.6657 75.3187 91.0564C75.7094 91.4471 76.2393 91.6666 76.7918 91.6666H89.2918C89.8444 91.6666 90.3743 91.4471 90.765 91.0564C91.1557 90.6657 91.3752 90.1358 91.3752 89.5833C91.3752 89.0308 91.1557 88.5009 90.765 88.1102C90.3743 87.7195 89.8444 87.5 89.2918 87.5ZM64.2918 37.5H14.2918C12.6342 37.5 11.0445 38.1585 9.87241 39.3306C8.70031 40.5027 8.04183 42.0924 8.04183 43.75V85.4166C8.04183 87.0742 8.70031 88.6639 9.87241 89.8361C11.0445 91.0082 12.6342 91.6666 14.2918 91.6666H64.2918C65.9494 91.6666 67.5391 91.0082 68.7112 89.8361C69.8833 88.6639 70.5418 87.0742 70.5418 85.4166V43.75C70.5418 42.0924 69.8833 40.5027 68.7112 39.3306C67.5391 38.1585 65.9494 37.5 64.2918 37.5ZM66.3752 85.4166C66.3752 85.9692 66.1557 86.4991 65.765 86.8898C65.3743 87.2805 64.8444 87.5 64.2918 87.5H14.2918C13.7393 87.5 13.2094 87.2805 12.8187 86.8898C12.428 86.4991 12.2085 85.9692 12.2085 85.4166V43.75C12.2085 43.1974 12.428 42.6675 12.8187 42.2768C13.2094 41.8861 13.7393 41.6666 14.2918 41.6666H64.2918C64.8444 41.6666 65.3743 41.8861 65.765 42.2768C66.1557 42.6675 66.3752 43.1974 66.3752 43.75V85.4166ZM89.2918 79.1666H76.7918C76.2393 79.1666 75.7094 79.3861 75.3187 79.7768C74.928 80.1675 74.7085 80.6974 74.7085 81.25C74.7085 81.8025 74.928 82.3324 75.3187 82.7231C75.7094 83.1138 76.2393 83.3333 76.7918 83.3333H89.2918C89.8444 83.3333 90.3743 83.1138 90.765 82.7231C91.1557 82.3324 91.3752 81.8025 91.3752 81.25C91.3752 80.6974 91.1557 80.1675 90.765 79.7768C90.3743 79.3861 89.8444 79.1666 89.2918 79.1666ZM83.0418 37.5C81.3936 37.5 79.7825 37.9887 78.4121 38.9044C77.0417 39.8201 75.9736 41.1216 75.3428 42.6443C74.7121 44.167 74.5471 45.8426 74.8686 47.4591C75.1902 49.0756 75.9838 50.5604 77.1493 51.7259C78.3147 52.8913 79.7996 53.685 81.4161 54.0065C83.0326 54.3281 84.7081 54.163 86.2309 53.5323C87.7536 52.9016 89.0551 51.8335 89.9707 50.4631C90.8864 49.0927 91.3752 47.4815 91.3752 45.8333C91.3752 43.6232 90.4972 41.5036 88.9344 39.9408C87.3716 38.378 85.252 37.5 83.0418 37.5ZM83.0418 50C82.2177 50 81.4122 49.7556 80.727 49.2978C80.0417 48.8399 79.5077 48.1892 79.1923 47.4278C78.877 46.6665 78.7944 45.8287 78.9552 45.0204C79.116 44.2122 79.5128 43.4698 80.0955 42.887C80.6783 42.3043 81.4207 41.9075 82.2289 41.7467C83.0372 41.5859 83.875 41.6684 84.6363 41.9838C85.3977 42.2992 86.0484 42.8332 86.5063 43.5184C86.9641 44.2036 87.2085 45.0092 87.2085 45.8333C87.2085 46.9384 86.7695 47.9982 85.9881 48.7796C85.2067 49.561 84.1469 50 83.0418 50ZM93.4585 29.1666H74.5002C74.2064 27.6587 73.5801 26.2353 72.6668 25L82.7918 7.16664C82.9058 6.70863 82.8609 6.2255 82.6644 5.79636C82.4679 5.36722 82.1315 5.01751 81.7104 4.8045C81.2892 4.5915 80.8082 4.52781 80.3461 4.62388C79.884 4.71995 79.4682 4.97008 79.1668 5.33331L69.5002 22.375C67.9331 21.4348 66.1401 20.9382 64.3127 20.9382C62.4852 20.9382 60.6922 21.4348 59.1252 22.375L49.4585 5.33331C49.3332 5.07932 49.1575 4.85353 48.9421 4.66973C48.7266 4.48594 48.4759 4.348 48.2054 4.26435C47.9348 4.1807 47.6501 4.15308 47.3685 4.1832C47.0869 4.21331 46.8144 4.30052 46.5676 4.4395C46.3209 4.57847 46.1051 4.76629 45.9333 4.99149C45.7616 5.21669 45.6376 5.47453 45.5689 5.74927C45.5002 6.024 45.4882 6.30986 45.5337 6.58938C45.5792 6.8689 45.6812 7.13621 45.8335 7.37498L55.9585 25C55.0601 26.239 54.4481 27.6622 54.1668 29.1666H5.9585C4.30089 29.1666 2.71118 29.8251 1.53908 30.9972C0.366976 32.1693 -0.291504 33.759 -0.291504 35.4166V93.75C-0.291504 95.4076 0.366976 96.9973 1.53908 98.1694C2.71118 99.3415 4.30089 100 5.9585 100H93.4585C95.1161 100 96.7058 99.3415 97.8779 98.1694C99.05 96.9973 99.7085 95.4076 99.7085 93.75V35.4166C99.7085 33.759 99.05 32.1693 97.8779 30.9972C96.7058 29.8251 95.1161 29.1666 93.4585 29.1666ZM64.2918 25C65.5813 25.0036 66.8381 25.406 67.8899 26.1519C68.9417 26.8979 69.737 27.9509 70.1668 29.1666H58.3335C58.768 27.9374 59.576 26.8749 60.6444 26.1278C61.7128 25.3806 62.9882 24.9863 64.2918 25ZM95.5418 93.75C95.5418 94.3025 95.3223 94.8324 94.9316 95.2231C94.5409 95.6138 94.011 95.8333 93.4585 95.8333H5.9585C5.40596 95.8333 4.87606 95.6138 4.48536 95.2231C4.09466 94.8324 3.87516 94.3025 3.87516 93.75V35.4166C3.87516 34.8641 4.09466 34.3342 4.48536 33.9435C4.87606 33.5528 5.40596 33.3333 5.9585 33.3333H93.4585C94.011 33.3333 94.5409 33.5528 94.9316 33.9435C95.3223 34.3342 95.5418 34.8641 95.5418 35.4166V93.75ZM80.3752 61.875C80.7452 61.4789 80.9533 60.9586 80.9585 60.4166C80.9682 59.8595 80.7588 59.3208 80.3752 58.9166C79.9787 58.5323 79.4482 58.3173 78.896 58.3173C78.3438 58.3173 77.8133 58.5323 77.4168 58.9166C77.0332 59.3208 76.8237 59.8595 76.8335 60.4166C76.8387 60.9586 77.0468 61.4789 77.4168 61.875C77.8087 62.2568 78.3284 62.4795 78.8752 62.5C79.4192 62.5203 79.9521 62.3426 80.3752 62V61.875ZM89.2918 70.8333H76.7918C76.2393 70.8333 75.7094 71.0528 75.3187 71.4435C74.928 71.8342 74.7085 72.3641 74.7085 72.9166C74.7085 73.4692 74.928 73.9991 75.3187 74.3898C75.7094 74.7805 76.2393 75 76.7918 75H89.2918C89.8444 75 90.3743 74.7805 90.765 74.3898C91.1557 73.9991 91.3752 73.4692 91.3752 72.9166C91.3752 72.3641 91.1557 71.8342 90.765 71.4435C90.3743 71.0528 89.8444 70.8333 89.2918 70.8333ZM88.0002 62.5C88.2645 62.3961 88.5054 62.2402 88.7085 62.0416C89.0903 61.6497 89.313 61.1301 89.3335 60.5833C89.3321 60.0203 89.1073 59.4808 88.7085 59.0833C88.3072 58.7084 87.7785 58.4998 87.2293 58.4998C86.6801 58.4998 86.1515 58.7084 85.7502 59.0833C85.5497 59.274 85.3901 59.5035 85.2811 59.7577C85.172 60.012 85.1158 60.2858 85.1158 60.5625C85.1158 60.8391 85.172 61.1129 85.2811 61.3672C85.3901 61.6215 85.5497 61.8509 85.7502 62.0416C86.1476 62.4405 86.6871 62.6653 87.2502 62.6666C87.5073 62.6501 87.7602 62.5938 88.0002 62.5Z" fill="#FF6600"/>
</g>
<defs>
<clipPath id="clip0_570_1896">
<rect width="100" height="100" fill="white"/>
</clipPath>
</defs>
</svg>
