<svg width="30" height="29" viewBox="0 0 30 29" fill="none" xmlns="http://www.w3.org/2000/svg">
<g clip-path="url(#clip0_924_600)">
<path d="M23 0H7.09C3.5112 0 0.610001 2.90119 0.610001 6.48V22.39C0.610001 25.9688 3.5112 28.87 7.09 28.87H23C26.5788 28.87 29.48 25.9688 29.48 22.39V6.48C29.48 2.90119 26.5788 0 23 0Z" fill="#00C7FF"/>
<path fill-rule="evenodd" clip-rule="evenodd" d="M12.35 18.1099C11.668 18.093 11.008 17.8645 10.4616 17.456C9.91517 17.0475 9.50923 16.4792 9.3 15.8299C9.76437 15.9327 10.2456 15.9327 10.71 15.8299C10.2708 15.7267 9.85763 15.534 9.4963 15.2638C9.13496 14.9937 8.83324 14.6519 8.61 14.2599C8.28343 13.7355 8.11663 13.1274 8.13 12.5099C8.57825 12.7566 9.07857 12.8937 9.59 12.9099C8.90366 12.4375 8.42139 11.723 8.24 10.9099C8.05662 10.1016 8.18898 9.25378 8.61 8.53986C9.43374 9.55551 10.4605 10.3879 11.6246 10.9837C12.7887 11.5795 14.0644 11.9256 15.37 11.9999C15.37 11.8699 15.37 11.7599 15.32 11.6399C15.2301 10.9592 15.356 10.2675 15.68 9.66224C16.004 9.05695 16.5098 8.56859 17.126 8.26598C17.7423 7.96337 18.438 7.86177 19.115 7.97549C19.7921 8.08921 20.4164 8.41252 20.9 8.89986C20.921 8.92302 20.948 8.93994 20.978 8.94876C21.008 8.95758 21.0398 8.95796 21.07 8.94986C21.7407 8.80722 22.3851 8.56094 22.98 8.21986C22.741 8.95279 22.2573 9.58126 21.61 9.99986C22.2412 9.9297 22.8582 9.7645 23.44 9.50986L23.11 9.99986C22.7631 10.4257 22.3632 10.8055 21.92 11.1299C21.9035 11.1405 21.8901 11.1554 21.8813 11.173C21.8726 11.1906 21.8686 11.2102 21.87 11.2299C21.8892 11.7173 21.8691 12.2056 21.81 12.6899C21.6826 13.702 21.3957 14.6875 20.96 15.6099C20.5186 16.5659 19.9203 17.4413 19.19 18.1999C17.9725 19.47 16.4011 20.3445 14.68 20.7099C14.0783 20.8406 13.4656 20.9142 12.85 20.9299C11.0018 20.993 9.17692 20.502 7.61 19.5199L7.53 19.4699C8.63889 19.5895 9.76005 19.4278 10.79 18.9999C11.3485 18.7765 11.8735 18.477 12.35 18.1099Z" fill="white"/>
</g>
<defs>
<clipPath id="clip0_924_600">
<rect width="28.87" height="28.87" fill="white" transform="translate(0.610001)"/>
</clipPath>
</defs>
</svg>
