<svg width="38" height="38" viewBox="0 0 38 38" fill="none" xmlns="http://www.w3.org/2000/svg">
<path d="M32.1123 2.41269H6.2065C4.2562 2.41269 2.67389 3.995 2.67389 5.9453V31.8511C2.67389 33.8014 4.2562 35.3837 6.2065 35.3837H32.1123C34.0626 35.3837 35.6449 33.8014 35.6449 31.8511V5.9453C35.6449 3.995 34.0626 2.41269 32.1123 2.41269ZM28.5135 14.0997C28.5282 14.3058 28.5282 14.5192 28.5282 14.7253C28.5282 21.1061 23.6708 28.4583 14.7952 28.4583C12.0574 28.4583 9.51832 27.6635 7.38403 26.2946C7.77409 26.3388 8.14943 26.3535 8.54685 26.3535C10.8062 26.3535 12.8817 25.5881 14.5376 24.2928C12.418 24.2486 10.637 22.8577 10.0261 20.9442C10.7695 21.0546 11.4392 21.0546 12.2046 20.8559C9.99669 20.4069 8.34078 18.464 8.34078 16.1163V16.0574C8.98107 16.418 9.73175 16.6388 10.5192 16.6682C9.85718 16.2279 9.31444 15.6304 8.93946 14.9293C8.56448 14.2281 8.36892 13.445 8.37022 12.6499C8.37022 11.752 8.60573 10.9277 9.02523 10.2139C11.4024 13.143 14.9718 15.0565 18.9754 15.2626C18.291 11.9875 20.7417 9.33071 23.6856 9.33071C25.0765 9.33071 26.3276 9.91212 27.2108 10.8542C28.3 10.6481 29.3451 10.2433 30.2724 9.69133C29.9118 10.81 29.1537 11.752 28.1528 12.3482C29.1243 12.2451 30.0663 11.9728 30.9348 11.5975C30.2798 12.5616 29.4555 13.4153 28.5135 14.0997Z" fill="#F7F3F0"/>
</svg>
