<svg width="100" height="100" viewBox="0 0 100 100" fill="none" xmlns="http://www.w3.org/2000/svg">
<path d="M91.8183 11.7462L82.9805 69.1956C82.8582 69.8696 82.5195 70.4853 82.0155 70.9492C81.5116 71.4132 80.8701 71.7001 80.1883 71.7664C79.5066 71.8327 78.8218 71.6747 78.2379 71.3165C77.6541 70.9582 77.2031 70.4193 76.9533 69.7815L64.5627 35.4374L30.2189 23.0468C29.5811 22.7971 29.0422 22.346 28.684 21.7622C28.3257 21.1783 28.1678 20.4936 28.234 19.8118C28.3003 19.13 28.5872 18.4885 29.0512 17.9846C29.5152 17.4807 30.1309 17.1419 30.8049 17.0196L88.2539 8.18182C88.7373 8.11685 89.2292 8.16428 89.6912 8.32044C90.1533 8.47659 90.5731 8.73725 90.918 9.08213C91.2629 9.42701 91.5235 9.84681 91.6797 10.3089C91.8358 10.7709 91.8833 11.2628 91.8183 11.7462ZM60.7974 41.4093C60.6413 41.0074 60.4038 40.6421 60.0997 40.3364C59.7956 40.0307 59.4316 39.7912 59.0305 39.6331L23.8833 25.7478C23.317 25.5231 22.6972 25.4692 22.1006 25.5929C21.504 25.7166 20.9568 26.0124 20.5264 26.4437L9.0608 37.909C8.70189 38.278 8.43878 38.7293 8.29445 39.2235C8.15012 39.7176 8.12895 40.2396 8.2328 40.7438C8.33665 41.248 8.56235 41.7191 8.8902 42.1159C9.21805 42.5128 9.63808 42.8234 10.1136 43.0206L44.2017 56.6099L56.9642 89.8496C57.158 90.3296 57.4666 90.7546 57.8631 91.0873C58.2595 91.4201 58.7316 91.6504 59.2379 91.7579C59.7442 91.8655 60.2691 91.8471 60.7666 91.7043C61.2641 91.5615 61.7189 91.2987 62.0911 90.939L73.5564 79.4737C73.9846 79.0452 74.2792 78.5016 74.4044 77.9089C74.5295 77.3162 74.4799 76.7 74.2614 76.1349L60.7974 41.4093Z" fill="#FF6600"/>
</svg>
