<svg width="59" height="59" viewBox="0 0 59 59" fill="none" xmlns="http://www.w3.org/2000/svg">
<path d="M24.2884 34.7117L23.9196 34.4167L23.4771 34.1709L23.0346 34.048C22.6397 33.9689 22.2313 33.988 21.8456 34.1038C21.4598 34.2195 21.1083 34.4283 20.8221 34.7117C20.5789 34.9344 20.3934 35.2128 20.2813 35.5229C20.1512 35.8172 20.084 36.1354 20.084 36.4571C20.084 36.7788 20.1512 37.097 20.2813 37.3913C20.5454 37.982 21.0181 38.4546 21.6088 38.7188C21.9043 38.8447 22.2217 38.9116 22.5429 38.9155C22.8719 38.9093 23.1969 38.8426 23.5017 38.7188C23.8013 38.6001 24.0702 38.4152 24.2884 38.1779C24.5183 37.9536 24.7021 37.6863 24.8292 37.3913C24.9467 37.094 25.0052 36.7767 25.0013 36.4571C25.0096 36.1346 24.9422 35.8147 24.8046 35.5229C24.692 35.219 24.516 34.9425 24.2884 34.7117ZM8.62878 21.535C8.95404 21.5337 9.27579 21.4678 9.5754 21.3412C9.87501 21.2146 10.1465 21.0298 10.3742 20.7975L20.7975 10.3742C21.2554 9.9136 21.5124 9.29053 21.5124 8.64108C21.5124 7.99162 21.2554 7.36855 20.7975 6.90795C20.3369 6.45008 19.7139 6.19308 19.0644 6.19308C18.415 6.19308 17.7919 6.45008 17.3313 6.90795L6.90795 17.3313C6.45008 17.7919 6.19308 18.415 6.19308 19.0644C6.19308 19.7139 6.45008 20.3369 6.90795 20.7975C7.36183 21.2607 7.98035 21.5258 8.62878 21.535ZM52.0921 38.2025C51.6315 37.7447 51.0084 37.4877 50.359 37.4877C49.7095 37.4877 49.0865 37.7447 48.6259 38.2025L38.2025 48.6259C37.8573 48.9682 37.6214 49.4053 37.5246 49.8817C37.4278 50.3582 37.4744 50.8527 37.6586 51.3026C37.8428 51.7526 38.1563 52.1378 38.5594 52.4096C38.9625 52.6814 39.4372 52.8276 39.9234 52.8296C40.2486 52.8283 40.5704 52.7624 40.87 52.6358C41.1696 52.5092 41.4411 52.3244 41.6688 52.0921L52.0921 41.7917C52.3377 41.5617 52.5335 41.2838 52.6674 40.9751C52.8012 40.6665 52.8703 40.3336 52.8703 39.9971C52.8703 39.6607 52.8012 39.3278 52.6674 39.0191C52.5335 38.7104 52.3377 38.4325 52.0921 38.2025ZM52.51 24.2884C52.5148 22.3366 51.7457 20.4625 50.3713 19.0767L39.9234 8.62878C38.5165 7.29389 36.6511 6.54972 34.7117 6.54972C32.7723 6.54972 30.9069 7.29389 29.5 8.62878L8.62878 29.5C7.24769 30.8828 6.47194 32.7573 6.47194 34.7117C6.47194 36.6661 7.24769 38.5406 8.62878 39.9234L19.0767 50.3713C20.4595 51.7524 22.334 52.5281 24.2884 52.5281C26.2427 52.5281 28.1172 51.7524 29.5 50.3713L50.3713 29.5C51.7457 28.1143 52.5148 26.2402 52.51 24.2884ZM46.8804 26.0338L26.0338 46.8804C25.8053 47.1109 25.5334 47.2938 25.2338 47.4186C24.9342 47.5434 24.6129 47.6076 24.2884 47.6076C23.9638 47.6076 23.6425 47.5434 23.3429 47.4186C23.0434 47.2938 22.7715 47.1109 22.5429 46.8804L12.1196 36.4571C11.8892 36.2286 11.7063 35.9567 11.5815 35.6571C11.4567 35.3575 11.3924 35.0362 11.3924 34.7117C11.3924 34.3872 11.4567 34.0659 11.5815 33.7663C11.7063 33.4667 11.8892 33.1948 12.1196 32.9663L32.9663 12.1196C33.1948 11.8892 33.4667 11.7063 33.7663 11.5815C34.0659 11.4567 34.3872 11.3924 34.7117 11.3924C35.0362 11.3924 35.3575 11.4567 35.6571 11.5815C35.9567 11.7063 36.2286 11.8892 36.4571 12.1196L46.8804 22.5429C47.1109 22.7715 47.2938 23.0434 47.4186 23.3429C47.5434 23.6425 47.6076 23.9638 47.6076 24.2884C47.6076 24.6129 47.5434 24.9342 47.4186 25.2338C47.2938 25.5334 47.1109 25.8053 46.8804 26.0338Z" fill="#FF6600"/>
</svg>
